<?xml version="1.0" standalone="no"?><!DOCTYPE svg PUBLIC "-//W3C//DTD SVG 1.1//EN" "http://www.w3.org/Graphics/SVG/1.1/DTD/svg11.dtd"><svg height="3010" node-id="1" sillyvg="true" template-height="3010" template-width="4021" version="1.1" viewBox="0 0 4021 3010" width="4021" xmlns="http://www.w3.org/2000/svg" xmlns:xlink="http://www.w3.org/1999/xlink"><defs node-id="97"><linearGradient gradientUnits="userSpaceOnUse" id="paint0_linear_91_433" node-id="41" spreadMethod="pad" x1="404.332" x2="404.332" y1="759.469" y2="438.424"><stop offset="0" stop-color="#ffffff" stop-opacity="0.1"></stop><stop offset="1" stop-color="#d9e9ff"></stop></linearGradient><linearGradient gradientUnits="userSpaceOnUse" id="paint1_linear_91_433" node-id="44" spreadMethod="pad" x1="2847.24" x2="2847.24" y1="919.782" y2="644.018"><stop offset="0" stop-color="#ffffff" stop-opacity="0.1"></stop><stop offset="0.14" stop-color="#f8fbff" stop-opacity="0.27"></stop><stop offset="0.37" stop-color="#edf5ff" stop-opacity="0.52"></stop><stop offset="0.58" stop-color="#e4f0ff" stop-opacity="0.73"></stop><stop offset="0.76" stop-color="#deecff" stop-opacity="0.88"></stop><stop offset="0.91" stop-color="#daeaff" stop-opacity="0.97"></stop><stop offset="1" stop-color="#d9e9ff"></stop></linearGradient><linearGradient gradientUnits="userSpaceOnUse" id="paint2_linear_91_433" node-id="52" spreadMethod="pad" x1="3353.86" x2="3353.86" y1="607.017" y2="-0.492787"><stop offset="0" stop-color="#ffffff" stop-opacity="0.1"></stop><stop offset="0.09" stop-color="#fefeff" stop-opacity="0.13"></stop><stop offset="0.23" stop-color="#fbfcff" stop-opacity="0.21"></stop><stop offset="0.4" stop-color="#f5f9ff" stop-opacity="0.33"></stop><stop offset="0.59" stop-color="#eef5ff" stop-opacity="0.51"></stop><stop offset="0.79" stop-color="#e4efff" stop-opacity="0.74"></stop><stop offset="1" stop-color="#d9e9ff"></stop></linearGradient><linearGradient gradientUnits="userSpaceOnUse" id="paint3_linear_91_433" node-id="60" spreadMethod="pad" x1="1908" x2="1908" y1="2659.63" y2="1452.22"><stop offset="0" stop-color="#ffffff" stop-opacity="0.1"></stop><stop offset="0.13" stop-color="#fbfdff" stop-opacity="0.19"></stop><stop offset="0.41" stop-color="#f1f7ff" stop-opacity="0.43"></stop><stop offset="0.81" stop-color="#e1eeff" stop-opacity="0.82"></stop><stop offset="1" stop-color="#d9e9ff"></stop></linearGradient><linearGradient gradientUnits="userSpaceOnUse" id="paint4_linear_91_433" node-id="66" spreadMethod="pad" x1="2149.23" x2="2087.73" y1="2393.36" y2="2110.83"><stop offset="0" stop-color="#ffffff" stop-opacity="0"></stop><stop offset="1" stop-color="#c1ddfd"></stop></linearGradient><linearGradient gradientUnits="userSpaceOnUse" id="paint5_linear_91_433" node-id="69" spreadMethod="pad" x1="1466.58" x2="2084.76" y1="211.085" y2="1977.54"><stop offset="0" stop-color="#e6f3ff"></stop><stop offset="1" stop-color="#97cafe"></stop></linearGradient><linearGradient gradientUnits="userSpaceOnUse" id="paint6_linear_91_433" node-id="72" spreadMethod="pad" x1="1614.56" x2="1614.56" y1="745.215" y2="340"><stop offset="0" stop-color="#3497fc"></stop><stop offset="1" stop-color="#eef6ff"></stop></linearGradient><linearGradient gradientUnits="userSpaceOnUse" id="paint7_linear_91_433" node-id="75" spreadMethod="pad" x1="2439.56" x2="2439.56" y1="745.215" y2="340"><stop offset="0" stop-color="#3497fc"></stop><stop offset="1" stop-color="#eef6ff"></stop></linearGradient><linearGradient gradientUnits="userSpaceOnUse" id="paint8_linear_91_433" node-id="78" spreadMethod="pad" x1="2579.49" x2="1452.17" y1="1715.55" y2="968.307"><stop offset="0" stop-color="#3497fc"></stop><stop offset="1" stop-color="#c0ddfc"></stop></linearGradient><linearGradient gradientUnits="userSpaceOnUse" id="paint9_linear_91_433" node-id="81" spreadMethod="pad" x1="2719.5" x2="2388.63" y1="2056" y2="1536.26"><stop offset="0" stop-color="#3497fc"></stop><stop offset="1" stop-color="#c0ddfc"></stop></linearGradient><linearGradient gradientUnits="userSpaceOnUse" id="paint10_linear_91_433" node-id="84" spreadMethod="pad" x1="2721.25" x2="2393.25" y1="1772.07" y2="1772.07"><stop offset="0" stop-color="#eaf0fc"></stop><stop offset="1" stop-color="#cfdffa"></stop></linearGradient><linearGradient gradientUnits="userSpaceOnUse" id="paint11_linear_91_433" node-id="87" spreadMethod="pad" x1="1118.5" x2="1118.5" y1="1016.37" y2="1066"><stop offset="0" stop-color="#ffcda5"></stop><stop offset="1" stop-color="#ffe8d1"></stop></linearGradient><linearGradient gradientUnits="userSpaceOnUse" id="paint12_linear_91_433" node-id="90" spreadMethod="pad" x1="1048.16" x2="990.78" y1="1811.36" y2="1873.22"><stop offset="0" stop-color="#003a8c"></stop><stop offset="1" stop-color="#5792f0"></stop></linearGradient><linearGradient gradientUnits="userSpaceOnUse" id="paint13_linear_91_433" node-id="93" spreadMethod="pad" x1="1159.12" x2="1101.69" y1="1811.36" y2="1872.54"><stop offset="0" stop-color="#003a8c"></stop><stop offset="1" stop-color="#5792f0"></stop></linearGradient></defs><path d="M 750.42 1504.39 L 767.67 1683.27 L 659.60 1671.38 L 750.42 1504.39 Z" fill="#e4efff" fill-rule="nonzero" node-id="210" stroke="none" target-height="178.88" target-width="108.07001" target-x="659.6" target-y="1504.39"></path><path d="M 745.31 1504.39 L 857.11 1645.59 L 762.27 1683.27 L 745.31 1504.39 Z" fill="#f3f8ff" fill-rule="nonzero" node-id="212" stroke="none" target-height="178.88" target-width="111.79999" target-x="745.31" target-y="1504.39"></path><path d="M 373.92 1549.11 L 395.02 1776.43 L 264.59 1761.27 L 373.92 1549.11 Z" fill="#e4efff" fill-rule="nonzero" node-id="214" stroke="none" target-height="227.32007" target-width="130.43" target-x="264.59" target-y="1549.11"></path><path d="M 376.38 1549.11 L 514.27 1728.77 L 397.51 1776.43 L 376.38 1549.11 Z" fill="#f3f8ff" fill-rule="nonzero" node-id="216" stroke="none" target-height="227.32007" target-width="137.89001" target-x="376.38" target-y="1549.11"></path><path d="M 553.32 1392.60 L 588.80 1768.98 L 350.30 1745.54 L 553.32 1392.60 Z" fill="#e4efff" fill-rule="nonzero" node-id="218" stroke="none" target-height="376.38" target-width="238.5" target-x="350.3" target-y="1392.6"></path><path d="M 547.80 1392.60 L 797.48 1688.37 L 583.32 1768.98 L 547.80 1392.60 Z" fill="#f3f8ff" fill-rule="nonzero" node-id="220" stroke="none" target-height="376.38" target-width="249.68" target-x="547.8" target-y="1392.6"></path><path d="M 623.19 565.41 C 609.26 490.81 544.12 437.26 468.99 438.63 C 428.78 438.45 389.99 453.50 360.28 480.89 C 343.66 473.29 325.63 469.38 307.37 469.38 C 249.53 468.45 198.89 508.40 185.81 565.30 C 141.35 575.21 109.30 614.42 108.07 660.37 C 109.78 716.30 155.84 760.35 211.22 759.04 L 597.44 759.04 C 652.86 760.42 698.95 716.34 700.59 660.37 C 699.40 614.53 667.50 575.40 623.19 565.41 Z" fill="url(#paint0_linear_91_433)" fill-rule="nonzero" node-id="222" stroke="none" target-height="323.15997" target-width="592.52" target-x="108.07" target-y="437.26"></path><path d="M 3035.74 748.73 C 3015.69 717.24 2981.74 697.72 2944.81 696.38 C 2923.31 663.10 2886.45 643.35 2847.21 644.02 C 2815.80 643.72 2785.54 656.24 2763.29 678.82 C 2753.12 675.54 2742.50 673.83 2731.84 673.83 C 2682.42 673.83 2641.62 708.49 2637.41 752.35 C 2599.73 761.44 2572.60 794.79 2571.00 834.03 C 2571.00 881.29 2613.71 919.78 2665.43 919.78 L 3028.10 919.78 C 3080.57 919.78 3122.53 881.29 3122.53 834.03 C 3123.35 789.13 3084.56 752.24 3035.74 748.73 Z" fill="url(#paint1_linear_91_433)" fill-rule="nonzero" node-id="224" stroke="none" target-height="276.43005" target-width="552.3501" target-x="2571" target-y="643.35"></path><path d="M 3710.15 192.82 C 3674.75 119.89 3600.85 73.45 3519.69 73.19 C 3474.48 73.31 3430.51 87.95 3394.29 114.97 C 3351.21 30.97 3257.60 -14.27 3164.96 4.03 C 3072.28 22.36 3003.00 99.84 2995.17 193.86 C 2895.49 225.31 2833.63 324.62 2849.47 427.85 C 2865.34 531.08 2954.14 607.32 3058.67 607.43 L 3648.40 607.43 C 3753.53 607.62 3842.93 530.74 3858.32 426.88 C 3873.75 322.99 3810.51 223.52 3709.85 193.23 L 3710.15 192.82 Z" fill="url(#paint2_linear_91_433)" fill-rule="nonzero" node-id="226" stroke="none" target-height="621.89" target-width="1040.1201" target-x="2833.63" target-y="-14.27"></path><path d="M 3816.00 2055.93 C 3816.00 2216.06 3614.99 2369.59 3257.16 2482.80 C 2899.34 2596.02 2414.03 2659.63 1908.00 2659.63 C 1401.97 2659.63 916.66 2596.02 558.84 2482.80 C 201.01 2369.59 0.00 2216.06 0.00 2055.93 C 0.00 1895.80 201.01 1742.26 558.84 1629.05 C 916.66 1515.84 1401.97 1452.22 1908.00 1452.22 C 2414.03 1452.22 2899.34 1515.84 3257.16 1629.05 C 3614.99 1742.26 3816.00 1895.80 3816.00 2055.93 Z" fill="url(#paint3_linear_91_433)" fill-rule="nonzero" node-id="228" stroke="none" target-height="1207.4099" target-width="3816" target-x="0" target-y="1452.22"></path><path d="M 3376.27 1549.11 L 3358.12 1787.61 L 3223.48 1748.56 L 3376.27 1549.11 Z" fill="#e4efff" fill-rule="nonzero" node-id="230" stroke="none" target-height="238.5" target-width="152.79004" target-x="3223.48" target-y="1549.11"></path><path d="M 3371.98 1549.11 L 3484.34 1759.25 L 3353.91 1787.61 L 3371.98 1549.11 Z" fill="#f3f8ff" fill-rule="nonzero" node-id="232" stroke="none" target-height="238.5" target-width="130.43018" target-x="3353.91" target-y="1549.11"></path><path d="M 976.00 1783.00 L 2156.15 3010.00 L 4021.00 2288.00 L 2412.00 1783.00 L 976.00 1783.00 Z" fill="url(#paint4_linear_91_433)" fill-opacity="0.385356" fill-rule="nonzero" node-id="234" stroke="none" target-height="1227" target-width="3045" target-x="976" target-y="1783"></path><path d="M 1035.00 328.00 L 2407.00 328.00 C 2473.27 328.00 2527.00 381.73 2527.00 448.00 L 2527.00 1663.00 C 2527.00 1729.27 2473.27 1783.00 2407.00 1783.00 L 1035.00 1783.00 C 968.73 1783.00 915.00 1729.27 915.00 1663.00 L 915.00 448.00 C 915.00 381.73 968.73 328.00 1035.00 328.00 Z" fill="url(#paint5_linear_91_433)" fill-opacity="0.7" fill-rule="nonzero" node-id="236" stroke="none" target-height="1455" target-width="1612" target-x="915" target-y="328"></path><path d="M 1614.50 340.00 L 1614.50 340.00 C 1651.23 340.00 1681.00 369.77 1681.00 406.50 L 1681.00 568.50 C 1681.00 605.23 1651.23 635.00 1614.50 635.00 L 1614.50 635.00 C 1577.77 635.00 1548.00 605.23 1548.00 568.50 L 1548.00 406.50 C 1548.00 369.77 1577.77 340.00 1614.50 340.00 Z" fill="url(#paint6_linear_91_433)" fill-rule="nonzero" node-id="238" stroke="none" target-height="295" target-width="133" target-x="1548" target-y="340"></path><path d="M 2439.50 340.00 L 2439.50 340.00 C 2476.23 340.00 2506.00 369.77 2506.00 406.50 L 2506.00 568.50 C 2506.00 605.23 2476.23 635.00 2439.50 635.00 L 2439.50 635.00 C 2402.77 635.00 2373.00 605.23 2373.00 568.50 L 2373.00 406.50 C 2373.00 369.77 2402.77 340.00 2439.50 340.00 Z" fill="url(#paint7_linear_91_433)" fill-rule="nonzero" node-id="240" stroke="none" target-height="295" target-width="133" target-x="2373" target-y="340"></path><path d="M 1514.00 506.00 C 1514.00 494.95 1505.05 486.00 1494.00 486.00 L 1362.00 486.00 C 1288.55 486.00 1229.00 545.55 1229.00 619.00 L 1229.00 1807.00 C 1229.00 1880.45 1288.55 1940.00 1362.00 1940.00 L 2275.06 1940.00 C 2290.47 1940.00 2300.25 1923.19 2293.89 1909.15 C 2274.05 1865.35 2263.00 1816.72 2263.00 1765.50 C 2263.00 1573.03 2419.03 1417.00 2611.50 1417.00 C 2650.65 1417.00 2688.29 1423.45 2723.42 1435.36 C 2737.10 1440.00 2752.00 1430.25 2752.00 1415.80 L 2752.00 619.00 C 2752.00 545.55 2692.45 486.00 2619.00 486.00 L 2559.00 486.00 C 2547.95 486.00 2539.00 494.95 2539.00 506.00 L 2539.00 563.00 C 2539.00 618.23 2494.23 663.00 2439.00 663.00 C 2383.77 663.00 2339.00 618.23 2339.00 563.00 L 2339.00 506.00 C 2339.00 494.95 2330.05 486.00 2319.00 486.00 L 1734.00 486.00 C 1722.95 486.00 1714.00 494.95 1714.00 506.00 L 1714.00 563.00 C 1714.00 618.23 1669.23 663.00 1614.00 663.00 C 1558.77 663.00 1514.00 618.23 1514.00 563.00 L 1514.00 506.00 Z" fill="url(#paint8_linear_91_433)" fill-rule="nonzero" node-id="242" stroke="none" target-height="1454" target-width="1523" target-x="1229" target-y="486"></path><path d="M 1465.00 918.00 L 1602.00 918.00 C 1613.05 918.00 1622.00 926.95 1622.00 938.00 L 1622.00 1003.00 C 1622.00 1014.05 1613.05 1023.00 1602.00 1023.00 L 1465.00 1023.00 C 1453.95 1023.00 1445.00 1014.05 1445.00 1003.00 L 1445.00 938.00 C 1445.00 926.95 1453.95 918.00 1465.00 918.00 Z" fill="#ffffff" fill-rule="nonzero" node-id="244" stroke="none" target-height="105" target-width="177" target-x="1445" target-y="918"></path><path d="M 1464.00 1136.00 L 2211.00 1136.00 C 2222.05 1136.00 2231.00 1144.95 2231.00 1156.00 L 2231.00 1221.00 C 2231.00 1232.05 2222.05 1241.00 2211.00 1241.00 L 1464.00 1241.00 C 1452.95 1241.00 1444.00 1232.05 1444.00 1221.00 L 1444.00 1156.00 C 1444.00 1144.95 1452.95 1136.00 1464.00 1136.00 Z" fill="#ffffff" fill-rule="nonzero" node-id="246" stroke="none" target-height="105" target-width="787" target-x="1444" target-y="1136"></path><path d="M 1464.00 1364.00 L 2211.00 1364.00 C 2222.05 1364.00 2231.00 1372.95 2231.00 1384.00 L 2231.00 1449.00 C 2231.00 1460.05 2222.05 1469.00 2211.00 1469.00 L 1464.00 1469.00 C 1452.95 1469.00 1444.00 1460.05 1444.00 1449.00 L 1444.00 1384.00 C 1444.00 1372.95 1452.95 1364.00 1464.00 1364.00 Z" fill="#ffffff" fill-rule="nonzero" node-id="248" stroke="none" target-height="105" target-width="787" target-x="1444" target-y="1364"></path><path d="M 1717.00 918.00 L 1854.00 918.00 C 1865.05 918.00 1874.00 926.95 1874.00 938.00 L 1874.00 1003.00 C 1874.00 1014.05 1865.05 1023.00 1854.00 1023.00 L 1717.00 1023.00 C 1705.95 1023.00 1697.00 1014.05 1697.00 1003.00 L 1697.00 938.00 C 1697.00 926.95 1705.95 918.00 1717.00 918.00 Z" fill="#ffffff" fill-rule="nonzero" node-id="250" stroke="none" target-height="105" target-width="177" target-x="1697" target-y="918"></path><path d="M 1969.00 918.00 L 2106.00 918.00 C 2117.05 918.00 2126.00 926.95 2126.00 938.00 L 2126.00 1003.00 C 2126.00 1014.05 2117.05 1023.00 2106.00 1023.00 L 1969.00 1023.00 C 1957.95 1023.00 1949.00 1014.05 1949.00 1003.00 L 1949.00 938.00 C 1949.00 926.95 1957.95 918.00 1969.00 918.00 Z" fill="#ffffff" fill-rule="nonzero" node-id="252" stroke="none" target-height="105" target-width="177" target-x="1949" target-y="918"></path><path d="M 2900.00 1771.50 C 2900.00 1928.63 2772.63 2056.00 2615.50 2056.00 C 2458.37 2056.00 2331.00 1928.63 2331.00 1771.50 C 2331.00 1614.37 2458.37 1487.00 2615.50 1487.00 C 2772.63 1487.00 2900.00 1614.37 2900.00 1771.50 Z" fill="url(#paint9_linear_91_433)" fill-rule="nonzero" node-id="254" stroke="none" target-height="569" target-width="569" target-x="2331" target-y="1487"></path><path d="M 2473.98 1622.57 C 2457.98 1637.79 2457.34 1663.11 2472.57 1679.12 L 2559.47 1770.49 L 2467.98 1857.50 C 2451.98 1872.72 2451.34 1898.04 2466.57 1914.05 C 2481.79 1930.06 2507.11 1930.69 2523.12 1915.47 L 2614.60 1828.46 L 2701.37 1919.69 C 2716.59 1935.70 2741.91 1936.33 2757.92 1921.11 C 2773.93 1905.88 2774.56 1880.56 2759.34 1864.55 L 2672.57 1773.33 L 2763.69 1686.67 C 2779.70 1671.44 2780.33 1646.12 2765.11 1630.12 C 2749.88 1614.11 2724.56 1613.47 2708.55 1628.70 L 2617.44 1715.36 L 2530.54 1623.98 C 2515.31 1607.98 2489.99 1607.34 2473.98 1622.57 Z" fill="url(#paint10_linear_91_433)" fill-rule="nonzero" node-id="256" stroke="none" target-height="328.99" target-width="328.99" target-x="2451.34" target-y="1607.34"></path><path d="M 1285.64 1862.09 L 1284.61 1868.77 L 1281.70 1875.40 L 1276.59 1882.12 L 1268.79 1889.11 L 1257.31 1896.61 L 1242.22 1903.98 L 1222.89 1911.14 L 1203.13 1916.82 L 1180.54 1921.80 L 1154.73 1926.01 L 1128.89 1928.96 L 1101.11 1930.78 L 1071.32 1931.48 L 1041.53 1930.78 L 1013.75 1928.96 L 987.91 1926.01 L 962.10 1921.80 L 939.51 1916.82 L 919.75 1911.14 L 900.42 1903.98 L 885.33 1896.56 L 873.85 1889.11 L 866.04 1882.12 L 860.94 1875.40 L 858.03 1868.77 L 857.00 1862.09 L 858.03 1855.41 L 860.94 1848.77 L 866.04 1842.05 L 873.85 1835.07 L 885.33 1827.57 L 900.42 1820.19 L 919.75 1813.04 L 939.51 1807.36 L 962.10 1802.37 L 987.91 1798.16 L 1013.75 1795.21 L 1041.53 1793.39 L 1071.32 1792.70 L 1101.11 1793.39 L 1128.89 1795.21 L 1154.73 1798.16 L 1180.54 1802.37 L 1203.13 1807.36 L 1222.89 1813.04 L 1242.22 1820.19 L 1257.31 1827.57 L 1268.79 1835.07 L 1276.59 1842.05 L 1281.70 1848.77 L 1284.61 1855.41 L 1285.64 1862.09 Z" fill="#84c1ff" fill-opacity="0.15" fill-rule="evenodd" node-id="258" stroke="none" target-height="138.78003" target-width="428.64" target-x="857" target-y="1792.7"></path><path d="M 1136.00 1009.00 L 1101.00 1009.00 L 1101.00 1066.00 L 1136.00 1066.00 L 1136.00 1009.00 Z" fill="url(#paint11_linear_91_433)" fill-rule="evenodd" node-id="260" stroke="none" target-height="57" target-width="35" target-x="1101" target-y="1009"></path><path d="M 1030.83 1812.44 L 1027.18 1835.74 L 1012.59 1837.33 L 996.56 1841.46 L 978.76 1848.51 L 971.64 1853.67 L 968.65 1857.02 L 967.16 1860.68 L 966.68 1864.80 L 968.08 1866.14 L 976.48 1867.47 L 1002.44 1867.68 L 1061.81 1864.80 L 1061.81 1803.89 L 1030.83 1812.44 Z" fill="url(#paint12_linear_91_433)" fill-rule="nonzero" node-id="262" stroke="none" target-height="63.79004" target-width="95.130066" target-x="966.68" target-y="1803.89"></path><path d="M 1141.99 1812.44 L 1138.39 1835.74 L 1123.97 1837.33 L 1108.12 1841.46 L 1090.53 1848.51 L 1083.50 1853.67 L 1080.55 1857.02 L 1079.07 1860.68 L 1078.59 1864.80 L 1079.98 1866.14 L 1088.28 1867.47 L 1113.94 1867.68 L 1172.60 1864.80 L 1172.60 1803.89 L 1141.99 1812.44 Z" fill="url(#paint13_linear_91_433)" fill-rule="nonzero" node-id="264" stroke="none" target-height="63.79004" target-width="94.01001" target-x="1078.59" target-y="1803.89"></path><path d="M 1045.93 1364.06 L 1005.85 1818.44 L 1077.35 1818.23 L 1146.86 1368.91 L 1045.93 1364.06 Z" fill="#153f82" fill-rule="nonzero" node-id="266" stroke="none" target-height="454.37988" target-width="141.01001" target-x="1005.85" target-y="1364.06"></path><path d="M 1052.85 1367.38 L 1116.47 1821.80 L 1191.07 1821.80 L 1191.63 1365.18 L 1052.85 1367.38 Z" fill="#153f82" fill-rule="nonzero" node-id="268" stroke="none" target-height="456.62" target-width="138.78003" target-x="1052.85" target-y="1365.18"></path><path d="M 1032.80 1232.87 L 1028.07 1244.74 L 936.08 1162.72 L 931.35 1154.42 L 924.31 1147.28 L 916.02 1143.71 L 914.26 1144.23 L 913.01 1145.00 L 912.50 1146.08 L 914.26 1149.91 L 916.02 1152.01 L 919.59 1156.79 L 920.49 1158.55 L 920.32 1158.98 L 919.59 1159.15 L 917.22 1159.15 L 916.36 1158.16 L 912.50 1153.22 L 906.57 1143.71 L 905.37 1142.21 L 903.95 1141.39 L 901.89 1141.35 L 900.17 1143.24 L 899.53 1144.87 L 901.72 1156.40 L 905.41 1167.50 L 909.19 1175.41 L 913.66 1182.94 L 914.99 1185.13 L 916.92 1186.94 L 920.75 1188.87 L 929.59 1192.83 L 938.14 1197.39 L 942.00 1199.58 L 1017.46 1285.17 L 1019.61 1287.58 L 1024.68 1292.09 L 1027.73 1293.94 L 1030.43 1294.67 L 1034.86 1294.11 L 1039.02 1292.39 L 1045.55 1287.71 L 1048.13 1285.17 L 1052.85 1240.01 L 1032.80 1232.87 Z" fill="#fecca9" fill-rule="nonzero" node-id="270" stroke="none" target-height="153.32007" target-width="153.31995" target-x="899.53" target-y="1141.35"></path><path d="M 1091.42 1077.55 L 1029.70 1242.50 L 954.84 1173.10 C 953.07 1171.45 950.26 1171.74 948.86 1173.71 L 932.74 1196.37 C 931.64 1197.90 931.77 1199.99 933.04 1201.38 L 1018.13 1294.53 L 1024.39 1298.67 L 1029.70 1300.27 L 1034.40 1299.88 L 1038.94 1297.59 L 1043.47 1292.94 L 1048.13 1285.01 L 1056.03 1265.56 L 1074.03 1214.99 L 1108.81 1110.92 L 1091.42 1077.55 Z" fill="#429cfd" fill-rule="evenodd" node-id="272" stroke="none" target-height="222.71997" target-width="177.17004" target-x="931.64" target-y="1077.55"></path><path d="M 1087.14 1064.52 C 1087.96 1061.08 1090.26 1058.18 1093.43 1056.59 L 1142.62 1031.94 C 1144.14 1031.18 1145.99 1031.83 1146.69 1033.37 L 1153.22 1047.62 L 1160.57 1066.66 L 1170.36 1097.05 L 1176.21 1118.88 L 1181.94 1145.06 L 1187.36 1176.18 L 1191.85 1211.60 L 1194.93 1245.82 L 1196.93 1279.05 L 1197.92 1307.50 L 1198.34 1351.60 L 1198.05 1368.45 L 1186.29 1368.54 L 1156.89 1368.75 L 1118.73 1369.05 L 1080.53 1369.36 L 1051.18 1369.57 L 1039.42 1369.66 L 1041.35 1353.58 L 1046.69 1310.51 L 1054.94 1248.05 L 1065.49 1173.78 L 1072.63 1131.95 L 1080.10 1095.20 L 1086.04 1069.06 L 1087.14 1064.52 Z" fill="#429cfd" fill-rule="evenodd" node-id="274" stroke="none" target-height="338.47998" target-width="158.91992" target-x="1039.42" target-y="1031.18"></path><path d="M 1123.92 1302.51 L 1101.56 1404.61 L 1099.55 1407.50 L 1095.69 1412.80 L 1090.85 1419.30 C 1089.61 1420.94 1089.82 1423.25 1091.34 1424.63 L 1109.43 1441.17 C 1113.04 1444.47 1118.83 1443.15 1120.65 1438.61 L 1128.63 1418.66 L 1158.05 1311.89 L 1123.92 1302.51 Z" fill="#fecca9" fill-rule="nonzero" node-id="276" stroke="none" target-height="141.95996" target-width="68.44006" target-x="1089.61" target-y="1302.51"></path><path d="M 1101.87 1094.34 L 1127.31 1232.66 L 1127.57 1236.11 L 1127.88 1244.32 L 1127.31 1254.12 L 1123.72 1271.57 L 1116.73 1300.85 L 1108.17 1335.26 L 1099.78 1368.08 L 1093.44 1392.65 L 1091.83 1398.81 C 1091.28 1400.91 1092.14 1403.12 1093.96 1404.29 L 1128.97 1426.75 C 1131.64 1428.47 1135.23 1427.28 1136.35 1424.30 L 1137.84 1420.33 L 1147.06 1395.59 L 1159.30 1362.68 L 1171.93 1328.35 L 1182.29 1299.42 L 1187.84 1282.71 L 1191.29 1267.29 L 1193.87 1251.70 L 1193.78 1244.71 L 1193.87 1230.24 L 1191.77 1211.15 L 1186.31 1179.54 L 1179.36 1144.39 L 1174.33 1122.41 L 1170.18 1106.48 L 1168.43 1100.30" fill="#429cfd" fill-rule="evenodd" node-id="278" stroke="none" target-height="334.13" target-width="102.589966" target-x="1091.28" target-y="1094.34"></path><path d="M 892.29 1112.47 L 895.52 1112.25 L 897.95 1114.48 L 929.98 1171.54 L 930.86 1173.73 L 930.45 1176.00 L 928.94 1177.72 L 926.80 1178.28 L 924.71 1177.55 L 923.28 1175.70 L 891.24 1118.61 L 890.57 1115.30 L 892.29 1112.47 Z" fill="#0d0d0d" fill-rule="evenodd" node-id="280" stroke="none" target-height="66.03003" target-width="40.289978" target-x="890.57" target-y="1112.25"></path><path d="M 1146.50 975.50 C 1146.50 1006.15 1138.42 1031.00 1115.50 1031.00 C 1092.58 1031.00 1080.00 1006.15 1080.00 975.50 C 1080.00 944.85 1092.58 920.00 1115.50 920.00 C 1138.42 920.00 1146.50 944.85 1146.50 975.50 Z" fill="#ffe7ca" fill-rule="nonzero" node-id="282" stroke="none" target-height="111" target-width="66.5" target-x="1080" target-y="920"></path><path d="M 1100.97 915.30 L 1099.36 913.36 L 1097.39 911.98 L 1094.07 910.94 L 1090.20 911.05 L 1084.35 913.06 L 1079.43 916.60 L 1077.30 920.14 L 1076.63 924.05 L 1077.04 927.52 L 1078.42 932.40 L 1078.35 934.30 L 1077.49 935.61 L 1076.04 936.17 L 1073.54 935.72 L 1070.48 934.83 L 1066.61 934.94 L 1062.96 936.61 L 1059.08 941.35 L 1058.00 946.08 L 1058.93 952.56 L 1061.69 958.97 L 1066.01 964.52 L 1069.66 967.28 L 1073.69 968.74 L 1078.31 968.89 L 1088.11 966.31 L 1095.00 962.77 L 1100.74 958.34 L 1104.84 954.35 L 1111.07 949.36 L 1114.64 947.46 L 1117.55 946.64 L 1119.97 947.05 L 1121.31 949.13 L 1122.36 956.66 L 1123.29 963.89 L 1124.18 966.05 L 1125.23 966.13 L 1126.20 964.64 L 1126.98 961.47 L 1128.99 954.73 L 1131.00 952.26 L 1134.25 951.26 L 1137.56 952.12 L 1139.46 954.39 L 1140.21 957.52 L 1139.91 961.39 L 1138.57 965.20 L 1136.37 968.59 L 1134.58 970.93 L 1135.07 973.32 L 1136.00 976.93 L 1138.49 980.88 L 1141.88 983.90 L 1143.08 983.68 L 1144.90 981.18 L 1146.77 977.35 L 1148.89 970.52 L 1149.97 962.40 L 1149.34 949.51 L 1149.11 946.19 L 1149.64 944.48 L 1152.73 941.12 L 1154.78 938.66 L 1156.53 935.42 L 1157.01 931.81 L 1155.37 927.00 L 1152.17 923.09 L 1149.38 921.63 L 1142.70 921.41 L 1139.57 921.15 L 1138.46 920.37 L 1137.90 916.90 L 1136.59 911.94 L 1134.88 908.81 L 1132.27 905.87 L 1128.95 903.78 L 1124.44 903.00 L 1117.81 904.15 L 1113.49 906.50 L 1110.17 909.86 L 1107.97 913.32 L 1105.85 915.97 L 1104.13 916.64 L 1102.38 916.27 L 1100.97 915.30 Z" fill="#003a8c" fill-rule="nonzero" node-id="284" stroke="none" target-height="80.900024" target-width="99.01001" target-x="1058" target-y="903"></path></svg>