<?xml version="1.0" standalone="no"?><!DOCTYPE svg PUBLIC "-//W3C//DTD SVG 1.1//EN" "http://www.w3.org/Graphics/SVG/1.1/DTD/svg11.dtd"><svg height="3131" node-id="1" sillyvg="true" template-height="3131" template-width="3861" version="1.1" viewBox="0 0 3861 3131" width="3861" xmlns="http://www.w3.org/2000/svg" xmlns:xlink="http://www.w3.org/1999/xlink"><defs node-id="104"><linearGradient gradientUnits="userSpaceOnUse" id="paint0_linear_91_435" node-id="39" spreadMethod="pad" x1="404.332" x2="404.332" y1="1230.47" y2="909.424"><stop offset="0" stop-color="#ffffff" stop-opacity="0.1"></stop><stop offset="1" stop-color="#d9e9ff"></stop></linearGradient><linearGradient gradientUnits="userSpaceOnUse" id="paint1_linear_91_435" node-id="42" spreadMethod="pad" x1="2540.24" x2="2540.24" y1="1058.78" y2="783.018"><stop offset="0" stop-color="#ffffff" stop-opacity="0.1"></stop><stop offset="0.14" stop-color="#f8fbff" stop-opacity="0.27"></stop><stop offset="0.37" stop-color="#edf5ff" stop-opacity="0.52"></stop><stop offset="0.58" stop-color="#e4f0ff" stop-opacity="0.73"></stop><stop offset="0.76" stop-color="#deecff" stop-opacity="0.88"></stop><stop offset="0.91" stop-color="#daeaff" stop-opacity="0.97"></stop><stop offset="1" stop-color="#d9e9ff"></stop></linearGradient><linearGradient gradientUnits="userSpaceOnUse" id="paint2_linear_91_435" node-id="50" spreadMethod="pad" x1="3353.86" x2="3353.86" y1="1078.02" y2="470.507"><stop offset="0" stop-color="#ffffff" stop-opacity="0.1"></stop><stop offset="0.09" stop-color="#fefeff" stop-opacity="0.13"></stop><stop offset="0.23" stop-color="#fbfcff" stop-opacity="0.21"></stop><stop offset="0.4" stop-color="#f5f9ff" stop-opacity="0.33"></stop><stop offset="0.59" stop-color="#eef5ff" stop-opacity="0.51"></stop><stop offset="0.79" stop-color="#e4efff" stop-opacity="0.74"></stop><stop offset="1" stop-color="#d9e9ff"></stop></linearGradient><linearGradient gradientUnits="userSpaceOnUse" id="paint3_linear_91_435" node-id="58" spreadMethod="pad" x1="1908" x2="1908" y1="3130.63" y2="1923.22"><stop offset="0" stop-color="#ffffff" stop-opacity="0.1"></stop><stop offset="0.13" stop-color="#fbfdff" stop-opacity="0.19"></stop><stop offset="0.41" stop-color="#f1f7ff" stop-opacity="0.43"></stop><stop offset="0.81" stop-color="#e1eeff" stop-opacity="0.82"></stop><stop offset="1" stop-color="#d9e9ff"></stop></linearGradient><linearGradient gradientUnits="userSpaceOnUse" id="paint4_linear_91_435" node-id="64" spreadMethod="pad" x1="2801.5" x2="2608.47" y1="2821.5" y2="2262.14"><stop offset="0" stop-color="#ffffff" stop-opacity="0"></stop><stop offset="1" stop-color="#c1ddfd"></stop></linearGradient><linearGradient gradientUnits="userSpaceOnUse" id="paint5_linear_91_435" node-id="67" spreadMethod="pad" x1="1924.5" x2="1099.15" y1="1685" y2="716.665"><stop offset="0" stop-color="#3497fc"></stop><stop offset="1" stop-color="#c0ddfc"></stop></linearGradient><linearGradient gradientUnits="userSpaceOnUse" id="paint6_linear_91_435" node-id="70" spreadMethod="pad" x1="3134.27" x2="1141.18" y1="1626.39" y2="1626.39"><stop offset="0" stop-color="#eaf0fc" stop-opacity="0"></stop><stop offset="1" stop-color="#cfdffa"></stop></linearGradient><linearGradient gradientUnits="userSpaceOnUse" id="paint7_linear_91_435" node-id="73" spreadMethod="pad" x1="3252.07" x2="1090.34" y1="1718.47" y2="1718.47"><stop offset="0" stop-color="#eaf0fc" stop-opacity="0"></stop><stop offset="1" stop-color="#cfdffa"></stop></linearGradient><linearGradient gradientUnits="userSpaceOnUse" id="paint8_linear_91_435" node-id="76" spreadMethod="pad" x1="2626.05" x2="1749.88" y1="2162.68" y2="1187.24"><stop offset="0" stop-color="#3497fc"></stop><stop offset="1" stop-color="#c0ddfc"></stop></linearGradient><linearGradient gradientUnits="userSpaceOnUse" id="paint9_linear_91_435" node-id="79" spreadMethod="pad" x1="2115.46" x2="2046.04" y1="1766.98" y2="1766.98"><stop offset="0" stop-color="#eaf0fc"></stop><stop offset="1" stop-color="#cfdffa"></stop></linearGradient><linearGradient gradientUnits="userSpaceOnUse" id="paint10_linear_91_435" node-id="82" spreadMethod="pad" x1="2443.97" x2="2136.52" y1="1766.98" y2="1766.98"><stop offset="0" stop-color="#eaf0fc"></stop><stop offset="1" stop-color="#cfdffa"></stop></linearGradient><linearGradient gradientUnits="userSpaceOnUse" id="paint11_linear_91_435" node-id="85" spreadMethod="pad" x1="2411.05" x2="1964.76" y1="1912.38" y2="1912.38"><stop offset="0" stop-color="#eaf0fc"></stop><stop offset="1" stop-color="#cfdffa"></stop></linearGradient><linearGradient gradientUnits="userSpaceOnUse" id="paint12_linear_91_435" node-id="88" spreadMethod="pad" x1="1929.36" x2="1708.14" y1="650.975" y2="510.982"><stop offset="0" stop-color="#3497fc"></stop><stop offset="1" stop-color="#c0ddfc"></stop></linearGradient><linearGradient gradientUnits="userSpaceOnUse" id="paint13_linear_91_435" node-id="91" spreadMethod="pad" x1="2911.16" x2="2911.16" y1="1620.37" y2="1700.12"><stop offset="0" stop-color="#ffcda5"></stop><stop offset="1" stop-color="#ffe8d1"></stop></linearGradient><linearGradient gradientUnits="userSpaceOnUse" id="paint14_linear_91_435" node-id="94" spreadMethod="pad" x1="2908.09" x2="2908.09" y1="1482" y2="1650"><stop offset="0" stop-color="#fff2df"></stop><stop offset="1" stop-color="#fee0bc"></stop></linearGradient><linearGradient gradientUnits="userSpaceOnUse" id="paint15_linear_91_435" node-id="97" spreadMethod="pad" x1="2885.79" x2="2829.81" y1="2370.84" y2="2429.86"><stop offset="0" stop-color="#003a8c"></stop><stop offset="1" stop-color="#5792f0"></stop></linearGradient><linearGradient gradientUnits="userSpaceOnUse" id="paint16_linear_91_435" node-id="100" spreadMethod="pad" x1="3044.93" x2="2988.94" y1="2370.84" y2="2429.86"><stop offset="0" stop-color="#003a8c"></stop><stop offset="1" stop-color="#5792f0"></stop></linearGradient></defs><path d="M 750.42 1975.39 L 767.67 2154.27 L 659.60 2142.38 L 750.42 1975.39 Z" fill="#e4efff" fill-rule="nonzero" node-id="235" stroke="none" target-height="178.88" target-width="108.07001" target-x="659.6" target-y="1975.39"></path><path d="M 745.31 1975.39 L 857.11 2116.59 L 762.27 2154.27 L 745.31 1975.39 Z" fill="#f3f8ff" fill-rule="nonzero" node-id="237" stroke="none" target-height="178.88" target-width="111.79999" target-x="745.31" target-y="1975.39"></path><path d="M 373.92 2020.11 L 395.02 2247.43 L 264.59 2232.27 L 373.92 2020.11 Z" fill="#e4efff" fill-rule="nonzero" node-id="239" stroke="none" target-height="227.31995" target-width="130.43" target-x="264.59" target-y="2020.11"></path><path d="M 376.38 2020.11 L 514.27 2199.77 L 397.51 2247.43 L 376.38 2020.11 Z" fill="#f3f8ff" fill-rule="nonzero" node-id="241" stroke="none" target-height="227.31995" target-width="137.89001" target-x="376.38" target-y="2020.11"></path><path d="M 553.32 1863.60 L 588.80 2239.98 L 350.30 2216.54 L 553.32 1863.60 Z" fill="#e4efff" fill-rule="nonzero" node-id="243" stroke="none" target-height="376.38" target-width="238.5" target-x="350.3" target-y="1863.6"></path><path d="M 547.80 1863.60 L 797.48 2159.37 L 583.32 2239.98 L 547.80 1863.60 Z" fill="#f3f8ff" fill-rule="nonzero" node-id="245" stroke="none" target-height="376.38" target-width="249.68" target-x="547.8" target-y="1863.6"></path><path d="M 623.19 1036.41 C 609.26 961.81 544.12 908.26 468.99 909.63 C 428.78 909.45 389.99 924.50 360.28 951.89 C 343.66 944.29 325.63 940.38 307.37 940.38 C 249.53 939.45 198.89 979.40 185.81 1036.30 C 141.35 1046.21 109.30 1085.42 108.07 1131.37 C 109.78 1187.30 155.84 1231.35 211.22 1230.05 L 597.44 1230.05 C 652.86 1231.42 698.95 1187.34 700.59 1131.37 C 699.40 1085.53 667.50 1046.40 623.19 1036.41 Z" fill="url(#paint0_linear_91_435)" fill-rule="nonzero" node-id="247" stroke="none" target-height="323.16003" target-width="592.52" target-x="108.07" target-y="908.26"></path><path d="M 2728.74 887.73 C 2708.69 856.24 2674.74 836.72 2637.81 835.38 C 2616.31 802.10 2579.45 782.35 2540.21 783.02 C 2508.80 782.72 2478.54 795.24 2456.29 817.82 C 2446.12 814.54 2435.50 812.83 2424.84 812.83 C 2375.42 812.83 2334.62 847.49 2330.41 891.35 C 2292.73 900.44 2265.60 933.79 2264.00 973.03 C 2264.00 1020.29 2306.71 1058.78 2358.43 1058.78 L 2721.10 1058.78 C 2773.57 1058.78 2815.53 1020.29 2815.53 973.03 C 2816.35 928.13 2777.56 891.24 2728.74 887.73 Z" fill="url(#paint1_linear_91_435)" fill-rule="nonzero" node-id="249" stroke="none" target-height="276.43005" target-width="552.3501" target-x="2264" target-y="782.35"></path><path d="M 3710.15 663.82 C 3674.75 590.89 3600.85 544.46 3519.69 544.19 C 3474.48 544.31 3430.51 558.95 3394.29 585.97 C 3351.21 501.97 3257.60 456.73 3164.96 475.03 C 3072.28 493.36 3003.00 570.84 2995.17 664.86 C 2895.49 696.31 2833.63 795.62 2849.47 898.85 C 2865.34 1002.08 2954.14 1078.32 3058.67 1078.43 L 3648.40 1078.43 C 3753.53 1078.62 3842.93 1001.74 3858.32 897.88 C 3873.75 793.99 3810.51 694.52 3709.85 664.23 L 3710.15 663.82 Z" fill="url(#paint2_linear_91_435)" fill-rule="nonzero" node-id="251" stroke="none" target-height="621.89" target-width="1040.1201" target-x="2833.63" target-y="456.73"></path><path d="M 3816.00 2526.93 C 3816.00 2687.06 3614.99 2840.59 3257.16 2953.80 C 2899.34 3067.02 2414.03 3130.63 1908.00 3130.63 C 1401.97 3130.63 916.66 3067.02 558.84 2953.80 C 201.01 2840.59 0.00 2687.06 0.00 2526.93 C 0.00 2366.80 201.01 2213.26 558.84 2100.05 C 916.66 1986.84 1401.97 1923.22 1908.00 1923.22 C 2414.03 1923.22 2899.34 1986.84 3257.16 2100.05 C 3614.99 2213.26 3816.00 2366.80 3816.00 2526.93 Z" fill="url(#paint3_linear_91_435)" fill-rule="nonzero" node-id="253" stroke="none" target-height="1207.4099" target-width="3816" target-x="0" target-y="1923.22"></path><path d="M 3376.27 2020.11 L 3358.12 2258.61 L 3223.48 2219.56 L 3376.27 2020.11 Z" fill="#e4efff" fill-rule="nonzero" node-id="255" stroke="none" target-height="238.50012" target-width="152.79004" target-x="3223.48" target-y="2020.11"></path><path d="M 3371.98 2020.11 L 3484.34 2230.25 L 3353.91 2258.61 L 3371.98 2020.11 Z" fill="#f3f8ff" fill-rule="nonzero" node-id="257" stroke="none" target-height="238.50012" target-width="130.43018" target-x="3353.91" target-y="2020.11"></path><path d="M 1186.19 2331.00 L 2657.70 2303.32 L 3764.50 2673.00 L 2076.50 3084.50 L 1186.19 2331.00 Z" fill="url(#paint4_linear_91_435)" fill-opacity="0.385356" fill-rule="nonzero" node-id="259" stroke="none" target-height="781.17993" target-width="2578.31" target-x="1186.19" target-y="2303.32"></path><path d="M 1119.01 697.32 C 1119.01 653.69 1154.38 618.32 1198.01 618.32 L 1576.28 618.32 C 1593.09 618.32 1608.74 626.95 1617.71 641.17 L 1660.45 708.87 C 1674.94 731.84 1700.23 745.75 1727.39 745.71 L 2475.66 744.39 L 2502.31 746.21 L 2527.39 751.24 L 2551.14 759.47 L 2573.68 770.74 L 2594.21 784.55 L 2612.87 800.91 L 2629.29 819.51 L 2643.16 839.99 L 2654.49 862.46 L 2662.85 886.21 L 2668.00 911.29 L 2669.88 937.88 L 2669.88 938.25 L 2669.88 2033.49 L 1119.01 2033.49 L 1119.01 697.32 Z" fill="url(#paint5_linear_91_435)" fill-rule="nonzero" node-id="261" stroke="none" target-height="1415.1699" target-width="1550.8699" target-x="1119.01" target-y="618.32"></path><path d="M 1283.79 948.50 C 1283.79 937.45 1292.74 928.50 1303.79 928.50 L 2523.87 928.50 C 2534.92 928.50 2543.87 937.45 2543.87 948.50 L 2543.87 2324.28 L 1283.79 2324.28 L 1283.79 948.50 Z" fill="url(#paint6_linear_91_435)" fill-rule="evenodd" node-id="263" stroke="none" target-height="1395.78" target-width="1260.0801" target-x="1283.79" target-y="928.5"></path><path d="M 1254.71 1084.19 C 1254.71 1073.15 1263.66 1064.19 1274.71 1064.19 L 2552.95 1064.19 C 2564.00 1064.19 2572.95 1073.15 2572.95 1084.19 L 2572.95 2295.20 L 1254.71 2295.20 L 1254.71 1084.19 Z" fill="#ffffff" fill-rule="evenodd" node-id="265" stroke="none" target-height="1231.01" target-width="1318.24" target-x="1254.71" target-y="1064.19"></path><path d="M 1245.02 1171.43 C 1245.02 1160.38 1253.97 1151.43 1265.02 1151.43 L 2591.72 1151.43 C 2602.77 1151.43 2611.72 1160.38 2611.72 1171.43 L 2611.72 2285.50 L 1245.02 2285.50 L 1245.02 1171.43 Z" fill="url(#paint7_linear_91_435)" fill-rule="evenodd" node-id="267" stroke="none" target-height="1134.07" target-width="1366.7" target-x="1245.02" target-y="1151.43"></path><path d="M 1005.97 1358.49 C 999.16 1315.96 1032.02 1277.44 1075.09 1277.44 L 2752.57 1277.44 C 2795.64 1277.44 2828.50 1315.96 2821.69 1358.49 L 2680.68 2240.07 C 2672.92 2288.58 2631.07 2324.28 2581.94 2324.28 L 1245.72 2324.28 C 1196.59 2324.28 1154.74 2288.58 1146.98 2240.07 L 1005.97 1358.49 Z" fill="url(#paint8_linear_91_435)" fill-rule="nonzero" node-id="269" stroke="none" target-height="1046.8401" target-width="1829.3401" target-x="999.16" target-y="1277.44"></path><path d="M 2093.15 1733.01 L 2102.36 1734.34 L 2110.23 1737.61 L 2117.14 1742.94 L 2122.47 1749.85 L 2125.74 1757.72 L 2127.07 1766.93 L 2125.74 1776.14 L 2122.47 1784.02 L 2117.14 1790.92 L 2110.23 1796.25 L 2102.36 1799.53 L 2093.15 1800.86 L 2083.94 1799.53 L 2076.07 1796.25 L 2069.16 1790.92 L 2063.83 1784.02 L 2060.56 1776.14 L 2059.22 1766.93 L 2060.56 1757.72 L 2063.83 1749.85 L 2069.16 1742.94 L 2076.07 1737.61 L 2083.94 1734.34 L 2093.15 1733.01 Z" fill="url(#paint9_linear_91_435)" fill-rule="evenodd" node-id="271" stroke="none" target-height="67.849976" target-width="67.8501" target-x="2059.22" target-y="1733.01"></path><path d="M 2228.85 1733.01 L 2461.48 1733.01 L 2470.69 1734.34 L 2478.56 1737.61 L 2485.47 1742.94 L 2490.80 1749.85 L 2494.07 1757.72 L 2495.41 1766.93 L 2494.07 1776.14 L 2490.80 1784.02 L 2485.47 1790.92 L 2478.56 1796.25 L 2470.69 1799.53 L 2461.48 1800.86 L 2228.85 1800.86 L 2219.64 1799.53 L 2211.77 1796.25 L 2204.86 1790.92 L 2199.53 1784.02 L 2196.26 1776.14 L 2194.93 1766.93 L 2196.26 1757.72 L 2199.53 1749.85 L 2204.86 1742.94 L 2211.77 1737.61 L 2219.64 1734.34 L 2228.85 1733.01 Z" fill="url(#paint10_linear_91_435)" fill-rule="evenodd" node-id="273" stroke="none" target-height="67.849976" target-width="300.47998" target-x="2194.93" target-y="1733.01"></path><path d="M 2083.46 1878.40 L 2451.79 1878.40 L 2461.00 1879.73 L 2468.87 1883.01 L 2475.78 1888.34 L 2481.11 1895.24 L 2484.38 1903.12 L 2485.71 1912.33 L 2484.38 1921.54 L 2481.11 1929.41 L 2475.78 1936.32 L 2468.87 1941.65 L 2461.00 1944.92 L 2451.79 1946.25 L 2083.46 1946.25 L 2074.25 1944.92 L 2066.37 1941.65 L 2059.47 1936.32 L 2054.14 1929.41 L 2050.86 1921.54 L 2049.53 1912.33 L 2050.86 1903.12 L 2054.14 1895.24 L 2059.47 1888.34 L 2066.37 1883.01 L 2074.25 1879.73 L 2083.46 1878.40 Z" fill="url(#paint11_linear_91_435)" fill-rule="evenodd" node-id="275" stroke="none" target-height="67.849976" target-width="436.17993" target-x="2049.53" target-y="1878.4"></path><path d="M 1962.29 550.47 L 1960.90 570.46 L 1957.08 589.24 L 1950.84 607.05 L 1942.36 623.95 L 1932.00 639.28 L 1919.71 653.27 L 1905.71 665.57 L 1890.39 675.93 L 1873.48 684.41 L 1855.67 690.65 L 1836.89 694.47 L 1816.90 695.86 L 1796.91 694.47 L 1778.13 690.65 L 1760.32 684.41 L 1743.42 675.93 L 1728.09 665.57 L 1714.09 653.27 L 1701.80 639.28 L 1691.44 623.95 L 1682.96 607.05 L 1676.72 589.24 L 1672.90 570.46 L 1671.51 550.47 L 1672.90 530.48 L 1676.72 511.70 L 1682.96 493.89 L 1691.44 476.98 L 1701.80 461.66 L 1714.09 447.66 L 1728.09 435.37 L 1743.42 425.00 L 1760.32 416.52 L 1778.13 410.28 L 1796.91 406.47 L 1816.90 405.07 L 1836.89 406.47 L 1855.67 410.28 L 1873.48 416.52 L 1890.39 425.00 L 1905.71 435.37 L 1919.71 447.66 L 1932.00 461.66 L 1942.36 476.98 L 1950.84 493.89 L 1957.08 511.70 L 1960.90 530.48 L 1962.29 550.47 Z" fill="url(#paint12_linear_91_435)" fill-rule="nonzero" node-id="277" stroke="none" target-height="290.78998" target-width="290.78003" target-x="1671.51" target-y="405.07"></path><path d="M 1816.90 598.93 L 1759.95 628.86 L 1770.80 565.43 L 1724.70 520.54 L 1788.43 511.27 L 1816.90 453.54 L 1845.37 511.27 L 1909.10 520.54 L 1863.00 565.43 L 1873.85 628.86 L 1816.90 598.93 Z" fill="#ffffff" fill-rule="evenodd" node-id="279" stroke="none" target-height="175.31998" target-width="184.40002" target-x="1724.7" target-y="453.54"></path><path d="M 2577.80 226.97 L 2577.80 185.77 L 2597.18 185.77 L 2608.03 184.74 L 2617.90 182.02 L 2626.93 177.53 L 2634.99 171.54 L 2641.89 164.27 L 2647.59 155.54 L 2651.77 146.03 L 2654.37 135.55 L 2655.34 123.98 L 2655.34 103.38 L 2654.37 91.81 L 2651.77 81.33 L 2647.59 71.82 L 2641.89 63.10 L 2634.99 55.83 L 2626.93 49.83 L 2617.90 45.35 L 2608.03 42.62 L 2597.18 41.59 L 2586.34 42.62 L 2576.46 45.35 L 2567.44 49.83 L 2559.38 55.83 L 2552.47 63.10 L 2546.78 71.82 L 2542.60 81.33 L 2539.99 91.81 L 2539.03 103.38 L 2539.03 123.98 L 2500.25 123.98 L 2500.25 103.38 L 2501.89 84.30 L 2506.25 66.91 L 2513.34 51.04 L 2522.91 36.56 L 2534.42 24.38 L 2547.93 14.27 L 2562.95 6.76 L 2579.31 2.09 L 2597.18 0.39 L 2615.05 2.09 L 2631.41 6.76 L 2646.44 14.27 L 2659.94 24.38 L 2671.46 36.56 L 2681.03 51.04 L 2688.11 66.91 L 2692.48 84.30 L 2694.11 103.38 L 2694.11 123.98 L 2692.84 140.40 L 2689.45 155.60 L 2683.93 169.84 L 2676.36 183.11 L 2667.28 194.86 L 2656.49 205.16 L 2644.32 213.76 L 2631.05 220.30 L 2616.57 224.91 L 2616.57 268.16 L 2577.80 268.16 L 2577.80 226.97 Z M 2577.80 288.76 L 2616.57 288.76 L 2616.57 329.95 L 2577.80 329.95 L 2577.80 288.76 Z" fill="#ffffff" fill-rule="nonzero" node-id="281" stroke="none" target-height="329.56" target-width="193.8601" target-x="2500.25" target-y="0.39"></path><path d="M 3143.02 2420.31 L 3142.00 2426.79 L 3139.19 2433.18 L 3134.20 2439.66 L 3126.57 2446.40 L 3115.31 2453.64 L 3100.60 2460.76 L 3081.68 2467.67 L 3062.41 2473.17 L 3040.33 2477.99 L 3015.13 2482.04 L 2989.90 2484.89 L 2962.74 2486.64 L 2933.67 2487.32 L 2904.55 2486.64 L 2877.44 2484.89 L 2852.16 2482.04 L 2826.96 2477.99 L 2804.88 2473.17 L 2785.61 2467.67 L 2766.73 2460.76 L 2751.98 2453.64 L 2740.77 2446.40 L 2733.13 2439.66 L 2728.15 2433.18 L 2725.29 2426.79 L 2724.31 2420.31 L 2725.29 2413.87 L 2728.15 2407.48 L 2733.13 2400.95 L 2740.77 2394.26 L 2751.98 2387.01 L 2766.73 2379.89 L 2785.61 2372.95 L 2804.88 2367.49 L 2826.96 2362.67 L 2852.16 2358.58 L 2877.44 2355.77 L 2904.55 2353.98 L 2933.67 2353.34 L 2962.74 2353.98 L 2989.90 2355.77 L 3015.13 2358.58 L 3040.33 2362.67 L 3062.41 2367.49 L 3081.68 2372.95 L 3100.60 2379.89 L 3115.31 2387.01 L 3126.57 2394.26 L 3134.20 2400.95 L 3139.19 2407.48 L 3142.00 2413.87 L 3143.02 2420.31 Z" fill="#84c1ff" fill-opacity="0.15" fill-rule="evenodd" node-id="283" stroke="none" target-height="133.97998" target-width="418.70996" target-x="2724.31" target-y="2353.34"></path><path d="M 2877.65 1633.10 L 2944.66 1633.10 L 2944.66 1700.12 L 2877.65 1700.12 L 2877.65 1633.10 Z" fill="url(#paint13_linear_91_435)" fill-rule="evenodd" node-id="285" stroke="none" target-height="67.02002" target-width="67.01001" target-x="2877.65" target-y="1633.1"></path><path d="M 2979.10 1583.39 L 2975.01 1590.77 L 2970.15 1595.76 L 2966.35 1597.93 L 2962.90 1598.61 L 2959.62 1598.10 L 2956.89 1596.18 L 2954.93 1593.28 L 2953.69 1589.06 L 2953.65 1582.16 L 2955.82 1573.97 L 2959.91 1566.60 L 2964.77 1561.61 L 2968.57 1559.44 L 2972.02 1558.71 L 2975.30 1559.27 L 2978.03 1561.14 L 2980.04 1564.08 L 2981.23 1568.30 L 2981.27 1575.21 L 2979.10 1583.39 Z" fill="#fee0bc" fill-rule="evenodd" node-id="287" stroke="none" target-height="39.900024" target-width="27.620117" target-x="2953.65" target-y="1558.71"></path><path d="M 2837.06 1583.60 L 2841.28 1590.89 L 2846.22 1595.79 L 2850.06 1597.88 L 2853.51 1598.52 L 2856.80 1597.97 L 2859.48 1596.00 L 2861.40 1593.06 L 2862.55 1588.84 L 2862.47 1581.89 L 2860.16 1573.75 L 2855.90 1566.46 L 2851.00 1561.56 L 2847.16 1559.47 L 2843.71 1558.79 L 2840.43 1559.39 L 2837.74 1561.35 L 2835.78 1564.29 L 2834.63 1568.51 L 2834.71 1575.46 L 2837.06 1583.60 Z" fill="#fee0bc" fill-rule="evenodd" node-id="289" stroke="none" target-height="39.72998" target-width="27.920166" target-x="2834.63" target-y="1558.79"></path><path d="M 2968.59 1566.02 L 2967.58 1581.33 L 2964.80 1595.40 L 2960.34 1608.40 L 2954.33 1620.20 L 2947.13 1630.20 L 2938.63 1638.54 L 2929.26 1644.74 L 2919.13 1648.59 L 2908.11 1650.00 L 2897.05 1648.59 L 2886.95 1644.74 L 2877.56 1638.54 L 2869.09 1630.20 L 2861.88 1620.20 L 2855.88 1608.40 L 2851.38 1595.40 L 2848.64 1581.33 L 2847.59 1566.02 L 2848.64 1550.67 L 2851.38 1536.65 L 2855.88 1523.60 L 2861.88 1511.85 L 2869.09 1501.84 L 2877.56 1493.50 L 2886.95 1487.26 L 2897.05 1483.45 L 2908.11 1482.00 L 2919.13 1483.45 L 2929.26 1487.26 L 2938.63 1493.50 L 2947.13 1501.84 L 2954.33 1511.85 L 2960.34 1523.60 L 2964.80 1536.65 L 2967.58 1550.67 L 2968.59 1566.02 Z" fill="url(#paint14_linear_91_435)" fill-rule="evenodd" node-id="291" stroke="none" target-height="168" target-width="121" target-x="2847.59" target-y="1482"></path><path d="M 2869.29 2371.88 L 2865.84 2394.60 L 2851.90 2396.14 L 2836.64 2400.19 L 2819.67 2407.05 L 2812.90 2412.08 L 2810.04 2415.36 L 2808.63 2418.90 L 2808.16 2422.95 L 2809.49 2424.23 L 2817.50 2425.51 L 2842.27 2425.72 L 2893.09 2423.23 C 2896.28 2423.07 2898.79 2420.44 2898.79 2417.24 L 2898.79 2363.57 L 2869.29 2371.88 Z" fill="url(#paint15_linear_91_435)" fill-rule="nonzero" node-id="293" stroke="none" target-height="62.149902" target-width="90.63013" target-x="2808.16" target-y="2363.57"></path><path d="M 2996.80 2371.88 L 3000.25 2394.60 L 3014.19 2396.14 L 3029.46 2400.19 L 3046.42 2407.05 L 3053.20 2412.08 L 3056.06 2415.36 L 3057.46 2418.90 L 3057.93 2422.95 L 3056.61 2424.23 L 3048.60 2425.51 L 3023.83 2425.72 L 2973.01 2423.23 C 2969.81 2423.07 2967.30 2420.44 2967.30 2417.24 L 2967.30 2363.57 L 2996.80 2371.88 Z" fill="url(#paint16_linear_91_435)" fill-rule="nonzero" node-id="295" stroke="none" target-height="62.149902" target-width="90.62988" target-x="2967.3" target-y="2363.57"></path><path d="M 2836.98 1957.26 L 2860.93 2376.03 C 2861.06 2378.17 2862.84 2379.83 2864.98 2379.80 L 2904.77 2379.26 C 2906.88 2379.23 2908.60 2377.58 2908.71 2375.47 L 2929.02 1989.15 L 2960.60 2375.31 C 2960.77 2377.41 2962.55 2379.02 2964.65 2378.98 L 3001.63 2378.38 C 3003.77 2378.34 3005.50 2376.63 3005.56 2374.49 L 3017.35 1958.20 L 2836.98 1957.26 Z" fill="#153f82" fill-rule="nonzero" node-id="297" stroke="none" target-height="422.57007" target-width="180.37012" target-x="2836.98" target-y="1957.26"></path><path d="M 3103.76 1781.24 L 3110.28 1777.19 L 3116.68 1775.36 L 3123.20 1775.49 L 3127.50 1775.06 L 3129.85 1773.91 L 3131.00 1772.12 L 3138.12 1771.99 L 3140.51 1773.57 L 3140.38 1776.68 L 3138.38 1780.35 L 3136.50 1781.58 L 3134.50 1781.24 L 3145.24 1786.19 L 3155.47 1778.94 L 3163.19 1779.75 L 3167.62 1781.54 L 3169.96 1783.97 L 3170.77 1787.21 L 3169.88 1791.73 L 3166.60 1795.99 L 3161.69 1800.34 L 3155.73 1803.62 L 3148.39 1805.54 L 3140.46 1805.33 L 3131.00 1802.26 L 3124.65 1798.68 L 3119.53 1797.95 L 3103.76 1781.24 Z" fill="#fecca9" fill-rule="evenodd" node-id="299" stroke="none" target-height="33.55005" target-width="67.01001" target-x="3103.76" target-y="1771.99"></path><path d="M 2735.91 1809.29 L 2731.05 1803.36 L 2725.59 1799.53 L 2719.41 1797.57 L 2715.44 1795.73 L 2713.61 1793.86 L 2713.14 1791.81 L 2706.45 1789.38 L 2703.68 1790.11 L 2702.78 1793.09 L 2703.46 1797.18 L 2704.83 1798.97 L 2706.87 1799.31 L 2695.07 1800.46 L 2687.78 1790.32 L 2680.19 1788.57 L 2675.41 1788.78 L 2672.43 1790.36 L 2670.60 1793.13 L 2670.00 1797.69 L 2671.66 1802.81 L 2674.90 1808.52 L 2679.51 1813.55 L 2685.82 1817.73 L 2693.36 1820.12 L 2703.34 1820.33 L 2710.46 1818.97 L 2715.53 1819.95 L 2735.91 1809.29 Z" fill="#fecca9" fill-rule="evenodd" node-id="301" stroke="none" target-height="31.76001" target-width="65.90991" target-x="2670" target-y="1788.57"></path><path d="M 2875.22 1672.92 L 2881.91 1677.33 C 2902.38 1690.81 2929.45 1688.30 2947.09 1671.30 L 2947.09 1671.30 L 2997.02 1685.00 C 3022.08 1691.88 3041.04 1712.44 3045.85 1737.98 L 3059.77 1811.81 L 3103.25 1775.49 L 3132.28 1802.05 L 3064.97 1903.16 L 3055.50 1911.90 L 3047.87 1916.63 L 3041.56 1918.47 L 3036.15 1918.17 L 3031.20 1915.83 L 3026.43 1911.14 L 3021.78 1903.16 L 3003.62 1780.39 L 3022.93 1962.08 L 2831.70 1964.04 L 2845.04 1780.47 L 2842.78 1820.38 L 2839.20 1849.71 L 2834.72 1870.55 L 2829.73 1884.79 L 2824.53 1894.04 L 2819.25 1899.58 L 2813.88 1902.48 L 2808.04 1903.16 L 2797.46 1898.77 L 2779.73 1887.77 L 2751.68 1866.63 L 2709.60 1830.99 L 2722.26 1797.10 L 2782.03 1828.52 L 2790.53 1751.49 C 2793.00 1729.11 2806.39 1709.41 2826.28 1698.87 L 2875.22 1672.92 Z" fill="#429cfd" fill-rule="evenodd" node-id="303" stroke="none" target-height="292.74" target-width="422.67993" target-x="2709.6" target-y="1671.3"></path><path d="M 2864.94 1545.15 C 2857.91 1536.50 2844.44 1573.16 2844.44 1545.15 C 2844.44 1545.15 2841.64 1551.25 2839.44 1539.15 C 2836.44 1522.66 2835.94 1519.66 2846.94 1508.16 C 2857.43 1497.18 2845.94 1496.16 2858.94 1478.66 C 2871.94 1461.16 2889.94 1467.15 2909.44 1462.65 C 2928.94 1458.15 2955.94 1478.15 2952.94 1483.15 C 2949.94 1488.15 2967.94 1498.65 2967.94 1503.15 C 2967.94 1507.65 2972.94 1547.16 2969.44 1554.16 C 2965.94 1561.16 2967.94 1550.16 2965.94 1541.16 C 2964.02 1532.52 2947.94 1543.16 2940.94 1541.16 C 2935.17 1539.51 2931.73 1528.80 2927.44 1530.16 C 2917.94 1533.16 2917.94 1545.15 2909.44 1543.16 C 2901.12 1541.20 2897.94 1529.16 2889.94 1532.15 C 2885.50 1533.82 2877.94 1561.16 2864.94 1545.15 Z" fill="#003a8c" fill-rule="nonzero" node-id="305" stroke="none" target-height="115.01001" target-width="137" target-x="2835.94" target-y="1458.15"></path></svg>