<?xml version="1.0" standalone="no"?><!DOCTYPE svg PUBLIC "-//W3C//DTD SVG 1.1//EN" "http://www.w3.org/Graphics/SVG/1.1/DTD/svg11.dtd"><svg height="2721" node-id="1" sillyvg="true" template-height="2721" template-width="3861" version="1.1" viewBox="0 0 3861 2721" width="3861" xmlns="http://www.w3.org/2000/svg" xmlns:xlink="http://www.w3.org/1999/xlink"><defs node-id="177"><linearGradient gradientUnits="userSpaceOnUse" id="paint0_linear_91_437" node-id="54" spreadMethod="pad" x1="404.332" x2="404.332" y1="759.469" y2="438.424"><stop offset="0" stop-color="#ffffff" stop-opacity="0.1"></stop><stop offset="1" stop-color="#d9e9ff"></stop></linearGradient><linearGradient gradientUnits="userSpaceOnUse" id="paint1_linear_91_437" node-id="57" spreadMethod="pad" x1="2723.24" x2="2723.24" y1="731.782" y2="456.018"><stop offset="0" stop-color="#ffffff" stop-opacity="0.1"></stop><stop offset="0.14" stop-color="#f8fbff" stop-opacity="0.27"></stop><stop offset="0.37" stop-color="#edf5ff" stop-opacity="0.52"></stop><stop offset="0.58" stop-color="#e4f0ff" stop-opacity="0.73"></stop><stop offset="0.76" stop-color="#deecff" stop-opacity="0.88"></stop><stop offset="0.91" stop-color="#daeaff" stop-opacity="0.97"></stop><stop offset="1" stop-color="#d9e9ff"></stop></linearGradient><linearGradient gradientUnits="userSpaceOnUse" id="paint2_linear_91_437" node-id="65" spreadMethod="pad" x1="3353.86" x2="3353.86" y1="607.017" y2="-0.492787"><stop offset="0" stop-color="#ffffff" stop-opacity="0.1"></stop><stop offset="0.09" stop-color="#fefeff" stop-opacity="0.13"></stop><stop offset="0.23" stop-color="#fbfcff" stop-opacity="0.21"></stop><stop offset="0.4" stop-color="#f5f9ff" stop-opacity="0.33"></stop><stop offset="0.59" stop-color="#eef5ff" stop-opacity="0.51"></stop><stop offset="0.79" stop-color="#e4efff" stop-opacity="0.74"></stop><stop offset="1" stop-color="#d9e9ff"></stop></linearGradient><linearGradient gradientUnits="userSpaceOnUse" id="paint3_linear_91_437" node-id="73" spreadMethod="pad" x1="1908" x2="1908" y1="2659.63" y2="1452.22"><stop offset="0" stop-color="#ffffff" stop-opacity="0.1"></stop><stop offset="0.13" stop-color="#fbfdff" stop-opacity="0.19"></stop><stop offset="0.41" stop-color="#f1f7ff" stop-opacity="0.43"></stop><stop offset="0.81" stop-color="#e1eeff" stop-opacity="0.82"></stop><stop offset="1" stop-color="#d9e9ff"></stop></linearGradient><linearGradient gradientUnits="userSpaceOnUse" id="paint4_linear_91_437" node-id="79" spreadMethod="pad" x1="931.89" x2="882.696" y1="1885.85" y2="1937.74"><stop offset="0" stop-color="#003a8c"></stop><stop offset="1" stop-color="#5792f0"></stop></linearGradient><linearGradient gradientUnits="userSpaceOnUse" id="paint5_linear_91_437" node-id="82" spreadMethod="pad" x1="814.117" x2="764.922" y1="1885.85" y2="1937.74"><stop offset="0" stop-color="#003a8c"></stop><stop offset="1" stop-color="#5792f0"></stop></linearGradient><linearGradient gradientUnits="userSpaceOnUse" id="paint6_linear_91_437" node-id="85" spreadMethod="pad" x1="831" x2="831" y1="1168.98" y2="1216"><stop offset="0" stop-color="#ffcda5"></stop><stop offset="1" stop-color="#ffe8d1"></stop></linearGradient><linearGradient gradientUnits="userSpaceOnUse" id="paint7_linear_91_437" node-id="88" spreadMethod="pad" x1="873" x2="746.5" y1="1392" y2="1316"><stop offset="0" stop-color="#ffffff"></stop><stop offset="1" stop-color="#ffffff" stop-opacity="0"></stop></linearGradient><linearGradient gradientUnits="userSpaceOnUse" id="paint8_linear_91_437" node-id="91" spreadMethod="pad" x1="1964.03" x2="2228.95" y1="1778.52" y2="1778.52"><stop offset="0" stop-color="#eeeeee"></stop><stop offset="0.03" stop-color="#dddddd"></stop><stop offset="1" stop-color="#d8d8d8"></stop></linearGradient><linearGradient gradientUnits="userSpaceOnUse" id="paint9_linear_91_437" node-id="95" spreadMethod="pad" x1="1964.03" x2="2228.95" y1="1778.52" y2="1778.52"><stop offset="0" stop-color="#eeeeee"></stop><stop offset="0.03" stop-color="#dddddd"></stop><stop offset="1" stop-color="#d8d8d8"></stop></linearGradient><linearGradient gradientUnits="userSpaceOnUse" id="paint10_linear_91_437" node-id="99" spreadMethod="pad" x1="2455.66" x2="2745.78" y1="713.595" y2="713.595"><stop offset="0" stop-color="#eeeeee"></stop><stop offset="0.03" stop-color="#b4d7fe"></stop><stop offset="1" stop-color="#b0d3fa"></stop></linearGradient><linearGradient gradientUnits="userSpaceOnUse" id="paint11_linear_91_437" node-id="103" spreadMethod="pad" x1="2458.27" x2="2671.08" y1="694.993" y2="694.993"><stop offset="0" stop-color="#b2d5fc"></stop><stop offset="0.03" stop-color="#dddddd"></stop><stop offset="1" stop-color="#a8d2ff"></stop></linearGradient><linearGradient gradientUnits="userSpaceOnUse" id="paint12_linear_91_437" node-id="107" spreadMethod="pad" x1="2516.45" x2="2678.36" y1="711.062" y2="716.608"><stop offset="0" stop-color="#afd5fe"></stop><stop offset="0.0524188" stop-color="#99cafd"></stop><stop offset="1" stop-color="#b5d4f6"></stop></linearGradient><linearGradient gradientUnits="userSpaceOnUse" id="paint13_linear_91_437" node-id="111" spreadMethod="pad" x1="2524.28" x2="2757.07" y1="722.152" y2="722.152"><stop offset="0" stop-color="#eeeeee"></stop><stop offset="0.03" stop-color="#b2d4f8"></stop><stop offset="1" stop-color="#b2d4fa"></stop></linearGradient><linearGradient gradientUnits="userSpaceOnUse" id="paint14_linear_91_437" node-id="115" spreadMethod="pad" x1="2549.47" x2="2757.07" y1="721.917" y2="721.917"><stop offset="0" stop-color="#eeeeee"></stop><stop offset="0.03" stop-color="#dddddd"></stop><stop offset="1" stop-color="#d8d8d8"></stop></linearGradient><linearGradient gradientUnits="userSpaceOnUse" id="paint15_linear_91_437" node-id="119" spreadMethod="pad" x1="1609.64" x2="2344.18" y1="1029.54" y2="1029.54"><stop offset="0" stop-color="#97c9fd"></stop><stop offset="0.268565" stop-color="#4199f3"></stop><stop offset="1" stop-color="#aad2fd"></stop></linearGradient><linearGradient gradientUnits="userSpaceOnUse" id="paint16_linear_91_437" node-id="123" spreadMethod="pad" x1="1283.9" x2="1593.99" y1="1774.18" y2="1774.18"><stop offset="0" stop-color="#eeeeee"></stop><stop offset="0.03" stop-color="#dddddd"></stop><stop offset="1" stop-color="#d8d8d8"></stop></linearGradient><linearGradient gradientUnits="userSpaceOnUse" id="paint17_linear_91_437" node-id="127" spreadMethod="pad" x1="1283.03" x2="1600.08" y1="1778.09" y2="1778.09"><stop offset="0" stop-color="#68aff7"></stop><stop offset="0.518306" stop-color="#6bb1f8"></stop><stop offset="1" stop-color="#6bb1f7"></stop></linearGradient><linearGradient gradientUnits="userSpaceOnUse" id="paint18_linear_91_437" node-id="131" spreadMethod="pad" x1="1157.95" x2="1498.42" y1="1545.8" y2="1545.8"><stop offset="0" stop-color="#eeeeee"></stop><stop offset="1" stop-color="#d8d8d8"></stop></linearGradient><linearGradient gradientUnits="userSpaceOnUse" id="paint19_linear_91_437" node-id="134" spreadMethod="pad" x1="1263.73" x2="1437.3" y1="1538.42" y2="1604.77"><stop offset="0" stop-color="#5fabf8"></stop><stop offset="1" stop-color="#6eb2f7"></stop></linearGradient><linearGradient gradientUnits="userSpaceOnUse" id="paint20_linear_91_437" node-id="137" spreadMethod="pad" x1="1649" x2="2404.71" y1="212" y2="228.861"><stop offset="0" stop-color="#f0f9ff"></stop><stop offset="1" stop-color="#459ffb"></stop></linearGradient><linearGradient gradientUnits="userSpaceOnUse" id="paint21_linear_91_437" node-id="140" spreadMethod="pad" x1="1031.99" x2="1762.51" y1="764.542" y2="764.542"><stop offset="0" stop-color="#96c5f4"></stop><stop offset="1" stop-color="#3f9cfa"></stop></linearGradient><linearGradient gradientUnits="userSpaceOnUse" id="paint22_linear_91_437" node-id="143" spreadMethod="pad" x1="1124.82" x2="1304.83" y1="988.7" y2="1223"><stop offset="0" stop-color="#c4daf1"></stop><stop offset="1" stop-color="#5daaf8"></stop></linearGradient><linearGradient gradientUnits="userSpaceOnUse" id="paint23_linear_91_437" node-id="146" spreadMethod="pad" x1="1189.5" x2="1641.5" y1="657" y2="743.5"><stop offset="0" stop-color="#c4daf1"></stop><stop offset="1" stop-color="#3497fb"></stop></linearGradient><linearGradient gradientUnits="userSpaceOnUse" id="paint24_linear_91_437" node-id="149" spreadMethod="pad" x1="1287.37" x2="1504.96" y1="411.751" y2="411.751"><stop offset="0" stop-color="#87bdf5"></stop><stop offset="1" stop-color="#6ab2fd"></stop></linearGradient><linearGradient gradientUnits="userSpaceOnUse" id="paint25_linear_91_437" node-id="152" spreadMethod="pad" x1="1302.14" x2="1672.33" y1="309.76" y2="318.332"><stop offset="0" stop-color="#97c9fd"></stop><stop offset="1" stop-color="#54a7fc"></stop></linearGradient><linearGradient gradientUnits="userSpaceOnUse" id="paint26_linear_91_437" node-id="155" spreadMethod="pad" x1="1534.06" x2="1744.27" y1="216.383" y2="216.383"><stop offset="0" stop-color="#79bafd"></stop><stop offset="1" stop-color="#57a9fc"></stop></linearGradient><linearGradient gradientUnits="userSpaceOnUse" id="paint27_linear_91_437" node-id="158" spreadMethod="pad" x1="1542.75" x2="1765.11" y1="212.24" y2="212.24"><stop offset="0" stop-color="#69b2fc"></stop><stop offset="1" stop-color="#54a7fc"></stop></linearGradient><linearGradient gradientUnits="userSpaceOnUse" id="paint28_linear_91_437" node-id="161" spreadMethod="pad" x1="1561.86" x2="1771.19" y1="212.26" y2="212.26"><stop offset="0" stop-color="#eeeeee"></stop><stop offset="1" stop-color="#d8d8d8"></stop></linearGradient><linearGradient gradientUnits="userSpaceOnUse" id="paint29_linear_91_437" node-id="164" spreadMethod="pad" x1="1567.07" x2="1772.06" y1="214.566" y2="214.566"><stop offset="0" stop-color="#eeeeee"></stop><stop offset="1" stop-color="#d8d8d8"></stop></linearGradient><linearGradient gradientUnits="userSpaceOnUse" id="paint30_linear_91_437" node-id="167" spreadMethod="pad" x1="2608.47" x2="1356.13" y1="1661.43" y2="954.861"><stop offset="0" stop-color="#3497fc"></stop><stop offset="1" stop-color="#c0ddfc"></stop></linearGradient><linearGradient gradientUnits="userSpaceOnUse" id="paint31_linear_91_437" node-id="170" spreadMethod="pad" x1="1248.04" x2="3196.39" y1="-2.22849" y2="2574.08"><stop offset="0" stop-color="#5792f0"></stop><stop offset="1" stop-color="#bfd4fa" stop-opacity="0"></stop></linearGradient><linearGradient gradientUnits="userSpaceOnUse" id="paint32_linear_91_437" node-id="173" spreadMethod="pad" x1="2794" x2="3050.35" y1="1805" y2="2039.16"><stop offset="0" stop-color="#f7fbff"></stop><stop offset="1" stop-color="#2399ee"></stop></linearGradient></defs><path d="M 750.42 1504.39 L 767.67 1683.27 L 659.60 1671.38 L 750.42 1504.39 Z" fill="#e4efff" fill-rule="nonzero" node-id="424" stroke="none" target-height="178.88" target-width="108.07001" target-x="659.6" target-y="1504.39"></path><path d="M 745.31 1504.39 L 857.11 1645.59 L 762.27 1683.27 L 745.31 1504.39 Z" fill="#f3f8ff" fill-rule="nonzero" node-id="426" stroke="none" target-height="178.88" target-width="111.79999" target-x="745.31" target-y="1504.39"></path><path d="M 373.92 1549.11 L 395.02 1776.43 L 264.59 1761.27 L 373.92 1549.11 Z" fill="#e4efff" fill-rule="nonzero" node-id="428" stroke="none" target-height="227.32007" target-width="130.43" target-x="264.59" target-y="1549.11"></path><path d="M 376.38 1549.11 L 514.27 1728.77 L 397.51 1776.43 L 376.38 1549.11 Z" fill="#f3f8ff" fill-rule="nonzero" node-id="430" stroke="none" target-height="227.32007" target-width="137.89001" target-x="376.38" target-y="1549.11"></path><path d="M 553.32 1392.60 L 588.80 1768.98 L 350.30 1745.54 L 553.32 1392.60 Z" fill="#e4efff" fill-rule="nonzero" node-id="432" stroke="none" target-height="376.38" target-width="238.5" target-x="350.3" target-y="1392.6"></path><path d="M 547.80 1392.60 L 797.48 1688.37 L 583.32 1768.98 L 547.80 1392.60 Z" fill="#f3f8ff" fill-rule="nonzero" node-id="434" stroke="none" target-height="376.38" target-width="249.68" target-x="547.8" target-y="1392.6"></path><path d="M 623.19 565.41 C 609.26 490.81 544.12 437.26 468.99 438.63 C 428.78 438.45 389.99 453.50 360.28 480.89 C 343.66 473.29 325.63 469.38 307.37 469.38 C 249.53 468.45 198.89 508.40 185.81 565.30 C 141.35 575.21 109.30 614.42 108.07 660.37 C 109.78 716.30 155.84 760.35 211.22 759.04 L 597.44 759.04 C 652.86 760.42 698.95 716.34 700.59 660.37 C 699.40 614.53 667.50 575.40 623.19 565.41 Z" fill="url(#paint0_linear_91_437)" fill-rule="nonzero" node-id="436" stroke="none" target-height="323.15997" target-width="592.52" target-x="108.07" target-y="437.26"></path><path d="M 2911.74 560.73 C 2891.69 529.24 2857.74 509.72 2820.81 508.38 C 2799.31 475.10 2762.45 455.35 2723.21 456.02 C 2691.80 455.72 2661.54 468.24 2639.29 490.82 C 2629.12 487.54 2618.50 485.83 2607.84 485.83 C 2558.42 485.83 2517.62 520.49 2513.41 564.35 C 2475.73 573.44 2448.60 606.79 2447.00 646.03 C 2447.00 693.29 2489.71 731.78 2541.43 731.78 L 2904.10 731.78 C 2956.57 731.78 2998.53 693.29 2998.53 646.03 C 2999.35 601.13 2960.56 564.24 2911.74 560.73 Z" fill="url(#paint1_linear_91_437)" fill-rule="nonzero" node-id="438" stroke="none" target-height="276.43002" target-width="552.3501" target-x="2447" target-y="455.35"></path><path d="M 3710.15 192.82 C 3674.75 119.89 3600.85 73.46 3519.69 73.19 C 3474.48 73.31 3430.51 87.95 3394.29 114.97 C 3351.21 30.97 3257.60 -14.27 3164.96 4.03 C 3072.28 22.36 3003.00 99.84 2995.17 193.86 C 2895.49 225.31 2833.63 324.62 2849.47 427.85 C 2865.34 531.08 2954.14 607.32 3058.67 607.43 L 3648.40 607.43 C 3753.53 607.62 3842.93 530.74 3858.32 426.88 C 3873.75 322.99 3810.51 223.52 3709.85 193.23 L 3710.15 192.82 Z" fill="url(#paint2_linear_91_437)" fill-rule="nonzero" node-id="440" stroke="none" target-height="621.89" target-width="1040.1201" target-x="2833.63" target-y="-14.27"></path><path d="M 3816.00 2055.93 C 3816.00 2216.06 3614.99 2369.59 3257.16 2482.80 C 2899.34 2596.02 2414.03 2659.63 1908.00 2659.63 C 1401.97 2659.63 916.66 2596.02 558.84 2482.80 C 201.01 2369.59 0.00 2216.06 0.00 2055.93 C 0.00 1895.80 201.01 1742.26 558.84 1629.05 C 916.66 1515.84 1401.97 1452.22 1908.00 1452.22 C 2414.03 1452.22 2899.34 1515.84 3257.16 1629.05 C 3614.99 1742.26 3816.00 1895.80 3816.00 2055.93 Z" fill="url(#paint3_linear_91_437)" fill-rule="nonzero" node-id="442" stroke="none" target-height="1207.4099" target-width="3816" target-x="0" target-y="1452.22"></path><path d="M 3376.27 1549.11 L 3358.12 1787.61 L 3223.48 1748.56 L 3376.27 1549.11 Z" fill="#e4efff" fill-rule="nonzero" node-id="444" stroke="none" target-height="238.5" target-width="152.79004" target-x="3223.48" target-y="1549.11"></path><path d="M 3371.98 1549.11 L 3484.34 1759.25 L 3353.91 1787.61 L 3371.98 1549.11 Z" fill="#f3f8ff" fill-rule="nonzero" node-id="446" stroke="none" target-height="238.5" target-width="130.43018" target-x="3353.91" target-y="1549.11"></path><path d="M 649.00 1929.32 L 649.88 1934.99 L 652.39 1940.62 L 656.77 1946.33 L 663.46 1952.25 L 673.33 1958.58 L 686.28 1964.88 L 702.88 1970.95 L 719.85 1975.77 L 739.24 1980.00 L 761.40 1983.57 L 783.59 1986.08 L 807.44 1987.62 L 833.02 1988.21 L 858.60 1987.62 L 882.45 1986.08 L 904.64 1983.57 L 926.80 1980.00 L 946.19 1975.77 L 963.16 1970.95 L 979.76 1964.88 L 992.71 1958.62 L 1002.58 1952.25 L 1009.28 1946.33 L 1013.66 1940.62 L 1016.16 1934.99 L 1017.04 1929.32 L 1016.16 1923.66 L 1013.66 1918.03 L 1009.28 1912.32 L 1002.58 1906.40 L 992.71 1900.06 L 979.76 1893.77 L 963.16 1887.70 L 946.19 1882.88 L 926.80 1878.64 L 904.64 1875.07 L 882.45 1872.57 L 858.60 1871.03 L 833.02 1870.44 L 807.44 1871.03 L 783.59 1872.57 L 761.40 1875.07 L 739.24 1878.64 L 719.85 1882.88 L 702.88 1887.70 L 686.28 1893.77 L 673.33 1900.06 L 663.46 1906.40 L 656.77 1912.32 L 652.39 1918.03 L 649.88 1923.66 L 649.00 1929.32 Z" fill="#84c1ff" fill-opacity="0.15" fill-rule="evenodd" node-id="448" stroke="none" target-height="117.77002" target-width="368.03998" target-x="649" target-y="1870.44"></path><path d="M 889.59 1886.78 L 892.64 1906.73 L 904.86 1908.09 L 918.30 1911.62 L 933.20 1917.66 L 939.16 1922.08 L 941.67 1924.95 L 942.92 1928.08 L 943.32 1931.61 L 942.14 1932.75 L 935.12 1933.89 L 913.36 1934.07 L 863.64 1931.61 L 863.64 1879.46 L 889.59 1886.78 Z" fill="url(#paint4_linear_91_437)" fill-rule="nonzero" node-id="450" stroke="none" target-height="54.609985" target-width="79.67999" target-x="863.64" target-y="1879.46"></path><path d="M 771.82 1886.78 L 774.87 1906.73 L 787.09 1908.09 L 800.52 1911.62 L 815.43 1917.66 L 821.39 1922.08 L 823.89 1924.95 L 825.14 1928.08 L 825.55 1931.61 L 824.37 1932.75 L 817.34 1933.89 L 795.59 1934.07 L 745.87 1931.61 L 745.87 1879.46 L 771.82 1886.78 Z" fill="url(#paint5_linear_91_437)" fill-rule="nonzero" node-id="452" stroke="none" target-height="54.609985" target-width="79.67999" target-x="745.87" target-y="1879.46"></path><path d="M 798.13 1476.60 L 780.72 1477.22 L 768.39 1478.36 L 763.72 1478.95 L 764.49 1490.84 L 765.85 1522.57 L 766.44 1568.28 L 766.00 1594.22 L 764.82 1622.19 L 759.52 1697.86 L 753.01 1772.10 L 746.61 1836.06 L 741.75 1880.89 L 739.83 1897.78 L 777.85 1897.78 L 782.45 1881.85 L 794.01 1839.16 L 808.99 1777.43 L 816.61 1742.32 L 823.93 1704.49 L 830.30 1666.14 L 835.34 1628.05 L 838.62 1590.36 L 839.68 1555.80 L 844.03 1581.16 L 847.89 1610.68 L 850.95 1641.26 L 853.48 1673.76 L 856.94 1738.94 L 858.75 1800.22 L 859.45 1851.48 L 859.48 1886.71 L 859.41 1899.77 L 899.42 1895.80 L 900.89 1880.41 L 904.61 1839.56 L 909.28 1781.30 L 913.84 1713.54 L 917.01 1644.35 L 917.60 1610.82 L 917.41 1581.27 L 915.61 1530.96 L 913.29 1497.69 L 912.15 1485.65 L 892.50 1483.81 L 872.84 1483.59 L 853.12 1484.95 L 852.97 1484.99 L 838.58 1480.87 L 822.38 1477.89 L 810.98 1476.89 L 800.01 1476.60 L 798.13 1476.60 Z" fill="#153f82" fill-rule="nonzero" node-id="454" stroke="none" target-height="423.17004" target-width="177.76996" target-x="739.83" target-y="1476.6"></path><path d="M 813.00 1162.00 L 849.00 1162.00 L 852.50 1216.00 L 810.50 1214.50 L 813.00 1162.00 Z" fill="url(#paint6_linear_91_437)" fill-rule="evenodd" node-id="456" stroke="none" target-height="54" target-width="42" target-x="810.5" target-y="1162"></path><path d="M 856.98 1193.29 L 863.83 1196.89 L 870.49 1201.05 L 878.91 1207.42 L 886.83 1215.11 L 893.86 1224.57 L 900.89 1237.89 L 907.22 1252.83 L 912.70 1268.18 L 917.12 1282.42 L 923.26 1305.76 L 925.36 1315.22 L 926.10 1320.63 L 929.96 1335.42 L 933.64 1345.10 L 939.46 1357.28 L 950.90 1377.05 L 957.12 1385.66 L 959.00 1387.50 L 962.28 1389.71 L 969.93 1394.60 L 978.62 1399.76 L 985.06 1402.63 L 993.97 1405.50 L 1003.46 1409.33 L 1007.84 1411.24 L 996.98 1444.69 L 989.51 1443.81 L 970.74 1440.87 L 959.07 1438.44 L 946.08 1435.20 L 933.20 1431.19 L 921.02 1426.37 L 912.81 1421.58 L 906.04 1415.80 L 900.30 1409.25 L 895.96 1402.96 L 890.25 1392.06 L 888.45 1387.50 L 856.98 1193.29 Z" fill="#429cfd" fill-rule="evenodd" node-id="458" stroke="none" target-height="251.3999" target-width="150.86005" target-x="856.98" target-y="1193.29"></path><path d="M 846.68 1208.93 C 845.73 1212.18 842.02 1213.71 839.06 1212.07 L 800.20 1190.59 C 798.46 1189.63 796.30 1189.90 794.85 1191.26 L 794.85 1191.26 L 791.10 1195.02 L 786.46 1198.44 L 784.44 1199.98 L 781.09 1202.16 L 773.58 1208.41 L 769.53 1212.79 L 765.78 1218.09 L 763.31 1224.05 L 761.21 1233.03 L 759.01 1252.84 L 758.23 1270.06 L 758.20 1277.46 L 758.45 1287.65 L 758.45 1313.49 L 757.09 1347.57 L 754.37 1394.83 L 752.46 1438.40 L 751.35 1470.39 L 750.98 1482.79 L 759.30 1483.19 L 780.35 1484.15 L 808.40 1485.14 L 837.62 1485.70 L 874.98 1485.29 L 903.28 1484.19 L 914.50 1483.56 L 890.62 1264.50 L 889.85 1258.32 L 887.08 1243.05 L 884.84 1233.73 L 881.75 1223.69 L 877.88 1213.90 L 873.25 1205.14 L 869.57 1200.79 L 865.00 1197.30 L 856.02 1192.84 L 856.02 1192.84 C 853.71 1192.08 851.22 1193.39 850.54 1195.73 L 846.68 1208.93 Z" fill="#429cfd" fill-rule="evenodd" node-id="460" stroke="none" target-height="296.06995" target-width="163.52002" target-x="750.98" target-y="1189.63"></path><path d="M 799.06 1337.13 L 799.09 1337.16 L 799.12 1337.18 L 898.68 1410.33 L 880.60 1450.47 L 822.49 1418.35 L 815.00 1413.76 L 814.99 1413.75 L 796.86 1402.31 L 796.85 1402.31 L 774.57 1387.56 L 754.53 1373.04 L 746.88 1366.46 L 743.42 1362.41 L 740.45 1356.26 L 738.82 1350.27 L 737.83 1340.04 L 738.05 1335.74 L 738.05 1335.74 L 738.67 1326.40 L 738.67 1326.40 L 740.55 1303.41 L 743.75 1274.31 L 745.92 1259.50 L 748.31 1246.64 L 751.35 1235.03 L 754.26 1228.05 L 758.84 1221.76 L 765.09 1215.40 L 777.49 1205.35 L 783.03 1201.52 L 786.05 1205.78 L 793.21 1217.16 L 796.94 1224.12 L 800.05 1231.21 L 802.27 1239.45 L 803.26 1247.92 L 802.97 1262.51 L 802.20 1268.73 L 801.21 1274.46 L 801.21 1274.46 L 798.92 1288.26 L 798.92 1288.27 L 796.24 1305.16 L 796.24 1305.16 L 796.24 1305.17 L 794.10 1320.11 L 794.10 1320.13 L 794.10 1320.14 L 793.51 1328.13 L 793.50 1328.23 L 793.54 1328.33 L 794.79 1331.87 L 794.81 1331.93 L 794.84 1331.98 L 796.61 1334.63 L 796.64 1334.67 L 796.67 1334.70 L 799.06 1337.13 Z" fill="#429cfd" fill-rule="nonzero" node-id="462" stroke="none" target-height="248.94995" target-width="160.84998" target-x="737.83" target-y="1201.52"></path><g node-id="529"><path d="M 799.06 1337.13 L 799.09 1337.16 L 799.12 1337.18 L 898.68 1410.33 L 880.60 1450.47 L 822.49 1418.35 L 815.00 1413.76 L 814.99 1413.75 L 796.86 1402.31 L 796.85 1402.31 L 774.57 1387.56 L 754.53 1373.04 L 746.88 1366.46 L 743.42 1362.41 L 740.45 1356.26 L 738.82 1350.27 L 737.83 1340.04 L 738.05 1335.74 L 738.05 1335.74 L 738.67 1326.40 L 738.67 1326.40 L 740.55 1303.41 L 743.75 1274.31 L 745.92 1259.50 L 748.31 1246.64 L 751.35 1235.03 L 754.26 1228.05 L 758.84 1221.76 L 765.09 1215.40 L 777.49 1205.35 L 783.03 1201.52 L 786.05 1205.78 L 793.21 1217.16 L 796.94 1224.12 L 800.05 1231.21 L 802.27 1239.45 L 803.26 1247.92 L 802.97 1262.51 L 802.20 1268.73 L 801.21 1274.46 L 801.21 1274.46 L 798.92 1288.26 L 798.92 1288.27 L 796.24 1305.16 L 796.24 1305.16 L 796.24 1305.17 L 794.10 1320.11 L 794.10 1320.13 L 794.10 1320.14 L 793.51 1328.13 L 793.50 1328.23 L 793.54 1328.33 L 794.79 1331.87 L 794.81 1331.93 L 794.84 1331.98 L 796.61 1334.63 L 796.64 1334.67 L 796.67 1334.70 L 799.06 1337.13 Z" fill="none" group-id="1" node-id="466" stroke="url(#paint7_linear_91_437)" stroke-linecap="butt" stroke-width="1" target-height="248.94995" target-width="160.84998" target-x="737.83" target-y="1201.52"></path></g><path d="M 1024.14 1358.39 L 912.33 1358.39 L 910.23 1358.79 L 908.47 1359.97 L 907.29 1361.70 L 906.88 1363.76 L 903.65 1437.15 L 904.05 1439.21 L 905.23 1440.98 L 907.00 1442.12 L 909.06 1442.52 L 1016.52 1442.52 L 1018.62 1442.12 L 1020.39 1440.98 L 1021.57 1439.21 L 1021.97 1437.15 L 1029.55 1363.76 L 1029.15 1361.70 L 1027.97 1359.97 L 1026.20 1358.79 L 1024.14 1358.39 Z" fill="#000000" fill-rule="evenodd" node-id="469" stroke="none" target-height="84.130005" target-width="125.900024" target-x="903.65" target-y="1358.39"></path><path d="M 899.30 1411.24 L 930.33 1412.23 L 931.73 1412.79 L 932.65 1413.96 L 933.24 1417.09 L 932.68 1418.82 L 931.29 1420.04 L 923.56 1422.98 L 935.15 1424.93 L 950.61 1424.93 L 952.23 1425.41 L 953.18 1426.55 L 953.52 1429.79 L 952.38 1438.70 L 951.57 1443.48 L 950.39 1446.42 L 948.29 1448.56 L 943.87 1450.29 L 931.80 1451.54 L 918.96 1452.09 L 912.96 1452.24 L 904.71 1452.06 L 896.54 1451.28 L 891.06 1449.96 L 885.54 1448.23 L 883.04 1447.38 L 885.43 1441.31 L 890.69 1428.24 L 894.67 1419.59 L 899.30 1411.24 Z M 1022.63 1411.72 L 996.21 1410.17 L 994.99 1410.58 L 994.15 1411.61 L 993.41 1414.55 L 993.74 1416.21 L 994.85 1417.50 L 1001.18 1420.88 L 991.20 1421.80 L 978.10 1420.55 L 976.67 1420.88 L 975.82 1421.91 L 975.27 1424.97 L 975.60 1433.47 L 975.93 1438.07 L 976.52 1440.50 L 977.81 1442.56 L 979.65 1444.14 L 981.97 1445.17 L 992.12 1447.27 L 1002.98 1448.85 L 1008.06 1449.48 L 1022.08 1449.88 L 1024.92 1449.81 L 1027.68 1449.04 L 1029.52 1447.12 L 1030.84 1444.80 L 1031.76 1434.94 L 1030.73 1425.08 L 1028.15 1416.21 L 1026.09 1413.12 L 1022.63 1411.72 Z" fill="#fee0bc" fill-rule="evenodd" node-id="471" stroke="none" target-height="42.069946" target-width="148.72003" target-x="883.04" target-y="1410.17"></path><path d="M 799.51 1133.50 C 799.51 1164.15 807.60 1189.00 830.51 1189.00 C 853.43 1189.00 866.01 1164.15 866.01 1133.50 C 866.01 1102.85 853.43 1078.00 830.51 1078.00 C 807.60 1078.00 799.51 1102.85 799.51 1133.50 Z" fill="#ffe7ca" fill-rule="nonzero" node-id="473" stroke="none" target-height="111" target-width="66.5" target-x="799.51" target-y="1078"></path><path d="M 845.05 1073.30 L 846.65 1071.36 L 848.62 1069.98 L 851.94 1068.94 L 855.82 1069.05 L 861.67 1071.06 L 866.59 1074.60 L 868.71 1078.14 L 869.38 1082.06 L 868.97 1085.52 L 867.59 1090.40 L 867.67 1092.30 L 868.52 1093.61 L 869.98 1094.17 L 872.48 1093.72 L 875.53 1092.82 L 879.41 1092.94 L 883.06 1094.61 L 886.93 1099.35 L 888.01 1104.08 L 887.08 1110.56 L 884.33 1116.97 L 880.00 1122.53 L 876.35 1125.28 L 872.33 1126.74 L 867.71 1126.89 L 857.90 1124.31 L 851.01 1120.77 L 845.27 1116.34 L 841.17 1112.35 L 834.95 1107.36 L 831.37 1105.46 L 828.46 1104.64 L 826.04 1105.05 L 824.70 1107.13 L 823.66 1114.66 L 822.73 1121.89 L 821.83 1124.05 L 820.79 1124.13 L 819.82 1122.64 L 819.04 1119.47 L 817.02 1112.72 L 815.01 1110.27 L 811.77 1109.26 L 808.45 1110.12 L 806.55 1112.39 L 805.81 1115.52 L 806.11 1119.40 L 807.45 1123.20 L 809.64 1126.59 L 811.43 1128.94 L 810.95 1131.32 L 810.02 1134.93 L 807.52 1138.89 L 804.13 1141.90 L 802.94 1141.68 L 801.11 1139.18 L 799.25 1135.34 L 797.12 1128.53 L 796.04 1120.40 L 796.68 1107.51 L 796.90 1104.19 L 796.38 1102.48 L 793.29 1099.12 L 791.24 1096.66 L 789.48 1093.42 L 789.00 1089.81 L 790.64 1085.00 L 793.84 1081.09 L 796.64 1079.63 L 803.31 1079.41 L 806.44 1079.15 L 807.56 1078.37 L 808.12 1074.90 L 809.42 1069.94 L 811.14 1066.81 L 813.74 1063.87 L 817.06 1061.78 L 821.57 1061.00 L 828.20 1062.16 L 832.53 1064.50 L 835.84 1067.86 L 838.04 1071.32 L 840.17 1073.97 L 841.88 1074.64 L 843.63 1074.27 L 845.05 1073.30 Z" fill="#003a8c" fill-rule="nonzero" node-id="475" stroke="none" target-height="80.900024" target-width="99.01001" target-x="789" target-y="1061"></path><path d="M 1430.40 2069.18 C 1428.47 2070.18 1427.37 2072.25 1427.31 2074.43 C 1426.98 2085.65 1420.74 2096.36 1410.07 2101.89 C 1403.35 2105.38 1395.95 2106.24 1389.07 2104.85 C 1380.81 2103.18 1381.71 2092.99 1389.19 2089.11 L 1390.76 2088.30 C 1396.12 2085.52 1398.21 2078.92 1395.43 2073.55 C 1392.65 2068.19 1386.05 2066.10 1380.69 2068.88 L 1379.04 2069.73 C 1371.58 2073.60 1362.73 2068.49 1366.08 2060.78 C 1368.91 2054.29 1373.89 2048.69 1380.67 2045.17 C 1391.37 2039.63 1403.75 2040.72 1413.12 2046.97 C 1414.93 2048.18 1417.26 2048.48 1419.20 2047.48 L 1460.28 2026.18 C 1466.27 2023.07 1473.64 2025.41 1476.75 2031.40 C 1479.85 2037.39 1477.51 2044.76 1471.52 2047.86 L 1430.40 2069.18 Z" fill="#d9e8ff" fill-opacity="0.7" fill-rule="nonzero" node-id="477" stroke="none" target-height="83.170044" target-width="117.119995" target-x="1362.73" target-y="2023.07"></path><path d="M 2228.95 1855.03 L 2025.84 1746.19 L 2019.25 1741.99 L 2013.24 1737.01 L 1989.76 1718.05 L 1964.03 1702.15 L 2167.13 1810.87 L 2192.93 1826.83 L 2216.47 1845.85 L 2222.42 1850.83 L 2228.95 1855.03 Z" fill="url(#paint8_linear_91_437)" fill-rule="nonzero" node-id="479" stroke="none" target-height="152.88" target-width="264.91992" target-x="1964.03" target-y="1702.15"></path><path d="M 2228.95 1855.03 L 2025.84 1746.19 L 2019.25 1741.99 L 2013.24 1737.01 L 1989.76 1718.05 L 1964.03 1702.15 L 2167.13 1810.87 L 2192.93 1826.83 L 2216.47 1845.85 L 2222.42 1850.83 L 2228.95 1855.03 Z" fill="url(#paint9_linear_91_437)" fill-rule="nonzero" node-id="481" stroke="none" target-height="152.88" target-width="264.91992" target-x="1964.03" target-y="1702.15"></path><path d="M 2654.48 752.16 L 2455.66 644.18 L 2466.48 649.65 L 2483.66 656.19 L 2501.91 660.83 L 2520.33 665.24 L 2538.04 670.83 L 2547.14 675.05 L 2745.78 783.15 L 2736.81 778.93 L 2719.09 773.22 L 2700.67 768.82 L 2682.36 764.18 L 2665.12 757.75 L 2654.48 752.16 Z" fill="url(#paint10_linear_91_437)" fill-rule="nonzero" node-id="483" stroke="none" target-height="138.97003" target-width="290.12012" target-x="2455.66" target-y="644.18"></path><path d="M 2458.27 639.84 L 2467.17 644.23 L 2671.08 750.15 L 2662.18 745.70 L 2458.27 639.84 Z" fill="url(#paint11_linear_91_437)" fill-rule="nonzero" node-id="485" stroke="none" target-height="110.31" target-width="212.81006" target-x="2458.27" target-y="639.84"></path><path d="M 2698.53 758.72 L 2494.75 652.00 L 2524.51 658.21 L 2728.41 770.13 L 2721.95 768.69 L 2719.28 768.10 L 2715.31 766.42" fill="url(#paint12_linear_91_437)" fill-rule="nonzero" node-id="487" stroke="none" target-height="118.130005" target-width="233.65991" target-x="2494.75" target-y="652"></path><path d="M 2725.26 769.67 L 2524.28 659.81 L 2543.16 665.61 L 2549.21 668.21 L 2757.07 783.16 L 2747.87 777.83 L 2736.00 773.69 L 2726.86 769.67 L 2725.26 769.67 Z" fill="url(#paint13_linear_91_437)" fill-rule="nonzero" node-id="489" stroke="none" target-height="123.349976" target-width="232.79004" target-x="2524.28" target-y="659.81"></path><path d="M 2753.92 774.59 L 2549.47 667.63 L 2552.80 669.13 L 2757.07 776.21 L 2753.92 774.59 Z" fill="url(#paint14_linear_91_437)" fill-rule="nonzero" node-id="491" stroke="none" target-height="108.58002" target-width="207.6001" target-x="2549.47" target-y="667.63"></path><path d="M 2304.73 1193.82 L 2315.32 1168.27 L 2316.21 1165.84 L 2316.21 1164.41 L 2319.48 1154.61 L 2322.40 1146.23 L 2325.37 1136.25 L 2327.99 1127.57 L 2330.55 1117.35 L 2332.57 1108.86 L 2334.83 1098.34 L 2336.56 1089.79 L 2338.28 1078.85 L 2339.59 1070.48 L 2340.90 1058.83 L 2341.43 1054.43 L 2341.85 1050.99 L 2342.74 1038.21 L 2342.74 1031.26 L 2342.74 1011.48 L 2341.37 979.34 L 2337.51 948.91 L 2331.38 920.10 L 2322.99 892.71 L 2312.11 865.85 L 2299.32 840.96 L 2284.68 817.79 L 2268.14 796.28 L 2249.64 776.32 L 2229.66 758.43 L 2208.12 742.51 L 2184.98 728.55 L 1981.89 618.99 L 2005.09 632.95 L 2026.62 648.81 L 2046.61 666.70 L 2065.11 686.66 L 2081.65 708.17 L 2096.28 731.34 L 2109.07 756.24 L 2119.96 783.03 L 2128.35 810.48 L 2134.47 839.30 L 2138.28 869.72 L 2139.65 901.92 L 2139.65 921.82 L 2139.65 928.65 L 2138.82 941.43 L 2137.92 949.27 L 2136.50 961.03 L 2135.84 965.67 L 2135.25 969.29 L 2133.52 980.23 L 2131.80 988.78 L 2129.66 999.42 L 2127.45 1007.91 L 2124.90 1018.19 L 2122.34 1026.69 L 2119.42 1036.67 L 2116.57 1045.17 L 2113.12 1054.85 L 2111.69 1058.65 L 2101.10 1084.26 L 2099.97 1086.93 L 2087.30 1112.42 L 2084.62 1117.53 L 2072.55 1138.09 L 2072.55 1138.98 L 2059.93 1157.99 L 2056.07 1163.58 L 2045.90 1177.78 L 2042.45 1182.17 L 2028.11 1199.11 L 2025.07 1202.38 L 2012.76 1215.27 L 2007.88 1220.14 L 1995.51 1231.79 L 1991.64 1235.35 L 1974.03 1249.55 L 1969.87 1252.82 L 1954.64 1263.87 L 1950.06 1267.02 L 1926.68 1281.22 L 1922.40 1283.65 L 1897.59 1296.43 L 1893.43 1298.27 L 1875.82 1305.82 L 1870.34 1307.95 L 1848.39 1315.32 L 1845.36 1316.21 L 1825.61 1321.32 L 1819.54 1322.75 L 1796.46 1326.85 L 1782.60 1328.39 L 1767.79 1329.52 L 1758.92 1329.52 L 1739.11 1329.52 L 1729.24 1329.52 L 1710.44 1327.56 L 1701.52 1326.43 L 1678.02 1321.56 L 1675.16 1321.56 L 1649.64 1313.66 L 1642.15 1310.81 L 1624.84 1303.38 L 1610.50 1296.31 L 1813.71 1405.69 L 1824.18 1411.10 L 1828.35 1412.94 L 1845.66 1420.37 L 1852.97 1423.22 L 1878.67 1431.18 L 1881.23 1431.18 L 1904.73 1435.99 L 1913.65 1437.12 L 1932.45 1438.96 L 1942.33 1438.96 L 1962.14 1438.96 L 1971.00 1438.96 L 1985.51 1438.13 L 1999.67 1436.29 L 2011.87 1434.27 L 2022.81 1432.13 L 2028.94 1430.70 L 2048.75 1425.59 L 2051.78 1424.76 L 2073.56 1417.40 L 2079.15 1415.08 L 2096.76 1407.71 L 2099.97 1406.40 L 2100.92 1406.40 L 2125.73 1393.63 L 2130.07 1391.07 L 2153.45 1376.87 L 2155.00 1375.86 L 2158.03 1373.73 L 2172.37 1362.67 L 2176.65 1359.41 L 2194.32 1345.21 L 2195.33 1344.32 L 2198.19 1341.64 L 2210.50 1330.00 L 2215.38 1325.13 L 2227.57 1312.05 L 2230.01 1309.68 L 2230.01 1308.79 L 2244.35 1291.91 L 2247.68 1287.46 L 2257.97 1273.26 L 2260.11 1270.40 L 2261.84 1267.85 L 2274.45 1248.84 L 2274.45 1247.95 L 2286.53 1227.21 L 2287.95 1224.83 L 2289.26 1222.28 L 2301.87 1196.79 L 2304.73 1193.82 Z" fill="url(#paint15_linear_91_437)" fill-rule="nonzero" node-id="493" stroke="none" target-height="819.97" target-width="732.24" target-x="1610.5" target-y="618.99"></path><path d="M 1593.99 1870.66 L 1395.81 1768.15 L 1363.72 1749.15 L 1332.99 1728.20 L 1303.56 1705.16 L 1292.72 1692.24 L 1283.90 1677.83 L 1486.11 1789.64 L 1494.93 1804.05 L 1505.71 1816.96 L 1520.16 1828.16 L 1534.07 1837.50 L 1562.97 1854.05 L 1593.99 1870.66 Z" fill="url(#paint16_linear_91_437)" fill-rule="nonzero" node-id="495" stroke="none" target-height="192.83008" target-width="310.08997" target-x="1283.9" target-y="1677.83"></path><path d="M 1396.49 1768.54 L 1364.38 1749.65 L 1333.63 1728.81 L 1304.18 1705.90 L 1292.63 1695.18 L 1287.47 1689.73 L 1283.03 1683.04 L 1485.31 1783.75 L 1490.11 1791.45 L 1496.74 1799.97 L 1510.13 1814.72 L 1554.45 1845.50 L 1576.38 1859.53 L 1600.08 1873.27 L 1396.49 1768.54 Z" fill="url(#paint17_linear_91_437)" fill-rule="nonzero" node-id="497" stroke="none" target-height="190.22998" target-width="317.04993" target-x="1283.03" target-y="1683.04"></path><path d="M 1157.95 1299.11 L 1358.79 1408.63 L 1381.92 1423.77 L 1403.02 1440.99 L 1422.29 1460.35 L 1439.47 1481.63 L 1454.27 1504.57 L 1466.76 1529.29 L 1479.18 1558.79 L 1488.52 1589.12 L 1494.82 1620.28 L 1498.09 1652.52 L 1498.45 1684.64 L 1496.25 1718.60 L 1491.37 1754.47 L 1483.46 1792.49 L 1282.69 1682.97 L 1290.53 1645.13 L 1295.47 1609.38 L 1297.67 1575.47 L 1297.31 1543.30 L 1294.04 1511.06 L 1287.80 1479.78 L 1278.46 1449.33 L 1266.10 1419.60 L 1253.61 1394.87 L 1238.81 1371.93 L 1221.63 1350.66 L 1202.30 1331.29 L 1181.14 1314.13 L 1157.95 1299.11 Z" fill="url(#paint18_linear_91_437)" fill-rule="nonzero" node-id="499" stroke="none" target-height="493.38" target-width="340.5" target-x="1157.95" target-y="1299.11"></path><path d="M 1282.30 1682.97 L 1290.13 1645.13 L 1295.04 1609.38 L 1297.24 1575.47 L 1296.88 1543.30 L 1293.62 1511.06 L 1287.40 1479.78 L 1278.09 1449.33 L 1265.76 1419.60 L 1253.32 1394.87 L 1238.56 1371.93 L 1221.43 1350.66 L 1202.17 1331.29 L 1181.07 1314.13 L 1157.95 1299.11 L 1363.33 1400.83 L 1386.26 1416.08 L 1407.01 1433.66 L 1425.80 1453.56 L 1442.45 1475.31 L 1456.86 1498.61 L 1469.19 1523.46 L 1481.57 1553.01 L 1490.82 1583.64 L 1497.04 1615.52 L 1500.13 1648.77 L 1500.18 1681.84 L 1497.40 1716.69 L 1491.53 1753.52 L 1482.46 1792.49 L 1282.30 1682.97 Z" fill="url(#paint19_linear_91_437)" fill-rule="nonzero" node-id="501" stroke="none" target-height="493.38" target-width="342.2301" target-x="1157.95" target-y="1299.11"></path><path d="M 2278.55 200.32 L 2308.44 210.37 L 2317.53 213.69 L 2338.15 221.77 L 2348.13 225.99 L 2368.33 234.96 L 2376.82 238.94 L 2405.28 252.96 L 2203.87 144.48 L 2179.16 131.94 L 2175.89 130.40 L 2167.33 126.48 L 2147.13 117.45 L 2137.15 113.23 L 2116.71 105.39 L 2107.56 102.00 L 2077.56 91.84 L 2073.76 90.89 L 2069.18 90.00 L 2065.92 90.00 L 2056.94 90.00 L 2048.98 92.26 L 2043.99 95.11 L 2043.04 95.94 L 2041.62 97.07 L 2039.48 98.73 L 2036.33 102.00 L 2034.78 103.55 L 2028.37 111.57 L 2015.83 127.61 L 2011.73 132.54 L 2007.99 136.99 L 2003.06 142.82 L 1999.37 146.74 L 1988.08 158.56 L 1982.98 163.79 L 1972.46 173.59 L 1967.47 178.28 L 1951.72 191.35 L 1951.01 191.35 L 1934.08 203.71 L 1929.80 206.68 L 1910.02 219.04 L 1908.59 219.93 L 1887.38 230.86 L 1882.57 233.12 L 1866.76 239.89 L 1864.21 240.90 L 1845.85 247.20 L 1840.74 248.62 L 1826.54 252.31 L 1821.13 253.56 L 1802.48 256.76 L 1791.67 258.01 L 1779.90 258.90 L 1756.97 258.90 L 1749.13 258.90 L 1733.68 257.18 L 1726.55 256.35 L 1705.34 252.01 L 1704.51 252.01 L 1682.88 245.24 L 1676.46 242.68 L 1661.55 236.39 L 1648.72 230.21 L 1850.31 338.57 L 1859.40 343.32 L 1863.08 344.87 L 1877.28 351.05 L 1883.87 353.72 L 1905.44 360.38 L 1906.33 360.38 L 1927.54 364.59 L 1934.49 365.54 L 1950.12 367.09 L 1957.96 367.09 L 1973.77 367.09 L 1980.84 367.09 L 1992.18 366.61 L 2003.47 365.01 L 2022.13 361.62 L 2027.54 360.49 L 2041.73 356.87 L 2046.73 355.27 L 2065.08 349.09 L 2067.76 347.96 L 2083.38 341.36 L 2086.00 340.35 L 2088.37 339.11 L 2109.58 328.12 L 2111.01 327.17 L 2130.79 314.75 L 2133.35 313.20 L 2135.01 311.96 L 2151.95 299.54 L 2167.63 286.47 L 2169.59 284.92 L 2172.74 281.95 L 2183.26 271.97 L 2188.37 266.92 L 2199.60 255.10 L 2202.45 252.01 L 2203.34 251.00 L 2212.01 240.90 L 2216.11 235.97 L 2228.47 219.93 L 2235.60 211.20 L 2237.14 209.65 L 2242.43 204.72 L 2243.86 203.71 L 2250.10 199.91 L 2258.24 197.53 L 2267.15 197.53 L 2270.47 197.53 L 2278.55 200.32 Z" fill="url(#paint20_linear_91_437)" fill-rule="nonzero" node-id="503" stroke="none" target-height="277.09" target-width="756.56006" target-x="1648.72" target-y="90"></path><path d="M 1051.89 1265.34 L 1043.58 1258.75 L 1037.58 1250.26 L 1034.20 1240.47 L 1033.66 1229.79 L 1032.00 1072.69 L 1032.65 915.41 L 1034.08 909.83 L 1038.65 902.65 L 1044.82 895.76 L 1052.30 889.06 L 1060.37 883.24 L 1067.44 879.27 L 1098.72 863.54 L 1127.39 846.21 L 1153.51 827.22 L 1177.38 806.56 L 1199.04 784.30 L 1218.63 760.21 L 1239.29 729.35 L 1257.16 695.99 L 1272.12 660.09 L 1284.29 621.21 L 1293.49 579.19 L 1296.87 550.88 L 1297.53 522.10 L 1295.98 493.25 L 1292.84 464.41 L 1283.87 407.73 L 1281.68 393.01 L 1281.44 380.60 L 1282.80 370.10 L 1286.37 360.37 L 1292.90 350.63 L 1303.11 340.72 L 1523.46 164.27 L 1533.73 157.33 L 1545.36 153.41 L 1554.15 153.65 L 1562.34 156.67 L 1762.51 266.89 L 1754.31 263.68 L 1745.59 263.45 L 1733.95 267.48 L 1723.68 274.43 L 1503.15 451.17 L 1492.89 461.02 L 1486.36 470.76 L 1482.79 480.49 L 1481.43 491.06 L 1481.67 503.46 L 1483.80 518.18 L 1492.89 574.32 L 1496.09 603.05 L 1497.57 632.01 L 1496.92 660.92 L 1493.54 689.64 L 1484.40 731.66 L 1472.35 770.48 L 1457.39 806.38 L 1439.64 839.74 L 1419.04 870.60 L 1399.51 894.64 L 1377.84 916.95 L 1353.98 937.61 L 1327.74 956.60 L 1298.95 973.99 L 1267.49 989.72 L 1260.25 993.63 L 1252.23 999.39 L 1244.75 1006.10 L 1238.64 1012.98 L 1234.19 1020.22 L 1232.70 1025.86 L 1231.93 1104.62 L 1232.17 1183.20 L 1233.71 1340.24 L 1234.36 1350.86 L 1237.81 1360.60 L 1243.80 1368.97 L 1252.05 1375.55 L 1051.89 1265.34 Z" fill="url(#paint21_linear_91_437)" fill-rule="nonzero" node-id="505" stroke="none" target-height="1222.14" target-width="730.51" target-x="1032" target-y="153.41"></path><path d="M 1076.87 873.49 L 1067.88 877.49 L 1066.99 877.49 L 1057.87 882.91 L 1048.04 890.72 L 1041.24 897.58 L 1037.21 902.59 L 1034.96 906.16 L 1033.66 909.15 L 1032.77 913.14 L 1032.00 991.90 L 1032.24 1070.42 L 1033.78 1227.29 L 1034.31 1237.96 L 1037.74 1247.80 L 1043.78 1256.27 L 1052.19 1262.82 L 1254.18 1372.95 L 1245.77 1366.33 L 1239.79 1357.86 L 1236.36 1348.08 L 1235.77 1337.41 L 1234.11 1180.37 L 1234.82 1023.26 L 1235.53 1019.27 L 1236.95 1016.23 L 1239.20 1012.71 L 1243.05 1007.70 L 1250.03 1000.67 L 1259.74 992.98 L 1268.98 987.55 L 1269.87 987.55 L 1278.69 983.55 L 1076.87 873.49 Z" fill="url(#paint22_linear_91_437)" fill-rule="nonzero" node-id="507" stroke="none" target-height="499.45996" target-width="246.68994" target-x="1032" target-y="873.49"></path><path d="M 1489.76 518.76 L 1487.15 504.53 L 1487.15 490.36 L 1489.76 476.13 L 1287.53 367.09 L 1284.86 381.32 L 1284.86 395.43 L 1287.53 409.66 L 1296.38 465.81 L 1299.35 494.57 L 1300.66 523.51 L 1299.83 552.44 L 1296.26 581.02 L 1291.04 608.12 L 1284.15 634.68 L 1275.65 660.89 L 1264.79 687.22 L 1252.19 712.72 L 1237.88 736.91 L 1221.85 759.91 L 1203.97 781.73 L 1190.07 796.74 L 1175.40 810.97 L 1156.22 825.67 L 1136.14 839.25 L 1107.34 857.51 L 1077.17 873.34 L 1280.64 983.81 L 1311.23 968.04 L 1340.45 949.83 L 1359.63 935.66 L 1377.93 920.30 L 1392.66 906.13 L 1406.49 891.07 L 1419.44 875.65 L 1431.56 859.53 L 1443.67 841.21 L 1454.72 822.17 L 1467.31 796.62 L 1478.18 770.23 L 1490.77 730.38 L 1499.74 689.59 L 1503.06 660.95 L 1503.66 632.08 L 1502.11 603.26 L 1498.91 574.62 L 1489.76 518.76 Z" fill="url(#paint23_linear_91_437)" fill-rule="nonzero" node-id="509" stroke="none" target-height="616.72" target-width="426.49" target-x="1077.17" target-y="367.09"></path><path d="M 1302.40 347.11 L 1296.81 352.75 L 1292.95 357.40 L 1289.93 362.22 L 1287.37 367.98 L 1489.56 476.53 L 1492.12 470.77 L 1495.15 466.01 L 1499.00 461.19 L 1504.53 455.72 L 1302.40 347.11 Z" fill="url(#paint24_linear_91_437)" fill-rule="nonzero" node-id="511" stroke="none" target-height="129.42001" target-width="217.16003" target-x="1287.37" target-y="347.11"></path><path d="M 1504.51 455.69 L 1302.14 346.10 L 1306.11 342.72 L 1529.06 166.80 L 1533.21 163.83 L 1735.58 273.24 L 1731.43 276.38 L 1508.48 452.13 L 1504.51 455.57" fill="url(#paint25_linear_91_437)" fill-rule="nonzero" node-id="513" stroke="none" target-height="291.86" target-width="433.43994" target-x="1302.14" target-y="163.83"></path><path d="M 1736.15 273.28 L 1534.06 164.28 L 1542.17 159.49 L 1744.27 268.61 L 1736.15 273.28 Z" fill="url(#paint26_linear_91_437)" fill-rule="nonzero" node-id="515" stroke="none" target-height="113.78999" target-width="210.20996" target-x="1534.06" target-y="159.49"></path><path d="M 1745.12 269.08 L 1542.75 158.67 L 1552.59 155.68 L 1557.75 155.15 L 1562.85 155.68 L 1765.11 266.69 L 1760.07 266.15 L 1754.97 266.69 L 1745.12 269.80" fill="url(#paint27_linear_91_437)" fill-rule="nonzero" node-id="517" stroke="none" target-height="114.649994" target-width="222.35999" target-x="1542.75" target-y="155.15"></path><path d="M 1765.46 266.83 L 1561.86 156.02 L 1567.47 158.06 L 1771.19 268.94 L 1765.46 266.83 Z" fill="url(#paint28_linear_91_437)" fill-rule="nonzero" node-id="519" stroke="none" target-height="112.92" target-width="209.32996" target-x="1561.86" target-y="156.02"></path><path d="M 1770.75 268.93 L 1567.07 159.49 L 1568.38 159.49 L 1772.06 268.93 L 1770.75 268.93 Z" fill="url(#paint29_linear_91_437)" fill-rule="nonzero" node-id="521" stroke="none" target-height="109.43999" target-width="204.99011" target-x="1567.07" target-y="159.49"></path><path d="M 2772.72 802.66 L 2778.95 855.23 L 2782.69 908.16 L 2784.00 961.62 L 2782.93 1001.55 L 2779.73 1041.90 L 2774.26 1082.66 L 2766.60 1123.90 L 2761.44 1136.78 L 2754.08 1148.29 L 2744.76 1158.32 L 2733.60 1166.50 L 2704.50 1182.17 L 2677.19 1200.03 L 2651.66 1220.14 L 2627.74 1242.63 L 2605.71 1266.96 L 2585.88 1292.77 L 2568.13 1320.00 L 2552.52 1348.84 L 2539.16 1378.86 L 2528.41 1409.42 L 2520.22 1440.75 L 2514.52 1472.79 L 2511.55 1505.19 L 2511.55 1537.41 L 2514.46 1569.63 L 2520.34 1601.96 L 2522.71 1613.83 L 2522.83 1625.40 L 2520.69 1636.85 L 2516.42 1647.71 L 2510.19 1657.50 L 2501.87 1666.28 L 2467.02 1701.53 L 2430.57 1734.87 L 2392.40 1766.38 L 2352.74 1795.87 L 2311.59 1823.28 L 2269.03 1848.62 L 2257.09 1854.61 L 2244.27 1858.29 L 2234.83 1858.11 L 2225.80 1855.80 L 2217.61 1851.41 L 2210.61 1845.12 L 2191.43 1829.16 L 2171.13 1815.51 L 2149.63 1804.00 L 2127.07 1794.63 L 2103.92 1787.62 L 2079.99 1782.88 L 2055.71 1780.56 L 2031.25 1780.68 L 2006.43 1783.29 L 1976.39 1789.58 L 1947.66 1798.36 L 1919.99 1809.76 L 1893.33 1823.70 L 1868.04 1840.08 L 1844.59 1858.59 L 1822.74 1879.30 L 1802.56 1902.32 L 1794.66 1911.99 L 1785.22 1919.82 L 1774.48 1925.76 L 1762.60 1929.61 L 1749.90 1929.73 L 1737.43 1927.18 L 1695.51 1914.42 L 1654.84 1898.94 L 1615.30 1880.66 L 1577.07 1859.66 L 1540.44 1836.16 L 1505.29 1809.99 L 1494.61 1797.35 L 1485.82 1783.29 L 1493.72 1745.55 L 1498.64 1709.89 L 1500.84 1676.07 L 1500.48 1643.97 L 1497.22 1611.75 L 1490.87 1580.54 L 1481.54 1550.22 L 1469.02 1520.56 L 1452.39 1489.94 L 1433.87 1463.24 L 1413.51 1440.10 L 1391.30 1420.28 L 1371.83 1406.57 L 1350.81 1395.06 L 1328.07 1385.69 L 1303.43 1378.45 L 1276.72 1373.41 L 1264.43 1370.97 L 1254.69 1366.94 L 1247.09 1361.60 L 1241.39 1354.48 L 1237.59 1344.75 L 1236.05 1331.51 L 1234.39 1175.34 L 1235.04 1019.06 L 1236.47 1013.48 L 1241.04 1006.24 L 1247.27 999.42 L 1254.81 992.77 L 1262.89 987.02 L 1270.01 983.16 L 1301.53 967.49 L 1330.39 950.23 L 1356.75 931.36 L 1380.73 910.83 L 1402.52 888.64 L 1422.17 864.73 L 1443.01 833.99 L 1460.94 800.88 L 1476.02 765.16 L 1488.25 726.59 L 1497.46 684.88 L 1500.90 656.70 L 1501.55 628.10 L 1500.01 599.38 L 1496.80 570.72 L 1487.66 514.47 L 1485.52 499.81 L 1485.28 487.47 L 1486.71 477.03 L 1490.21 467.30 L 1496.86 457.63 L 1507.13 447.84 L 1729.06 272.15 L 1739.39 265.26 L 1751.08 261.23 L 1760.29 261.82 L 1768.78 264.67 L 1776.38 269.48 L 1782.67 276.12 L 1802.50 296.71 L 1823.93 314.57 L 1847.20 329.88 L 1871.96 342.46 L 1897.79 352.19 L 1924.74 359.07 L 1952.29 362.99 L 1980.19 363.76 L 2008.69 361.39 L 2038.85 355.39 L 2068.77 345.90 L 2098.58 332.73 L 2128.56 315.64 L 2156.22 296.00 L 2183.00 272.74 L 2209.00 245.62 L 2234.18 214.24 L 2239.76 206.34 L 2246.70 199.88 L 2254.84 194.89 L 2263.86 191.63 L 2274.31 191.81 L 2284.52 194.18 L 2327.09 208.84 L 2368.41 226.16 L 2408.49 246.16 L 2447.19 268.70 L 2484.30 293.75 L 2519.92 321.33 L 2528.06 330.24 L 2531.86 338.66 L 2532.87 347.74 L 2531.74 357.29 L 2526.33 377.29 L 2519.51 406.78 L 2515.05 435.85 L 2512.92 464.57 L 2513.10 493.05 L 2515.47 521.53 L 2519.92 549.00 L 2526.39 575.47 L 2534.94 601.10 L 2545.57 626.08 L 2558.04 649.34 L 2572.23 671.12 L 2588.20 691.41 L 2606.07 710.10 L 2625.48 726.71 L 2646.56 741.25 L 2669.36 753.77 L 2686.81 760.30 L 2705.33 764.98 L 2724.04 769.43 L 2741.97 775.25 L 2751.64 780.05 L 2761.32 786.52 L 2769.10 794.41 L 2772.72 802.66 Z M 2005.01 1431.49 L 2033.51 1426.15 L 2060.99 1418.62 L 2087.65 1408.89 L 2113.54 1396.96 L 2146.49 1377.97 L 2177.42 1355.84 L 2206.51 1330.39 L 2233.17 1302.32 L 2257.33 1271.76 L 2279.06 1238.60 L 2297.82 1203.59 L 2313.49 1166.86 L 2326.20 1128.11 L 2335.40 1088.48 L 2341.04 1047.77 L 2343.00 1005.77 L 2340.15 967.79 L 2334.27 932.78 L 2325.61 900.50 L 2314.27 870.72 L 2299.72 841.82 L 2282.92 815.66 L 2263.86 791.98 L 2242.37 770.56 L 2218.74 751.57 L 2193.21 735.08 L 2165.60 721.08 L 2135.80 709.57 L 2105.28 700.96 L 2073.11 695.09 L 2039.09 691.94 L 2002.99 691.71 L 1993.91 692.83 L 1966.18 698.11 L 1939.23 705.65 L 1912.98 715.44 L 1887.34 727.60 L 1854.80 746.77 L 1824.11 769.14 L 1795.08 794.89 L 1768.48 823.07 L 1744.37 853.57 L 1722.70 886.38 L 1703.88 920.98 L 1688.21 956.75 L 1675.62 993.90 L 1666.48 1031.93 L 1661.08 1070.26 L 1659.42 1109.01 L 1661.61 1147.87 L 1667.08 1184.19 L 1675.62 1218.19 L 1687.14 1250.11 L 1701.98 1281.02 L 1719.20 1309.09 L 1738.79 1334.54 L 1760.82 1357.62 L 1785.28 1378.15 L 1811.58 1395.54 L 1839.78 1409.96 L 1870.12 1421.41 L 1901.29 1429.36 L 1933.94 1433.75 L 1968.26 1434.52 L 2004.59 1431.49" fill="url(#paint30_linear_91_437)" fill-rule="nonzero" node-id="523" stroke="none" target-height="1738.1" target-width="1549.61" target-x="1234.39" target-y="191.63"></path><path d="M 1269.00 1683.12 L 2303.47 1649.90 L 3804.22 1882.85 L 2336.77 2686.87 L 1269.00 1683.12 Z" fill="url(#paint31_linear_91_437)" fill-opacity="0.3" fill-rule="nonzero" node-id="525" stroke="none" target-height="1036.9701" target-width="2535.22" target-x="1269" target-y="1649.9"></path><path d="M 2833.31 1900.87 C 2830.42 1899.93 2827.28 1900.85 2825.15 1903.01 C 2805.92 1922.58 2776.59 1930.77 2748.73 1921.69 C 2726.32 1914.38 2709.71 1897.47 2702.00 1877.00 C 2697.86 1866.01 2709.08 1857.25 2720.24 1860.88 L 2739.72 1867.23 C 2753.14 1871.61 2767.56 1864.27 2771.93 1850.85 C 2776.31 1837.43 2768.98 1823.01 2755.56 1818.64 L 2735.94 1812.24 C 2724.79 1808.61 2720.87 1794.95 2730.65 1788.49 C 2748.98 1776.36 2772.47 1772.41 2795.00 1779.75 C 2822.92 1788.85 2841.82 1812.86 2845.76 1840.09 C 2846.20 1843.10 2848.20 1845.70 2851.09 1846.64 L 2957.13 1881.20 C 2972.11 1886.09 2980.30 1902.19 2975.42 1917.18 C 2970.53 1932.16 2954.43 1940.35 2939.44 1935.47 L 2833.31 1900.87 Z" fill="url(#paint32_linear_91_437)" fill-rule="nonzero" node-id="527" stroke="none" target-height="167.93994" target-width="282.43994" target-x="2697.86" target-y="1772.41"></path></svg>