<?xml version="1.0" standalone="no"?><!DOCTYPE svg PUBLIC "-//W3C//DTD SVG 1.1//EN" "http://www.w3.org/Graphics/SVG/1.1/DTD/svg11.dtd"><svg height="2744" node-id="1" sillyvg="true" template-height="2744" template-width="3861" version="1.1" viewBox="0 0 3861 2744" width="3861" xmlns="http://www.w3.org/2000/svg" xmlns:xlink="http://www.w3.org/1999/xlink"><defs node-id="100"><linearGradient gradientUnits="userSpaceOnUse" id="paint0_linear_91_428" node-id="38" spreadMethod="pad" x1="404.332" x2="404.332" y1="759.469" y2="438.424"><stop offset="0" stop-color="#ffffff" stop-opacity="0.1"></stop><stop offset="1" stop-color="#d9e9ff"></stop></linearGradient><linearGradient gradientUnits="userSpaceOnUse" id="paint1_linear_91_428" node-id="41" spreadMethod="pad" x1="2155.24" x2="2155.24" y1="650.782" y2="375.018"><stop offset="0" stop-color="#ffffff" stop-opacity="0.1"></stop><stop offset="0.14" stop-color="#f8fbff" stop-opacity="0.27"></stop><stop offset="0.37" stop-color="#edf5ff" stop-opacity="0.52"></stop><stop offset="0.58" stop-color="#e4f0ff" stop-opacity="0.73"></stop><stop offset="0.76" stop-color="#deecff" stop-opacity="0.88"></stop><stop offset="0.91" stop-color="#daeaff" stop-opacity="0.97"></stop><stop offset="1" stop-color="#d9e9ff"></stop></linearGradient><linearGradient gradientUnits="userSpaceOnUse" id="paint2_linear_91_428" node-id="49" spreadMethod="pad" x1="3353.86" x2="3353.86" y1="607.017" y2="-0.492787"><stop offset="0" stop-color="#ffffff" stop-opacity="0.1"></stop><stop offset="0.09" stop-color="#fefeff" stop-opacity="0.13"></stop><stop offset="0.23" stop-color="#fbfcff" stop-opacity="0.21"></stop><stop offset="0.4" stop-color="#f5f9ff" stop-opacity="0.33"></stop><stop offset="0.59" stop-color="#eef5ff" stop-opacity="0.51"></stop><stop offset="0.79" stop-color="#e4efff" stop-opacity="0.74"></stop><stop offset="1" stop-color="#d9e9ff"></stop></linearGradient><linearGradient gradientUnits="userSpaceOnUse" id="paint3_linear_91_428" node-id="57" spreadMethod="pad" x1="1908" x2="1908" y1="2659.63" y2="1452.22"><stop offset="0" stop-color="#ffffff" stop-opacity="0.1"></stop><stop offset="0.13" stop-color="#fbfdff" stop-opacity="0.19"></stop><stop offset="0.41" stop-color="#f1f7ff" stop-opacity="0.43"></stop><stop offset="0.81" stop-color="#e1eeff" stop-opacity="0.82"></stop><stop offset="1" stop-color="#d9e9ff"></stop></linearGradient><linearGradient gradientUnits="userSpaceOnUse" id="paint4_linear_91_428" node-id="63" spreadMethod="pad" x1="1341.81" x2="1750.85" y1="1941.79" y2="2695.85"><stop offset="0" stop-color="#5792f0"></stop><stop offset="1" stop-color="#bfd4fa" stop-opacity="0"></stop></linearGradient><linearGradient gradientUnits="userSpaceOnUse" id="paint5_linear_91_428" node-id="66" spreadMethod="pad" x1="1266.5" x2="2114.03" y1="1225.5" y2="1722.76"><stop offset="0" stop-color="#cde5ff" stop-opacity="0.26"></stop><stop offset="1" stop-color="#78b1ee"></stop></linearGradient><linearGradient gradientUnits="userSpaceOnUse" id="paint6_linear_91_428" node-id="69" spreadMethod="pad" x1="1503.73" x2="2122.49" y1="758.858" y2="2024.09"><stop offset="0" stop-color="#e6f3ff"></stop><stop offset="1" stop-color="#97cafe"></stop></linearGradient><linearGradient gradientUnits="userSpaceOnUse" id="paint7_linear_91_428" node-id="72" spreadMethod="pad" x1="1416.24" x2="1740.17" y1="1510.44" y2="2204.56"><stop offset="0" stop-color="#a6d0fd"></stop><stop offset="1" stop-color="#429cfd"></stop></linearGradient><linearGradient gradientUnits="userSpaceOnUse" id="paint8_linear_91_428" node-id="75" spreadMethod="pad" x1="2189.38" x2="3031.13" y1="1361.57" y2="1794.71"><stop offset="0" stop-color="#cde5ff" stop-opacity="0.26"></stop><stop offset="1" stop-color="#78b1ee"></stop></linearGradient><linearGradient gradientUnits="userSpaceOnUse" id="paint9_linear_91_428" node-id="78" spreadMethod="pad" x1="2402.12" x2="3458.07" y1="842.856" y2="2506.18"><stop offset="0" stop-color="#e6f3ff"></stop><stop offset="1" stop-color="#97cafe"></stop></linearGradient><linearGradient gradientUnits="userSpaceOnUse" id="paint10_linear_91_428" node-id="81" spreadMethod="pad" x1="2250.59" x2="2698.58" y1="1607.5" y2="2273.1"><stop offset="0" stop-color="#a6d0fd"></stop><stop offset="1" stop-color="#429cfd"></stop></linearGradient><linearGradient gradientUnits="userSpaceOnUse" id="paint11_linear_91_428" node-id="84" spreadMethod="pad" x1="1452.5" x2="1675.46" y1="232" y2="519.776"><stop offset="0" stop-color="#dfefff"></stop><stop offset="1" stop-color="#6db3fe"></stop></linearGradient><linearGradient gradientUnits="userSpaceOnUse" id="paint12_linear_91_428" node-id="87" spreadMethod="pad" x1="3034.5" x2="2730.83" y1="341.5" y2="845.399"><stop offset="0" stop-color="#dceeff"></stop><stop offset="1" stop-color="#61acfe"></stop></linearGradient><linearGradient gradientUnits="userSpaceOnUse" id="paint13_linear_91_428" node-id="90" spreadMethod="pad" x1="1118.5" x2="1118.5" y1="1149.37" y2="1199"><stop offset="0" stop-color="#ffcda5"></stop><stop offset="1" stop-color="#ffe8d1"></stop></linearGradient><linearGradient gradientUnits="userSpaceOnUse" id="paint14_linear_91_428" node-id="93" spreadMethod="pad" x1="1048.16" x2="990.78" y1="1944.36" y2="2006.22"><stop offset="0" stop-color="#003a8c"></stop><stop offset="1" stop-color="#5792f0"></stop></linearGradient><linearGradient gradientUnits="userSpaceOnUse" id="paint15_linear_91_428" node-id="96" spreadMethod="pad" x1="1159.12" x2="1101.69" y1="1944.36" y2="2005.54"><stop offset="0" stop-color="#003a8c"></stop><stop offset="1" stop-color="#5792f0"></stop></linearGradient></defs><path d="M 750.42 1504.39 L 767.67 1683.27 L 659.60 1671.38 L 750.42 1504.39 Z" fill="#e4efff" fill-rule="nonzero" node-id="225" stroke="none" target-height="178.88" target-width="108.07001" target-x="659.6" target-y="1504.39"></path><path d="M 745.31 1504.39 L 857.11 1645.59 L 762.27 1683.27 L 745.31 1504.39 Z" fill="#f3f8ff" fill-rule="nonzero" node-id="227" stroke="none" target-height="178.88" target-width="111.79999" target-x="745.31" target-y="1504.39"></path><path d="M 373.92 1549.11 L 395.02 1776.43 L 264.59 1761.27 L 373.92 1549.11 Z" fill="#e4efff" fill-rule="nonzero" node-id="229" stroke="none" target-height="227.32007" target-width="130.43" target-x="264.59" target-y="1549.11"></path><path d="M 376.38 1549.11 L 514.27 1728.77 L 397.51 1776.43 L 376.38 1549.11 Z" fill="#f3f8ff" fill-rule="nonzero" node-id="231" stroke="none" target-height="227.32007" target-width="137.89001" target-x="376.38" target-y="1549.11"></path><path d="M 553.32 1392.60 L 588.80 1768.98 L 350.30 1745.54 L 553.32 1392.60 Z" fill="#e4efff" fill-rule="nonzero" node-id="233" stroke="none" target-height="376.38" target-width="238.5" target-x="350.3" target-y="1392.6"></path><path d="M 547.80 1392.60 L 797.48 1688.37 L 583.32 1768.98 L 547.80 1392.60 Z" fill="#f3f8ff" fill-rule="nonzero" node-id="235" stroke="none" target-height="376.38" target-width="249.68" target-x="547.8" target-y="1392.6"></path><path d="M 623.19 565.41 C 609.26 490.81 544.12 437.26 468.99 438.63 C 428.78 438.45 389.99 453.50 360.28 480.89 C 343.66 473.29 325.63 469.38 307.37 469.38 C 249.53 468.45 198.89 508.40 185.81 565.30 C 141.35 575.21 109.30 614.42 108.07 660.37 C 109.78 716.30 155.84 760.35 211.22 759.04 L 597.44 759.04 C 652.86 760.42 698.95 716.34 700.59 660.37 C 699.40 614.53 667.50 575.40 623.19 565.41 Z" fill="url(#paint0_linear_91_428)" fill-rule="nonzero" node-id="237" stroke="none" target-height="323.15997" target-width="592.52" target-x="108.07" target-y="437.26"></path><path d="M 2343.74 479.73 C 2323.69 448.24 2289.74 428.72 2252.81 427.38 C 2231.31 394.10 2194.45 374.35 2155.21 375.02 C 2123.80 374.72 2093.54 387.24 2071.29 409.82 C 2061.12 406.54 2050.50 404.83 2039.84 404.83 C 1990.42 404.83 1949.62 439.49 1945.41 483.35 C 1907.73 492.44 1880.60 525.79 1879.00 565.03 C 1879.00 612.29 1921.71 650.78 1973.43 650.78 L 2336.10 650.78 C 2388.57 650.78 2430.53 612.29 2430.53 565.03 C 2431.35 520.13 2392.56 483.24 2343.74 479.73 Z" fill="url(#paint1_linear_91_428)" fill-rule="nonzero" node-id="239" stroke="none" target-height="276.43002" target-width="552.3501" target-x="1879" target-y="374.35"></path><path d="M 3710.15 192.82 C 3674.75 119.89 3600.85 73.45 3519.69 73.19 C 3474.48 73.31 3430.51 87.95 3394.29 114.97 C 3351.21 30.97 3257.60 -14.27 3164.96 4.03 C 3072.28 22.36 3003.00 99.84 2995.17 193.86 C 2895.49 225.31 2833.63 324.62 2849.47 427.85 C 2865.34 531.08 2954.14 607.32 3058.67 607.43 L 3648.40 607.43 C 3753.53 607.62 3842.93 530.74 3858.32 426.88 C 3873.75 322.99 3810.51 223.52 3709.85 193.23 L 3710.15 192.82 Z" fill="url(#paint2_linear_91_428)" fill-rule="nonzero" node-id="241" stroke="none" target-height="621.89" target-width="1040.1201" target-x="2833.63" target-y="-14.27"></path><path d="M 3816.00 2055.93 C 3816.00 2216.06 3614.99 2369.59 3257.16 2482.80 C 2899.34 2596.02 2414.03 2659.63 1908.00 2659.63 C 1401.97 2659.63 916.66 2596.02 558.84 2482.80 C 201.01 2369.59 0.00 2216.06 0.00 2055.93 C 0.00 1895.80 201.01 1742.26 558.84 1629.05 C 916.66 1515.84 1401.97 1452.22 1908.00 1452.22 C 2414.03 1452.22 2899.34 1515.84 3257.16 1629.05 C 3614.99 1742.26 3816.00 1895.80 3816.00 2055.93 Z" fill="url(#paint3_linear_91_428)" fill-rule="nonzero" node-id="243" stroke="none" target-height="1207.4099" target-width="3816" target-x="0" target-y="1452.22"></path><path d="M 3376.27 1549.11 L 3358.12 1787.61 L 3223.48 1748.56 L 3376.27 1549.11 Z" fill="#e4efff" fill-rule="nonzero" node-id="245" stroke="none" target-height="238.5" target-width="152.79004" target-x="3223.48" target-y="1549.11"></path><path d="M 3371.98 1549.11 L 3484.34 1759.25 L 3353.91 1787.61 L 3371.98 1549.11 Z" fill="#f3f8ff" fill-rule="nonzero" node-id="247" stroke="none" target-height="238.5" target-width="130.43018" target-x="3353.91" target-y="1549.11"></path><path d="M 1285.64 1995.09 L 1284.61 2001.77 L 1281.70 2008.40 L 1276.59 2015.12 L 1268.79 2022.11 L 1257.31 2029.61 L 1242.22 2036.98 L 1222.89 2044.14 L 1203.13 2049.82 L 1180.54 2054.80 L 1154.73 2059.01 L 1128.89 2061.96 L 1101.11 2063.78 L 1071.32 2064.48 L 1041.53 2063.78 L 1013.75 2061.96 L 987.91 2059.01 L 962.10 2054.80 L 939.51 2049.82 L 919.75 2044.14 L 900.42 2036.98 L 885.33 2029.56 L 873.85 2022.11 L 866.04 2015.12 L 860.94 2008.40 L 858.03 2001.77 L 857.00 1995.09 L 858.03 1988.41 L 860.94 1981.77 L 866.04 1975.05 L 873.85 1968.07 L 885.33 1960.57 L 900.42 1953.19 L 919.75 1946.04 L 939.51 1940.36 L 962.10 1935.37 L 987.91 1931.16 L 1013.75 1928.21 L 1041.53 1926.39 L 1071.32 1925.70 L 1101.11 1926.39 L 1128.89 1928.21 L 1154.73 1931.16 L 1180.54 1935.37 L 1203.13 1940.36 L 1222.89 1946.04 L 1242.22 1953.19 L 1257.31 1960.57 L 1268.79 1968.07 L 1276.59 1975.05 L 1281.70 1981.77 L 1284.61 1988.41 L 1285.64 1995.09 Z" fill="#84c1ff" fill-opacity="0.15" fill-rule="evenodd" node-id="249" stroke="none" target-height="138.78003" target-width="428.64" target-x="857" target-y="1925.7"></path><path d="M 1224.08 1984.44 L 2657.15 2743.81 L 3684.00 2126.57 L 2296.83 1695.15 L 1224.08 1984.44 Z" fill="url(#paint4_linear_91_428)" fill-opacity="0.3" fill-rule="nonzero" node-id="251" stroke="none" target-height="1048.66" target-width="2459.92" target-x="1224.08" target-y="1695.15"></path><path d="M 1191.63 882.47 L 1191.63 1896.02 L 1192.83 1908.99 L 1196.05 1920.85 L 1201.34 1931.84 L 1208.39 1941.80 L 1216.85 1950.26 L 1226.82 1957.31 L 1237.82 1962.59 L 1249.72 1965.81 L 1262.65 1967.01 L 1971.64 2001.80 L 2027.89 1967.01 L 2156.40 1453.11 L 1978.22 1064.30 L 2233.57 805.42 L 1262.14 811.43 L 1249.25 812.76 L 1237.47 816.07 L 1226.52 821.35 L 1216.64 828.44 L 1208.26 836.86 L 1201.25 846.82 L 1196.05 857.77 L 1192.83 869.58 L 1191.63 882.47 Z" fill="url(#paint5_linear_91_428)" fill-rule="nonzero" node-id="253" stroke="none" target-height="1196.3801" target-width="1041.9401" target-x="1191.63" target-y="805.42"></path><path d="M 1191.63 928.57 L 1191.63 1930.63 L 1192.83 1943.60 L 1196.06 1955.50 L 1201.30 1966.54 L 1208.35 1976.55 L 1216.78 1985.01 L 1226.67 1992.05 L 1237.68 1997.34 L 1249.50 2000.60 L 1262.44 2001.80 L 1968.69 2001.80 L 2103.74 1458.55 L 1912.20 1054.72 L 2103.74 851.30 L 1261.93 857.36 L 1249.07 858.69 L 1237.29 862.00 L 1226.41 867.28 L 1216.57 874.37 L 1208.18 882.83 L 1201.22 892.84 L 1196.01 903.79 L 1192.83 915.65 L 1191.63 928.57 Z" fill="url(#paint6_linear_91_428)" fill-rule="nonzero" node-id="255" stroke="none" target-height="1150.5" target-width="912.11" target-x="1191.63" target-y="851.3"></path><path d="M 2049.74 1688.69 L 2095.91 1498.50 L 1867.09 1646.16 L 1799.17 1688.78 L 1789.84 1693.89 L 1732.32 1642.29 L 1661.78 1576.13 L 1576.32 1493.04 L 1473.84 1390.49 L 1465.59 1383.57 L 1456.60 1378.42 L 1446.72 1374.89 L 1436.36 1373.00 L 1426.04 1372.83 L 1415.64 1374.29 L 1405.62 1377.47 L 1396.38 1382.28 L 1387.82 1388.90 L 1191.63 1780.50 L 1191.63 1924.68 L 1192.53 1937.66 L 1195.24 1949.99 L 1199.80 1961.89 L 1206.24 1972.76 L 1214.63 1982.21 L 1225.20 1990.42 L 1233.93 1995.06 L 1243.99 1998.58 L 1255.64 2000.86 L 1269.14 2001.80 L 1972.62 2001.80 L 2049.74 1688.69 Z" fill="url(#paint7_linear_91_428)" fill-rule="nonzero" node-id="257" stroke="none" target-height="628.9701" target-width="904.2799" target-x="1191.63" target-y="1372.83"></path><path d="M 2626.54 913.98 L 3039.68 1020.02 L 3051.59 1024.24 L 3062.08 1030.04 L 3071.28 1037.48 L 3079.15 1046.38 L 3085.30 1056.23 L 3089.82 1067.15 L 3092.48 1078.63 L 3093.08 1090.55 L 3091.58 1103.02 L 2814.04 2132.67 L 2809.57 2146.47 L 2802.95 2158.34 L 2794.22 2168.53 L 2783.69 2176.96 L 2772.04 2183.11 L 2759.14 2187.15 L 2745.72 2188.70 L 2732.14 2187.54 L 2718.04 2183.58 L 2119.41 2020.73 L 2419.95 1462.90 L 2341.66 1072.01 L 2626.54 913.98 Z" fill="url(#paint8_linear_91_428)" fill-rule="nonzero" node-id="259" stroke="none" target-height="1274.72" target-width="973.67017" target-x="2119.41" target-y="913.98"></path><path d="M 2569.07 941.96 L 2982.56 1047.93 L 2994.52 1052.14 L 3004.98 1057.94 L 3014.19 1065.38 L 3022.06 1074.27 L 3028.22 1084.12 L 3032.74 1095.03 L 3035.40 1106.51 L 3036.01 1118.41 L 3034.50 1130.87 L 2767.66 2119.28 L 2763.15 2133.07 L 2756.56 2144.93 L 2747.78 2155.12 L 2737.24 2163.54 L 2725.62 2169.69 L 2712.67 2173.72 L 2699.29 2175.27 L 2685.65 2174.11 L 2671.57 2170.16 L 2072.41 2007.42 L 2362.35 1490.52 L 2283.95 1099.89 L 2569.07 941.96 Z" fill="url(#paint9_linear_91_428)" fill-rule="nonzero" node-id="261" stroke="none" target-height="1233.31" target-width="963.6001" target-x="2072.41" target-y="941.96"></path><path d="M 2790.50 2036.50 L 2496.90 1475.86 L 2491.09 1468.03 L 2484.42 1461.67 L 2476.77 1456.64 L 2468.42 1452.94 L 2459.73 1450.74 L 2450.61 1450.05 L 2441.53 1450.87 L 2432.63 1453.32 L 2423.81 1457.45 L 2361.64 1489.37 L 2072.41 2006.91 L 2439.81 2108.51 L 2599.21 2151.48 L 2649.54 2164.13 L 2669.50 2170.39 L 2679.50 2172.50 L 2686.00 2174.50 L 2692.50 2174.50 L 2698.50 2175.50 L 2705.00 2174.50 L 2714.00 2173.50 L 2724.50 2170.39 L 2733.28 2166.26 L 2746.00 2157.50 L 2755.00 2147.50 L 2758.50 2141.50 L 2762.50 2134.00 L 2768.50 2122.00 L 2790.50 2036.50 Z" fill="url(#paint10_linear_91_428)" fill-rule="nonzero" node-id="263" stroke="none" target-height="725.44995" target-width="718.0901" target-x="2072.41" target-y="1450.05"></path><path d="M 1428.89 191.00 L 1495.63 428.30 L 1590.45 381.99 L 1676.23 558.09 L 1619.17 307.95 L 1522.81 355.04 L 1428.89 191.00 Z" fill="url(#paint11_linear_91_428)" fill-rule="nonzero" node-id="265" stroke="none" target-height="367.09003" target-width="247.33997" target-x="1428.89" target-y="191"></path><path d="M 3077.41 318.58 L 2774.62 512.58 L 2911.72 644.70 L 2674.52 827.80 L 2850.77 744.28 L 2953.06 693.87 L 3005.64 666.14 L 3027.84 652.75 L 3034.32 647.37 L 3034.79 645.56 L 3026.46 636.70 L 2990.02 602.55 L 2892.45 514.90 L 3077.41 318.58 Z" fill="url(#paint12_linear_91_428)" fill-rule="nonzero" node-id="267" stroke="none" target-height="509.22" target-width="402.8899" target-x="2674.52" target-y="318.58"></path><path d="M 1136.00 1142.00 L 1101.00 1142.00 L 1101.00 1199.00 L 1136.00 1199.00 L 1136.00 1142.00 Z" fill="url(#paint13_linear_91_428)" fill-rule="evenodd" node-id="269" stroke="none" target-height="57" target-width="35" target-x="1101" target-y="1142"></path><path d="M 1030.83 1945.44 L 1027.18 1968.74 L 1012.59 1970.33 L 996.56 1974.46 L 978.76 1981.51 L 971.64 1986.67 L 968.65 1990.02 L 967.16 1993.68 L 966.68 1997.80 L 968.08 1999.14 L 976.48 2000.47 L 1002.44 2000.68 L 1061.81 1997.80 L 1061.81 1936.89 L 1030.83 1945.44 Z" fill="url(#paint14_linear_91_428)" fill-rule="nonzero" node-id="271" stroke="none" target-height="63.79004" target-width="95.130066" target-x="966.68" target-y="1936.89"></path><path d="M 1141.99 1945.44 L 1138.39 1968.74 L 1123.97 1970.33 L 1108.12 1974.46 L 1090.53 1981.51 L 1083.50 1986.67 L 1080.55 1990.02 L 1079.07 1993.68 L 1078.59 1997.80 L 1079.98 1999.14 L 1088.28 2000.47 L 1113.94 2000.68 L 1172.60 1997.80 L 1172.60 1936.89 L 1141.99 1945.44 Z" fill="url(#paint15_linear_91_428)" fill-rule="nonzero" node-id="273" stroke="none" target-height="63.79004" target-width="94.01001" target-x="1078.59" target-y="1936.89"></path><path d="M 1045.93 1497.06 L 1005.85 1951.44 L 1077.35 1951.23 L 1146.86 1501.91 L 1045.93 1497.06 Z" fill="#153f82" fill-rule="nonzero" node-id="275" stroke="none" target-height="454.37988" target-width="141.01001" target-x="1005.85" target-y="1497.06"></path><path d="M 1052.85 1500.38 L 1116.47 1954.80 L 1191.07 1954.80 L 1191.63 1498.18 L 1052.85 1500.38 Z" fill="#153f82" fill-rule="nonzero" node-id="277" stroke="none" target-height="456.62" target-width="138.78003" target-x="1052.85" target-y="1498.18"></path><path d="M 1032.80 1365.87 L 1028.07 1377.74 L 936.08 1295.72 L 931.35 1287.42 L 924.31 1280.28 L 916.02 1276.71 L 914.26 1277.23 L 913.01 1278.00 L 912.50 1279.08 L 914.26 1282.91 L 916.02 1285.01 L 919.59 1289.79 L 920.49 1291.55 L 920.32 1291.98 L 919.59 1292.15 L 917.22 1292.15 L 916.36 1291.16 L 912.50 1286.22 L 906.57 1276.71 L 905.37 1275.21 L 903.95 1274.39 L 901.89 1274.35 L 900.17 1276.24 L 899.53 1277.87 L 901.72 1289.40 L 905.41 1300.50 L 909.19 1308.41 L 913.66 1315.94 L 914.99 1318.13 L 916.92 1319.94 L 920.75 1321.87 L 929.59 1325.83 L 938.14 1330.39 L 942.00 1332.58 L 1017.46 1418.17 L 1019.61 1420.58 L 1024.68 1425.09 L 1027.73 1426.94 L 1030.43 1427.67 L 1034.86 1427.11 L 1039.02 1425.39 L 1045.55 1420.71 L 1048.13 1418.17 L 1052.85 1373.01 L 1032.80 1365.87 Z" fill="#fecca9" fill-rule="nonzero" node-id="279" stroke="none" target-height="153.32007" target-width="153.31995" target-x="899.53" target-y="1274.35"></path><path d="M 1091.42 1210.55 L 1029.70 1375.50 L 954.84 1306.10 C 953.07 1304.45 950.26 1304.74 948.86 1306.71 L 932.74 1329.37 C 931.64 1330.90 931.77 1332.99 933.04 1334.38 L 1018.13 1427.53 L 1024.39 1431.67 L 1029.70 1433.27 L 1034.40 1432.88 L 1038.94 1430.59 L 1043.47 1425.94 L 1048.13 1418.01 L 1056.03 1398.56 L 1074.02 1347.99 L 1108.81 1243.92 L 1091.42 1210.55 Z" fill="#429cfd" fill-rule="evenodd" node-id="281" stroke="none" target-height="222.71997" target-width="177.17004" target-x="931.64" target-y="1210.55"></path><path d="M 1087.13 1197.52 C 1087.96 1194.08 1090.26 1191.18 1093.43 1189.59 L 1142.62 1164.94 C 1144.14 1164.18 1145.99 1164.83 1146.69 1166.37 L 1153.22 1180.62 L 1160.57 1199.66 L 1170.35 1230.05 L 1176.21 1251.88 L 1181.94 1278.06 L 1187.36 1309.18 L 1191.85 1344.60 L 1194.93 1378.82 L 1196.93 1412.05 L 1197.92 1440.50 L 1198.34 1484.60 L 1198.05 1501.45 L 1186.29 1501.54 L 1156.89 1501.75 L 1118.73 1502.05 L 1080.53 1502.36 L 1051.17 1502.57 L 1039.42 1502.66 L 1041.35 1486.58 L 1046.69 1443.51 L 1054.94 1381.05 L 1065.49 1306.78 L 1072.63 1264.95 L 1080.10 1228.20 L 1086.04 1202.06 L 1087.13 1197.52 Z" fill="#429cfd" fill-rule="evenodd" node-id="283" stroke="none" target-height="338.47998" target-width="158.91992" target-x="1039.42" target-y="1164.18"></path><path d="M 1123.92 1435.51 L 1101.56 1537.61 L 1099.55 1540.50 L 1095.69 1545.80 L 1090.85 1552.30 C 1089.61 1553.94 1089.82 1556.25 1091.34 1557.63 L 1109.43 1574.17 C 1113.04 1577.47 1118.83 1576.15 1120.65 1571.61 L 1128.63 1551.66 L 1158.05 1444.89 L 1123.92 1435.51 Z" fill="#fecca9" fill-rule="nonzero" node-id="285" stroke="none" target-height="141.95996" target-width="68.44006" target-x="1089.61" target-y="1435.51"></path><path d="M 1101.87 1227.34 L 1127.31 1365.66 L 1127.57 1369.11 L 1127.88 1377.32 L 1127.31 1387.12 L 1123.73 1404.57 L 1116.73 1433.85 L 1108.17 1468.26 L 1099.78 1501.08 L 1093.44 1525.65 L 1091.83 1531.81 C 1091.28 1533.91 1092.14 1536.12 1093.96 1537.29 L 1128.97 1559.75 C 1131.64 1561.47 1135.23 1560.28 1136.35 1557.30 L 1137.84 1553.33 L 1147.06 1528.59 L 1159.30 1495.68 L 1171.93 1461.35 L 1182.29 1432.42 L 1187.84 1415.71 L 1191.29 1400.29 L 1193.87 1384.70 L 1193.78 1377.71 L 1193.87 1363.24 L 1191.77 1344.15 L 1186.31 1312.54 L 1179.36 1277.39 L 1174.33 1255.41 L 1170.18 1239.48 L 1168.43 1233.30" fill="#429cfd" fill-rule="evenodd" node-id="287" stroke="none" target-height="334.13" target-width="102.589966" target-x="1091.28" target-y="1227.34"></path><path d="M 892.29 1245.47 L 895.52 1245.25 L 897.95 1247.48 L 929.99 1304.54 L 930.86 1306.73 L 930.45 1309.00 L 928.94 1310.72 L 926.80 1311.28 L 924.71 1310.55 L 923.28 1308.70 L 891.25 1251.61 L 890.58 1248.30 L 892.29 1245.47 Z" fill="#0d0d0d" fill-rule="evenodd" node-id="289" stroke="none" target-height="66.03003" target-width="40.27997" target-x="890.58" target-y="1245.25"></path><path d="M 1146.50 1108.50 C 1146.50 1139.15 1138.42 1164.00 1115.50 1164.00 C 1092.58 1164.00 1080.00 1139.15 1080.00 1108.50 C 1080.00 1077.85 1092.58 1053.00 1115.50 1053.00 C 1138.42 1053.00 1146.50 1077.85 1146.50 1108.50 Z" fill="#ffe7ca" fill-rule="nonzero" node-id="291" stroke="none" target-height="111" target-width="66.5" target-x="1080" target-y="1053"></path><path d="M 1100.97 1048.30 L 1099.36 1046.36 L 1097.39 1044.98 L 1094.07 1043.94 L 1090.20 1044.05 L 1084.35 1046.06 L 1079.43 1049.60 L 1077.30 1053.14 L 1076.63 1057.06 L 1077.04 1060.52 L 1078.42 1065.40 L 1078.35 1067.30 L 1077.49 1068.61 L 1076.04 1069.17 L 1073.54 1068.72 L 1070.48 1067.82 L 1066.61 1067.94 L 1062.96 1069.61 L 1059.08 1074.35 L 1058.00 1079.08 L 1058.93 1085.56 L 1061.69 1091.97 L 1066.01 1097.53 L 1069.66 1100.28 L 1073.69 1101.74 L 1078.31 1101.89 L 1088.11 1099.31 L 1095.00 1095.77 L 1100.74 1091.34 L 1104.84 1087.35 L 1111.07 1082.36 L 1114.64 1080.46 L 1117.55 1079.64 L 1119.97 1080.05 L 1121.31 1082.13 L 1122.36 1089.66 L 1123.29 1096.89 L 1124.18 1099.05 L 1125.23 1099.13 L 1126.20 1097.64 L 1126.98 1094.47 L 1128.99 1087.72 L 1131.00 1085.27 L 1134.25 1084.26 L 1137.56 1085.12 L 1139.46 1087.39 L 1140.21 1090.52 L 1139.91 1094.40 L 1138.57 1098.20 L 1136.37 1101.59 L 1134.58 1103.94 L 1135.07 1106.32 L 1136.00 1109.93 L 1138.49 1113.89 L 1141.88 1116.90 L 1143.08 1116.68 L 1144.90 1114.18 L 1146.77 1110.34 L 1148.89 1103.53 L 1149.97 1095.40 L 1149.34 1082.51 L 1149.11 1079.19 L 1149.64 1077.48 L 1152.73 1074.12 L 1154.78 1071.66 L 1156.53 1068.42 L 1157.01 1064.81 L 1155.37 1060.00 L 1152.17 1056.09 L 1149.38 1054.63 L 1142.70 1054.41 L 1139.57 1054.15 L 1138.46 1053.37 L 1137.90 1049.90 L 1136.59 1044.94 L 1134.88 1041.81 L 1132.27 1038.87 L 1128.95 1036.78 L 1124.44 1036.00 L 1117.81 1037.16 L 1113.49 1039.50 L 1110.17 1042.86 L 1107.97 1046.32 L 1105.85 1048.97 L 1104.13 1049.64 L 1102.38 1049.27 L 1100.97 1048.30 Z" fill="#003a8c" fill-rule="nonzero" node-id="293" stroke="none" target-height="80.900024" target-width="99.01001" target-x="1058" target-y="1036"></path></svg>