<?xml version="1.0" standalone="no"?><!DOCTYPE svg PUBLIC "-//W3C//DTD SVG 1.1//EN" "http://www.w3.org/Graphics/SVG/1.1/DTD/svg11.dtd"><svg height="2661" node-id="1" sillyvg="true" template-height="2661" template-width="3861" version="1.1" viewBox="0 0 3861 2661" width="3861" xmlns="http://www.w3.org/2000/svg" xmlns:xlink="http://www.w3.org/1999/xlink"><defs node-id="110"><linearGradient gradientUnits="userSpaceOnUse" id="paint0_linear_201_71" node-id="45" spreadMethod="pad" x1="404.332" x2="404.332" y1="760.469" y2="439.424"><stop offset="0" stop-color="#ffffff" stop-opacity="0.1"></stop><stop offset="1" stop-color="#d9e9ff"></stop></linearGradient><linearGradient gradientUnits="userSpaceOnUse" id="paint1_linear_201_71" node-id="48" spreadMethod="pad" x1="2540.24" x2="2540.24" y1="588.782" y2="313.018"><stop offset="0" stop-color="#ffffff" stop-opacity="0.1"></stop><stop offset="0.14" stop-color="#f8fbff" stop-opacity="0.27"></stop><stop offset="0.37" stop-color="#edf5ff" stop-opacity="0.52"></stop><stop offset="0.58" stop-color="#e4f0ff" stop-opacity="0.73"></stop><stop offset="0.76" stop-color="#deecff" stop-opacity="0.88"></stop><stop offset="0.91" stop-color="#daeaff" stop-opacity="0.97"></stop><stop offset="1" stop-color="#d9e9ff"></stop></linearGradient><linearGradient gradientUnits="userSpaceOnUse" id="paint2_linear_201_71" node-id="56" spreadMethod="pad" x1="3353.86" x2="3353.86" y1="608.017" y2="0.507213"><stop offset="0" stop-color="#ffffff" stop-opacity="0.1"></stop><stop offset="0.09" stop-color="#fefeff" stop-opacity="0.13"></stop><stop offset="0.23" stop-color="#fbfcff" stop-opacity="0.21"></stop><stop offset="0.4" stop-color="#f5f9ff" stop-opacity="0.33"></stop><stop offset="0.59" stop-color="#eef5ff" stop-opacity="0.51"></stop><stop offset="0.79" stop-color="#e4efff" stop-opacity="0.74"></stop><stop offset="1" stop-color="#d9e9ff"></stop></linearGradient><linearGradient gradientUnits="userSpaceOnUse" id="paint3_linear_201_71" node-id="64" spreadMethod="pad" x1="1908" x2="1908" y1="2660.63" y2="1453.22"><stop offset="0" stop-color="#ffffff" stop-opacity="0.1"></stop><stop offset="0.13" stop-color="#fbfdff" stop-opacity="0.19"></stop><stop offset="0.41" stop-color="#f1f7ff" stop-opacity="0.43"></stop><stop offset="0.81" stop-color="#e1eeff" stop-opacity="0.82"></stop><stop offset="1" stop-color="#d9e9ff"></stop></linearGradient><linearGradient gradientUnits="userSpaceOnUse" id="paint4_linear_201_71" node-id="70" spreadMethod="pad" x1="1629.24" x2="1411.85" y1="1446.58" y2="922.091"><stop offset="0" stop-color="#3497fc"></stop><stop offset="1" stop-color="#c0e0ff"></stop></linearGradient><linearGradient gradientUnits="userSpaceOnUse" id="paint5_linear_201_71" node-id="73" spreadMethod="pad" x1="2442.03" x2="2224.63" y1="1446.58" y2="922.108"><stop offset="0" stop-color="#3497fc"></stop><stop offset="1" stop-color="#c0e0ff"></stop></linearGradient><linearGradient gradientUnits="userSpaceOnUse" id="paint6_linear_201_71" node-id="76" spreadMethod="pad" x1="2115.95" x2="1670.3" y1="1227.59" y2="366.384"><stop offset="0" stop-color="#3497fc"></stop><stop offset="1" stop-color="#eef6ff"></stop></linearGradient><linearGradient gradientUnits="userSpaceOnUse" id="paint7_linear_201_71" node-id="79" spreadMethod="pad" x1="1922.01" x2="1922.01" y1="409.197" y2="0.00000404172"><stop offset="0" stop-color="#3497fc"></stop><stop offset="1" stop-color="#eef6ff"></stop></linearGradient><linearGradient gradientUnits="userSpaceOnUse" id="paint8_linear_201_71" node-id="82" spreadMethod="pad" x1="1684.71" x2="2140.84" y1="1767.08" y2="1273.09"><stop offset="0" stop-color="#3497fc"></stop><stop offset="1" stop-color="#eef6ff"></stop></linearGradient><linearGradient gradientUnits="userSpaceOnUse" id="paint9_linear_201_71" node-id="85" spreadMethod="pad" x1="2058.13" x2="1867.48" y1="875.775" y2="421.136"><stop offset="0" stop-color="#3497fc"></stop><stop offset="1" stop-color="#e4f1ff"></stop></linearGradient><linearGradient gradientUnits="userSpaceOnUse" id="paint10_linear_201_71" node-id="88" spreadMethod="pad" x1="1942.62" x2="1942.62" y1="1629.2" y2="946.214"><stop offset="0" stop-color="#3497fc"></stop><stop offset="1" stop-color="#c5e3ff"></stop></linearGradient><linearGradient gradientUnits="userSpaceOnUse" id="paint11_linear_201_71" node-id="91" spreadMethod="pad" x1="1073" x2="790.172" y1="1421" y2="1156.22"><stop offset="0" stop-color="#3497fc"></stop><stop offset="1" stop-color="#cbe4ff"></stop></linearGradient><linearGradient gradientUnits="userSpaceOnUse" id="paint12_linear_201_71" node-id="94" spreadMethod="pad" x1="1610.99" x2="1075.52" y1="2011.31" y2="2011.31"><stop offset="0" stop-color="#eaf0fc"></stop><stop offset="1" stop-color="#cfdffa"></stop></linearGradient><linearGradient gradientUnits="userSpaceOnUse" id="paint13_linear_201_71" node-id="97" spreadMethod="pad" x1="1445.55" x2="830.326" y1="1916.56" y2="1916.56"><stop offset="0" stop-color="#eaf0fc"></stop><stop offset="1" stop-color="#cfdffa"></stop></linearGradient><linearGradient gradientUnits="userSpaceOnUse" id="paint14_linear_201_71" node-id="100" spreadMethod="pad" x1="2541.03" x2="2541.03" y1="1294.79" y2="1341.11"><stop offset="0" stop-color="#ffcda5"></stop><stop offset="1" stop-color="#ffe8d1"></stop></linearGradient><linearGradient gradientUnits="userSpaceOnUse" id="paint15_linear_201_71" node-id="103" spreadMethod="pad" x1="2475.39" x2="2421.84" y1="2036.67" y2="2094.4"><stop offset="0" stop-color="#003a8c"></stop><stop offset="1" stop-color="#5792f0"></stop></linearGradient><linearGradient gradientUnits="userSpaceOnUse" id="paint16_linear_201_71" node-id="106" spreadMethod="pad" x1="2578.93" x2="2525.34" y1="2036.67" y2="2093.76"><stop offset="0" stop-color="#003a8c"></stop><stop offset="1" stop-color="#5792f0"></stop></linearGradient></defs><path d="M 750.42 1505.39 L 767.67 1684.27 L 659.60 1672.38 L 750.42 1505.39 Z" fill="#e4efff" fill-rule="nonzero" node-id="241" stroke="none" target-height="178.88" target-width="108.07001" target-x="659.6" target-y="1505.39"></path><path d="M 745.31 1505.39 L 857.11 1646.59 L 762.27 1684.27 L 745.31 1505.39 Z" fill="#f3f8ff" fill-rule="nonzero" node-id="243" stroke="none" target-height="178.88" target-width="111.79999" target-x="745.31" target-y="1505.39"></path><path d="M 373.92 1550.11 L 395.02 1777.43 L 264.59 1762.27 L 373.92 1550.11 Z" fill="#e4efff" fill-rule="nonzero" node-id="245" stroke="none" target-height="227.32007" target-width="130.43" target-x="264.59" target-y="1550.11"></path><path d="M 376.38 1550.11 L 514.27 1729.77 L 397.51 1777.43 L 376.38 1550.11 Z" fill="#f3f8ff" fill-rule="nonzero" node-id="247" stroke="none" target-height="227.32007" target-width="137.89001" target-x="376.38" target-y="1550.11"></path><path d="M 553.32 1393.60 L 588.80 1769.98 L 350.30 1746.54 L 553.32 1393.60 Z" fill="#e4efff" fill-rule="nonzero" node-id="249" stroke="none" target-height="376.38" target-width="238.5" target-x="350.3" target-y="1393.6"></path><path d="M 547.80 1393.60 L 797.48 1689.37 L 583.32 1769.98 L 547.80 1393.60 Z" fill="#f3f8ff" fill-rule="nonzero" node-id="251" stroke="none" target-height="376.38" target-width="249.68" target-x="547.8" target-y="1393.6"></path><path d="M 623.19 566.41 C 609.26 491.81 544.12 438.26 468.99 439.63 C 428.78 439.45 389.99 454.50 360.28 481.89 C 343.66 474.29 325.63 470.38 307.37 470.38 C 249.53 469.45 198.89 509.40 185.81 566.30 C 141.35 576.21 109.30 615.42 108.07 661.37 C 109.78 717.30 155.84 761.35 211.22 760.04 L 597.44 760.04 C 652.86 761.42 698.95 717.34 700.59 661.37 C 699.40 615.53 667.50 576.40 623.19 566.41 Z" fill="url(#paint0_linear_201_71)" fill-rule="nonzero" node-id="253" stroke="none" target-height="323.15997" target-width="592.52" target-x="108.07" target-y="438.26"></path><path d="M 2728.74 417.73 C 2708.69 386.24 2674.74 366.72 2637.81 365.38 C 2616.31 332.10 2579.45 312.35 2540.21 313.02 C 2508.80 312.72 2478.54 325.24 2456.29 347.82 C 2446.12 344.54 2435.50 342.83 2424.84 342.83 C 2375.42 342.83 2334.62 377.49 2330.41 421.35 C 2292.73 430.44 2265.60 463.79 2264.00 503.03 C 2264.00 550.29 2306.71 588.78 2358.43 588.78 L 2721.10 588.78 C 2773.57 588.78 2815.53 550.29 2815.53 503.03 C 2816.35 458.13 2777.56 421.24 2728.74 417.73 Z" fill="url(#paint1_linear_201_71)" fill-rule="nonzero" node-id="255" stroke="none" target-height="276.43002" target-width="552.3501" target-x="2264" target-y="312.35"></path><path d="M 3710.15 193.82 C 3674.75 120.89 3600.85 74.45 3519.69 74.19 C 3474.48 74.31 3430.51 88.95 3394.29 115.97 C 3351.21 31.97 3257.60 -13.27 3164.96 5.03 C 3072.28 23.36 3003.00 100.84 2995.17 194.86 C 2895.49 226.31 2833.63 325.62 2849.47 428.85 C 2865.34 532.08 2954.14 608.32 3058.67 608.43 L 3648.40 608.43 C 3753.53 608.62 3842.93 531.74 3858.32 427.88 C 3873.75 323.99 3810.51 224.52 3709.85 194.23 L 3710.15 193.82 Z" fill="url(#paint2_linear_201_71)" fill-rule="nonzero" node-id="257" stroke="none" target-height="621.89" target-width="1040.1201" target-x="2833.63" target-y="-13.27"></path><path d="M 3816.00 2056.93 C 3816.00 2217.06 3614.99 2370.59 3257.16 2483.80 C 2899.34 2597.02 2414.03 2660.63 1908.00 2660.63 C 1401.97 2660.63 916.66 2597.02 558.84 2483.80 C 201.01 2370.59 0.00 2217.06 0.00 2056.93 C 0.00 1896.80 201.01 1743.26 558.84 1630.05 C 916.66 1516.84 1401.97 1453.22 1908.00 1453.22 C 2414.03 1453.22 2899.34 1516.84 3257.16 1630.05 C 3614.99 1743.26 3816.00 1896.80 3816.00 2056.93 Z" fill="url(#paint3_linear_201_71)" fill-rule="nonzero" node-id="259" stroke="none" target-height="1207.4099" target-width="3816" target-x="0" target-y="1453.22"></path><path d="M 3376.27 1550.11 L 3358.12 1788.61 L 3223.48 1749.56 L 3376.27 1550.11 Z" fill="#e4efff" fill-rule="nonzero" node-id="261" stroke="none" target-height="238.5" target-width="152.79004" target-x="3223.48" target-y="1550.11"></path><path d="M 3371.98 1550.11 L 3484.34 1760.25 L 3353.91 1788.61 L 3371.98 1550.11 Z" fill="#f3f8ff" fill-rule="nonzero" node-id="263" stroke="none" target-height="238.5" target-width="130.43018" target-x="3353.91" target-y="1550.11"></path><path d="M 1555.78 699.77 L 1514.80 725.96 L 1478.91 751.49 L 1447.68 776.42 L 1420.71 800.82 L 1397.65 824.66 L 1378.12 847.98 L 1361.89 870.86 L 1348.67 893.39 L 1338.23 915.58 L 1330.35 937.59 L 1324.92 959.52 L 1321.83 981.40 L 1321.00 1003.45 L 1322.52 1025.73 L 1331.70 1094.89 L 1342.36 1162.37 L 1354.58 1228.18 L 1368.29 1292.43 L 1383.42 1355.12 L 1396.30 1369.74 L 1408.96 1380.79 L 1421.49 1388.75 L 1433.97 1394.01 L 1446.59 1396.84 L 1459.60 1397.36 L 1473.12 1395.45 L 1487.44 1390.97 L 1502.79 1383.48 L 1519.37 1372.61 L 1570.61 1332.67 L 1638.43 1275.69 L 1726.22 1197.86 L 1555.78 699.77 Z" fill="url(#paint4_linear_201_71)" fill-rule="nonzero" node-id="265" stroke="none" target-height="697.58997" target-width="405.21997" target-x="1321" target-y="699.77"></path><path d="M 2304.27 699.77 L 2345.24 725.96 L 2381.13 751.49 L 2412.37 776.42 L 2439.34 800.82 L 2462.39 824.66 L 2481.88 847.98 L 2498.11 870.86 L 2511.33 893.39 L 2521.82 915.58 L 2529.69 937.59 L 2535.13 959.52 L 2538.22 981.40 L 2539.00 1003.45 L 2537.48 1025.73 L 2528.34 1094.89 L 2517.64 1162.37 L 2505.46 1228.18 L 2491.76 1292.43 L 2476.62 1355.12 L 2463.70 1369.74 L 2451.04 1380.79 L 2438.55 1388.75 L 2426.07 1394.01 L 2413.41 1396.84 L 2400.45 1397.36 L 2386.92 1395.45 L 2372.56 1390.97 L 2357.21 1383.48 L 2340.63 1372.61 L 2289.39 1332.67 L 2221.57 1275.69 L 2133.83 1197.86 L 2304.27 699.77 Z" fill="url(#paint5_linear_201_71)" fill-rule="nonzero" node-id="267" stroke="none" target-height="697.58997" target-width="405.16992" target-x="2133.83" target-y="699.77"></path><path d="M 2146.27 1266.50 L 2172.59 1224.92 L 2195.99 1184.33 L 2216.70 1144.70 L 2234.75 1105.94 L 2250.37 1068.09 L 2264.64 1028.46 L 2276.69 989.79 L 2286.65 951.99 L 2294.57 915.01 L 2300.48 878.77 L 2305.75 832.45 L 2308.40 787.42 L 2308.62 743.66 L 2306.44 701.03 L 2302.00 658.18 L 2295.74 616.63 L 2287.69 576.35 L 2277.86 537.24 L 2266.29 498.27 L 2253.50 460.77 L 2239.62 424.66 L 2224.61 389.86 L 2202.60 344.14 L 2179.85 301.33 L 2156.32 261.36 L 2131.26 222.21 L 2106.77 186.53 L 2082.84 154.13 L 2046.13 108.01 L 2013.85 70.65 L 1982.70 37.06 L 1959.12 13.31 L 1952.51 8.05 L 1945.29 4.09 L 1937.29 1.44 L 1928.93 0.04 L 1920.63 0.00 L 1912.23 1.26 L 1904.18 3.83 L 1896.87 7.66 L 1890.17 12.83 L 1866.25 36.24 L 1834.62 69.30 L 1801.87 106.14 L 1764.72 151.65 L 1740.44 183.66 L 1715.65 218.94 L 1690.29 257.75 L 1666.49 297.33 L 1643.43 339.83 L 1621.25 385.25 L 1606.07 419.83 L 1592.02 455.77 L 1579.14 493.13 L 1567.48 531.98 L 1557.56 571.00 L 1549.51 611.24 L 1543.25 652.78 L 1538.86 695.72 L 1536.72 738.44 L 1537.03 782.33 L 1539.81 827.57 L 1545.25 874.21 L 1551.34 910.66 L 1559.48 947.90 L 1569.66 986.05 L 1582.01 1025.11 L 1596.58 1065.22 L 1612.50 1103.50 L 1630.91 1142.70 L 1652.00 1182.94 L 1675.89 1224.18 L 1702.73 1266.50 L 2146.27 1266.50 Z" fill="url(#paint6_linear_201_71)" fill-rule="nonzero" node-id="269" stroke="none" target-height="1266.5" target-width="771.90015" target-x="1536.72" target-y="0"></path><path d="M 1957.38 13.40 L 1951.12 8.09 L 1944.20 4.13 L 1936.63 1.48 L 1928.63 0.09 L 1920.71 0.00 L 1912.71 1.22 L 1905.05 3.74 L 1898.05 7.57 L 1891.65 12.75 L 1872.73 31.84 L 1848.59 57.68 L 1823.49 86.22 L 1794.95 120.98 L 1766.46 158.39 L 1736.22 201.46 L 1716.78 231.34 L 1697.33 263.44 L 1677.93 297.90 L 2165.63 297.90 L 2136.92 247.65 L 2108.34 202.37 L 2078.80 159.48 L 2051.09 122.15 L 2023.38 87.39 L 1999.06 58.73 L 1975.66 32.71 L 1957.38 13.40 Z" fill="url(#paint7_linear_201_71)" fill-rule="nonzero" node-id="271" stroke="none" target-height="297.9" target-width="487.69983" target-x="1677.93" target-y="0"></path><path d="M 2146.66 1266.50 L 2167.19 1235.75 L 2185.94 1205.56 L 1664.40 1205.56 L 1682.80 1235.92 L 1702.73 1266.50 L 2146.66 1266.50 Z" fill="#9dcefe" fill-rule="nonzero" node-id="273" stroke="none" target-height="60.93994" target-width="521.5399" target-x="1664.4" target-y="1205.56"></path><path d="M 2156.66 1598.42 L 2152.92 1617.09 L 2150.14 1625.13 L 2145.22 1632.09 L 2139.79 1636.57 L 2132.65 1640.53 L 2123.30 1643.88 L 2114.64 1645.14 L 2106.46 1644.58 L 2098.59 1642.27 L 2090.85 1638.23 L 2083.15 1632.18 L 2056.18 1606.04 L 2048.65 1599.12 L 2044.26 1595.81 L 2040.43 1594.64 L 2037.34 1596.25 L 2034.25 1600.60 L 2029.34 1610.04 L 1965.30 1737.89 L 1959.95 1747.29 L 1953.56 1755.20 L 1946.07 1761.08 L 1936.50 1765.25 L 1925.71 1767.08 L 1915.97 1766.38 L 1906.92 1763.43 L 1898.83 1758.34 L 1891.52 1750.85 L 1884.91 1740.46 L 1819.14 1609.43 L 1814.66 1600.86 L 1811.74 1596.68 L 1808.61 1594.77 L 1804.95 1595.64 L 1800.69 1598.77 L 1793.43 1605.51 L 1765.24 1632.92 L 1756.28 1639.62 L 1747.23 1643.62 L 1737.87 1645.19 L 1727.96 1644.40 L 1717.17 1641.06 L 1709.51 1636.53 L 1704.25 1631.18 L 1700.33 1624.83 L 1697.33 1617.56 L 1692.02 1601.30 L 1686.80 1583.33 L 1682.89 1564.84 L 1680.28 1545.79 L 1678.32 1517.16 L 1678.36 1489.54 L 1679.93 1462.61 L 1682.37 1439.12 L 1688.24 1401.01 L 1692.02 1381.79 L 1695.20 1366.78 L 1697.85 1360.21 L 1702.03 1354.51 L 1704.20 1352.55 L 1712.73 1345.51 L 1721.08 1341.11 L 1729.39 1339.07 L 1738.01 1338.98 L 1747.79 1340.98 L 1759.06 1345.46 L 1788.82 1358.38 L 1818.44 1368.61 L 1848.06 1376.17 L 1877.73 1381.22 L 1907.53 1383.79 L 1937.63 1383.83 L 1968.09 1381.35 L 1998.97 1376.30 L 2030.47 1368.61 L 2060.79 1358.25 L 2090.24 1345.24 L 2099.20 1342.07 L 2107.46 1341.03 L 2115.34 1341.94 L 2122.95 1344.37 L 2129.95 1347.94 L 2136.44 1352.68 L 2144.83 1361.08 L 2151.01 1369.91 L 2155.19 1379.09 L 2156.45 1386.09 L 2167.28 1428.42 L 2170.85 1448.87 L 2172.85 1471.27 L 2172.85 1494.98 L 2170.28 1524.60 L 2165.36 1556.66 L 2156.66 1598.42 Z" fill="url(#paint8_linear_201_71)" fill-rule="nonzero" node-id="275" stroke="none" target-height="428.09998" target-width="494.53015" target-x="1678.32" target-y="1338.98"></path><path d="M 1702.72 1266.50 L 2145.31 1266.50 L 2145.31 1327.49 L 1702.72 1327.49 L 1702.72 1266.50 Z" fill="#3f9cfc" fill-rule="nonzero" node-id="277" stroke="none" target-height="60.98999" target-width="442.5901" target-x="1702.72" target-y="1266.5"></path><path d="M 2125.87 609.51 L 2124.78 630.61 L 2121.69 650.75 L 2116.73 670.02 L 2109.90 688.60 L 2101.24 706.47 L 2091.15 723.18 L 2079.54 738.71 L 2066.36 753.20 L 2051.87 766.33 L 2036.34 777.95 L 2019.68 788.08 L 2001.76 796.74 L 1983.22 803.57 L 1963.91 808.53 L 1943.77 811.57 L 1922.67 812.71 L 1901.57 811.57 L 1881.43 808.53 L 1862.16 803.57 L 1843.58 796.74 L 1825.71 788.08 L 1809.00 777.95 L 1793.47 766.33 L 1778.98 753.20 L 1765.85 738.71 L 1754.23 723.18 L 1744.10 706.47 L 1735.44 688.60 L 1728.61 670.02 L 1723.65 650.75 L 1720.61 630.61 L 1719.47 609.51 L 1720.61 588.41 L 1723.65 568.27 L 1728.61 548.96 L 1735.44 530.38 L 1744.10 512.50 L 1754.23 495.84 L 1765.85 480.27 L 1778.98 465.82 L 1793.47 452.64 L 1809.00 441.03 L 1825.71 430.89 L 1843.58 422.28 L 1862.16 415.40 L 1881.43 410.49 L 1901.57 407.40 L 1922.67 406.27 L 1943.77 407.40 L 1963.91 410.49 L 1983.22 415.40 L 2001.76 422.28 L 2019.68 430.89 L 2036.34 441.03 L 2051.87 452.64 L 2066.36 465.82 L 2079.54 480.27 L 2091.15 495.84 L 2101.24 512.50 L 2109.90 530.38 L 2116.73 548.96 L 2121.69 568.27 L 2124.78 588.41 L 2125.87 609.51 Z" fill="#ffffff" fill-rule="nonzero" node-id="279" stroke="none" target-height="406.44003" target-width="406.40015" target-x="1719.47" target-y="406.27"></path><path d="M 2058.13 609.50 L 2056.87 628.07 L 2053.31 645.60 L 2047.52 662.22 L 2039.60 677.92 L 2029.94 692.24 L 2018.46 705.29 L 2005.45 716.73 L 1991.14 726.39 L 1975.39 734.30 L 1958.82 740.09 L 1941.29 743.66 L 1922.67 744.96 L 1904.05 743.66 L 1886.56 740.09 L 1869.95 734.30 L 1854.24 726.39 L 1839.93 716.73 L 1826.88 705.29 L 1815.44 692.24 L 1805.78 677.92 L 1797.86 662.22 L 1792.08 645.60 L 1788.51 628.07 L 1787.21 609.50 L 1788.51 590.88 L 1792.08 573.35 L 1797.86 556.73 L 1805.78 541.03 L 1815.44 526.71 L 1826.88 513.71 L 1839.93 502.22 L 1854.24 492.56 L 1869.95 484.65 L 1886.56 478.86 L 1904.05 475.30 L 1922.67 474.03 L 1941.29 475.30 L 1958.82 478.86 L 1975.39 484.65 L 1991.14 492.56 L 2005.45 502.22 L 2018.46 513.71 L 2029.94 526.71 L 2039.60 541.03 L 2047.52 556.73 L 2053.31 573.35 L 2056.87 590.88 L 2058.13 609.50 Z" fill="url(#paint9_linear_201_71)" fill-rule="nonzero" node-id="281" stroke="none" target-height="270.93002" target-width="270.91992" target-x="1787.21" target-y="474.03"></path><path d="M 1918.71 1015.89 L 1909.49 1024.76 L 1900.48 1035.16 L 1888.00 1052.39 L 1880.12 1065.18 L 1871.95 1080.97 L 1863.42 1100.28 L 1856.37 1119.95 L 1850.15 1143.05 L 1844.93 1169.84 L 1841.71 1196.86 L 1840.54 1227.66 L 1841.67 1262.68 L 1844.06 1288.30 L 1848.28 1316.31 L 1854.50 1346.85 L 1862.85 1380.17 L 1872.42 1411.89 L 1884.61 1446.30 L 1899.61 1483.58 L 1917.71 1523.90 L 1935.98 1483.97 L 1951.16 1447.03 L 1963.52 1412.93 L 1973.26 1381.43 L 1981.79 1348.29 L 1988.10 1317.88 L 1992.45 1289.99 L 1994.97 1264.37 L 1996.23 1229.40 L 1995.19 1198.60 L 1992.05 1171.50 L 1986.92 1144.57 L 1980.79 1121.38 L 1973.78 1101.50 L 1965.34 1082.01 L 1957.17 1066.05 L 1949.34 1053.08 L 1936.85 1035.55 L 1927.89 1024.98 L 1918.71 1015.89 Z" fill="url(#paint10_linear_201_71)" fill-rule="nonzero" node-id="283" stroke="none" target-height="508.01" target-width="155.68994" target-x="1840.54" target-y="1015.89"></path><path d="M 883.70 1358.43 L 921.22 1358.43 L 921.22 1758.62 L 883.70 1758.62 L 883.70 1358.43 Z" fill="#3f9cfc" fill-rule="nonzero" node-id="285" stroke="none" target-height="400.18994" target-width="37.51996" target-x="883.7" target-y="1358.43"></path><path d="M 907.06 1129.26 C 907.60 1129.79 908.06 1130.40 908.44 1131.05 L 1071.63 1410.79 C 1071.92 1411.29 1072.17 1411.83 1072.35 1412.38 L 1072.48 1412.80 C 1072.73 1413.54 1072.83 1414.32 1072.78 1415.11 C 1072.73 1415.89 1072.52 1416.66 1072.18 1417.37 L 1072.15 1417.44 C 1071.83 1418.09 1071.39 1418.68 1070.86 1419.17 C 1070.18 1419.79 1069.36 1420.24 1068.47 1420.48 L 1067.77 1420.66 C 1067.04 1420.86 1066.28 1420.96 1065.52 1420.96 L 739.09 1420.96 C 738.53 1420.96 737.98 1420.90 737.43 1420.79 L 737.02 1420.70 C 736.22 1420.54 735.47 1420.22 734.80 1419.76 C 734.17 1419.33 733.62 1418.79 733.19 1418.16 L 733.15 1418.09 C 732.72 1417.46 732.42 1416.76 732.27 1416.02 C 732.09 1415.15 732.12 1414.26 732.35 1413.40 L 732.54 1412.69 C 732.74 1411.93 733.04 1411.20 733.44 1410.52 L 896.62 1130.80 C 896.91 1130.31 897.24 1129.85 897.62 1129.43 L 897.91 1129.11 C 898.46 1128.50 899.12 1128.01 899.85 1127.66 C 900.52 1127.35 901.24 1127.16 901.98 1127.10 L 902.06 1127.09 C 902.84 1127.03 903.62 1127.13 904.36 1127.38 C 905.19 1127.67 905.94 1128.13 906.55 1128.75 L 907.06 1129.26 Z" fill="url(#paint11_linear_201_71)" fill-rule="nonzero" node-id="287" stroke="none" target-height="293.92993" target-width="340.73993" target-x="732.09" target-y="1127.03"></path><path d="M 914.97 1322.47 L 913.47 1325.72 L 911.46 1328.13 L 908.84 1329.73 L 905.59 1330.29 L 902.33 1329.73 L 899.71 1328.13 L 897.71 1325.72 L 896.21 1322.47 L 889.95 1236.49 L 890.64 1231.96 L 892.27 1228.24 L 894.83 1225.17 L 898.11 1222.80 L 901.68 1221.39 L 905.59 1220.86 L 910.12 1221.55 L 913.84 1223.24 L 916.90 1225.92 L 919.25 1229.39 L 920.69 1233.40 L 921.22 1238.06 L 914.97 1322.47 Z M 905.59 1345.92 L 910.18 1346.48 L 913.87 1347.92 L 916.90 1350.24 L 919.22 1353.27 L 920.66 1356.96 L 921.22 1361.55 L 920.66 1366.15 L 919.22 1369.84 L 916.90 1372.87 L 913.87 1375.19 L 910.18 1376.62 L 905.59 1377.19 L 900.99 1376.62 L 897.30 1375.19 L 894.27 1372.87 L 891.95 1369.84 L 890.52 1366.15 L 889.95 1361.55 L 890.52 1356.96 L 891.95 1353.27 L 894.27 1350.24 L 897.30 1347.92 L 900.99 1346.48 L 905.59 1345.92 Z" fill="#ffffff" fill-rule="nonzero" node-id="289" stroke="none" target-height="156.32996" target-width="31.269958" target-x="889.95" target-y="1220.86"></path><path d="M 1438.57 2049.12 L 1130.67 2033.61 L 1128.23 2032.98 L 1126.35 2031.54 L 1125.10 2029.51 L 1124.73 2027.04 L 1125.44 2024.42 L 1248.32 1793.33 L 1249.91 1791.40 L 1252.01 1790.30 L 1254.38 1790.05 L 1256.79 1790.74 L 1258.85 1792.52 L 1443.88 2039.11 L 1444.98 2041.36 L 1445.07 2043.74 L 1444.32 2045.99 L 1442.66 2047.87 L 1440.72 2048.83 L 1438.57 2049.12 Z" fill="url(#paint12_linear_201_71)" fill-opacity="0.2" fill-rule="evenodd" node-id="291" stroke="none" target-height="259.07007" target-width="320.33997" target-x="1124.73" target-y="1790.05"></path><path d="M 1254.91 1920.40 L 1240.22 1948.00 L 886.86 1760.13 L 901.55 1732.52 L 1254.91 1920.40 Z" fill="url(#paint13_linear_201_71)" fill-opacity="0.2" fill-rule="evenodd" node-id="293" stroke="none" target-height="215.47998" target-width="368.05005" target-x="886.86" target-y="1732.52"></path><path d="M 1275.24 1961.92 L 1272.89 1959.29 L 1271.55 1956.76 L 1271.14 1954.16 L 1271.86 1951.60 L 1273.58 1949.60 L 1275.96 1948.47 L 1278.80 1948.19 L 1282.30 1948.66 L 1360.56 1984.62 L 1364.37 1987.27 L 1367.03 1990.18 L 1368.72 1993.37 L 1369.60 1996.87 L 1369.47 2000.03 L 1368.50 2003.00 L 1366.25 2005.81 L 1363.37 2007.66 L 1359.75 2008.60 L 1353.87 2008.32 L 1347.43 2005.97 L 1275.24 1961.92 Z M 1258.07 1944.28 L 1255.88 1947.19 L 1253.26 1949.16 L 1250.01 1950.26 L 1246.53 1950.47 L 1242.72 1949.76 L 1238.37 1947.97 L 1234.50 1945.38 L 1231.78 1942.63 L 1230.00 1939.63 L 1229.09 1936.31 L 1229.25 1933.03 L 1230.46 1929.59 L 1232.62 1926.68 L 1235.28 1924.71 L 1238.50 1923.62 L 1241.97 1923.40 L 1245.82 1924.12 L 1250.13 1925.90 L 1254.01 1928.49 L 1256.76 1931.25 L 1258.51 1934.25 L 1259.42 1937.56 L 1259.29 1940.84 L 1258.07 1944.28 Z" fill="#ffffff" fill-opacity="0.2" fill-rule="nonzero" node-id="295" stroke="none" target-height="85.19995" target-width="140.51001" target-x="1229.09" target-y="1923.4"></path><path d="M 2697.00 2084.01 L 2696.04 2090.24 L 2693.32 2096.43 L 2688.56 2102.71 L 2681.28 2109.22 L 2670.56 2116.22 L 2656.48 2123.10 L 2638.44 2129.78 L 2620.00 2135.08 L 2598.92 2139.74 L 2574.84 2143.66 L 2550.72 2146.41 L 2524.80 2148.11 L 2497.00 2148.76 L 2469.20 2148.11 L 2443.28 2146.41 L 2419.16 2143.66 L 2395.08 2139.74 L 2374.00 2135.08 L 2355.56 2129.78 L 2337.52 2123.10 L 2323.44 2116.18 L 2312.72 2109.22 L 2305.44 2102.71 L 2300.68 2096.43 L 2297.96 2090.24 L 2297.00 2084.01 L 2297.96 2077.78 L 2300.68 2071.59 L 2305.44 2065.31 L 2312.72 2058.80 L 2323.44 2051.80 L 2337.52 2044.92 L 2355.56 2038.24 L 2374.00 2032.94 L 2395.08 2028.28 L 2419.16 2024.36 L 2443.28 2021.61 L 2469.20 2019.91 L 2497.00 2019.26 L 2524.80 2019.91 L 2550.72 2021.61 L 2574.84 2024.36 L 2598.92 2028.28 L 2620.00 2032.94 L 2638.44 2038.24 L 2656.48 2044.92 L 2670.56 2051.80 L 2681.28 2058.80 L 2688.56 2065.31 L 2693.32 2071.59 L 2696.04 2077.78 L 2697.00 2084.01 Z" fill="#84c1ff" fill-opacity="0.15" fill-rule="evenodd" node-id="297" stroke="none" target-height="129.5" target-width="400" target-x="2297" target-y="2019.26"></path><path d="M 2557.36 1287.92 L 2524.70 1287.92 L 2524.70 1341.11 L 2557.36 1341.11 L 2557.36 1287.92 Z" fill="url(#paint14_linear_201_71)" fill-rule="evenodd" node-id="299" stroke="none" target-height="53.18994" target-width="32.660156" target-x="2524.7" target-y="1287.92"></path><path d="M 2459.21 2037.68 L 2455.81 2059.42 L 2442.20 2060.91 L 2427.23 2064.76 L 2410.63 2071.34 L 2403.98 2076.15 L 2401.19 2079.28 L 2399.80 2082.69 L 2399.35 2086.54 L 2400.66 2087.79 L 2408.49 2089.03 L 2432.73 2089.23 L 2488.12 2086.54 L 2488.12 2029.70 L 2459.21 2037.68 Z" fill="url(#paint15_linear_201_71)" fill-rule="nonzero" node-id="301" stroke="none" target-height="59.53003" target-width="88.77002" target-x="2399.35" target-y="2029.7"></path><path d="M 2562.95 2037.68 L 2559.59 2059.42 L 2546.13 2060.91 L 2531.34 2064.76 L 2514.93 2071.34 L 2508.37 2076.15 L 2505.61 2079.28 L 2504.23 2082.69 L 2503.79 2086.54 L 2505.08 2087.79 L 2512.82 2089.03 L 2536.77 2089.23 L 2591.52 2086.54 L 2591.52 2029.70 L 2562.95 2037.68 Z" fill="url(#paint16_linear_201_71)" fill-rule="nonzero" node-id="303" stroke="none" target-height="59.53003" target-width="87.72998" target-x="2503.79" target-y="2029.7"></path><path d="M 2473.31 1619.26 L 2435.90 2043.28 L 2502.63 2043.08 L 2567.50 1623.78 L 2473.31 1619.26 Z" fill="#153f82" fill-rule="nonzero" node-id="305" stroke="none" target-height="424.02002" target-width="131.6001" target-x="2435.9" target-y="1619.26"></path><path d="M 2479.77 1622.35 L 2539.13 2046.41 L 2608.75 2046.41 L 2609.27 1620.30 L 2479.77 1622.35 Z" fill="#153f82" fill-rule="nonzero" node-id="307" stroke="none" target-height="426.11" target-width="129.5" target-x="2479.77" target-y="1620.3"></path><path d="M 2461.05 1496.83 L 2456.64 1507.91 L 2370.79 1431.37 L 2366.39 1423.62 L 2359.81 1416.96 L 2352.08 1413.63 L 2350.43 1414.11 L 2349.27 1414.83 L 2348.79 1415.84 L 2350.43 1419.41 L 2352.08 1421.38 L 2355.40 1425.83 L 2356.25 1427.48 L 2356.09 1427.88 L 2355.40 1428.04 L 2353.20 1428.04 L 2352.40 1427.11 L 2348.79 1422.50 L 2343.26 1413.63 L 2342.14 1412.22 L 2340.82 1411.46 L 2338.89 1411.42 L 2337.29 1413.19 L 2336.69 1414.71 L 2338.73 1425.47 L 2342.18 1435.82 L 2345.71 1443.21 L 2349.87 1450.23 L 2351.12 1452.28 L 2352.92 1453.96 L 2356.49 1455.77 L 2364.74 1459.46 L 2372.72 1463.72 L 2376.33 1465.76 L 2446.74 1545.63 L 2448.75 1547.88 L 2453.48 1552.09 L 2456.32 1553.82 L 2458.85 1554.50 L 2462.98 1553.98 L 2466.86 1552.38 L 2472.96 1548.00 L 2475.36 1545.63 L 2479.77 1503.49 L 2461.05 1496.83 Z" fill="#fecca9" fill-rule="nonzero" node-id="309" stroke="none" target-height="143.07996" target-width="143.08008" target-x="2336.69" target-y="1411.42"></path><path d="M 2515.76 1351.89 L 2458.16 1505.82 L 2388.53 1441.26 C 2386.76 1439.62 2383.95 1439.91 2382.55 1441.87 L 2367.80 1462.59 C 2366.71 1464.13 2366.84 1466.22 2368.11 1467.61 L 2447.37 1554.38 L 2453.21 1558.24 L 2458.16 1559.73 L 2462.55 1559.37 L 2466.78 1557.23 L 2471.01 1552.89 L 2475.36 1545.49 L 2482.73 1527.34 L 2499.53 1480.15 L 2531.99 1383.03 L 2515.76 1351.89 Z" fill="#429cfd" fill-rule="evenodd" node-id="311" stroke="none" target-height="207.83997" target-width="165.28003" target-x="2366.71" target-y="1351.89"></path><path d="M 2511.67 1340.09 C 2512.50 1336.65 2514.80 1333.75 2517.96 1332.16 L 2563.35 1309.42 C 2564.87 1308.66 2566.72 1309.31 2567.42 1310.85 L 2573.43 1323.95 L 2580.29 1341.72 L 2589.42 1370.08 L 2594.88 1390.46 L 2600.23 1414.89 L 2605.29 1443.93 L 2609.48 1476.98 L 2612.35 1508.91 L 2614.22 1539.92 L 2615.14 1566.47 L 2615.54 1607.63 L 2615.26 1623.35 L 2604.29 1623.43 L 2576.86 1623.63 L 2541.25 1623.92 L 2505.60 1624.20 L 2478.20 1624.40 L 2467.24 1624.48 L 2469.03 1609.47 L 2474.01 1569.28 L 2481.71 1511.00 L 2491.56 1441.68 L 2498.22 1402.65 L 2505.20 1368.36 L 2510.74 1343.97 L 2511.67 1340.09 Z" fill="#429cfd" fill-rule="evenodd" node-id="313" stroke="none" target-height="315.81995" target-width="148.30005" target-x="2467.24" target-y="1308.66"></path><path d="M 2546.08 1561.82 L 2525.22 1657.10 L 2523.34 1659.79 L 2519.74 1664.74 L 2515.23 1670.80 L 2515.23 1670.80 C 2514.07 1672.33 2514.27 1674.49 2515.68 1675.78 L 2532.06 1690.76 C 2535.67 1694.06 2541.47 1692.74 2543.29 1688.19 L 2550.48 1670.21 L 2577.94 1570.57 L 2546.08 1561.82 Z" fill="#fecca9" fill-rule="nonzero" node-id="315" stroke="none" target-height="132.24011" target-width="63.869873" target-x="2514.07" target-y="1561.82"></path><path d="M 2525.51 1367.56 L 2549.25 1496.64 L 2549.49 1499.86 L 2549.78 1507.52 L 2549.25 1516.66 L 2545.90 1532.94 L 2539.38 1560.27 L 2531.39 1592.38 L 2523.56 1623.01 L 2517.64 1645.94 L 2516.20 1651.45 C 2515.65 1653.55 2516.51 1655.76 2518.33 1656.93 L 2550.45 1677.54 C 2553.13 1679.26 2556.71 1678.07 2557.83 1675.09 L 2559.08 1671.77 L 2567.68 1648.68 L 2579.10 1617.97 L 2590.89 1585.94 L 2600.55 1558.94 L 2605.73 1543.34 L 2608.95 1528.96 L 2611.36 1514.41 L 2611.28 1507.88 L 2611.36 1494.38 L 2609.40 1476.57 L 2604.30 1447.07 L 2597.82 1414.27 L 2593.13 1393.76 L 2589.26 1378.89 L 2587.62 1373.12" fill="#429cfd" fill-rule="evenodd" node-id="317" stroke="none" target-height="311.69995" target-width="95.710205" target-x="2515.65" target-y="1367.56"></path><path d="M 2329.93 1384.47 L 2332.94 1384.27 L 2335.21 1386.35 L 2365.11 1439.59 L 2365.93 1441.63 L 2365.54 1443.76 L 2364.13 1445.36 L 2362.14 1445.88 L 2360.18 1445.20 L 2358.85 1443.48 L 2328.96 1390.20 L 2328.33 1387.11 L 2329.93 1384.47 Z" fill="#0d0d0d" fill-rule="evenodd" node-id="319" stroke="none" target-height="61.609985" target-width="37.599854" target-x="2328.33" target-y="1384.27"></path><path d="M 2567.16 1256.65 C 2567.16 1285.26 2559.62 1308.44 2538.23 1308.44 C 2516.84 1308.44 2505.10 1285.26 2505.10 1256.65 C 2505.10 1228.05 2516.84 1204.86 2538.23 1204.86 C 2559.62 1204.86 2567.16 1228.05 2567.16 1256.65 Z" fill="#ffe7ca" fill-rule="nonzero" node-id="321" stroke="none" target-height="103.579956" target-width="62.059814" target-x="2505.1" target-y="1204.86"></path><path d="M 2524.67 1200.48 L 2523.17 1198.67 L 2521.33 1197.38 L 2518.23 1196.41 L 2514.62 1196.51 L 2509.16 1198.39 L 2504.57 1201.69 L 2502.58 1205.00 L 2501.96 1208.65 L 2502.34 1211.88 L 2503.63 1216.44 L 2503.56 1218.21 L 2502.76 1219.43 L 2501.40 1219.95 L 2499.07 1219.53 L 2496.22 1218.70 L 2492.60 1218.80 L 2489.19 1220.37 L 2485.58 1224.78 L 2484.57 1229.20 L 2485.44 1235.25 L 2488.01 1241.23 L 2492.05 1246.41 L 2495.45 1248.99 L 2499.21 1250.34 L 2503.52 1250.48 L 2512.67 1248.08 L 2519.10 1244.78 L 2524.46 1240.64 L 2528.28 1236.92 L 2534.09 1232.26 L 2537.43 1230.49 L 2540.14 1229.72 L 2542.40 1230.10 L 2543.65 1232.05 L 2544.63 1239.08 L 2545.50 1245.82 L 2546.33 1247.84 L 2547.30 1247.91 L 2548.21 1246.52 L 2548.94 1243.56 L 2550.82 1237.27 L 2552.70 1234.97 L 2555.72 1234.03 L 2558.82 1234.83 L 2560.59 1236.96 L 2561.28 1239.88 L 2561.01 1243.49 L 2559.75 1247.04 L 2557.70 1250.21 L 2556.03 1252.40 L 2556.49 1254.62 L 2557.36 1258.00 L 2559.69 1261.68 L 2562.85 1264.50 L 2563.96 1264.29 L 2565.67 1261.96 L 2567.41 1258.38 L 2569.39 1252.01 L 2570.40 1244.43 L 2569.80 1232.40 L 2569.60 1229.31 L 2570.08 1227.71 L 2572.97 1224.58 L 2574.88 1222.28 L 2576.52 1219.25 L 2576.97 1215.88 L 2575.44 1211.40 L 2572.45 1207.74 L 2569.84 1206.39 L 2563.61 1206.18 L 2560.69 1205.94 L 2559.65 1205.21 L 2559.13 1201.97 L 2557.91 1197.35 L 2556.31 1194.43 L 2553.88 1191.68 L 2550.78 1189.73 L 2546.57 1189.00 L 2540.38 1190.08 L 2536.35 1192.27 L 2533.26 1195.40 L 2531.20 1198.63 L 2529.22 1201.10 L 2527.62 1201.73 L 2525.99 1201.38 L 2524.67 1200.48 Z" fill="#003a8c" fill-rule="nonzero" node-id="323" stroke="none" target-height="75.5" target-width="92.3999" target-x="2484.57" target-y="1189"></path></svg>