<?xml version="1.0" standalone="no"?><!DOCTYPE svg PUBLIC "-//W3C//DTD SVG 1.1//EN" "http://www.w3.org/Graphics/SVG/1.1/DTD/svg11.dtd"><svg height="2817" node-id="1" sillyvg="true" template-height="2817" template-width="3861" version="1.1" viewBox="0 0 3861 2817" width="3861" xmlns="http://www.w3.org/2000/svg" xmlns:xlink="http://www.w3.org/1999/xlink"><defs node-id="91"><linearGradient gradientUnits="userSpaceOnUse" id="paint0_linear_91_438" node-id="38" spreadMethod="pad" x1="404.332" x2="404.332" y1="877.469" y2="556.424"><stop offset="0" stop-color="#ffffff" stop-opacity="0.1"></stop><stop offset="1" stop-color="#d9e9ff"></stop></linearGradient><linearGradient gradientUnits="userSpaceOnUse" id="paint1_linear_91_438" node-id="41" spreadMethod="pad" x1="3024.24" x2="3024.24" y1="1093.78" y2="818.018"><stop offset="0" stop-color="#ffffff" stop-opacity="0.1"></stop><stop offset="0.14" stop-color="#f8fbff" stop-opacity="0.27"></stop><stop offset="0.37" stop-color="#edf5ff" stop-opacity="0.52"></stop><stop offset="0.58" stop-color="#e4f0ff" stop-opacity="0.73"></stop><stop offset="0.76" stop-color="#deecff" stop-opacity="0.88"></stop><stop offset="0.91" stop-color="#daeaff" stop-opacity="0.97"></stop><stop offset="1" stop-color="#d9e9ff"></stop></linearGradient><linearGradient gradientUnits="userSpaceOnUse" id="paint2_linear_91_438" node-id="49" spreadMethod="pad" x1="3353.86" x2="3353.86" y1="607.017" y2="-0.492787"><stop offset="0" stop-color="#ffffff" stop-opacity="0.1"></stop><stop offset="0.09" stop-color="#fefeff" stop-opacity="0.13"></stop><stop offset="0.23" stop-color="#fbfcff" stop-opacity="0.21"></stop><stop offset="0.4" stop-color="#f5f9ff" stop-opacity="0.33"></stop><stop offset="0.59" stop-color="#eef5ff" stop-opacity="0.51"></stop><stop offset="0.79" stop-color="#e4efff" stop-opacity="0.74"></stop><stop offset="1" stop-color="#d9e9ff"></stop></linearGradient><linearGradient gradientUnits="userSpaceOnUse" id="paint3_linear_91_438" node-id="57" spreadMethod="pad" x1="1908" x2="1908" y1="2777.63" y2="1570.22"><stop offset="0" stop-color="#ffffff" stop-opacity="0.1"></stop><stop offset="0.13" stop-color="#fbfdff" stop-opacity="0.19"></stop><stop offset="0.41" stop-color="#f1f7ff" stop-opacity="0.43"></stop><stop offset="0.81" stop-color="#e1eeff" stop-opacity="0.82"></stop><stop offset="1" stop-color="#d9e9ff"></stop></linearGradient><linearGradient gradientUnits="userSpaceOnUse" id="paint4_linear_91_438" node-id="63" spreadMethod="pad" x1="1776" x2="1944" y1="107" y2="524"><stop offset="0" stop-color="#f0f9ff"></stop><stop offset="1" stop-color="#2399ee"></stop></linearGradient><linearGradient gradientUnits="userSpaceOnUse" id="paint5_linear_91_438" node-id="66" spreadMethod="pad" x1="1913" x2="1913" y1="815" y2="2065.5"><stop offset="0" stop-color="#f0f9ff"></stop><stop offset="1" stop-color="#3497fc"></stop></linearGradient><linearGradient gradientUnits="userSpaceOnUse" id="paint6_linear_91_438" node-id="69" spreadMethod="pad" x1="1814.5" x2="2859" y1="892" y2="1578"><stop offset="0" stop-color="#f0f9ff"></stop><stop offset="1" stop-color="#2399ee"></stop></linearGradient><linearGradient gradientUnits="userSpaceOnUse" id="paint7_linear_91_438" node-id="72" spreadMethod="pad" x1="1002.5" x2="1528.5" y1="938.5" y2="1534"><stop offset="0" stop-color="#f0f9ff"></stop><stop offset="1" stop-color="#2399ee"></stop></linearGradient><linearGradient gradientUnits="userSpaceOnUse" id="paint8_linear_91_438" node-id="75" spreadMethod="pad" x1="2717" x2="1559" y1="1420.5" y2="526.5"><stop offset="0" stop-color="#2399ee"></stop><stop offset="1" stop-color="#f0f9ff"></stop></linearGradient><linearGradient gradientUnits="userSpaceOnUse" id="paint9_linear_91_438" node-id="78" spreadMethod="pad" x1="2124.23" x2="2062.72" y1="2559.36" y2="2276.83"><stop offset="0" stop-color="#ffffff" stop-opacity="0"></stop><stop offset="1" stop-color="#c1ddfd"></stop></linearGradient><linearGradient gradientUnits="userSpaceOnUse" id="paint10_linear_91_438" node-id="81" spreadMethod="pad" x1="3009.5" x2="3009.5" y1="1221.37" y2="1271"><stop offset="0" stop-color="#ffcda5"></stop><stop offset="1" stop-color="#ffe8d1"></stop></linearGradient><linearGradient gradientUnits="userSpaceOnUse" id="paint11_linear_91_438" node-id="84" spreadMethod="pad" x1="2939.16" x2="2881.78" y1="2016.36" y2="2078.22"><stop offset="0" stop-color="#003a8c"></stop><stop offset="1" stop-color="#5792f0"></stop></linearGradient><linearGradient gradientUnits="userSpaceOnUse" id="paint12_linear_91_438" node-id="87" spreadMethod="pad" x1="3050.12" x2="2992.69" y1="2016.36" y2="2077.54"><stop offset="0" stop-color="#003a8c"></stop><stop offset="1" stop-color="#5792f0"></stop></linearGradient></defs><path d="M 750.42 1622.39 L 767.67 1801.27 L 659.60 1789.38 L 750.42 1622.39 Z" fill="#e4efff" fill-rule="nonzero" node-id="198" stroke="none" target-height="178.88" target-width="108.07001" target-x="659.6" target-y="1622.39"></path><path d="M 745.31 1622.39 L 857.11 1763.59 L 762.27 1801.27 L 745.31 1622.39 Z" fill="#f3f8ff" fill-rule="nonzero" node-id="200" stroke="none" target-height="178.88" target-width="111.79999" target-x="745.31" target-y="1622.39"></path><path d="M 373.92 1667.11 L 395.02 1894.43 L 264.59 1879.27 L 373.92 1667.11 Z" fill="#e4efff" fill-rule="nonzero" node-id="202" stroke="none" target-height="227.32007" target-width="130.43" target-x="264.59" target-y="1667.11"></path><path d="M 376.38 1667.11 L 514.27 1846.77 L 397.51 1894.43 L 376.38 1667.11 Z" fill="#f3f8ff" fill-rule="nonzero" node-id="204" stroke="none" target-height="227.32007" target-width="137.89001" target-x="376.38" target-y="1667.11"></path><path d="M 553.32 1510.60 L 588.80 1886.98 L 350.30 1863.54 L 553.32 1510.60 Z" fill="#e4efff" fill-rule="nonzero" node-id="206" stroke="none" target-height="376.38" target-width="238.5" target-x="350.3" target-y="1510.6"></path><path d="M 547.80 1510.60 L 797.48 1806.37 L 583.32 1886.98 L 547.80 1510.60 Z" fill="#f3f8ff" fill-rule="nonzero" node-id="208" stroke="none" target-height="376.38" target-width="249.68" target-x="547.8" target-y="1510.6"></path><path d="M 623.19 683.41 C 609.26 608.81 544.12 555.26 468.99 556.63 C 428.78 556.45 389.99 571.50 360.28 598.89 C 343.66 591.29 325.63 587.38 307.37 587.38 C 249.53 586.45 198.89 626.40 185.81 683.30 C 141.35 693.21 109.30 732.42 108.07 778.37 C 109.78 834.30 155.84 878.35 211.22 877.04 L 597.44 877.04 C 652.86 878.42 698.95 834.34 700.59 778.37 C 699.40 732.53 667.50 693.40 623.19 683.41 Z" fill="url(#paint0_linear_91_438)" fill-rule="nonzero" node-id="210" stroke="none" target-height="323.15997" target-width="592.52" target-x="108.07" target-y="555.26"></path><path d="M 3212.74 922.73 C 3192.69 891.24 3158.74 871.72 3121.81 870.38 C 3100.31 837.10 3063.45 817.35 3024.21 818.02 C 2992.80 817.72 2962.54 830.24 2940.29 852.82 C 2930.12 849.54 2919.50 847.83 2908.84 847.83 C 2859.42 847.83 2818.62 882.49 2814.41 926.35 C 2776.73 935.44 2749.60 968.79 2748.00 1008.03 C 2748.00 1055.29 2790.71 1093.78 2842.43 1093.78 L 3205.10 1093.78 C 3257.57 1093.78 3299.53 1055.29 3299.53 1008.03 C 3300.35 963.13 3261.56 926.24 3212.74 922.73 Z" fill="url(#paint1_linear_91_438)" fill-rule="nonzero" node-id="212" stroke="none" target-height="276.43005" target-width="552.3501" target-x="2748" target-y="817.35"></path><path d="M 3710.15 192.82 C 3674.75 119.89 3600.85 73.46 3519.69 73.19 C 3474.48 73.31 3430.51 87.95 3394.29 114.97 C 3351.21 30.97 3257.60 -14.27 3164.96 4.03 C 3072.28 22.36 3003.00 99.84 2995.17 193.86 C 2895.49 225.31 2833.63 324.62 2849.47 427.85 C 2865.34 531.08 2954.14 607.32 3058.67 607.43 L 3648.40 607.43 C 3753.53 607.62 3842.93 530.74 3858.32 426.88 C 3873.75 322.99 3810.51 223.52 3709.85 193.23 L 3710.15 192.82 Z" fill="url(#paint2_linear_91_438)" fill-rule="nonzero" node-id="214" stroke="none" target-height="621.89" target-width="1040.1201" target-x="2833.63" target-y="-14.27"></path><path d="M 3816.00 2173.93 C 3816.00 2334.06 3614.99 2487.59 3257.16 2600.80 C 2899.34 2714.02 2414.03 2777.63 1908.00 2777.63 C 1401.97 2777.63 916.66 2714.02 558.84 2600.80 C 201.01 2487.59 0.00 2334.06 0.00 2173.93 C 0.00 2013.80 201.01 1860.26 558.84 1747.05 C 916.66 1633.84 1401.97 1570.22 1908.00 1570.22 C 2414.03 1570.22 2899.34 1633.84 3257.16 1747.05 C 3614.99 1860.26 3816.00 2013.80 3816.00 2173.93 Z" fill="url(#paint3_linear_91_438)" fill-rule="nonzero" node-id="216" stroke="none" target-height="1207.4099" target-width="3816" target-x="0" target-y="1570.22"></path><path d="M 3376.27 1667.11 L 3358.12 1905.61 L 3223.48 1866.56 L 3376.27 1667.11 Z" fill="#e4efff" fill-rule="nonzero" node-id="218" stroke="none" target-height="238.5" target-width="152.79004" target-x="3223.48" target-y="1667.11"></path><path d="M 3371.98 1667.11 L 3484.34 1877.25 L 3353.91 1905.61 L 3371.98 1667.11 Z" fill="#f3f8ff" fill-rule="nonzero" node-id="220" stroke="none" target-height="238.5" target-width="130.43018" target-x="3353.91" target-y="1667.11"></path><path d="M 953.00 604.00 L 2863.00 604.00 L 2863.00 1949.00 L 953.00 1949.00 Z" fill="#bae0fb" fill-rule="nonzero" node-id="222" stroke="none" target-height="1345" target-width="1910" target-x="953" target-y="604"></path><path d="M 1905.50 74.00 L 2860.00 604.00 L 1905.50 604.00 L 951.00 604.00 L 1905.50 74.00 Z" fill="url(#paint4_linear_91_438)" fill-rule="nonzero" node-id="224" stroke="none" target-height="530" target-width="1909" target-x="951" target-y="74"></path><path d="M 1236.00 414.00 L 2619.00 414.00 C 2649.38 414.00 2674.00 438.62 2674.00 469.00 L 2674.00 1366.00 C 2674.00 1396.38 2649.38 1421.00 2619.00 1421.00 L 1236.00 1421.00 C 1205.62 1421.00 1181.00 1396.38 1181.00 1366.00 L 1181.00 469.00 C 1181.00 438.62 1205.62 414.00 1236.00 414.00 Z" fill="#e4efff" fill-rule="nonzero" node-id="226" stroke="none" target-height="1007" target-width="1493" target-x="1181" target-y="414"></path><path d="M 1876.71 1223.73 L 959.50 1943.50 L 2865.50 1943.50 L 1917.04 1223.40 C 1905.09 1214.33 1888.52 1214.46 1876.71 1223.73 Z" fill="url(#paint5_linear_91_438)" fill-rule="nonzero" node-id="228" stroke="none" target-height="729.17004" target-width="1906" target-x="959.5" target-y="1214.33"></path><path d="M 1977.00 1270.50 L 2859.00 612.00 L 2859.00 1951.50 L 1977.00 1270.50 Z" fill="url(#paint6_linear_91_438)" fill-rule="nonzero" node-id="230" stroke="none" target-height="1339.5" target-width="882" target-x="1977" target-y="612"></path><path d="M 1835.00 1262.50 L 953.00 604.00 L 953.00 1943.50 L 1835.00 1262.50 Z" fill="url(#paint7_linear_91_438)" fill-rule="nonzero" node-id="232" stroke="none" target-height="1339.5" target-width="882" target-x="953" target-y="604"></path><path d="M 2137.00 821.50 C 2137.00 937.20 2043.20 1031.00 1927.50 1031.00 C 1811.80 1031.00 1718.00 937.20 1718.00 821.50 C 1718.00 705.80 1811.80 612.00 1927.50 612.00 C 2043.20 612.00 2137.00 705.80 2137.00 821.50 Z" fill="url(#paint8_linear_91_438)" fill-rule="nonzero" node-id="234" stroke="none" target-height="419" target-width="419" target-x="1718" target-y="612"></path><path d="M 1820.00 816.00 L 1902.00 891.50 L 2036.00 751.00" fill="none" node-id="236" stroke="#ffffff" stroke-linecap="round" stroke-width="30" target-height="140.5" target-width="216" target-x="1820" target-y="751"></path><path d="M 951.00 1949.00 L 1709.00 2817.00 L 3782.50 2230.50 L 2851.50 1949.00 L 951.00 1949.00 Z" fill="url(#paint9_linear_91_438)" fill-opacity="0.385356" fill-rule="nonzero" node-id="238" stroke="none" target-height="868" target-width="2831.5" target-x="951" target-y="1949"></path><path d="M 3176.64 2067.09 L 3175.61 2073.77 L 3172.70 2080.40 L 3167.59 2087.12 L 3159.79 2094.11 L 3148.31 2101.61 L 3133.22 2108.98 L 3113.89 2116.14 L 3094.13 2121.82 L 3071.54 2126.80 L 3045.73 2131.01 L 3019.89 2133.96 L 2992.11 2135.78 L 2962.32 2136.48 L 2932.53 2135.78 L 2904.75 2133.96 L 2878.91 2131.01 L 2853.10 2126.80 L 2830.51 2121.82 L 2810.75 2116.14 L 2791.42 2108.98 L 2776.33 2101.56 L 2764.85 2094.11 L 2757.04 2087.12 L 2751.94 2080.40 L 2749.03 2073.77 L 2748.00 2067.09 L 2749.03 2060.41 L 2751.94 2053.77 L 2757.04 2047.05 L 2764.85 2040.07 L 2776.33 2032.57 L 2791.42 2025.19 L 2810.75 2018.04 L 2830.51 2012.36 L 2853.10 2007.37 L 2878.91 2003.16 L 2904.75 2000.21 L 2932.53 1998.39 L 2962.32 1997.70 L 2992.11 1998.39 L 3019.89 2000.21 L 3045.73 2003.16 L 3071.54 2007.37 L 3094.13 2012.36 L 3113.89 2018.04 L 3133.22 2025.19 L 3148.31 2032.57 L 3159.79 2040.07 L 3167.59 2047.05 L 3172.70 2053.77 L 3175.61 2060.41 L 3176.64 2067.09 Z" fill="#84c1ff" fill-opacity="0.15" fill-rule="evenodd" node-id="240" stroke="none" target-height="138.78003" target-width="428.6399" target-x="2748" target-y="1997.7"></path><path d="M 3027.00 1214.00 L 2992.00 1214.00 L 2992.00 1271.00 L 3027.00 1271.00 L 3027.00 1214.00 Z" fill="url(#paint10_linear_91_438)" fill-rule="evenodd" node-id="242" stroke="none" target-height="57" target-width="35" target-x="2992" target-y="1214"></path><path d="M 2921.83 2017.44 L 2918.18 2040.74 L 2903.59 2042.33 L 2887.56 2046.46 L 2869.76 2053.51 L 2862.64 2058.67 L 2859.66 2062.02 L 2858.16 2065.68 L 2857.68 2069.80 L 2859.08 2071.14 L 2867.48 2072.47 L 2893.44 2072.68 L 2952.81 2069.80 L 2952.81 2008.89 L 2921.83 2017.44 Z" fill="url(#paint11_linear_91_438)" fill-rule="nonzero" node-id="244" stroke="none" target-height="63.789917" target-width="95.13013" target-x="2857.68" target-y="2008.89"></path><path d="M 3032.99 2017.44 L 3029.39 2040.74 L 3014.97 2042.33 L 2999.12 2046.46 L 2981.53 2053.51 L 2974.50 2058.67 L 2971.55 2062.02 L 2970.07 2065.68 L 2969.59 2069.80 L 2970.98 2071.14 L 2979.28 2072.47 L 3004.94 2072.68 L 3063.60 2069.80 L 3063.60 2008.89 L 3032.99 2017.44 Z" fill="url(#paint12_linear_91_438)" fill-rule="nonzero" node-id="246" stroke="none" target-height="63.789917" target-width="94.01001" target-x="2969.59" target-y="2008.89"></path><path d="M 2936.93 1569.06 L 2896.85 2023.44 L 2968.35 2023.23 L 3037.86 1573.91 L 2936.93 1569.06 Z" fill="#153f82" fill-rule="nonzero" node-id="248" stroke="none" target-height="454.37988" target-width="141.01001" target-x="2896.85" target-y="1569.06"></path><path d="M 2943.85 1572.38 L 3007.47 2026.80 L 3082.07 2026.80 L 3082.63 1570.18 L 2943.85 1572.38 Z" fill="#153f82" fill-rule="nonzero" node-id="250" stroke="none" target-height="456.62" target-width="138.77979" target-x="2943.85" target-y="1570.18"></path><path d="M 2923.80 1437.87 L 2919.07 1449.74 L 2827.08 1367.72 L 2822.35 1359.42 L 2815.31 1352.28 L 2807.02 1348.71 L 2805.26 1349.23 L 2804.01 1350.00 L 2803.50 1351.08 L 2805.26 1354.91 L 2807.02 1357.01 L 2810.58 1361.79 L 2811.49 1363.55 L 2811.31 1363.98 L 2810.58 1364.15 L 2808.22 1364.15 L 2807.36 1363.16 L 2803.50 1358.22 L 2797.57 1348.71 L 2796.37 1347.21 L 2794.95 1346.39 L 2792.89 1346.35 L 2791.17 1348.24 L 2790.53 1349.87 L 2792.72 1361.40 L 2796.41 1372.50 L 2800.19 1380.41 L 2804.66 1387.94 L 2805.99 1390.13 L 2807.92 1391.94 L 2811.74 1393.87 L 2820.59 1397.83 L 2829.14 1402.39 L 2833.00 1404.58 L 2908.46 1490.17 L 2910.61 1492.58 L 2915.68 1497.09 L 2918.73 1498.94 L 2921.43 1499.67 L 2925.86 1499.11 L 2930.02 1497.39 L 2936.55 1492.71 L 2939.13 1490.17 L 2943.85 1445.01 L 2923.80 1437.87 Z" fill="#fecca9" fill-rule="nonzero" node-id="252" stroke="none" target-height="153.32007" target-width="153.32007" target-x="2790.53" target-y="1346.35"></path><path d="M 2982.42 1282.55 L 2920.70 1447.50 L 2845.84 1378.10 C 2844.07 1376.45 2841.26 1376.74 2839.86 1378.71 L 2823.74 1401.37 C 2822.65 1402.90 2822.77 1404.99 2824.04 1406.38 L 2909.13 1499.53 L 2915.39 1503.67 L 2920.70 1505.27 L 2925.40 1504.88 L 2929.94 1502.59 L 2934.47 1497.94 L 2939.13 1490.01 L 2947.03 1470.56 L 2965.03 1419.99 L 2999.81 1315.92 L 2982.42 1282.55 Z" fill="#429cfd" fill-rule="evenodd" node-id="254" stroke="none" target-height="222.71997" target-width="177.16016" target-x="2822.65" target-y="1282.55"></path><path d="M 2978.14 1269.52 C 2978.96 1266.08 2981.26 1263.18 2984.43 1261.59 L 3033.62 1236.94 C 3035.14 1236.18 3036.99 1236.83 3037.69 1238.37 L 3044.22 1252.62 L 3051.57 1271.66 L 3061.36 1302.05 L 3067.21 1323.88 L 3072.94 1350.06 L 3078.36 1381.18 L 3082.85 1416.60 L 3085.93 1450.82 L 3087.93 1484.05 L 3088.92 1512.50 L 3089.34 1556.60 L 3089.05 1573.45 L 3077.29 1573.54 L 3047.89 1573.75 L 3009.73 1574.05 L 2971.53 1574.36 L 2942.18 1574.57 L 2930.42 1574.66 L 2932.35 1558.58 L 2937.69 1515.51 L 2945.94 1453.05 L 2956.49 1378.78 L 2963.63 1336.95 L 2971.10 1300.20 L 2977.04 1274.06 L 2978.14 1269.52 Z" fill="#429cfd" fill-rule="evenodd" node-id="256" stroke="none" target-height="338.47998" target-width="158.92017" target-x="2930.42" target-y="1236.18"></path><path d="M 3014.92 1507.51 L 2992.56 1609.61 L 2990.55 1612.50 L 2986.69 1617.80 L 2981.85 1624.30 L 2981.85 1624.30 C 2980.61 1625.94 2980.82 1628.25 2982.34 1629.63 L 3000.43 1646.17 C 3004.04 1649.47 3009.83 1648.15 3011.65 1643.61 L 3019.63 1623.66 L 3049.05 1516.89 L 3014.92 1507.51 Z" fill="#fecca9" fill-rule="nonzero" node-id="258" stroke="none" target-height="141.95996" target-width="68.43994" target-x="2980.61" target-y="1507.51"></path><path d="M 2992.87 1299.34 L 3018.31 1437.66 L 3018.57 1441.11 L 3018.88 1449.32 L 3018.31 1459.12 L 3014.72 1476.57 L 3007.73 1505.85 L 2999.17 1540.26 L 2990.78 1573.08 L 2984.44 1597.65 L 2982.83 1603.81 C 2982.28 1605.91 2983.14 1608.12 2984.96 1609.29 L 3019.97 1631.75 C 3022.64 1633.47 3026.23 1632.28 3027.35 1629.30 L 3028.84 1625.33 L 3038.06 1600.59 L 3050.30 1567.68 L 3062.93 1533.35 L 3073.29 1504.42 L 3078.84 1487.71 L 3082.29 1472.29 L 3084.87 1456.70 L 3084.78 1449.71 L 3084.87 1435.24 L 3082.77 1416.15 L 3077.31 1384.54 L 3070.36 1349.39 L 3065.33 1327.41 L 3061.18 1311.48 L 3059.43 1305.30" fill="#429cfd" fill-rule="evenodd" node-id="260" stroke="none" target-height="334.13" target-width="102.59009" target-x="2982.28" target-y="1299.34"></path><path d="M 2783.29 1317.47 L 2786.52 1317.25 L 2788.95 1319.48 L 2820.98 1376.54 L 2821.86 1378.73 L 2821.45 1381.00 L 2819.94 1382.72 L 2817.80 1383.28 L 2815.71 1382.55 L 2814.28 1380.70 L 2782.24 1323.61 L 2781.57 1320.30 L 2783.29 1317.47 Z" fill="#0d0d0d" fill-rule="evenodd" node-id="262" stroke="none" target-height="66.03003" target-width="40.29004" target-x="2781.57" target-y="1317.25"></path><path d="M 3037.50 1180.50 C 3037.50 1211.15 3029.42 1236.00 3006.50 1236.00 C 2983.58 1236.00 2971.00 1211.15 2971.00 1180.50 C 2971.00 1149.85 2983.58 1125.00 3006.50 1125.00 C 3029.42 1125.00 3037.50 1149.85 3037.50 1180.50 Z" fill="#ffe7ca" fill-rule="nonzero" node-id="264" stroke="none" target-height="111" target-width="66.5" target-x="2971" target-y="1125"></path><path d="M 2991.97 1120.30 L 2990.37 1118.36 L 2988.39 1116.98 L 2985.07 1115.94 L 2981.20 1116.05 L 2975.35 1118.06 L 2970.43 1121.60 L 2968.30 1125.14 L 2967.63 1129.06 L 2968.04 1132.52 L 2969.42 1137.40 L 2969.35 1139.30 L 2968.49 1140.61 L 2967.04 1141.17 L 2964.54 1140.72 L 2961.48 1139.82 L 2957.61 1139.94 L 2953.96 1141.61 L 2950.08 1146.35 L 2949.00 1151.08 L 2949.93 1157.56 L 2952.69 1163.97 L 2957.01 1169.53 L 2960.66 1172.28 L 2964.69 1173.74 L 2969.31 1173.89 L 2979.11 1171.31 L 2986.01 1167.77 L 2991.74 1163.34 L 2995.84 1159.35 L 3002.07 1154.36 L 3005.64 1152.46 L 3008.55 1151.64 L 3010.97 1152.05 L 3012.32 1154.13 L 3013.36 1161.66 L 3014.29 1168.89 L 3015.18 1171.05 L 3016.23 1171.13 L 3017.20 1169.64 L 3017.98 1166.47 L 3019.99 1159.72 L 3022.00 1157.27 L 3025.25 1156.26 L 3028.56 1157.12 L 3030.46 1159.39 L 3031.21 1162.52 L 3030.91 1166.40 L 3029.57 1170.20 L 3027.37 1173.59 L 3025.58 1175.94 L 3026.07 1178.32 L 3027.00 1181.93 L 3029.49 1185.89 L 3032.89 1188.90 L 3034.08 1188.68 L 3035.90 1186.18 L 3037.77 1182.34 L 3039.89 1175.53 L 3040.97 1167.40 L 3040.34 1154.51 L 3040.12 1151.19 L 3040.64 1149.48 L 3043.73 1146.12 L 3045.78 1143.66 L 3047.53 1140.42 L 3048.02 1136.81 L 3046.38 1132.00 L 3043.17 1128.09 L 3040.38 1126.63 L 3033.71 1126.41 L 3030.58 1126.15 L 3029.46 1125.37 L 3028.90 1121.90 L 3027.59 1116.94 L 3025.88 1113.81 L 3023.27 1110.87 L 3019.95 1108.78 L 3015.45 1108.00 L 3008.81 1109.16 L 3004.49 1111.50 L 3001.17 1114.86 L 2998.97 1118.32 L 2996.85 1120.97 L 2995.14 1121.64 L 2993.38 1121.27 L 2991.97 1120.30 Z" fill="#003a8c" fill-rule="nonzero" node-id="266" stroke="none" target-height="80.900024" target-width="99.02002" target-x="2949" target-y="1108"></path></svg>