<?xml version="1.0" standalone="no"?><!DOCTYPE svg PUBLIC "-//W3C//DTD SVG 1.1//EN" "http://www.w3.org/Graphics/SVG/1.1/DTD/svg11.dtd"><svg height="2778" node-id="1" sillyvg="true" template-height="2778" template-width="3861" version="1.1" viewBox="0 0 3861 2778" width="3861" xmlns="http://www.w3.org/2000/svg" xmlns:xlink="http://www.w3.org/1999/xlink"><defs node-id="102"><linearGradient gradientUnits="userSpaceOnUse" id="paint0_linear_91_432" node-id="37" spreadMethod="pad" x1="404.332" x2="404.332" y1="877.469" y2="556.424"><stop offset="0" stop-color="#ffffff" stop-opacity="0.1"></stop><stop offset="1" stop-color="#d9e9ff"></stop></linearGradient><linearGradient gradientUnits="userSpaceOnUse" id="paint1_linear_91_432" node-id="40" spreadMethod="pad" x1="3024.24" x2="3024.24" y1="1093.78" y2="818.018"><stop offset="0" stop-color="#ffffff" stop-opacity="0.1"></stop><stop offset="0.14" stop-color="#f8fbff" stop-opacity="0.27"></stop><stop offset="0.37" stop-color="#edf5ff" stop-opacity="0.52"></stop><stop offset="0.58" stop-color="#e4f0ff" stop-opacity="0.73"></stop><stop offset="0.76" stop-color="#deecff" stop-opacity="0.88"></stop><stop offset="0.91" stop-color="#daeaff" stop-opacity="0.97"></stop><stop offset="1" stop-color="#d9e9ff"></stop></linearGradient><linearGradient gradientUnits="userSpaceOnUse" id="paint2_linear_91_432" node-id="48" spreadMethod="pad" x1="3353.86" x2="3353.86" y1="607.017" y2="-0.492787"><stop offset="0" stop-color="#ffffff" stop-opacity="0.1"></stop><stop offset="0.09" stop-color="#fefeff" stop-opacity="0.13"></stop><stop offset="0.23" stop-color="#fbfcff" stop-opacity="0.21"></stop><stop offset="0.4" stop-color="#f5f9ff" stop-opacity="0.33"></stop><stop offset="0.59" stop-color="#eef5ff" stop-opacity="0.51"></stop><stop offset="0.79" stop-color="#e4efff" stop-opacity="0.74"></stop><stop offset="1" stop-color="#d9e9ff"></stop></linearGradient><linearGradient gradientUnits="userSpaceOnUse" id="paint3_linear_91_432" node-id="56" spreadMethod="pad" x1="1908" x2="1908" y1="2777.63" y2="1570.22"><stop offset="0" stop-color="#ffffff" stop-opacity="0.1"></stop><stop offset="0.13" stop-color="#fbfdff" stop-opacity="0.19"></stop><stop offset="0.41" stop-color="#f1f7ff" stop-opacity="0.43"></stop><stop offset="0.81" stop-color="#e1eeff" stop-opacity="0.82"></stop><stop offset="1" stop-color="#d9e9ff"></stop></linearGradient><linearGradient gradientUnits="userSpaceOnUse" id="paint4_linear_91_432" node-id="62" spreadMethod="pad" x1="2625" x2="2512.13" y1="2442.5" y2="2079.2"><stop offset="0" stop-color="#ffffff" stop-opacity="0"></stop><stop offset="1" stop-color="#c1ddfd"></stop></linearGradient><linearGradient gradientUnits="userSpaceOnUse" id="paint5_linear_91_432" node-id="65" spreadMethod="pad" x1="2089.5" x2="1936.58" y1="1945" y2="1751.66"><stop offset="0" stop-color="#3497fc"></stop><stop offset="1" stop-color="#c0ddfc"></stop></linearGradient><linearGradient gradientUnits="userSpaceOnUse" id="paint6_linear_91_432" node-id="68" spreadMethod="pad" x1="2018" x2="1903.11" y1="1906.5" y2="1872.01"><stop offset="0" stop-color="#3497fc"></stop><stop offset="1" stop-color="#c0ddfc"></stop></linearGradient><linearGradient gradientUnits="userSpaceOnUse" id="paint7_linear_91_432" node-id="71" spreadMethod="pad" x1="1988.54" x2="1864.89" y1="1829.27" y2="1809.14"><stop offset="0" stop-color="#3497fc"></stop><stop offset="1" stop-color="#c0ddfc"></stop></linearGradient><linearGradient gradientUnits="userSpaceOnUse" id="paint8_linear_91_432" node-id="74" spreadMethod="pad" x1="2161.5" x2="1692.83" y1="1404.5" y2="1107.77"><stop offset="0" stop-color="#3497fc"></stop><stop offset="1" stop-color="#c0ddfc"></stop></linearGradient><linearGradient gradientUnits="userSpaceOnUse" id="paint9_linear_91_432" node-id="77" spreadMethod="pad" x1="1846" x2="1549.39" y1="1040.5" y2="804.214"><stop offset="0" stop-color="#3497fc"></stop><stop offset="1" stop-color="#bddcfc"></stop></linearGradient><linearGradient gradientUnits="userSpaceOnUse" id="paint10_linear_91_432" node-id="80" spreadMethod="pad" x1="1350" x2="1840.3" y1="747.5" y2="1177.46"><stop offset="0" stop-color="#3497fc"></stop><stop offset="1" stop-color="#bddcfc"></stop></linearGradient><linearGradient gradientUnits="userSpaceOnUse" id="paint11_linear_91_432" node-id="83" spreadMethod="pad" x1="1518.63" x2="1337.94" y1="904.844" y2="706.008"><stop offset="0" stop-color="#3799fd"></stop><stop offset="1" stop-color="#a6d1fd"></stop></linearGradient><linearGradient gradientUnits="userSpaceOnUse" id="paint12_linear_91_432" node-id="86" spreadMethod="pad" x1="1242.72" x2="1383.36" y1="212.643" y2="672.307"><stop offset="0" stop-color="#eef6ff"></stop><stop offset="1" stop-color="#3497fc"></stop></linearGradient><linearGradient gradientUnits="userSpaceOnUse" id="paint13_linear_91_432" node-id="89" spreadMethod="pad" x1="1050.89" x2="1001.7" y1="2325.85" y2="2377.74"><stop offset="0" stop-color="#003a8c"></stop><stop offset="1" stop-color="#5792f0"></stop></linearGradient><linearGradient gradientUnits="userSpaceOnUse" id="paint14_linear_91_432" node-id="92" spreadMethod="pad" x1="933.117" x2="883.922" y1="2325.85" y2="2377.74"><stop offset="0" stop-color="#003a8c"></stop><stop offset="1" stop-color="#5792f0"></stop></linearGradient><linearGradient gradientUnits="userSpaceOnUse" id="paint15_linear_91_432" node-id="95" spreadMethod="pad" x1="950" x2="950" y1="1608.98" y2="1656"><stop offset="0" stop-color="#ffcda5"></stop><stop offset="1" stop-color="#ffe8d1"></stop></linearGradient><linearGradient gradientUnits="userSpaceOnUse" id="paint16_linear_91_432" node-id="98" spreadMethod="pad" x1="992" x2="865.5" y1="1832" y2="1756"><stop offset="0" stop-color="#ffffff"></stop><stop offset="1" stop-color="#ffffff" stop-opacity="0"></stop></linearGradient></defs><path d="M 750.42 1622.39 L 767.67 1801.27 L 659.60 1789.38 L 750.42 1622.39 Z" fill="#e4efff" fill-rule="nonzero" node-id="233" stroke="none" target-height="178.88" target-width="108.07001" target-x="659.6" target-y="1622.39"></path><path d="M 745.31 1622.39 L 857.11 1763.59 L 762.27 1801.27 L 745.31 1622.39 Z" fill="#f3f8ff" fill-rule="nonzero" node-id="235" stroke="none" target-height="178.88" target-width="111.79999" target-x="745.31" target-y="1622.39"></path><path d="M 373.92 1667.11 L 395.02 1894.43 L 264.59 1879.27 L 373.92 1667.11 Z" fill="#e4efff" fill-rule="nonzero" node-id="237" stroke="none" target-height="227.32007" target-width="130.43" target-x="264.59" target-y="1667.11"></path><path d="M 376.38 1667.11 L 514.27 1846.77 L 397.51 1894.43 L 376.38 1667.11 Z" fill="#f3f8ff" fill-rule="nonzero" node-id="239" stroke="none" target-height="227.32007" target-width="137.89001" target-x="376.38" target-y="1667.11"></path><path d="M 553.32 1510.60 L 588.80 1886.98 L 350.30 1863.54 L 553.32 1510.60 Z" fill="#e4efff" fill-rule="nonzero" node-id="241" stroke="none" target-height="376.38" target-width="238.5" target-x="350.3" target-y="1510.6"></path><path d="M 547.80 1510.60 L 797.48 1806.37 L 583.32 1886.98 L 547.80 1510.60 Z" fill="#f3f8ff" fill-rule="nonzero" node-id="243" stroke="none" target-height="376.38" target-width="249.68" target-x="547.8" target-y="1510.6"></path><path d="M 623.19 683.41 C 609.26 608.81 544.12 555.26 468.99 556.63 C 428.78 556.45 389.99 571.50 360.28 598.89 C 343.66 591.29 325.63 587.38 307.37 587.38 C 249.53 586.45 198.89 626.40 185.81 683.30 C 141.35 693.21 109.30 732.42 108.07 778.37 C 109.78 834.30 155.84 878.35 211.22 877.04 L 597.44 877.04 C 652.86 878.42 698.95 834.34 700.59 778.37 C 699.40 732.53 667.50 693.40 623.19 683.41 Z" fill="url(#paint0_linear_91_432)" fill-rule="nonzero" node-id="245" stroke="none" target-height="323.15997" target-width="592.52" target-x="108.07" target-y="555.26"></path><path d="M 3212.74 922.73 C 3192.69 891.24 3158.74 871.72 3121.81 870.38 C 3100.31 837.10 3063.45 817.35 3024.21 818.02 C 2992.80 817.72 2962.54 830.24 2940.29 852.82 C 2930.12 849.54 2919.50 847.83 2908.84 847.83 C 2859.42 847.83 2818.62 882.49 2814.41 926.35 C 2776.73 935.44 2749.60 968.79 2748.00 1008.03 C 2748.00 1055.29 2790.71 1093.78 2842.43 1093.78 L 3205.10 1093.78 C 3257.57 1093.78 3299.53 1055.29 3299.53 1008.03 C 3300.35 963.13 3261.56 926.24 3212.74 922.73 Z" fill="url(#paint1_linear_91_432)" fill-rule="nonzero" node-id="247" stroke="none" target-height="276.43005" target-width="552.3501" target-x="2748" target-y="817.35"></path><path d="M 3710.15 192.82 C 3674.75 119.89 3600.85 73.45 3519.69 73.19 C 3474.48 73.31 3430.51 87.95 3394.29 114.97 C 3351.21 30.97 3257.60 -14.27 3164.96 4.03 C 3072.28 22.36 3003.00 99.84 2995.17 193.86 C 2895.49 225.31 2833.63 324.62 2849.47 427.85 C 2865.34 531.08 2954.14 607.32 3058.67 607.43 L 3648.40 607.43 C 3753.53 607.62 3842.93 530.74 3858.32 426.88 C 3873.75 322.99 3810.51 223.52 3709.85 193.23 L 3710.15 192.82 Z" fill="url(#paint2_linear_91_432)" fill-rule="nonzero" node-id="249" stroke="none" target-height="621.89" target-width="1040.1201" target-x="2833.63" target-y="-14.27"></path><path d="M 3816.00 2173.93 C 3816.00 2334.06 3614.99 2487.59 3257.16 2600.80 C 2899.34 2714.02 2414.03 2777.63 1908.00 2777.63 C 1401.97 2777.63 916.66 2714.02 558.84 2600.80 C 201.01 2487.59 0.00 2334.06 0.00 2173.93 C 0.00 2013.80 201.01 1860.26 558.84 1747.05 C 916.66 1633.84 1401.97 1570.22 1908.00 1570.22 C 2414.03 1570.22 2899.34 1633.84 3257.16 1747.05 C 3614.99 1860.26 3816.00 2013.80 3816.00 2173.93 Z" fill="url(#paint3_linear_91_432)" fill-rule="nonzero" node-id="251" stroke="none" target-height="1207.4099" target-width="3816" target-x="0" target-y="1570.22"></path><path d="M 3376.27 1667.11 L 3358.12 1905.61 L 3223.48 1866.56 L 3376.27 1667.11 Z" fill="#e4efff" fill-rule="nonzero" node-id="253" stroke="none" target-height="238.5" target-width="152.79004" target-x="3223.48" target-y="1667.11"></path><path d="M 3371.98 1667.11 L 3484.34 1877.25 L 3353.91 1905.61 L 3371.98 1667.11 Z" fill="#f3f8ff" fill-rule="nonzero" node-id="255" stroke="none" target-height="238.5" target-width="130.43018" target-x="3353.91" target-y="1667.11"></path><path d="M 3296.00 2358.48 L 2455.43 2588.50 L 1816.77 2027.53 L 2184.07 1971.30 L 3296.00 2358.48 Z" fill="url(#paint4_linear_91_432)" fill-opacity="0.385356" fill-rule="nonzero" node-id="257" stroke="none" target-height="617.19995" target-width="1479.23" target-x="1816.77" target-y="1971.3"></path><path d="M 1962.36 1846.21 L 2005.72 1847.27 L 2045.06 1850.22 L 2070.86 1853.35 L 2093.86 1857.06 L 2114.29 1861.30 L 2134.57 1866.63 L 2151.02 1872.23 L 2164.20 1877.90 L 2173.99 1883.34 L 2181.02 1888.57 L 2185.91 1893.61 L 2189.00 1898.51 L 2190.70 1898.51 L 2190.70 1984.55 L 2190.70 1985.18 L 2189.67 1990.70 L 2186.76 1996.26 L 2181.46 2002.04 L 2173.10 2008.18 L 2161.22 2014.48 L 2145.46 2020.81 L 2125.07 2026.99 L 2104.46 2031.81 L 2080.76 2036.12 L 2053.71 2039.80 L 2026.59 2042.37 L 1997.47 2044.07 L 1966.15 2044.77 L 1962.36 2044.77 L 1930.60 2044.18 L 1901.01 2042.59 L 1873.48 2040.09 L 1845.95 2036.45 L 1821.88 2032.14 L 1800.90 2027.32 L 1780.15 2021.10 L 1764.10 2014.73 L 1751.95 2008.37 L 1743.45 2002.22 L 1738.04 1996.37 L 1735.06 1990.77 L 1734.03 1985.18 L 1734.03 1984.55 L 1734.03 1898.51 L 1735.72 1898.51 L 1738.81 1893.61 L 1743.71 1888.57 L 1750.74 1883.34 L 1760.53 1877.90 L 1773.71 1872.23 L 1790.16 1866.63 L 1810.44 1861.30 L 1830.86 1857.06 L 1853.86 1853.35 L 1879.66 1850.22 L 1919.01 1847.27 L 1962.36 1846.21 Z" fill="url(#paint5_linear_91_432)" fill-rule="nonzero" node-id="259" stroke="none" target-height="198.56006" target-width="456.66992" target-x="1734.03" target-y="1846.21"></path><path d="M 1973.66 1884.40 L 2005.09 1902.47 L 2031.07 1892.69 C 2044.32 1887.71 2053.09 1875.03 2053.09 1860.88 L 2053.09 1439.18 L 1973.66 1439.18 L 1973.66 1884.40 Z" fill="url(#paint6_linear_91_432)" fill-rule="nonzero" node-id="261" stroke="none" target-height="463.28992" target-width="79.43005" target-x="1973.66" target-y="1439.18"></path><path d="M 1882.90 1437.49 L 2002.04 1437.49 L 2002.04 1900.78 L 1913.90 1900.78 C 1896.78 1900.78 1882.90 1886.90 1882.90 1869.78 L 1882.90 1437.49 Z" fill="url(#paint7_linear_91_432)" fill-rule="nonzero" node-id="263" stroke="none" target-height="463.29004" target-width="119.140015" target-x="1882.9" target-y="1437.49"></path><path d="M 2117.42 609.21 L 2140.75 633.91 L 2162.32 659.30 L 2182.16 685.36 L 2200.38 712.15 L 2216.98 739.68 L 2232.18 768.24 L 2245.72 797.17 L 2257.64 826.54 L 2267.95 856.32 L 2276.67 886.61 L 2283.89 917.41 L 2289.44 948.29 L 2293.42 979.28 L 2295.81 1010.45 L 2296.58 1041.81 L 2295.81 1073.20 L 2293.42 1104.34 L 2289.44 1135.36 L 2283.89 1166.24 L 2276.67 1197.01 L 2267.95 1227.30 L 2257.64 1257.11 L 2245.72 1286.45 L 2232.18 1315.41 L 2216.98 1343.97 L 2200.38 1371.50 L 2182.16 1398.26 L 2162.32 1424.35 L 2140.75 1449.71 L 2117.42 1474.40 L 2092.72 1497.74 L 2067.33 1519.31 L 2041.27 1539.18 L 2014.48 1557.36 L 1986.95 1573.96 L 1958.39 1589.20 L 1929.46 1602.74 L 1900.09 1614.67 L 1870.32 1624.97 L 1840.03 1633.69 L 1809.22 1640.87 L 1778.38 1646.46 L 1747.35 1650.44 L 1716.18 1652.79 L 1684.82 1653.60 L 1653.47 1652.79 L 1622.29 1650.44 L 1591.30 1646.46 L 1560.43 1640.87 L 1529.66 1633.69 L 1499.37 1624.97 L 1469.56 1614.67 L 1440.19 1602.74 L 1411.26 1589.20 L 1382.70 1573.96 L 1355.17 1557.36 L 1328.38 1539.18 L 1302.32 1519.31 L 1276.96 1497.74 L 1252.26 1474.40 L 1233.05 1454.35 L 1215.02 1433.77 L 1195.62 1409.37 L 1189.11 1395.90 L 1183.99 1381.14 L 1180.42 1364.91 L 1178.44 1347.03 L 1178.18 1327.34 L 1179.98 1303.67 L 1184.10 1278.02 L 1190.73 1250.16 L 1200.15 1219.79 L 1210.97 1190.98 L 1224.15 1160.61 L 1239.79 1128.63 L 1258.15 1094.95 L 1277.36 1062.75 L 1298.79 1029.70 L 1322.56 995.73 L 1348.73 960.80 L 1375.63 927.27 L 1404.49 893.56 L 1435.44 859.63 L 1468.49 825.51 L 1502.61 792.46 L 1536.54 761.51 L 1570.25 732.65 L 1603.78 705.75 L 1638.71 679.58 L 1672.64 655.81 L 1705.73 634.39 L 1737.90 615.17 L 1771.61 596.81 L 1803.55 581.17 L 1833.92 567.99 L 1862.77 557.17 L 1893.10 547.75 L 1921.00 541.09 L 1946.65 537.00 L 1970.28 535.20 L 1990.00 535.46 L 2007.85 537.44 L 2024.08 541.01 L 2038.88 546.09 L 2052.31 552.64 L 2076.71 572.04 L 2097.36 590.04 L 2117.42 609.21 Z" fill="url(#paint8_linear_91_432)" fill-rule="nonzero" node-id="265" stroke="none" target-height="1118.3999" target-width="1118.4" target-x="1178.18" target-y="535.2"></path><path d="M 2062.47 575.21 L 2063.76 578.78 L 2068.18 594.90 L 2070.79 612.82 L 2071.45 632.81 L 2069.91 655.11 L 2066.67 676.57 L 2061.59 699.68 L 2054.52 724.60 L 2045.21 751.50 L 2031.19 785.99 L 2013.85 822.72 L 1993.02 861.91 L 1970.57 900.04 L 1945.14 939.53 L 1916.65 980.42 L 1886.73 1020.21 L 1854.34 1060.43 L 1819.38 1101.07 L 1783.09 1140.52 L 1744.85 1179.42 L 1704.55 1217.85 L 1666.75 1251.59 L 1630.06 1282.36 L 1594.40 1310.33 L 1559.76 1335.66 L 1523.36 1360.31 L 1488.84 1381.81 L 1456.16 1400.32 L 1425.17 1416.07 L 1392.30 1430.76 L 1362.20 1442.13 L 1334.63 1450.52 L 1309.35 1456.26 L 1287.71 1459.35 L 1268.27 1460.42 L 1250.83 1459.65 L 1235.11 1457.22 L 1220.94 1453.24 L 1209.31 1448.31 L 1198.97 1442.13 L 1189.81 1434.73 L 1181.71 1426.01 L 1174.61 1415.81 L 1168.50 1404.07 L 1167.06 1400.65 L 1162.83 1387.48 L 1159.85 1372.94 L 1158.27 1355.90 L 1158.27 1337.24 L 1160.03 1316.77 L 1163.79 1294.32 L 1168.79 1272.83 L 1175.42 1249.94 L 1183.85 1225.54 L 1194.19 1199.55 L 1209.28 1166.10 L 1227.24 1130.80 L 1248.25 1093.56 L 1270.67 1057.23 L 1295.62 1019.80 L 1323.26 981.30 L 1352.11 943.76 L 1383.14 905.93 L 1416.41 867.80 L 1450.82 830.70 L 1487.00 794.12 L 1524.95 757.98 L 1560.46 726.22 L 1595.06 697.07 L 1628.70 670.38 L 1661.45 646.09 L 1695.79 622.32 L 1728.51 601.38 L 1759.68 583.01 L 1789.38 567.15 L 1820.74 552.13 L 1849.78 540.06 L 1876.65 530.60 L 1901.56 523.57 L 1922.87 519.08 L 1942.27 516.43 L 1959.94 515.44 L 1976.06 515.95 L 1990.78 517.87 L 2005.76 521.58 L 2018.97 526.92 L 2030.60 533.80 L 2040.90 542.27 L 2049.92 552.43 L 2056.77 563.02 L 2062.47 575.21 Z" fill="url(#paint9_linear_91_432)" fill-rule="nonzero" node-id="267" stroke="none" target-height="944.98004" target-width="913.17993" target-x="1158.27" target-y="515.44"></path><path d="M 1859.86 1053.78 L 1760.46 1165.66 L 1449.65 849.18 L 1490.31 806.82 L 1859.86 1053.78 Z" fill="url(#paint10_linear_91_432)" fill-rule="nonzero" node-id="269" stroke="none" target-height="358.84003" target-width="410.20996" target-x="1449.65" target-y="806.82"></path><path d="M 1504.30 776.63 L 1503.97 790.58 L 1501.39 803.54 L 1496.61 815.68 L 1489.80 826.87 L 1481.41 836.55 L 1471.25 844.83 L 1459.91 851.27 L 1447.44 855.62 L 1433.67 857.86 L 1419.72 857.57 L 1406.77 854.99 L 1394.62 850.21 L 1383.43 843.40 L 1373.75 834.97 L 1365.47 824.85 L 1359.03 813.48 L 1354.69 801.04 L 1352.45 787.27 L 1352.74 773.32 L 1355.32 760.37 L 1360.14 748.22 L 1366.91 737.03 L 1375.34 727.35 L 1385.46 719.07 L 1396.83 712.63 L 1409.27 708.29 L 1423.04 706.01 L 1436.98 706.34 L 1449.94 708.91 L 1462.08 713.70 L 1473.27 720.51 L 1482.95 728.90 L 1491.23 739.06 L 1497.67 750.43 L 1502.02 762.87 L 1504.30 776.63 Z" fill="url(#paint11_linear_91_432)" fill-rule="nonzero" node-id="271" stroke="none" target-height="151.84998" target-width="151.8501" target-x="1352.45" target-y="706.01"></path><path d="M 1276.22 728.35 L 1270.04 727.72 L 1264.19 725.92 L 1258.82 723.05 L 1253.99 719.11 L 1250.06 714.33 L 1247.19 708.92 L 1245.38 703.07 L 1244.79 696.92 L 1244.72 665.52 L 1213.36 665.49 L 1204.97 664.35 L 1197.50 661.18 L 1191.17 656.25 L 1186.24 649.92 L 1183.07 642.49 L 1181.93 634.06 L 1183.07 625.67 L 1186.20 618.23 L 1191.10 611.87 L 1197.43 606.97 L 1204.86 603.84 L 1213.29 602.74 L 1244.65 602.77 L 1244.61 571.38 L 1245.75 562.99 L 1248.88 555.55 L 1253.77 549.19 L 1260.10 544.29 L 1267.54 541.16 L 1275.97 540.02 L 1284.36 541.20 L 1291.79 544.33 L 1298.16 549.26 L 1303.09 555.63 L 1306.22 563.06 L 1307.40 571.45 L 1307.43 602.88 L 1338.83 602.92 L 1347.26 604.06 L 1354.69 607.23 L 1361.02 612.12 L 1365.95 618.49 L 1369.12 625.92 L 1370.26 634.35 L 1369.12 642.74 L 1365.99 650.18 L 1361.09 656.54 L 1354.73 661.44 L 1347.33 664.57 L 1338.90 665.67 L 1307.51 665.64 L 1307.58 696.99 L 1306.96 703.18 L 1305.19 708.99 L 1302.32 714.40 L 1298.42 719.19 L 1293.63 723.09 L 1288.26 725.96 L 1282.41 727.72 L 1276.22 728.35 Z M 1086.20 706.30 L 1078.99 707.45 L 1072.11 707.30 L 1065.41 705.94 L 1059.01 703.47 L 1053.26 700.01 L 1048.04 695.56 L 1043.66 690.29 L 1040.27 684.29 L 1037.81 677.41 L 1034.94 653.75 L 1034.27 630.34 L 1035.71 607.04 L 1039.32 583.97 L 1044.91 561.44 L 1052.60 539.40 L 1062.28 518.16 L 1073.87 497.85 L 1087.49 478.38 L 1096.36 468.03 L 1107.00 457.32 L 1119.66 446.25 L 1133.06 436.20 L 1148.62 426.48 L 1166.62 417.13 L 1185.24 409.33 L 1206.52 402.52 L 1230.81 396.78 L 1255.36 393.03 L 1283.18 390.97 L 1314.65 390.89 L 1321.79 391.96 L 1328.26 394.10 L 1334.23 397.30 L 1339.56 401.46 L 1344.05 406.35 L 1347.77 412.02 L 1350.42 418.24 L 1352.00 424.90 L 1352.41 432.08 L 1351.53 439.22 L 1349.54 445.73 L 1346.48 451.77 L 1342.43 457.18 L 1337.65 461.74 L 1332.06 465.53 L 1325.91 468.29 L 1319.28 469.99 L 1312.11 470.50 L 1289.07 470.43 L 1268.02 471.75 L 1248.77 474.40 L 1231.21 478.19 L 1215.20 483.12 L 1199.16 489.75 L 1184.69 497.59 L 1171.70 506.64 L 1160.03 516.91 L 1149.58 528.43 L 1139.83 542.89 L 1131.66 557.91 L 1125.00 573.51 L 1119.81 589.82 L 1116.16 606.57 L 1114.18 623.42 L 1113.77 640.53 L 1115.02 657.98 L 1116.20 665.75 L 1115.83 673.48 L 1113.99 681.02 L 1110.64 688.12 L 1105.97 694.42 L 1100.26 699.64 L 1093.60 703.62 L 1086.24 706.27 L 1086.20 706.30 Z M 1302.13 330.64 L 1267.80 332.37 L 1236.07 335.94 L 1206.81 341.21 L 1179.76 348.02 L 1154.77 356.37 L 1133.79 365.13 L 1114.36 375.03 L 1096.33 386.00 L 1079.65 398.11 L 1064.19 411.32 L 1049.99 425.67 L 1034.71 444.22 L 1021.80 463.03 L 1011.09 482.09 L 1001.85 502.00 L 994.45 521.33 L 988.67 540.06 L 982.16 568.11 L 978.33 592.51 L 976.23 615.51 L 975.64 632.44 L 976.09 652.87 L 976.01 660.00 L 974.76 666.78 L 972.33 673.25 L 968.84 679.22 L 964.35 684.44 L 958.83 688.97 L 952.57 692.43 L 946.05 694.67 L 939.21 695.74 L 932.29 695.59 L 925.52 694.27 L 918.86 691.69 L 912.75 687.94 L 907.56 683.38 L 903.25 677.93 L 899.94 671.86 L 897.73 665.30 L 896.66 658.24 L 896.11 647.86 L 896.00 628.24 L 896.96 605.98 L 899.86 577.16 L 902.92 557.36 L 907.41 535.86 L 913.52 512.46 L 920.95 489.56 L 930.45 465.94 L 942.15 441.57 L 952.05 424.02 L 963.42 406.57 L 976.38 389.20 L 991.03 371.90 L 1009.21 353.46 L 1028.72 336.57 L 1049.62 321.15 L 1072.00 307.20 L 1095.92 294.65 L 1121.50 283.57 L 1147.00 274.56 L 1174.02 266.90 L 1202.76 260.64 L 1233.27 255.86 L 1265.70 252.62 L 1300.15 251.00 L 1307.25 251.48 L 1313.87 253.10 L 1320.20 255.90 L 1325.95 259.72 L 1330.88 264.43 L 1335.11 270.14 L 1338.28 276.54 L 1340.19 283.09 L 1340.96 289.94 L 1340.52 296.82 L 1338.94 303.45 L 1336.10 309.96 L 1332.13 315.85 L 1327.42 320.82 L 1321.90 324.87 L 1315.71 327.92 L 1309.16 329.83 L 1302.10 330.64 L 1302.13 330.64 Z" fill="url(#paint12_linear_91_432)" fill-rule="nonzero" node-id="273" stroke="none" target-height="477.34998" target-width="474.26" target-x="896" target-y="251"></path><path d="M 768.00 2369.32 L 768.88 2374.99 L 771.39 2380.62 L 775.77 2386.33 L 782.46 2392.25 L 792.33 2398.58 L 805.28 2404.88 L 821.88 2410.95 L 838.85 2415.77 L 858.24 2420.00 L 880.40 2423.57 L 902.59 2426.08 L 926.44 2427.62 L 952.02 2428.21 L 977.60 2427.62 L 1001.45 2426.08 L 1023.64 2423.57 L 1045.80 2420.00 L 1065.19 2415.77 L 1082.16 2410.95 L 1098.76 2404.88 L 1111.71 2398.62 L 1121.58 2392.25 L 1128.28 2386.33 L 1132.66 2380.62 L 1135.16 2374.99 L 1136.04 2369.32 L 1135.16 2363.66 L 1132.66 2358.03 L 1128.28 2352.32 L 1121.58 2346.40 L 1111.71 2340.06 L 1098.76 2333.77 L 1082.16 2327.70 L 1065.19 2322.88 L 1045.80 2318.64 L 1023.64 2315.07 L 1001.45 2312.57 L 977.60 2311.03 L 952.02 2310.44 L 926.44 2311.03 L 902.59 2312.57 L 880.40 2315.07 L 858.24 2318.64 L 838.85 2322.88 L 821.88 2327.70 L 805.28 2333.77 L 792.33 2340.06 L 782.46 2346.40 L 775.77 2352.32 L 771.39 2358.03 L 768.88 2363.66 L 768.00 2369.32 Z" fill="#84c1ff" fill-opacity="0.15" fill-rule="evenodd" node-id="275" stroke="none" target-height="117.77002" target-width="368.04004" target-x="768" target-y="2310.44"></path><path d="M 1008.59 2326.78 L 1011.64 2346.73 L 1023.86 2348.09 L 1037.30 2351.62 L 1052.20 2357.66 L 1058.16 2362.08 L 1060.67 2364.95 L 1061.92 2368.08 L 1062.32 2371.61 L 1061.14 2372.75 L 1054.12 2373.89 L 1032.36 2374.07 L 982.64 2371.61 L 982.64 2319.46 L 1008.59 2326.78 Z" fill="url(#paint13_linear_91_432)" fill-rule="nonzero" node-id="277" stroke="none" target-height="54.610107" target-width="79.67993" target-x="982.64" target-y="2319.46"></path><path d="M 890.82 2326.78 L 893.87 2346.73 L 906.09 2348.09 L 919.52 2351.62 L 934.43 2357.66 L 940.39 2362.08 L 942.89 2364.95 L 944.14 2368.08 L 944.55 2371.61 L 943.37 2372.75 L 936.34 2373.89 L 914.59 2374.07 L 864.87 2371.61 L 864.87 2319.46 L 890.82 2326.78 Z" fill="url(#paint14_linear_91_432)" fill-rule="nonzero" node-id="279" stroke="none" target-height="54.610107" target-width="79.67999" target-x="864.87" target-y="2319.46"></path><path d="M 917.13 1916.60 L 899.72 1917.22 L 887.39 1918.36 L 882.72 1918.95 L 883.49 1930.84 L 884.85 1962.57 L 885.44 2008.28 L 885.00 2034.22 L 883.82 2062.19 L 878.52 2137.86 L 872.01 2212.10 L 865.61 2276.06 L 860.75 2320.89 L 858.83 2337.78 L 896.85 2337.78 L 901.45 2321.85 L 913.01 2279.16 L 927.99 2217.43 L 935.61 2182.32 L 942.93 2144.49 L 949.30 2106.14 L 954.34 2068.05 L 957.62 2030.36 L 958.68 1995.80 L 963.03 2021.16 L 966.89 2050.68 L 969.95 2081.26 L 972.48 2113.76 L 975.94 2178.94 L 977.75 2240.22 L 978.45 2291.48 L 978.48 2326.71 L 978.41 2339.77 L 1018.42 2335.80 L 1019.89 2320.41 L 1023.61 2279.56 L 1028.28 2221.30 L 1032.84 2153.54 L 1036.01 2084.35 L 1036.60 2050.82 L 1036.41 2021.27 L 1034.61 1970.96 L 1032.29 1937.69 L 1031.15 1925.65 L 1011.50 1923.81 L 991.84 1923.59 L 972.12 1924.95 L 971.97 1924.99 L 957.58 1920.87 L 941.38 1917.89 L 929.98 1916.89 L 919.01 1916.60 L 917.13 1916.60 Z" fill="#153f82" fill-rule="nonzero" node-id="281" stroke="none" target-height="423.17004" target-width="177.76996" target-x="858.83" target-y="1916.6"></path><path d="M 932.00 1602.00 L 968.00 1602.00 L 971.50 1656.00 L 929.50 1654.50 L 932.00 1602.00 Z" fill="url(#paint15_linear_91_432)" fill-rule="evenodd" node-id="283" stroke="none" target-height="54" target-width="42" target-x="929.5" target-y="1602"></path><path d="M 975.98 1633.29 L 982.83 1636.89 L 989.49 1641.05 L 997.91 1647.42 L 1005.83 1655.11 L 1012.86 1664.57 L 1019.89 1677.89 L 1026.22 1692.83 L 1031.70 1708.18 L 1036.12 1722.42 L 1042.26 1745.76 L 1044.36 1755.22 L 1045.10 1760.63 L 1048.96 1775.42 L 1052.64 1785.10 L 1058.46 1797.28 L 1069.90 1817.05 L 1076.12 1825.66 L 1078.00 1827.50 L 1081.28 1829.71 L 1088.93 1834.60 L 1097.62 1839.76 L 1104.06 1842.63 L 1112.96 1845.50 L 1122.46 1849.33 L 1126.84 1851.24 L 1115.98 1884.69 L 1108.51 1883.81 L 1089.74 1880.87 L 1078.07 1878.44 L 1065.08 1875.20 L 1052.20 1871.19 L 1040.02 1866.37 L 1031.81 1861.58 L 1025.04 1855.80 L 1019.30 1849.25 L 1014.96 1842.96 L 1009.25 1832.06 L 1007.45 1827.50 L 975.98 1633.29 Z" fill="#429cfd" fill-rule="evenodd" node-id="285" stroke="none" target-height="251.3999" target-width="150.85999" target-x="975.98" target-y="1633.29"></path><path d="M 965.68 1648.93 C 964.73 1652.18 961.02 1653.71 958.06 1652.07 L 919.20 1630.59 C 917.46 1629.63 915.30 1629.90 913.85 1631.26 L 910.10 1635.02 L 905.46 1638.44 L 903.44 1639.98 L 900.09 1642.16 L 892.58 1648.41 L 888.53 1652.79 L 884.78 1658.09 L 882.31 1664.05 L 880.21 1673.03 L 878.01 1692.84 L 877.23 1710.06 L 877.20 1717.46 L 877.45 1727.65 L 877.45 1753.49 L 876.09 1787.57 L 873.37 1834.83 L 871.46 1878.40 L 870.35 1910.39 L 869.98 1922.79 L 878.30 1923.19 L 899.35 1924.15 L 927.40 1925.14 L 956.62 1925.70 L 993.98 1925.29 L 1022.28 1924.19 L 1033.50 1923.56 L 1009.62 1704.50 L 1008.84 1698.32 L 1006.08 1683.05 L 1003.84 1673.73 L 1000.75 1663.69 L 996.88 1653.90 L 992.25 1645.14 L 988.57 1640.79 L 984.00 1637.30 L 975.02 1632.84 C 972.71 1632.08 970.22 1633.39 969.54 1635.73 L 965.68 1648.93 Z" fill="#429cfd" fill-rule="evenodd" node-id="287" stroke="none" target-height="296.06995" target-width="163.52002" target-x="869.98" target-y="1629.63"></path><path d="M 918.06 1777.13 L 918.09 1777.16 L 918.12 1777.18 L 1017.68 1850.33 L 999.60 1890.47 L 941.49 1858.35 L 934.00 1853.76 L 933.99 1853.75 L 915.86 1842.31 L 915.85 1842.31 L 893.57 1827.56 L 873.53 1813.04 L 865.88 1806.46 L 862.42 1802.41 L 859.45 1796.26 L 857.82 1790.27 L 856.83 1780.04 L 857.05 1775.74 L 857.05 1775.74 L 857.67 1766.40 L 857.67 1766.40 L 859.55 1743.41 L 862.75 1714.31 L 864.92 1699.50 L 867.31 1686.64 L 870.35 1675.03 L 873.26 1668.05 L 877.84 1661.76 L 884.09 1655.40 L 896.49 1645.35 L 902.03 1641.52 L 905.05 1645.78 L 912.21 1657.16 L 915.94 1664.12 L 919.05 1671.21 L 921.27 1679.45 L 922.26 1687.92 L 921.97 1702.51 L 921.20 1708.73 L 920.21 1714.46 L 920.21 1714.46 L 917.92 1728.26 L 917.92 1728.27 L 915.24 1745.16 L 915.24 1745.16 L 915.24 1745.17 L 913.10 1760.11 L 913.10 1760.13 L 913.10 1760.14 L 912.51 1768.13 L 912.50 1768.23 L 912.54 1768.33 L 913.79 1771.87 L 913.81 1771.93 L 913.84 1771.98 L 915.61 1774.63 L 915.64 1774.67 L 915.67 1774.70 L 918.06 1777.13 Z" fill="#429cfd" fill-rule="nonzero" node-id="289" stroke="none" target-height="248.94995" target-width="160.84998" target-x="856.83" target-y="1641.52"></path><g node-id="304"><path d="M 918.06 1777.13 L 918.09 1777.16 L 918.12 1777.18 L 1017.68 1850.33 L 999.60 1890.47 L 941.49 1858.35 L 934.00 1853.76 L 933.99 1853.75 L 915.86 1842.31 L 915.85 1842.31 L 893.57 1827.56 L 873.53 1813.04 L 865.88 1806.46 L 862.42 1802.41 L 859.45 1796.26 L 857.82 1790.27 L 856.83 1780.04 L 857.05 1775.74 L 857.05 1775.74 L 857.67 1766.40 L 857.67 1766.40 L 859.55 1743.41 L 862.75 1714.31 L 864.92 1699.50 L 867.31 1686.64 L 870.35 1675.03 L 873.26 1668.05 L 877.84 1661.76 L 884.09 1655.40 L 896.49 1645.35 L 902.03 1641.52 L 905.05 1645.78 L 912.21 1657.16 L 915.94 1664.12 L 919.05 1671.21 L 921.27 1679.45 L 922.26 1687.92 L 921.97 1702.51 L 921.20 1708.73 L 920.21 1714.46 L 920.21 1714.46 L 917.92 1728.26 L 917.92 1728.27 L 915.24 1745.16 L 915.24 1745.16 L 915.24 1745.17 L 913.10 1760.11 L 913.10 1760.13 L 913.10 1760.14 L 912.51 1768.13 L 912.50 1768.23 L 912.54 1768.33 L 913.79 1771.87 L 913.81 1771.93 L 913.84 1771.98 L 915.61 1774.63 L 915.64 1774.67 L 915.67 1774.70 L 918.06 1777.13 Z" fill="none" group-id="1" node-id="293" stroke="url(#paint16_linear_91_432)" stroke-linecap="butt" stroke-width="1" target-height="248.94995" target-width="160.84998" target-x="856.83" target-y="1641.52"></path></g><path d="M 1143.14 1798.39 L 1031.33 1798.39 L 1029.23 1798.79 L 1027.47 1799.97 L 1026.29 1801.70 L 1025.89 1803.76 L 1022.65 1877.15 L 1023.05 1879.21 L 1024.23 1880.98 L 1026.00 1882.12 L 1028.06 1882.52 L 1135.52 1882.52 L 1137.62 1882.12 L 1139.39 1880.98 L 1140.57 1879.21 L 1140.97 1877.15 L 1148.55 1803.76 L 1148.15 1801.70 L 1146.97 1799.97 L 1145.20 1798.79 L 1143.14 1798.39 Z" fill="#000000" fill-rule="evenodd" node-id="296" stroke="none" target-height="84.130005" target-width="125.900024" target-x="1022.65" target-y="1798.39"></path><path d="M 1018.30 1851.24 L 1049.33 1852.23 L 1050.73 1852.79 L 1051.65 1853.96 L 1052.24 1857.09 L 1051.68 1858.82 L 1050.29 1860.04 L 1042.56 1862.98 L 1054.15 1864.93 L 1069.61 1864.93 L 1071.23 1865.41 L 1072.18 1866.55 L 1072.52 1869.79 L 1071.38 1878.70 L 1070.57 1883.48 L 1069.39 1886.42 L 1067.29 1888.56 L 1062.87 1890.29 L 1050.80 1891.54 L 1037.96 1892.09 L 1031.96 1892.24 L 1023.71 1892.06 L 1015.54 1891.28 L 1010.06 1889.96 L 1004.54 1888.23 L 1002.04 1887.38 L 1004.43 1881.31 L 1009.69 1868.24 L 1013.67 1859.59 L 1018.30 1851.24 Z M 1141.63 1851.72 L 1115.21 1850.17 L 1113.99 1850.58 L 1113.15 1851.61 L 1112.41 1854.55 L 1112.74 1856.21 L 1113.85 1857.50 L 1120.18 1860.88 L 1110.20 1861.80 L 1097.10 1860.55 L 1095.67 1860.88 L 1094.82 1861.91 L 1094.27 1864.97 L 1094.60 1873.47 L 1094.93 1878.07 L 1095.52 1880.50 L 1096.81 1882.56 L 1098.65 1884.14 L 1100.97 1885.17 L 1111.12 1887.27 L 1121.98 1888.85 L 1127.06 1889.48 L 1141.08 1889.88 L 1143.92 1889.81 L 1146.68 1889.04 L 1148.52 1887.12 L 1149.84 1884.80 L 1150.76 1874.94 L 1149.73 1865.08 L 1147.15 1856.21 L 1145.09 1853.12 L 1141.63 1851.72 Z" fill="#fee0bc" fill-rule="evenodd" node-id="298" stroke="none" target-height="42.069946" target-width="148.72003" target-x="1002.04" target-y="1850.17"></path><path d="M 918.51 1573.50 C 918.51 1604.15 926.60 1629.00 949.51 1629.00 C 972.43 1629.00 985.01 1604.15 985.01 1573.50 C 985.01 1542.85 972.43 1518.00 949.51 1518.00 C 926.60 1518.00 918.51 1542.85 918.51 1573.50 Z" fill="#ffe7ca" fill-rule="nonzero" node-id="300" stroke="none" target-height="111" target-width="66.5" target-x="918.51" target-y="1518"></path><path d="M 964.05 1513.30 L 965.65 1511.36 L 967.62 1509.98 L 970.94 1508.94 L 974.82 1509.05 L 980.67 1511.06 L 985.59 1514.60 L 987.71 1518.14 L 988.38 1522.06 L 987.97 1525.52 L 986.59 1530.40 L 986.67 1532.30 L 987.52 1533.61 L 988.98 1534.17 L 991.48 1533.72 L 994.53 1532.82 L 998.41 1532.94 L 1002.06 1534.61 L 1005.93 1539.35 L 1007.01 1544.08 L 1006.08 1550.56 L 1003.33 1556.97 L 999.00 1562.53 L 995.35 1565.28 L 991.33 1566.74 L 986.71 1566.89 L 976.90 1564.31 L 970.01 1560.77 L 964.27 1556.34 L 960.17 1552.35 L 953.95 1547.36 L 950.37 1545.46 L 947.46 1544.64 L 945.04 1545.05 L 943.70 1547.13 L 942.66 1554.66 L 941.73 1561.89 L 940.83 1564.05 L 939.79 1564.13 L 938.82 1562.64 L 938.04 1559.47 L 936.02 1552.72 L 934.01 1550.27 L 930.77 1549.26 L 927.45 1550.12 L 925.55 1552.39 L 924.81 1555.52 L 925.11 1559.40 L 926.45 1563.20 L 928.64 1566.59 L 930.43 1568.94 L 929.95 1571.32 L 929.02 1574.93 L 926.52 1578.89 L 923.13 1581.90 L 921.94 1581.68 L 920.11 1579.18 L 918.25 1575.34 L 916.12 1568.53 L 915.04 1560.40 L 915.68 1547.51 L 915.90 1544.19 L 915.38 1542.48 L 912.29 1539.12 L 910.24 1536.66 L 908.48 1533.42 L 908.00 1529.81 L 909.64 1525.00 L 912.84 1521.09 L 915.64 1519.63 L 922.31 1519.41 L 925.44 1519.15 L 926.56 1518.37 L 927.12 1514.90 L 928.42 1509.94 L 930.14 1506.81 L 932.74 1503.87 L 936.06 1501.78 L 940.57 1501.00 L 947.20 1502.16 L 951.53 1504.50 L 954.84 1507.86 L 957.04 1511.32 L 959.17 1513.97 L 960.88 1514.64 L 962.63 1514.27 L 964.05 1513.30 Z" fill="#003a8c" fill-rule="nonzero" node-id="302" stroke="none" target-height="80.900024" target-width="99.01001" target-x="908" target-y="1501"></path></svg>