<?xml version="1.0" standalone="no"?><!DOCTYPE svg PUBLIC "-//W3C//DTD SVG 1.1//EN" "http://www.w3.org/Graphics/SVG/1.1/DTD/svg11.dtd"><svg height="3135" node-id="1" sillyvg="true" template-height="3135" template-width="3983" version="1.1" viewBox="0 0 3983 3135" width="3983" xmlns="http://www.w3.org/2000/svg" xmlns:xlink="http://www.w3.org/1999/xlink"><defs node-id="86"><linearGradient gradientUnits="userSpaceOnUse" id="paint0_linear_201_54" node-id="39" spreadMethod="pad" x1="404.332" x2="404.332" y1="879.469" y2="558.424"><stop offset="0" stop-color="#ffffff" stop-opacity="0.1"></stop><stop offset="1" stop-color="#d9e9ff"></stop></linearGradient><linearGradient gradientUnits="userSpaceOnUse" id="paint1_linear_201_54" node-id="42" spreadMethod="pad" x1="3053.24" x2="3053.24" y1="994.782" y2="719.018"><stop offset="0" stop-color="#ffffff" stop-opacity="0.1"></stop><stop offset="0.14" stop-color="#f8fbff" stop-opacity="0.27"></stop><stop offset="0.37" stop-color="#edf5ff" stop-opacity="0.52"></stop><stop offset="0.58" stop-color="#e4f0ff" stop-opacity="0.73"></stop><stop offset="0.76" stop-color="#deecff" stop-opacity="0.88"></stop><stop offset="0.91" stop-color="#daeaff" stop-opacity="0.97"></stop><stop offset="1" stop-color="#d9e9ff"></stop></linearGradient><linearGradient gradientUnits="userSpaceOnUse" id="paint2_linear_201_54" node-id="50" spreadMethod="pad" x1="3374.86" x2="3374.86" y1="607.017" y2="-0.492787"><stop offset="0" stop-color="#ffffff" stop-opacity="0.1"></stop><stop offset="0.09" stop-color="#fefeff" stop-opacity="0.13"></stop><stop offset="0.23" stop-color="#fbfcff" stop-opacity="0.21"></stop><stop offset="0.4" stop-color="#f5f9ff" stop-opacity="0.33"></stop><stop offset="0.59" stop-color="#eef5ff" stop-opacity="0.51"></stop><stop offset="0.79" stop-color="#e4efff" stop-opacity="0.74"></stop><stop offset="1" stop-color="#d9e9ff"></stop></linearGradient><linearGradient gradientUnits="userSpaceOnUse" id="paint3_linear_201_54" node-id="58" spreadMethod="pad" x1="1908" x2="1908" y1="2779.63" y2="1572.22"><stop offset="0" stop-color="#ffffff" stop-opacity="0.1"></stop><stop offset="0.13" stop-color="#fbfdff" stop-opacity="0.19"></stop><stop offset="0.41" stop-color="#f1f7ff" stop-opacity="0.43"></stop><stop offset="0.81" stop-color="#e1eeff" stop-opacity="0.82"></stop><stop offset="1" stop-color="#d9e9ff"></stop></linearGradient><linearGradient gradientUnits="userSpaceOnUse" id="paint4_linear_201_54" node-id="64" spreadMethod="pad" x1="1469.5" x2="2558" y1="1439.5" y2="1391"><stop offset="0" stop-color="#edf7ff"></stop><stop offset="1" stop-color="#3396fb"></stop></linearGradient><linearGradient gradientUnits="userSpaceOnUse" id="paint5_linear_201_54" node-id="67" spreadMethod="pad" x1="2000" x2="2010.77" y1="966.5" y2="674.189"><stop offset="0" stop-color="#3497fc"></stop><stop offset="1" stop-color="#bddcfc"></stop></linearGradient><linearGradient gradientUnits="userSpaceOnUse" id="paint6_linear_201_54" node-id="70" spreadMethod="pad" x1="2550.23" x2="2488.73" y1="2518.36" y2="2235.83"><stop offset="0" stop-color="#ffffff" stop-opacity="0"></stop><stop offset="1" stop-color="#c1ddfd"></stop></linearGradient><linearGradient gradientUnits="userSpaceOnUse" id="paint7_linear_201_54" node-id="73" spreadMethod="pad" x1="2860.26" x2="2860.26" y1="1467.28" y2="1529.87"><stop offset="0" stop-color="#ffcda5"></stop><stop offset="1" stop-color="#ffe8d1"></stop></linearGradient><linearGradient gradientUnits="userSpaceOnUse" id="paint8_linear_201_54" node-id="76" spreadMethod="pad" x1="2857.85" x2="2857.85" y1="1358.7" y2="1490.54"><stop offset="0" stop-color="#fff2df"></stop><stop offset="1" stop-color="#fee0bc"></stop></linearGradient><linearGradient gradientUnits="userSpaceOnUse" id="paint9_linear_201_54" node-id="79" spreadMethod="pad" x1="2840.35" x2="2796.41" y1="2056.25" y2="2102.57"><stop offset="0" stop-color="#003a8c"></stop><stop offset="1" stop-color="#5792f0"></stop></linearGradient><linearGradient gradientUnits="userSpaceOnUse" id="paint10_linear_201_54" node-id="82" spreadMethod="pad" x1="2965.24" x2="2921.3" y1="2056.25" y2="2102.57"><stop offset="0" stop-color="#003a8c"></stop><stop offset="1" stop-color="#5792f0"></stop></linearGradient></defs><path d="M 750.42 1624.39 L 767.67 1803.27 L 659.60 1791.38 L 750.42 1624.39 Z" fill="#e4efff" fill-rule="nonzero" node-id="181" stroke="none" target-height="178.88" target-width="108.07001" target-x="659.6" target-y="1624.39"></path><path d="M 745.31 1624.39 L 857.11 1765.59 L 762.27 1803.27 L 745.31 1624.39 Z" fill="#f3f8ff" fill-rule="nonzero" node-id="183" stroke="none" target-height="178.88" target-width="111.79999" target-x="745.31" target-y="1624.39"></path><path d="M 373.92 1669.11 L 395.02 1896.43 L 264.59 1881.27 L 373.92 1669.11 Z" fill="#e4efff" fill-rule="nonzero" node-id="185" stroke="none" target-height="227.32007" target-width="130.43" target-x="264.59" target-y="1669.11"></path><path d="M 376.38 1669.11 L 514.27 1848.77 L 397.51 1896.43 L 376.38 1669.11 Z" fill="#f3f8ff" fill-rule="nonzero" node-id="187" stroke="none" target-height="227.32007" target-width="137.89001" target-x="376.38" target-y="1669.11"></path><path d="M 553.32 1512.60 L 588.80 1888.98 L 350.30 1865.54 L 553.32 1512.60 Z" fill="#e4efff" fill-rule="nonzero" node-id="189" stroke="none" target-height="376.38" target-width="238.5" target-x="350.3" target-y="1512.6"></path><path d="M 547.80 1512.60 L 797.48 1808.37 L 583.32 1888.98 L 547.80 1512.60 Z" fill="#f3f8ff" fill-rule="nonzero" node-id="191" stroke="none" target-height="376.38" target-width="249.68" target-x="547.8" target-y="1512.6"></path><path d="M 623.19 685.41 C 609.26 610.81 544.12 557.26 468.99 558.63 C 428.78 558.45 389.99 573.50 360.28 600.89 C 343.66 593.29 325.63 589.38 307.37 589.38 C 249.53 588.45 198.89 628.40 185.81 685.30 C 141.35 695.21 109.30 734.42 108.07 780.37 C 109.78 836.30 155.84 880.35 211.22 879.04 L 597.44 879.04 C 652.86 880.42 698.95 836.34 700.59 780.37 C 699.40 734.53 667.50 695.40 623.19 685.41 Z" fill="url(#paint0_linear_201_54)" fill-rule="nonzero" node-id="193" stroke="none" target-height="323.15997" target-width="592.52" target-x="108.07" target-y="557.26"></path><path d="M 3241.74 823.73 C 3221.69 792.24 3187.74 772.72 3150.81 771.38 C 3129.31 738.10 3092.45 718.35 3053.21 719.02 C 3021.80 718.72 2991.54 731.24 2969.29 753.82 C 2959.12 750.54 2948.50 748.83 2937.84 748.83 C 2888.42 748.83 2847.62 783.49 2843.41 827.35 C 2805.73 836.44 2778.60 869.79 2777.00 909.03 C 2777.00 956.29 2819.71 994.78 2871.43 994.78 L 3234.10 994.78 C 3286.57 994.78 3328.53 956.29 3328.53 909.03 C 3329.35 864.13 3290.56 827.24 3241.74 823.73 Z" fill="url(#paint1_linear_201_54)" fill-rule="nonzero" node-id="195" stroke="none" target-height="276.43005" target-width="552.3501" target-x="2777" target-y="718.35"></path><path d="M 3731.15 192.82 C 3695.75 119.89 3621.85 73.45 3540.69 73.19 C 3495.48 73.31 3451.51 87.95 3415.29 114.97 C 3372.21 30.97 3278.60 -14.27 3185.96 4.03 C 3093.28 22.36 3024.00 99.84 3016.17 193.86 C 2916.49 225.31 2854.63 324.62 2870.47 427.85 C 2886.34 531.08 2975.14 607.32 3079.67 607.43 L 3669.40 607.43 C 3774.53 607.62 3863.93 530.74 3879.32 426.88 C 3894.75 322.99 3831.51 223.52 3730.85 193.23 L 3731.15 192.82 Z" fill="url(#paint2_linear_201_54)" fill-rule="nonzero" node-id="197" stroke="none" target-height="621.89" target-width="1040.1201" target-x="2854.63" target-y="-14.27"></path><path d="M 3816.00 2175.93 C 3816.00 2336.06 3614.99 2489.59 3257.16 2602.80 C 2899.34 2716.02 2414.03 2779.63 1908.00 2779.63 C 1401.97 2779.63 916.66 2716.02 558.84 2602.80 C 201.01 2489.59 0.00 2336.06 0.00 2175.93 C 0.00 2015.80 201.01 1862.26 558.84 1749.05 C 916.66 1635.84 1401.97 1572.22 1908.00 1572.22 C 2414.03 1572.22 2899.34 1635.84 3257.16 1749.05 C 3614.99 1862.26 3816.00 2015.80 3816.00 2175.93 Z" fill="url(#paint3_linear_201_54)" fill-rule="nonzero" node-id="199" stroke="none" target-height="1207.4099" target-width="3816" target-x="0" target-y="1572.22"></path><path d="M 3376.27 1669.11 L 3358.12 1907.61 L 3223.48 1868.56 L 3376.27 1669.11 Z" fill="#e4efff" fill-rule="nonzero" node-id="201" stroke="none" target-height="238.5" target-width="152.79004" target-x="3223.48" target-y="1669.11"></path><path d="M 3371.98 1669.11 L 3484.34 1879.25 L 3353.91 1907.61 L 3371.98 1669.11 Z" fill="#f3f8ff" fill-rule="nonzero" node-id="203" stroke="none" target-height="238.5" target-width="130.43018" target-x="3353.91" target-y="1669.11"></path><path d="M 1435.00 873.00 L 2564.00 873.00 C 2630.27 873.00 2684.00 926.73 2684.00 993.00 L 2684.00 1788.00 C 2684.00 1854.27 2630.27 1908.00 2564.00 1908.00 L 1435.00 1908.00 C 1368.73 1908.00 1315.00 1854.27 1315.00 1788.00 L 1315.00 993.00 C 1315.00 926.73 1368.73 873.00 1435.00 873.00 Z" fill="url(#paint4_linear_201_54)" fill-rule="nonzero" node-id="205" stroke="none" target-height="1035" target-width="1369" target-x="1315" target-y="873"></path><path d="M 2056.00 1438.68 C 2123.50 1415.45 2172.00 1351.39 2172.00 1276.00 C 2172.00 1181.01 2094.99 1104.00 2000.00 1104.00 C 1905.01 1104.00 1828.00 1181.01 1828.00 1276.00 C 1828.00 1350.64 1875.54 1414.20 1942.00 1438.00 L 1942.00 1621.00 C 1942.00 1652.48 1967.52 1678.00 1999.00 1678.00 C 2030.48 1678.00 2056.00 1652.48 2056.00 1621.00 L 2056.00 1438.68 Z" fill="#ffffff" fill-rule="nonzero" node-id="207" stroke="none" target-height="574" target-width="344" target-x="1828" target-y="1104"></path><path d="M 1973.00 344.00 L 2026.00 344.00 C 2155.79 344.00 2261.00 449.21 2261.00 579.00 L 2261.00 873.00 L 2461.00 873.00 L 2461.00 579.00 C 2461.00 338.76 2266.24 144.00 2026.00 144.00 L 1973.00 144.00 C 1732.76 144.00 1538.00 338.76 1538.00 579.00 L 1538.00 873.00 L 1738.00 873.00 L 1738.00 579.00 C 1738.00 449.21 1843.21 344.00 1973.00 344.00 Z" fill="url(#paint5_linear_201_54)" fill-rule="nonzero" node-id="209" stroke="none" target-height="729" target-width="923" target-x="1538" target-y="144"></path><path d="M 1377.00 1908.00 L 2557.15 3135.00 L 3982.50 2624.00 L 2619.00 1908.00 L 1377.00 1908.00 Z" fill="url(#paint6_linear_201_54)" fill-opacity="0.385356" fill-rule="nonzero" node-id="211" stroke="none" target-height="1227" target-width="2605.5" target-x="1377" target-y="1908"></path><path d="M 1227.32 2146.75 C 1231.28 2142.08 1238.28 2141.51 1242.95 2145.48 L 1414.25 2290.97 C 1418.92 2294.93 1419.49 2301.93 1415.53 2306.59 L 1405.38 2318.54 C 1401.42 2323.21 1394.42 2323.78 1389.76 2319.81 L 1218.45 2174.32 C 1213.78 2170.36 1213.21 2163.36 1217.18 2158.69 L 1227.32 2146.75 Z" fill="#d9e8ff" fill-opacity="0.7" fill-rule="nonzero" node-id="213" stroke="none" target-height="182.27002" target-width="206.28003" target-x="1213.21" target-y="2141.51"></path><path d="M 1313.43 2254.98 L 1336.15 2274.28 L 1312.40 2302.25 C 1310.35 2304.67 1306.73 2304.96 1304.32 2302.91 L 1290.33 2291.03 C 1287.92 2288.98 1287.62 2285.37 1289.67 2282.95 L 1313.43 2254.98 Z" fill="#d9e8ff" fill-opacity="0.7" fill-rule="nonzero" node-id="215" stroke="none" target-height="49.97998" target-width="48.53003" target-x="1287.62" target-y="2254.98"></path><path d="M 1356.55 2291.60 L 1379.27 2310.91 L 1355.52 2338.87 C 1353.47 2341.29 1349.85 2341.58 1347.43 2339.53 L 1333.45 2327.66 C 1331.04 2325.61 1330.74 2321.99 1332.79 2319.57 L 1356.55 2291.60 Z" fill="#d9e8ff" fill-opacity="0.7" fill-rule="nonzero" node-id="217" stroke="none" target-height="49.97998" target-width="48.53003" target-x="1330.74" target-y="2291.6"></path><path d="M 1130.22 2183.14 C 1165.14 2212.79 1217.48 2208.53 1247.14 2173.61 C 1276.79 2138.69 1272.53 2086.35 1237.61 2056.69 C 1202.69 2027.04 1150.35 2031.30 1120.69 2066.22 C 1091.04 2101.14 1095.31 2153.48 1130.22 2183.14 Z M 1153.98 2155.17 C 1173.44 2171.70 1202.63 2169.32 1219.17 2149.85 C 1235.70 2130.39 1233.32 2101.20 1213.85 2084.66 C 1194.39 2068.13 1165.20 2070.51 1148.66 2089.98 C 1132.13 2109.44 1134.51 2138.63 1153.98 2155.17 Z" fill="#d9e8ff" fill-opacity="0.7" fill-rule="evenodd" node-id="219" stroke="none" target-height="185.75" target-width="185.75" target-x="1091.04" target-y="2027.04"></path><path d="M 702.51 2108.41 C 701.25 2103.95 703.85 2099.33 708.30 2098.07 L 871.86 2052.00 C 876.31 2050.75 880.94 2053.34 882.19 2057.80 L 885.41 2069.20 C 886.66 2073.66 884.07 2078.28 879.61 2079.54 L 716.06 2125.61 C 711.61 2126.86 706.98 2124.27 705.72 2119.81 L 702.51 2108.41 Z" fill="#d9e8ff" fill-opacity="0.5" fill-rule="nonzero" node-id="221" stroke="none" target-height="76.11011" target-width="185.40997" target-x="701.25" target-y="2050.75"></path><path d="M 806.74 2100.07 L 828.43 2093.96 L 835.95 2120.66 C 836.60 2122.96 835.26 2125.36 832.96 2126.01 L 819.61 2129.77 C 817.30 2130.41 814.91 2129.07 814.26 2126.77 L 806.74 2100.07 Z" fill="#d9e8ff" fill-opacity="0.5" fill-rule="nonzero" node-id="223" stroke="none" target-height="36.44995" target-width="29.859985" target-x="806.74" target-y="2093.96"></path><path d="M 847.90 2088.47 L 869.60 2082.36 L 877.12 2109.06 C 877.77 2111.37 876.43 2113.76 874.12 2114.41 L 860.77 2118.17 C 858.47 2118.82 856.07 2117.48 855.42 2115.17 L 847.90 2088.47 Z" fill="#d9e8ff" fill-opacity="0.5" fill-rule="nonzero" node-id="225" stroke="none" target-height="36.45996" target-width="29.869995" target-x="847.9" target-y="2082.36"></path><path d="M 684.36 2184.67 C 717.70 2175.28 737.11 2140.65 727.72 2107.31 C 718.33 2073.98 683.69 2054.57 650.36 2063.96 C 617.02 2073.35 597.61 2107.98 607.00 2141.32 C 616.39 2174.65 651.03 2194.06 684.36 2184.67 Z M 676.84 2157.97 C 695.43 2152.73 706.25 2133.42 701.02 2114.83 C 695.78 2096.25 676.47 2085.42 657.88 2090.66 C 639.29 2095.89 628.47 2115.21 633.70 2133.79 C 638.94 2152.38 658.25 2163.21 676.84 2157.97 Z" fill="#d9e8ff" fill-opacity="0.5" fill-rule="evenodd" node-id="227" stroke="none" target-height="139.48999" target-width="139.5" target-x="597.61" target-y="2054.57"></path><path d="M 3042.22 2095.06 L 3041.42 2100.15 L 3039.21 2105.17 L 3035.29 2110.25 L 3029.31 2115.54 L 3020.47 2121.22 L 3008.93 2126.81 L 2994.08 2132.23 L 2978.96 2136.55 L 2961.63 2140.33 L 2941.85 2143.51 L 2922.05 2145.75 L 2900.74 2147.12 L 2877.92 2147.65 L 2855.07 2147.12 L 2833.79 2145.75 L 2813.95 2143.51 L 2794.18 2140.33 L 2776.85 2136.55 L 2761.73 2132.23 L 2746.91 2126.81 L 2735.33 2121.22 L 2726.54 2115.54 L 2720.55 2110.25 L 2716.63 2105.17 L 2714.39 2100.15 L 2713.62 2095.06 L 2714.39 2090.01 L 2716.63 2084.99 L 2720.55 2079.87 L 2726.54 2074.62 L 2735.33 2068.93 L 2746.91 2063.35 L 2761.73 2057.89 L 2776.85 2053.61 L 2794.18 2049.83 L 2813.95 2046.62 L 2833.79 2044.41 L 2855.07 2043.01 L 2877.92 2042.50 L 2900.74 2043.01 L 2922.05 2044.41 L 2941.85 2046.62 L 2961.63 2049.83 L 2978.96 2053.61 L 2994.08 2057.89 L 3008.93 2063.35 L 3020.47 2068.93 L 3029.31 2074.62 L 3035.29 2079.87 L 3039.21 2084.99 L 3041.42 2090.01 L 3042.22 2095.06 Z" fill="#84c1ff" fill-opacity="0.15" fill-rule="evenodd" node-id="229" stroke="none" target-height="105.1499" target-width="328.59985" target-x="2713.62" target-y="2042.5"></path><path d="M 2833.96 1477.28 L 2886.55 1477.28 L 2886.55 1529.87 L 2833.96 1529.87 L 2833.96 1477.28 Z" fill="url(#paint7_linear_201_54)" fill-rule="evenodd" node-id="231" stroke="none" target-height="52.589966" target-width="52.590088" target-x="2833.96" target-y="1477.28"></path><path d="M 2913.58 1438.27 L 2910.36 1444.05 L 2906.55 1447.97 L 2903.57 1449.67 L 2900.86 1450.21 L 2898.29 1449.81 L 2896.15 1448.30 L 2894.61 1446.03 L 2893.64 1442.71 L 2893.60 1437.29 L 2895.31 1430.87 L 2898.52 1425.08 L 2902.33 1421.17 L 2905.31 1419.46 L 2908.02 1418.89 L 2910.60 1419.33 L 2912.74 1420.80 L 2914.31 1423.11 L 2915.25 1426.42 L 2915.28 1431.84 L 2913.58 1438.27 Z" fill="#fee0bc" fill-rule="evenodd" node-id="233" stroke="none" target-height="31.319946" target-width="21.679932" target-x="2893.6" target-y="1418.89"></path><path d="M 2802.11 1438.43 L 2805.42 1444.15 L 2809.30 1448.00 L 2812.31 1449.64 L 2815.02 1450.14 L 2817.60 1449.70 L 2819.70 1448.16 L 2821.21 1445.86 L 2822.11 1442.54 L 2822.05 1437.09 L 2820.24 1430.70 L 2816.89 1424.98 L 2813.05 1421.13 L 2810.03 1419.49 L 2807.32 1418.96 L 2804.75 1419.43 L 2802.64 1420.96 L 2801.10 1423.27 L 2800.20 1426.58 L 2800.27 1432.04 L 2802.11 1438.43 Z" fill="#fee0bc" fill-rule="evenodd" node-id="235" stroke="none" target-height="31.180054" target-width="21.910156" target-x="2800.2" target-y="1418.96"></path><path d="M 2905.33 1424.63 L 2904.53 1436.65 L 2902.36 1447.69 L 2898.85 1457.89 L 2894.14 1467.15 L 2888.49 1475.00 L 2881.81 1481.55 L 2874.47 1486.41 L 2866.52 1489.43 L 2857.86 1490.54 L 2849.19 1489.43 L 2841.26 1486.41 L 2833.89 1481.55 L 2827.24 1475.00 L 2821.59 1467.15 L 2816.87 1457.89 L 2813.34 1447.69 L 2811.19 1436.65 L 2810.37 1424.63 L 2811.19 1412.59 L 2813.34 1401.58 L 2816.87 1391.35 L 2821.59 1382.12 L 2827.24 1374.27 L 2833.89 1367.72 L 2841.26 1362.82 L 2849.19 1359.84 L 2857.86 1358.70 L 2866.52 1359.84 L 2874.47 1362.82 L 2881.81 1367.72 L 2888.49 1374.27 L 2894.14 1382.12 L 2898.85 1391.35 L 2902.36 1401.58 L 2904.53 1412.59 L 2905.33 1424.63 Z" fill="url(#paint8_linear_201_54)" fill-rule="evenodd" node-id="237" stroke="none" target-height="131.84009" target-width="94.95996" target-x="2810.37" target-y="1358.7"></path><path d="M 2827.40 2057.06 L 2824.69 2074.89 L 2813.75 2076.10 L 2801.78 2079.28 L 2788.46 2084.66 L 2783.14 2088.61 L 2780.90 2091.19 L 2779.80 2093.96 L 2779.43 2097.14 L 2780.47 2098.15 L 2786.75 2099.15 L 2806.19 2099.32 L 2844.85 2097.42 C 2848.04 2097.27 2850.55 2094.63 2850.55 2091.43 L 2850.55 2050.54 L 2827.40 2057.06 Z" fill="url(#paint9_linear_201_54)" fill-rule="nonzero" node-id="239" stroke="none" target-height="48.78003" target-width="71.12012" target-x="2779.43" target-y="2050.54"></path><path d="M 2927.47 2057.06 L 2930.18 2074.89 L 2941.12 2076.10 L 2953.10 2079.28 L 2966.41 2084.66 L 2971.73 2088.61 L 2973.97 2091.19 L 2975.08 2093.96 L 2975.44 2097.14 L 2974.41 2098.15 L 2968.12 2099.15 L 2948.68 2099.32 L 2910.02 2097.42 C 2906.83 2097.27 2904.32 2094.63 2904.32 2091.43 L 2904.32 2050.54 L 2927.47 2057.06 Z" fill="url(#paint10_linear_201_54)" fill-rule="nonzero" node-id="241" stroke="none" target-height="48.78003" target-width="71.11987" target-x="2904.32" target-y="2050.54"></path><path d="M 2802.04 1731.68 L 2820.79 2059.50 C 2820.92 2061.63 2822.70 2063.30 2824.84 2063.27 L 2854.44 2062.87 C 2856.54 2062.84 2858.27 2061.18 2858.38 2059.08 L 2874.27 1756.70 L 2898.99 2058.95 C 2899.16 2061.05 2900.94 2062.66 2903.04 2062.62 L 2930.43 2062.18 C 2932.57 2062.14 2934.31 2060.43 2934.37 2058.29 L 2943.59 1732.41 L 2802.04 1731.68 Z" fill="#153f82" fill-rule="nonzero" node-id="243" stroke="none" target-height="331.62" target-width="141.55005" target-x="2802.04" target-y="1731.68"></path><path d="M 3011.41 1593.54 L 3016.53 1590.36 L 3021.55 1588.92 L 3026.66 1589.02 L 3030.04 1588.69 L 3031.88 1587.79 L 3032.79 1586.38 L 3038.37 1586.28 L 3040.25 1587.52 L 3040.15 1589.96 L 3038.57 1592.84 L 3037.10 1593.81 L 3035.53 1593.54 L 3043.96 1597.42 L 3051.99 1591.73 L 3058.04 1592.37 L 3061.52 1593.78 L 3063.36 1595.68 L 3064.00 1598.22 L 3063.30 1601.77 L 3060.72 1605.12 L 3056.87 1608.53 L 3052.19 1611.11 L 3046.44 1612.61 L 3040.21 1612.44 L 3032.79 1610.03 L 3027.80 1607.22 L 3023.79 1606.66 L 3011.41 1593.54 Z" fill="#fecca9" fill-rule="evenodd" node-id="245" stroke="none" target-height="26.329956" target-width="52.590088" target-x="3011.41" target-y="1586.28"></path><path d="M 2722.72 1615.54 L 2718.91 1610.89 L 2714.63 1607.88 L 2709.77 1606.34 L 2706.66 1604.90 L 2705.22 1603.43 L 2704.86 1601.82 L 2699.60 1599.92 L 2697.43 1600.49 L 2696.73 1602.83 L 2697.26 1606.04 L 2698.33 1607.44 L 2699.94 1607.71 L 2690.67 1608.62 L 2684.95 1600.65 L 2679.00 1599.28 L 2675.25 1599.45 L 2672.91 1600.69 L 2671.47 1602.86 L 2671.00 1606.44 L 2672.30 1610.46 L 2674.85 1614.94 L 2678.46 1618.89 L 2683.41 1622.16 L 2689.33 1624.04 L 2697.16 1624.21 L 2702.75 1623.13 L 2706.73 1623.90 L 2722.72 1615.54 Z" fill="#fecca9" fill-rule="evenodd" node-id="247" stroke="none" target-height="24.929932" target-width="51.71997" target-x="2671" target-y="1599.28"></path><path d="M 2832.05 1508.53 L 2837.30 1511.99 C 2853.36 1522.57 2874.61 1520.60 2888.46 1507.26 L 2888.46 1507.26 L 2918.82 1515.59 C 2943.89 1522.47 2962.84 1543.03 2967.65 1568.57 L 2976.88 1617.53 L 3011.01 1589.02 L 3033.79 1609.87 L 2980.96 1689.22 L 2973.54 1696.08 L 2967.55 1699.79 L 2962.60 1701.23 L 2958.35 1701.00 L 2954.47 1699.16 L 2950.72 1695.48 L 2947.07 1689.22 L 2932.82 1592.87 L 2947.98 1735.46 L 2797.90 1737.00 L 2808.37 1592.94 L 2806.59 1624.25 L 2803.78 1647.27 L 2800.27 1663.63 L 2796.36 1674.80 L 2792.27 1682.06 L 2788.13 1686.41 L 2783.91 1688.69 L 2779.33 1689.22 L 2771.03 1685.78 L 2757.11 1677.14 L 2735.10 1660.55 L 2702.08 1632.58 L 2712.02 1605.98 L 2758.92 1630.64 L 2764.74 1577.89 C 2767.21 1555.51 2780.59 1535.81 2800.49 1525.26 L 2832.05 1508.53 Z" fill="#429cfd" fill-rule="evenodd" node-id="249" stroke="none" target-height="229.73999" target-width="331.70996" target-x="2702.08" target-y="1507.26"></path><path d="M 2823.99 1408.26 C 2818.47 1401.47 2807.90 1430.23 2807.90 1408.26 C 2807.90 1408.26 2805.70 1413.04 2803.97 1403.55 C 2801.62 1390.60 2801.23 1388.25 2809.86 1379.22 C 2818.10 1370.61 2809.08 1369.81 2819.28 1356.07 C 2829.48 1342.34 2843.61 1347.05 2858.91 1343.51 C 2874.21 1339.98 2895.40 1355.68 2893.05 1359.60 C 2890.69 1363.53 2904.82 1371.77 2904.82 1375.30 C 2904.82 1378.83 2908.74 1409.83 2906.00 1415.32 C 2903.25 1420.82 2904.82 1412.18 2903.25 1405.12 C 2901.74 1398.34 2889.12 1406.69 2883.63 1405.12 C 2879.10 1403.83 2876.40 1395.42 2873.04 1396.49 C 2865.58 1398.84 2865.58 1408.26 2858.91 1406.69 C 2852.38 1405.16 2849.88 1395.70 2843.61 1398.06 C 2840.12 1399.36 2834.19 1420.82 2823.99 1408.26 Z" fill="#003a8c" fill-rule="nonzero" node-id="251" stroke="none" target-height="90.25" target-width="107.51001" target-x="2801.23" target-y="1339.98"></path></svg>