<?xml version="1.0" standalone="no"?><!DOCTYPE svg PUBLIC "-//W3C//DTD SVG 1.1//EN" "http://www.w3.org/Graphics/SVG/1.1/DTD/svg11.dtd"><svg height="2672" node-id="1" sillyvg="true" template-height="2672" template-width="3861" version="1.1" viewBox="0 0 3861 2672" width="3861" xmlns="http://www.w3.org/2000/svg" xmlns:xlink="http://www.w3.org/1999/xlink"><defs node-id="131"><linearGradient gradientUnits="userSpaceOnUse" id="paint0_linear_91_436" node-id="48" spreadMethod="pad" x1="404.332" x2="404.332" y1="771.469" y2="450.424"><stop offset="0" stop-color="#ffffff" stop-opacity="0.1"></stop><stop offset="1" stop-color="#d9e9ff"></stop></linearGradient><linearGradient gradientUnits="userSpaceOnUse" id="paint1_linear_91_436" node-id="51" spreadMethod="pad" x1="2786.24" x2="2786.24" y1="529.782" y2="254.018"><stop offset="0" stop-color="#ffffff" stop-opacity="0.1"></stop><stop offset="0.14" stop-color="#f8fbff" stop-opacity="0.27"></stop><stop offset="0.37" stop-color="#edf5ff" stop-opacity="0.52"></stop><stop offset="0.58" stop-color="#e4f0ff" stop-opacity="0.73"></stop><stop offset="0.76" stop-color="#deecff" stop-opacity="0.88"></stop><stop offset="0.91" stop-color="#daeaff" stop-opacity="0.97"></stop><stop offset="1" stop-color="#d9e9ff"></stop></linearGradient><linearGradient gradientUnits="userSpaceOnUse" id="paint2_linear_91_436" node-id="59" spreadMethod="pad" x1="3353.86" x2="3353.86" y1="619.017" y2="11.5072"><stop offset="0" stop-color="#ffffff" stop-opacity="0.1"></stop><stop offset="0.09" stop-color="#fefeff" stop-opacity="0.13"></stop><stop offset="0.23" stop-color="#fbfcff" stop-opacity="0.21"></stop><stop offset="0.4" stop-color="#f5f9ff" stop-opacity="0.33"></stop><stop offset="0.59" stop-color="#eef5ff" stop-opacity="0.51"></stop><stop offset="0.79" stop-color="#e4efff" stop-opacity="0.74"></stop><stop offset="1" stop-color="#d9e9ff"></stop></linearGradient><linearGradient gradientUnits="userSpaceOnUse" id="paint3_linear_91_436" node-id="67" spreadMethod="pad" x1="1908" x2="1908" y1="2671.63" y2="1464.22"><stop offset="0" stop-color="#ffffff" stop-opacity="0.1"></stop><stop offset="0.13" stop-color="#fbfdff" stop-opacity="0.19"></stop><stop offset="0.41" stop-color="#f1f7ff" stop-opacity="0.43"></stop><stop offset="0.81" stop-color="#e1eeff" stop-opacity="0.82"></stop><stop offset="1" stop-color="#d9e9ff"></stop></linearGradient><linearGradient gradientUnits="userSpaceOnUse" id="paint4_linear_91_436" node-id="73" spreadMethod="pad" x1="764.726" x2="955.176" y1="269.42" y2="573.041"><stop offset="0" stop-color="#eef6ff"></stop><stop offset="1" stop-color="#3497fc"></stop></linearGradient><linearGradient gradientUnits="userSpaceOnUse" id="paint5_linear_91_436" node-id="76" spreadMethod="pad" x1="890.5" x2="2599.27" y1="-75.4141" y2="2560.3"><stop offset="0" stop-color="#5792f0"></stop><stop offset="1" stop-color="#bfd4fa" stop-opacity="0"></stop></linearGradient><linearGradient gradientUnits="userSpaceOnUse" id="paint6_linear_91_436" node-id="79" spreadMethod="pad" x1="2065" x2="3094.53" y1="218.086" y2="1458.02"><stop offset="0" stop-color="#cde5ff" stop-opacity="0.57"></stop><stop offset="1" stop-color="#2399ee" stop-opacity="0.69"></stop></linearGradient><linearGradient gradientUnits="userSpaceOnUse" id="paint7_linear_91_436" node-id="82" spreadMethod="pad" x1="2712.5" x2="988.898" y1="1894.09" y2="1193.84"><stop offset="0" stop-color="#3497fc"></stop><stop offset="1" stop-color="#c0ddfc"></stop></linearGradient><linearGradient gradientUnits="userSpaceOnUse" id="paint8_linear_91_436" node-id="85" spreadMethod="pad" x1="2305.5" x2="1963.16" y1="1286.09" y2="1525.09"><stop offset="0" stop-color="#2399ee"></stop><stop offset="1" stop-color="#deefff"></stop></linearGradient><linearGradient gradientUnits="userSpaceOnUse" id="paint9_linear_91_436" node-id="88" spreadMethod="pad" x1="2366.22" x2="2353.81" y1="547.168" y2="432.193"><stop offset="0" stop-color="#3497fc"></stop><stop offset="1" stop-color="#c0ddfc"></stop></linearGradient><linearGradient gradientUnits="userSpaceOnUse" id="paint10_linear_91_436" node-id="91" spreadMethod="pad" x1="2350.38" x2="2337.97" y1="705.711" y2="590.736"><stop offset="0" stop-color="#3497fc"></stop><stop offset="1" stop-color="#c0ddfc"></stop></linearGradient><linearGradient gradientUnits="userSpaceOnUse" id="paint11_linear_91_436" node-id="94" spreadMethod="pad" x1="1960.45" x2="1936.47" y1="864.305" y2="753.166"><stop offset="0" stop-color="#3497fc"></stop><stop offset="1" stop-color="#c0ddfc"></stop></linearGradient><linearGradient gradientUnits="userSpaceOnUse" id="paint12_linear_91_436" node-id="97" spreadMethod="pad" x1="1993.24" x2="1957.05" y1="856.831" y2="833.93"><stop offset="0" stop-color="#3497fc"></stop><stop offset="1" stop-color="#c0ddfc"></stop></linearGradient><linearGradient gradientUnits="userSpaceOnUse" id="paint13_linear_91_436" node-id="100" spreadMethod="pad" x1="2310.96" x2="2285.42" y1="1033.47" y2="869.488"><stop offset="0" stop-color="#3497fc"></stop><stop offset="1" stop-color="#c0ddfc"></stop></linearGradient><linearGradient gradientUnits="userSpaceOnUse" id="paint14_linear_91_436" node-id="103" spreadMethod="pad" x1="2263" x2="2220.12" y1="1202.59" y2="991.947"><stop offset="0" stop-color="#3497fc"></stop><stop offset="1" stop-color="#c0ddfc"></stop></linearGradient><linearGradient gradientUnits="userSpaceOnUse" id="paint15_linear_91_436" node-id="106" spreadMethod="pad" x1="2032" x2="1879.43" y1="1351.59" y2="1028.91"><stop offset="0" stop-color="#3497fc"></stop><stop offset="1" stop-color="#c0ddfc"></stop></linearGradient><linearGradient gradientUnits="userSpaceOnUse" id="paint16_linear_91_436" node-id="109" spreadMethod="pad" x1="1865.77" x2="1828.1" y1="1355.38" y2="1331.54"><stop offset="0" stop-color="#3497fc"></stop><stop offset="1" stop-color="#c0ddfc"></stop></linearGradient><linearGradient gradientUnits="userSpaceOnUse" id="paint17_linear_91_436" node-id="112" spreadMethod="pad" x1="2192.54" x2="1706.9" y1="269.784" y2="74.738"><stop offset="0" stop-color="#419efd"></stop><stop offset="1" stop-color="#dff0ff"></stop></linearGradient><linearGradient gradientUnits="userSpaceOnUse" id="paint18_linear_91_436" node-id="115" spreadMethod="pad" x1="2229.21" x2="1645.45" y1="155.134" y2="70.4188"><stop offset="0" stop-color="#4da4fd"></stop><stop offset="1" stop-color="#dff0ff"></stop></linearGradient><linearGradient gradientUnits="userSpaceOnUse" id="paint19_linear_91_436" node-id="118" spreadMethod="pad" x1="2022.83" x2="1830.32" y1="84.0796" y2="-16.4526"><stop offset="0" stop-color="#2399ee"></stop><stop offset="1" stop-color="#f0f9ff"></stop></linearGradient><linearGradient gradientUnits="userSpaceOnUse" id="paint20_linear_91_436" node-id="121" spreadMethod="pad" x1="2687.14" x2="2687.14" y1="1084.37" y2="1134"><stop offset="0" stop-color="#ffcda5"></stop><stop offset="1" stop-color="#ffe8d1"></stop></linearGradient><linearGradient gradientUnits="userSpaceOnUse" id="paint21_linear_91_436" node-id="124" spreadMethod="pad" x1="2757.48" x2="2814.86" y1="1879.36" y2="1941.22"><stop offset="0" stop-color="#003a8c"></stop><stop offset="1" stop-color="#5792f0"></stop></linearGradient><linearGradient gradientUnits="userSpaceOnUse" id="paint22_linear_91_436" node-id="127" spreadMethod="pad" x1="2646.52" x2="2703.95" y1="1879.36" y2="1940.54"><stop offset="0" stop-color="#003a8c"></stop><stop offset="1" stop-color="#5792f0"></stop></linearGradient></defs><path d="M 750.42 1516.39 L 767.67 1695.27 L 659.60 1683.38 L 750.42 1516.39 Z" fill="#e4efff" fill-rule="nonzero" node-id="298" stroke="none" target-height="178.88" target-width="108.07001" target-x="659.6" target-y="1516.39"></path><path d="M 745.31 1516.39 L 857.11 1657.59 L 762.27 1695.27 L 745.31 1516.39 Z" fill="#f3f8ff" fill-rule="nonzero" node-id="300" stroke="none" target-height="178.88" target-width="111.79999" target-x="745.31" target-y="1516.39"></path><path d="M 373.92 1561.11 L 395.02 1788.43 L 264.59 1773.27 L 373.92 1561.11 Z" fill="#e4efff" fill-rule="nonzero" node-id="302" stroke="none" target-height="227.32007" target-width="130.43" target-x="264.59" target-y="1561.11"></path><path d="M 376.38 1561.11 L 514.27 1740.77 L 397.51 1788.43 L 376.38 1561.11 Z" fill="#f3f8ff" fill-rule="nonzero" node-id="304" stroke="none" target-height="227.32007" target-width="137.89001" target-x="376.38" target-y="1561.11"></path><path d="M 553.32 1404.60 L 588.80 1780.98 L 350.30 1757.54 L 553.32 1404.60 Z" fill="#e4efff" fill-rule="nonzero" node-id="306" stroke="none" target-height="376.38" target-width="238.5" target-x="350.3" target-y="1404.6"></path><path d="M 547.80 1404.60 L 797.48 1700.37 L 583.32 1780.98 L 547.80 1404.60 Z" fill="#f3f8ff" fill-rule="nonzero" node-id="308" stroke="none" target-height="376.38" target-width="249.68" target-x="547.8" target-y="1404.6"></path><path d="M 623.19 577.41 C 609.26 502.81 544.12 449.26 468.99 450.63 C 428.78 450.45 389.99 465.50 360.28 492.89 C 343.66 485.29 325.63 481.38 307.37 481.38 C 249.53 480.45 198.89 520.40 185.81 577.30 C 141.35 587.21 109.30 626.42 108.07 672.37 C 109.78 728.30 155.84 772.35 211.22 771.04 L 597.44 771.04 C 652.86 772.42 698.95 728.34 700.59 672.37 C 699.40 626.53 667.50 587.40 623.19 577.41 Z" fill="url(#paint0_linear_91_436)" fill-rule="nonzero" node-id="310" stroke="none" target-height="323.15997" target-width="592.52" target-x="108.07" target-y="449.26"></path><path d="M 2974.74 358.73 C 2954.69 327.24 2920.74 307.72 2883.81 306.38 C 2862.31 273.10 2825.45 253.35 2786.21 254.02 C 2754.80 253.72 2724.54 266.24 2702.29 288.82 C 2692.12 285.54 2681.50 283.83 2670.84 283.83 C 2621.42 283.83 2580.62 318.49 2576.41 362.35 C 2538.73 371.44 2511.60 404.79 2510.00 444.03 C 2510.00 491.29 2552.71 529.78 2604.43 529.78 L 2967.10 529.78 C 3019.57 529.78 3061.53 491.29 3061.53 444.03 C 3062.35 399.13 3023.56 362.24 2974.74 358.73 Z" fill="url(#paint1_linear_91_436)" fill-rule="nonzero" node-id="312" stroke="none" target-height="276.43002" target-width="552.3501" target-x="2510" target-y="253.35"></path><path d="M 3710.15 204.82 C 3674.75 131.89 3600.85 85.46 3519.69 85.19 C 3474.48 85.31 3430.51 99.95 3394.29 126.97 C 3351.21 42.97 3257.60 -2.27 3164.96 16.03 C 3072.28 34.36 3003.00 111.84 2995.17 205.86 C 2895.49 237.31 2833.63 336.62 2849.47 439.85 C 2865.34 543.08 2954.14 619.32 3058.67 619.43 L 3648.40 619.43 C 3753.53 619.62 3842.93 542.74 3858.32 438.88 C 3873.75 334.99 3810.51 235.52 3709.85 205.23 L 3710.15 204.82 Z" fill="url(#paint2_linear_91_436)" fill-rule="nonzero" node-id="314" stroke="none" target-height="621.89" target-width="1040.1201" target-x="2833.63" target-y="-2.27"></path><path d="M 3816.00 2067.93 C 3816.00 2228.06 3614.99 2381.59 3257.16 2494.80 C 2899.34 2608.02 2414.03 2671.63 1908.00 2671.63 C 1401.97 2671.63 916.66 2608.02 558.84 2494.80 C 201.01 2381.59 0.00 2228.06 0.00 2067.93 C 0.00 1907.80 201.01 1754.26 558.84 1641.05 C 916.66 1527.84 1401.97 1464.22 1908.00 1464.22 C 2414.03 1464.22 2899.34 1527.84 3257.16 1641.05 C 3614.99 1754.26 3816.00 1907.80 3816.00 2067.93 Z" fill="url(#paint3_linear_91_436)" fill-rule="nonzero" node-id="316" stroke="none" target-height="1207.4099" target-width="3816" target-x="0" target-y="1464.22"></path><path d="M 3376.27 1561.11 L 3358.12 1799.61 L 3223.48 1760.56 L 3376.27 1561.11 Z" fill="#e4efff" fill-rule="nonzero" node-id="318" stroke="none" target-height="238.5" target-width="152.79004" target-x="3223.48" target-y="1561.11"></path><path d="M 3371.98 1561.11 L 3484.34 1771.25 L 3353.91 1799.61 L 3371.98 1561.11 Z" fill="#f3f8ff" fill-rule="nonzero" node-id="320" stroke="none" target-height="238.5" target-width="130.43018" target-x="3353.91" target-y="1561.11"></path><path d="M 1064.96 456.63 L 1133.17 454.99 L 1196.50 456.15 L 1255.17 459.90 L 1309.54 466.06 L 1359.81 474.46 L 1406.36 484.91 L 1449.34 497.33 L 1489.05 511.57 L 1525.74 527.63 L 1559.58 545.31 L 1590.74 564.66 L 1619.44 585.65 L 1645.79 608.34 L 1669.91 632.70 L 1672.35 635.33 L 1677.16 640.67 L 1681.92 645.96 L 1686.69 651.29 L 1691.40 656.62 L 1693.73 659.33 L 1698.44 664.70 L 1705.46 672.93 L 1710.19 678.45 L 1714.96 684.12 L 1722.21 692.76 L 1729.57 701.70 L 1737.16 711.01 L 1742.31 717.36 L 1750.31 727.25 L 1796.46 785.20 L 1802.31 792.45 L 1809.65 801.54 L 1814.89 807.94 L 1819.94 814.03 L 1824.83 819.87 L 1828.02 823.65 L 1832.71 829.17 L 1855.10 854.26 L 1876.12 875.95 L 1897.64 895.99 L 1919.01 913.61 L 1941.25 929.71 L 1964.50 944.31 L 1992.01 959.04 L 2022.10 972.39 L 2055.11 984.36 L 2088.74 994.19 L 2126.27 1002.82 L 2168.05 1010.14 L 2172.20 1010.74 L 2216.37 1018.47 L 2259.43 1028.46 L 2301.35 1040.60 L 2342.57 1054.99 L 2382.35 1071.26 L 2420.64 1089.39 L 2457.94 1109.51 L 2493.41 1131.15 L 2527.10 1154.29 L 2548.85 1170.76 L 2569.02 1187.30 L 2573.32 1191.04 L 2577.58 1194.77 L 2587.90 1204.16 L 2591.91 1207.90 L 2595.83 1211.64 L 2599.70 1215.37 L 2607.20 1222.84 L 2610.78 1226.58 L 2627.67 1245.04 L 2630.78 1248.72 L 2642.31 1263.11 L 2645.01 1266.63 L 2656.59 1283.48 L 2665.46 1298.71 L 2672.38 1313.88 L 2676.45 1326.95 L 2676.74 1328.33 L 2672.99 1329.13 L 2668.64 1314.92 L 2660.91 1298.30 L 2649.00 1278.87 L 2646.62 1275.48 L 2640.33 1266.83 L 2637.68 1263.31 L 2624.50 1247.26 L 2621.33 1243.67 L 2602.36 1223.50 L 2598.68 1219.79 L 2594.90 1216.08 L 2591.03 1212.35 L 2587.11 1208.66 L 2581.08 1203.11 L 2576.96 1199.39 L 2572.80 1195.68 L 2568.54 1191.99 L 2564.19 1188.29 L 2559.83 1184.60 L 2555.37 1180.93 L 2550.82 1177.26 L 2546.22 1173.62 L 2532.11 1162.78 L 2527.26 1159.21 L 2524.86 1157.40 L 2491.70 1134.62 L 2456.82 1113.29 L 2420.15 1093.46 L 2382.46 1075.55 L 2343.42 1059.42 L 2302.90 1045.12 L 2261.66 1033.03 L 2219.36 1023.05 L 2175.97 1015.22 L 2171.64 1014.55 L 2128.66 1007.22 L 2090.04 998.49 L 2055.52 988.54 L 2021.62 976.36 L 1990.75 962.72 L 1962.58 947.60 L 1939.10 932.87 L 1916.68 916.65 L 1895.19 898.93 L 1873.49 878.73 L 1852.30 856.91 L 1829.79 831.66 L 1826.68 827.98 L 1821.86 822.35 L 1816.97 816.47 L 1813.62 812.43 L 1808.46 806.13 L 1804.87 801.77 L 1799.30 794.88 L 1783.95 775.67 L 1755.62 740.05 L 1747.35 729.69 L 1739.35 719.80 L 1734.20 713.45 L 1726.64 704.20 L 1719.24 695.25 L 1714.44 689.48 L 1709.63 683.75 L 1707.27 680.99 L 1700.21 672.66 L 1695.51 667.24 L 1690.85 661.87 L 1686.14 656.50 L 1681.47 651.17 L 1676.70 645.89 L 1671.93 640.60 L 1667.08 635.25 L 1643.38 611.33 L 1617.50 589.04 L 1589.30 568.31 L 1558.68 549.22 L 1525.49 531.72 L 1489.49 515.90 L 1450.48 501.75 L 1408.31 489.39 L 1362.62 478.96 L 1313.31 470.50 L 1260.02 464.24 L 1202.48 460.30 L 1140.48 458.84 L 1073.62 460.09 L 1065.12 460.45 L 1064.96 456.63 Z" fill="none" node-id="322" stroke="#2399ee" stroke-dasharray="4 4" stroke-linecap="butt" stroke-width="1" target-height="874.14" target-width="1611.78" target-x="1064.96" target-y="454.99"></path><path d="M 922.48 454.52 L 865.01 525.68 L 702.50 303.00 L 1033.37 319.79 L 983.45 385.91 L 746.60 323.56 L 959.60 417.29 L 997.15 484.95 L 922.48 454.52 Z" fill="url(#paint4_linear_91_436)" fill-rule="nonzero" node-id="324" stroke="none" target-height="222.68" target-width="330.87" target-x="702.5" target-y="303"></path><path d="M 1308.36 1810.97 L 2579.10 1760.74 L 3583.50 2116.59 L 1826.50 2409.59 L 1308.36 1810.97 Z" fill="url(#paint5_linear_91_436)" fill-opacity="0.3" fill-rule="nonzero" node-id="326" stroke="none" target-height="648.8501" target-width="2275.1401" target-x="1308.36" target-y="1760.74"></path><path d="M 2450.38 1815.54 L 1420.00 1815.54 L 1400.40 1814.16 L 1381.90 1810.45 L 1364.40 1804.36 L 1347.84 1796.04 L 1332.72 1785.90 L 1319.02 1773.87 L 1306.93 1760.17 L 1296.75 1745.14 L 1288.38 1728.63 L 1282.29 1711.17 L 1278.53 1692.77 L 1277.16 1673.22 L 1277.16 269.14 L 1278.53 249.59 L 1282.29 231.18 L 1288.38 213.77 L 1296.75 197.26 L 1306.93 182.19 L 1319.02 168.53 L 1332.72 156.50 L 1347.84 146.32 L 1364.40 138.04 L 1381.90 131.95 L 1400.40 128.19 L 1420.00 126.86 L 2450.38 126.86 L 2470.03 128.19 L 2488.48 131.95 L 2505.99 138.04 L 2522.59 146.32 L 2537.67 156.50 L 2551.42 168.53 L 2563.50 182.19 L 2573.68 197.26 L 2582.00 213.77 L 2588.09 231.18 L 2591.85 249.59 L 2593.23 269.14 L 2593.23 1673.22 L 2591.85 1692.77 L 2588.14 1711.17 L 2582.00 1728.63 L 2573.68 1745.14 L 2563.50 1760.17 L 2551.42 1773.87 L 2537.67 1785.90 L 2522.59 1796.04 L 2505.99 1804.36 L 2488.48 1810.45 L 2470.03 1814.16 L 2450.38 1815.54 Z" fill="url(#paint6_linear_91_436)" fill-rule="nonzero" node-id="328" stroke="none" target-height="1688.68" target-width="1316.07" target-x="1277.16" target-y="126.86"></path><path d="M 2387.50 1855.16 L 1403.64 1855.16 L 1384.09 1853.79 L 1365.68 1850.03 L 1348.22 1843.94 L 1331.72 1835.61 L 1316.68 1825.43 L 1302.98 1813.30 L 1290.95 1799.60 L 1280.82 1784.48 L 1272.49 1767.92 L 1266.40 1750.37 L 1262.69 1731.92 L 1261.31 1712.27 L 1261.31 325.22 L 1262.69 305.58 L 1266.40 287.12 L 1272.49 269.62 L 1280.82 253.01 L 1290.95 237.94 L 1302.98 224.19 L 1316.68 212.11 L 1331.72 201.93 L 1348.22 193.55 L 1365.68 187.47 L 1384.09 183.71 L 1403.64 182.33 L 2387.50 182.33 L 2407.05 183.71 L 2425.46 187.47 L 2442.87 193.55 L 2459.42 201.93 L 2474.45 212.11 L 2488.10 224.19 L 2500.19 237.94 L 2510.32 253.01 L 2518.64 269.62 L 2524.73 287.12 L 2528.44 305.58 L 2529.82 325.22 L 2529.82 1712.32 L 2528.44 1731.96 L 2524.73 1750.42 L 2518.64 1767.92 L 2510.32 1784.53 L 2500.19 1799.60 L 2488.10 1813.30 L 2474.45 1825.43 L 2459.42 1835.61 L 2442.87 1843.94 L 2425.46 1850.03 L 2407.05 1853.79 L 2387.50 1855.16 Z" fill="url(#paint7_linear_91_436)" fill-rule="nonzero" node-id="330" stroke="none" target-height="1672.8301" target-width="1268.51" target-x="1261.31" target-y="182.33"></path><path d="M 2374.89 1680.73 L 1432.09 1680.73 L 1424.19 1679.16 L 1417.86 1674.88 L 1413.53 1668.56 L 1411.96 1660.66 L 1411.96 313.43 L 1413.53 305.53 L 1417.86 299.21 L 1424.19 294.93 L 1432.09 293.36 L 2374.89 293.36 L 2382.79 294.93 L 2389.11 299.21 L 2393.44 305.53 L 2395.01 313.43 L 2395.01 1660.66 L 2393.39 1668.56 L 2389.11 1674.88 L 2382.79 1679.16 L 2374.89 1680.73 Z" fill="#e4efff" fill-rule="nonzero" node-id="332" stroke="none" target-height="1387.37" target-width="983.05005" target-x="1411.96" target-y="293.36"></path><path d="M 1853.78 1672.84 L 1793.65 1667.89 L 1750.65 1663.28 L 1695.23 1656.09 L 1636.39 1647.01 L 1568.70 1634.50 L 1522.89 1624.79 L 1474.71 1613.28 L 1424.19 1599.92 L 1374.15 1585.17 L 1323.34 1568.33 L 1271.78 1549.35 L 1221.02 1528.52 L 1170.98 1505.30 L 1121.65 1479.76 L 1085.50 1459.02 L 1050.49 1436.80 L 1016.67 1413.16 L 983.90 1388.05 L 979.66 1383.48 L 977.09 1378.53 L 976.00 1373.16 L 976.81 1365.02 L 980.38 1357.74 L 984.18 1353.84 L 988.94 1351.18 L 994.98 1349.71 L 1022.95 1346.04 L 1049.21 1340.67 L 1073.94 1333.68 L 1097.20 1325.07 L 1119.18 1314.89 L 1145.82 1299.71 L 1170.70 1282.44 L 1193.96 1263.08 L 1215.65 1241.49 L 1235.63 1218.32 L 1254.27 1193.49 L 1271.68 1166.85 L 1287.81 1138.31 L 1306.89 1099.16 L 1324.06 1057.78 L 1339.23 1014.11 L 1352.27 969.68 L 1363.63 924.21 L 1373.29 877.64 L 1384.95 807.33 L 1393.55 737.60 L 1399.60 668.34 L 1403.45 602.84 L 1405.64 539.00 L 1406.49 482.06 L 1406.16 384.07 L 1405.92 317.62 L 1406.78 310.91 L 1408.87 305.25 L 1412.11 300.39 L 1416.44 296.64 L 1421.72 294.26 L 1428.23 293.36 L 2365.47 293.36 L 2371.37 294.16 L 2376.36 296.31 L 2380.79 299.68 L 2384.17 304.11 L 2386.26 309.15 L 2387.12 315.05 L 2338.02 1207.19 L 2334.27 1216.75 L 2329.37 1225.60 L 1969.94 1627.89 L 1966.99 1629.79 L 1956.81 1634.59 L 1929.08 1646.06 L 1896.35 1658.71 L 1868.05 1668.84 L 1853.78 1672.84 Z" fill="#ffffff" fill-rule="evenodd" node-id="334" stroke="none" target-height="1379.48" target-width="1411.1201" target-x="976" target-y="293.36"></path><path d="M 1987.26 1363.26 L 2005.09 1364.07 L 2031.35 1363.83 L 2059.89 1361.74 L 2094.81 1356.46 L 2118.40 1351.23 L 2143.90 1343.76 L 2171.44 1333.82 L 2198.13 1321.97 L 2225.95 1306.99 L 2255.11 1288.44 L 2275.71 1273.31 L 2296.59 1255.80 L 2317.90 1235.78 L 2339.55 1212.99 L 2333.93 1236.21 L 2325.85 1261.70 L 2315.00 1289.67 L 2302.68 1316.93 L 2287.98 1345.38 L 2270.76 1375.06 L 2252.21 1403.88 L 2231.61 1432.76 L 2208.88 1461.77 L 2184.71 1489.60 L 2158.88 1516.43 L 2131.25 1542.31 L 2102.23 1566.57 L 2071.78 1588.88 L 2039.91 1609.28 L 2006.76 1627.36 L 1972.46 1642.68 L 1936.93 1655.28 L 1909.67 1662.66 L 1881.84 1668.03 L 1853.40 1671.41 L 1824.19 1672.84 L 1847.36 1659.56 L 1867.57 1645.86 L 1885.03 1631.78 L 1900.02 1617.28 L 1918.33 1595.82 L 1933.08 1574.23 L 1944.63 1552.49 L 1954.05 1529.65 L 1961.09 1507.39 L 1965.95 1485.70 L 1970.37 1453.21 L 1971.75 1424.20 L 1971.27 1396.70 L 1969.99 1375.25 L 1971.32 1370.02 L 1975.46 1366.11 L 1981.17 1363.83 L 1987.26 1363.26 Z" fill="url(#paint8_linear_91_436)" fill-rule="nonzero" node-id="336" stroke="none" target-height="459.84998" target-width="515.3601" target-x="1824.19" target-y="1212.99"></path><path d="M 1632.35 499.47 L 2238.04 499.47 L 2243.65 500.61 L 2248.12 503.65 L 2251.17 508.13 L 2252.31 513.74 L 2252.31 532.77 L 2251.17 538.38 L 2248.12 542.85 L 2243.65 545.90 L 2238.04 547.04 L 1632.35 547.04 L 1626.74 545.90 L 1622.26 542.85 L 1619.22 538.38 L 1618.08 532.77 L 1618.08 513.74 L 1619.22 508.13 L 1622.26 503.65 L 1626.74 500.61 L 1632.35 499.47 Z" fill="url(#paint9_linear_91_436)" fill-rule="nonzero" node-id="338" stroke="none" target-height="47.569977" target-width="634.2301" target-x="1618.08" target-y="499.47"></path><path d="M 1616.51 658.01 L 2222.20 658.01 L 2227.81 659.15 L 2232.28 662.20 L 2235.32 666.72 L 2236.47 672.28 L 2236.47 691.31 L 2235.32 696.92 L 2232.28 701.39 L 2227.81 704.44 L 2222.20 705.58 L 1616.51 705.58 L 1610.89 704.44 L 1606.42 701.39 L 1603.38 696.92 L 1602.24 691.31 L 1602.24 672.28 L 1603.38 666.72 L 1606.42 662.20 L 1610.89 659.15 L 1616.51 658.01 Z" fill="url(#paint10_linear_91_436)" fill-rule="nonzero" node-id="340" stroke="none" target-height="47.570007" target-width="634.23" target-x="1602.24" target-y="658.01"></path><path d="M 1600.62 816.61 L 1889.22 816.61 L 1894.83 817.75 L 1899.30 820.79 L 1902.35 825.26 L 1903.49 830.88 L 1903.49 849.90 L 1902.35 855.47 L 1899.30 859.99 L 1894.83 863.03 L 1889.22 864.17 L 1600.62 864.17 L 1595.05 863.03 L 1590.54 859.99 L 1587.49 855.47 L 1586.35 849.90 L 1586.35 830.88 L 1587.49 825.26 L 1590.54 820.79 L 1595.05 817.75 L 1600.62 816.61 Z" fill="url(#paint11_linear_91_436)" fill-rule="nonzero" node-id="342" stroke="none" target-height="47.559998" target-width="317.14" target-x="1586.35" target-y="816.61"></path><path d="M 1965.33 816.61 L 1984.35 816.61 L 1989.97 817.75 L 1994.44 820.79 L 1997.48 825.26 L 1998.62 830.88 L 1998.62 849.90 L 1997.48 855.47 L 1994.44 859.99 L 1989.97 863.03 L 1984.35 864.17 L 1965.33 864.17 L 1959.71 863.03 L 1955.24 859.99 L 1952.20 855.47 L 1951.06 849.90 L 1951.06 830.88 L 1952.20 825.26 L 1955.24 820.79 L 1959.71 817.75 L 1965.33 816.61 Z" fill="url(#paint12_linear_91_436)" fill-rule="nonzero" node-id="344" stroke="none" target-height="47.559998" target-width="47.559937" target-x="1951.06" target-y="816.61"></path><path d="M 1577.88 964.59 L 2183.19 985.76 L 2188.76 987.09 L 2193.13 990.28 L 2196.03 994.84 L 2196.98 1000.50 L 2196.32 1019.53 L 2194.99 1025.05 L 2191.75 1029.43 L 2187.19 1032.33 L 2181.53 1033.28 L 1576.22 1012.11 L 1570.65 1010.78 L 1566.28 1007.59 L 1563.37 1003.02 L 1562.42 997.36 L 1563.09 978.34 L 1564.42 972.82 L 1567.66 968.44 L 1572.22 965.54 L 1577.88 964.59 Z" fill="url(#paint13_linear_91_436)" fill-rule="nonzero" node-id="346" stroke="none" target-height="68.69" target-width="634.55994" target-x="1562.42" target-y="964.59"></path><path d="M 1531.69 1112.62 L 2135.91 1154.91 L 2141.42 1156.44 L 2145.71 1159.77 L 2148.42 1164.47 L 2149.13 1170.13 L 2147.80 1189.11 L 2146.28 1194.63 L 2142.95 1198.87 L 2138.24 1201.63 L 2132.58 1202.34 L 1528.36 1160.10 L 1522.85 1158.58 L 1518.56 1155.25 L 1515.85 1150.54 L 1515.14 1144.88 L 1516.47 1125.90 L 1517.99 1120.38 L 1521.32 1116.10 L 1526.03 1113.39 L 1531.69 1112.62 Z" fill="url(#paint14_linear_91_436)" fill-rule="nonzero" node-id="348" stroke="none" target-height="89.71997" target-width="633.98987" target-x="1515.14" target-y="1112.62"></path><path d="M 1478.13 1269.08 L 1764.54 1304.23 L 1769.96 1306.04 L 1774.05 1309.61 L 1776.53 1314.46 L 1776.96 1320.17 L 1774.67 1339.05 L 1772.82 1344.43 L 1769.30 1348.52 L 1764.45 1350.99 L 1758.74 1351.47 L 1472.33 1316.27 L 1466.91 1314.46 L 1462.81 1310.89 L 1460.34 1306.09 L 1459.91 1300.38 L 1462.20 1281.49 L 1464.00 1276.07 L 1467.57 1271.98 L 1472.42 1269.51 L 1478.13 1269.08 Z" fill="url(#paint15_linear_91_436)" fill-rule="nonzero" node-id="350" stroke="none" target-height="82.390015" target-width="317.04993" target-x="1459.91" target-y="1269.08"></path><path d="M 1840.08 1313.50 L 1858.96 1315.83 L 1864.39 1317.64 L 1868.48 1321.21 L 1870.95 1326.06 L 1871.38 1331.72 L 1869.10 1350.61 L 1867.29 1356.03 L 1863.72 1360.12 L 1858.87 1362.59 L 1853.16 1363.02 L 1834.28 1360.74 L 1828.85 1358.93 L 1824.76 1355.36 L 1822.34 1350.51 L 1821.86 1344.80 L 1824.19 1325.92 L 1826.00 1320.54 L 1829.57 1316.45 L 1834.42 1313.98 L 1840.08 1313.50 Z" fill="url(#paint16_linear_91_436)" fill-rule="nonzero" node-id="352" stroke="none" target-height="49.52002" target-width="49.52002" target-x="1821.86" target-y="1313.5"></path><path d="M 1713.21 182.33 L 2125.49 182.33 L 2125.49 325.03 L 1713.21 325.03 L 1713.21 182.33 Z" fill="url(#paint17_linear_91_436)" fill-rule="nonzero" node-id="354" stroke="none" target-height="142.7" target-width="412.28003" target-x="1713.21" target-y="182.33"></path><path d="M 1744.73 126.59 L 2157.00 126.59 L 2125.28 182.05 L 1713.00 182.05 L 1744.73 126.59 Z" fill="url(#paint18_linear_91_436)" fill-rule="nonzero" node-id="356" stroke="none" target-height="55.460007" target-width="444" target-x="1713" target-y="126.59"></path><path d="M 1927.27 0.00 L 1940.31 1.19 L 1952.25 4.47 L 1963.28 9.75 L 1973.32 16.84 L 1981.79 25.31 L 1988.87 35.34 L 1994.15 46.38 L 1997.44 58.32 L 1998.62 71.35 L 1997.44 84.39 L 1994.15 96.33 L 1988.87 107.36 L 1981.79 117.40 L 1973.32 125.87 L 1963.28 132.95 L 1952.25 138.23 L 1940.31 141.52 L 1927.27 142.71 L 1914.24 141.52 L 1902.30 138.23 L 1891.26 132.95 L 1881.23 125.87 L 1872.76 117.40 L 1865.67 107.36 L 1860.39 96.33 L 1857.11 84.39 L 1855.92 71.35 L 1857.11 58.32 L 1860.39 46.38 L 1865.67 35.34 L 1872.76 25.31 L 1881.23 16.84 L 1891.26 9.75 L 1902.30 4.47 L 1914.24 1.19 L 1927.27 0.00 Z M 1927.27 31.73 L 1916.66 33.16 L 1907.25 37.10 L 1899.25 43.33 L 1893.02 51.33 L 1889.07 60.74 L 1887.65 71.35 L 1889.07 81.96 L 1893.02 91.38 L 1899.25 99.37 L 1907.25 105.60 L 1916.66 109.55 L 1927.27 110.98 L 1937.88 109.55 L 1947.30 105.60 L 1955.29 99.37 L 1961.52 91.38 L 1965.47 81.96 L 1966.90 71.35 L 1965.47 60.74 L 1961.52 51.33 L 1955.29 43.33 L 1947.30 37.10 L 1937.88 33.16 L 1927.27 31.73 Z" fill="url(#paint19_linear_91_436)" fill-rule="nonzero" node-id="358" stroke="none" target-height="142.71" target-width="142.69995" target-x="1855.92" target-y="0"></path><path d="M 2520.00 1930.09 L 2521.03 1936.77 L 2523.94 1943.40 L 2529.04 1950.12 L 2536.85 1957.11 L 2548.33 1964.61 L 2563.42 1971.98 L 2582.75 1979.14 L 2602.51 1984.82 L 2625.10 1989.80 L 2650.91 1994.01 L 2676.75 1996.96 L 2704.53 1998.78 L 2734.32 1999.48 L 2764.11 1998.78 L 2791.89 1996.96 L 2817.73 1994.01 L 2843.54 1989.80 L 2866.13 1984.82 L 2885.89 1979.14 L 2905.22 1971.98 L 2920.31 1964.56 L 2931.79 1957.11 L 2939.59 1950.12 L 2944.70 1943.40 L 2947.61 1936.77 L 2948.64 1930.09 L 2947.61 1923.41 L 2944.70 1916.77 L 2939.59 1910.05 L 2931.79 1903.07 L 2920.31 1895.57 L 2905.22 1888.19 L 2885.89 1881.04 L 2866.13 1875.36 L 2843.54 1870.37 L 2817.73 1866.16 L 2791.89 1863.21 L 2764.11 1861.39 L 2734.32 1860.70 L 2704.53 1861.39 L 2676.75 1863.21 L 2650.91 1866.16 L 2625.10 1870.37 L 2602.51 1875.36 L 2582.75 1881.04 L 2563.42 1888.19 L 2548.33 1895.57 L 2536.85 1903.07 L 2529.04 1910.05 L 2523.94 1916.77 L 2521.03 1923.41 L 2520.00 1930.09 Z" fill="#84c1ff" fill-opacity="0.15" fill-rule="evenodd" node-id="360" stroke="none" target-height="138.78003" target-width="428.6399" target-x="2520" target-y="1860.7"></path><path d="M 2669.64 1077.00 L 2704.64 1077.00 L 2704.64 1134.00 L 2669.64 1134.00 L 2669.64 1077.00 Z" fill="url(#paint20_linear_91_436)" fill-rule="evenodd" node-id="362" stroke="none" target-height="57" target-width="35" target-x="2669.64" target-y="1077"></path><path d="M 2774.81 1880.44 L 2778.46 1903.74 L 2793.04 1905.33 L 2809.08 1909.46 L 2826.88 1916.51 L 2834.00 1921.67 L 2836.98 1925.02 L 2838.48 1928.68 L 2838.96 1932.80 L 2837.55 1934.14 L 2829.16 1935.47 L 2803.19 1935.68 L 2743.83 1932.80 L 2743.83 1871.89 L 2774.81 1880.44 Z" fill="url(#paint21_linear_91_436)" fill-rule="nonzero" node-id="364" stroke="none" target-height="63.79004" target-width="95.12988" target-x="2743.83" target-y="1871.89"></path><path d="M 2663.65 1880.44 L 2667.25 1903.74 L 2681.67 1905.33 L 2697.52 1909.46 L 2715.10 1916.51 L 2722.14 1921.67 L 2725.09 1925.02 L 2726.57 1928.68 L 2727.04 1932.80 L 2725.66 1934.14 L 2717.36 1935.47 L 2691.70 1935.68 L 2633.04 1932.80 L 2633.04 1871.89 L 2663.65 1880.44 Z" fill="url(#paint22_linear_91_436)" fill-rule="nonzero" node-id="366" stroke="none" target-height="63.79004" target-width="94" target-x="2633.04" target-y="1871.89"></path><path d="M 2759.71 1432.06 L 2799.79 1886.44 L 2728.29 1886.23 L 2658.78 1436.91 L 2759.71 1432.06 Z" fill="#153f82" fill-rule="nonzero" node-id="368" stroke="none" target-height="454.37988" target-width="141.01001" target-x="2658.78" target-y="1432.06"></path><path d="M 2752.79 1435.38 L 2689.17 1889.80 L 2614.57 1889.80 L 2614.01 1433.18 L 2752.79 1435.38 Z" fill="#153f82" fill-rule="nonzero" node-id="370" stroke="none" target-height="456.62" target-width="138.78003" target-x="2614.01" target-y="1433.18"></path><path d="M 2772.84 1300.87 L 2777.57 1312.74 L 2869.56 1230.72 L 2874.29 1222.42 L 2881.33 1215.28 L 2889.62 1211.71 L 2891.38 1212.23 L 2892.62 1213.00 L 2893.14 1214.08 L 2891.38 1217.91 L 2889.62 1220.01 L 2886.05 1224.79 L 2885.15 1226.55 L 2885.32 1226.98 L 2886.05 1227.15 L 2888.42 1227.15 L 2889.27 1226.16 L 2893.14 1221.22 L 2899.07 1211.71 L 2900.27 1210.21 L 2901.69 1209.39 L 2903.75 1209.35 L 2905.47 1211.24 L 2906.11 1212.87 L 2903.92 1224.40 L 2900.23 1235.50 L 2896.45 1243.41 L 2891.98 1250.94 L 2890.65 1253.13 L 2888.72 1254.94 L 2884.89 1256.87 L 2876.05 1260.83 L 2867.50 1265.39 L 2863.63 1267.58 L 2788.17 1353.17 L 2786.03 1355.58 L 2780.96 1360.09 L 2777.91 1361.94 L 2775.20 1362.67 L 2770.78 1362.11 L 2766.61 1360.39 L 2760.09 1355.71 L 2757.51 1353.17 L 2752.79 1308.01 L 2772.84 1300.87 Z" fill="#fecca9" fill-rule="nonzero" node-id="372" stroke="none" target-height="153.32007" target-width="153.32007" target-x="2752.79" target-y="1209.35"></path><path d="M 2714.22 1145.55 L 2775.94 1310.50 L 2850.80 1241.10 C 2852.57 1239.45 2855.38 1239.74 2856.78 1241.71 L 2872.90 1264.37 C 2873.99 1265.90 2873.87 1267.99 2872.59 1269.38 L 2787.51 1362.53 L 2781.25 1366.67 L 2775.94 1368.27 L 2771.23 1367.88 L 2766.70 1365.59 L 2762.17 1360.94 L 2757.51 1353.01 L 2749.61 1333.56 L 2731.61 1282.99 L 2696.83 1178.92 L 2714.22 1145.55 Z" fill="#429cfd" fill-rule="evenodd" node-id="374" stroke="none" target-height="222.71997" target-width="177.15991" target-x="2696.83" target-y="1145.55"></path><path d="M 2718.50 1132.52 C 2717.68 1129.08 2715.37 1126.18 2712.21 1124.59 L 2663.02 1099.94 C 2661.50 1099.18 2659.65 1099.83 2658.95 1101.37 L 2652.42 1115.62 L 2645.07 1134.66 L 2635.28 1165.05 L 2629.43 1186.88 L 2623.70 1213.06 L 2618.28 1244.18 L 2613.79 1279.60 L 2610.71 1313.82 L 2608.70 1347.05 L 2607.72 1375.50 L 2607.29 1419.60 L 2607.59 1436.45 L 2619.34 1436.54 L 2648.74 1436.75 L 2686.90 1437.05 L 2725.11 1437.36 L 2754.46 1437.57 L 2766.21 1437.66 L 2764.29 1421.58 L 2758.95 1378.51 L 2750.70 1316.05 L 2740.15 1241.78 L 2733.01 1199.95 L 2725.53 1163.20 L 2719.59 1137.06 L 2718.50 1132.52 Z" fill="#429cfd" fill-rule="evenodd" node-id="376" stroke="none" target-height="338.47998" target-width="158.91992" target-x="2607.29" target-y="1099.18"></path><path d="M 2681.72 1370.51 L 2704.08 1472.61 L 2706.09 1475.50 L 2709.95 1480.80 L 2714.79 1487.30 L 2714.79 1487.30 C 2716.03 1488.94 2715.82 1491.25 2714.30 1492.63 L 2696.21 1509.17 C 2692.60 1512.47 2686.81 1511.15 2684.99 1506.61 L 2677.01 1486.66 L 2647.58 1379.89 L 2681.72 1370.51 Z" fill="#fecca9" fill-rule="nonzero" node-id="378" stroke="none" target-height="141.95996" target-width="68.44995" target-x="2647.58" target-y="1370.51"></path><path d="M 2703.77 1162.34 L 2678.33 1300.66 L 2678.07 1304.11 L 2677.76 1312.32 L 2678.33 1322.12 L 2681.91 1339.57 L 2688.91 1368.85 L 2697.47 1403.26 L 2705.86 1436.08 L 2712.20 1460.65 L 2713.81 1466.81 C 2714.36 1468.91 2713.50 1471.12 2711.68 1472.29 L 2676.67 1494.75 C 2673.99 1496.47 2670.41 1495.28 2669.29 1492.30 L 2667.80 1488.33 L 2658.58 1463.59 L 2646.34 1430.68 L 2633.71 1396.35 L 2623.35 1367.42 L 2617.80 1350.71 L 2614.35 1335.29 L 2611.77 1319.70 L 2611.86 1312.71 L 2611.77 1298.24 L 2613.87 1279.15 L 2619.33 1247.54 L 2626.28 1212.39 L 2631.31 1190.41 L 2635.46 1174.48 L 2637.21 1168.30" fill="#429cfd" fill-rule="evenodd" node-id="380" stroke="none" target-height="334.13" target-width="102.59009" target-x="2611.77" target-y="1162.34"></path><path d="M 2913.35 1180.47 L 2910.12 1180.25 L 2907.69 1182.48 L 2875.65 1239.54 L 2874.77 1241.73 L 2875.19 1244.00 L 2876.70 1245.72 L 2878.84 1246.28 L 2880.93 1245.55 L 2882.36 1243.70 L 2914.39 1186.61 L 2915.06 1183.30 L 2913.35 1180.47 Z" fill="#0d0d0d" fill-rule="evenodd" node-id="382" stroke="none" target-height="66.03003" target-width="40.29004" target-x="2874.77" target-y="1180.25"></path><path d="M 2659.14 1043.50 C 2659.14 1074.15 2667.22 1099.00 2690.14 1099.00 C 2713.06 1099.00 2725.64 1074.15 2725.64 1043.50 C 2725.64 1012.85 2713.06 988.00 2690.14 988.00 C 2667.22 988.00 2659.14 1012.85 2659.14 1043.50 Z" fill="#ffe7ca" fill-rule="nonzero" node-id="384" stroke="none" target-height="111" target-width="66.5" target-x="2659.14" target-y="988"></path><path d="M 2704.67 983.30 L 2706.27 981.36 L 2708.25 979.98 L 2711.57 978.94 L 2715.44 979.05 L 2721.29 981.06 L 2726.21 984.60 L 2728.34 988.14 L 2729.01 992.05 L 2728.60 995.52 L 2727.22 1000.40 L 2727.29 1002.30 L 2728.15 1003.61 L 2729.60 1004.17 L 2732.10 1003.72 L 2735.15 1002.82 L 2739.03 1002.94 L 2742.68 1004.61 L 2746.56 1009.35 L 2747.64 1014.08 L 2746.71 1020.56 L 2743.95 1026.97 L 2739.63 1032.53 L 2735.97 1035.28 L 2731.95 1036.74 L 2727.33 1036.89 L 2717.53 1034.31 L 2710.63 1030.77 L 2704.90 1026.34 L 2700.80 1022.35 L 2694.57 1017.36 L 2691.00 1015.46 L 2688.09 1014.64 L 2685.67 1015.05 L 2684.32 1017.13 L 2683.28 1024.66 L 2682.35 1031.89 L 2681.46 1034.05 L 2680.41 1034.13 L 2679.44 1032.64 L 2678.66 1029.47 L 2676.65 1022.72 L 2674.64 1020.27 L 2671.39 1019.26 L 2668.08 1020.12 L 2666.18 1022.39 L 2665.43 1025.52 L 2665.73 1029.40 L 2667.07 1033.20 L 2669.27 1036.59 L 2671.06 1038.94 L 2670.57 1041.32 L 2669.64 1044.93 L 2667.15 1048.89 L 2663.75 1051.90 L 2662.56 1051.68 L 2660.74 1049.18 L 2658.87 1045.34 L 2656.75 1038.53 L 2655.67 1030.40 L 2656.30 1017.51 L 2656.52 1014.19 L 2656.00 1012.48 L 2652.91 1009.12 L 2650.86 1006.66 L 2649.11 1003.42 L 2648.62 999.81 L 2650.26 995.00 L 2653.47 991.09 L 2656.26 989.63 L 2662.93 989.41 L 2666.06 989.15 L 2667.18 988.37 L 2667.74 984.90 L 2669.05 979.94 L 2670.76 976.81 L 2673.37 973.87 L 2676.69 971.78 L 2681.19 971.00 L 2687.83 972.15 L 2692.15 974.50 L 2695.47 977.86 L 2697.67 981.32 L 2699.79 983.97 L 2701.50 984.64 L 2703.26 984.27 L 2704.67 983.30 Z" fill="#003a8c" fill-rule="nonzero" node-id="386" stroke="none" target-height="80.900024" target-width="99.019775" target-x="2648.62" target-y="971"></path></svg>