<?xml version="1.0" standalone="no"?><!DOCTYPE svg PUBLIC "-//W3C//DTD SVG 1.1//EN" "http://www.w3.org/Graphics/SVG/1.1/DTD/svg11.dtd"><svg height="3110" node-id="1" sillyvg="true" template-height="3110" template-width="4185" version="1.1" viewBox="0 0 4185 3110" width="4185" xmlns="http://www.w3.org/2000/svg" xmlns:xlink="http://www.w3.org/1999/xlink"><defs node-id="129"><linearGradient gradientUnits="userSpaceOnUse" id="paint0_linear_91_427" node-id="52" spreadMethod="pad" x1="404.332" x2="404.332" y1="879.469" y2="558.424"><stop offset="0" stop-color="#ffffff" stop-opacity="0.1"></stop><stop offset="1" stop-color="#d9e9ff"></stop></linearGradient><linearGradient gradientUnits="userSpaceOnUse" id="paint1_linear_91_427" node-id="55" spreadMethod="pad" x1="2695.14" x2="2695.14" y1="395.731" y2="119.967"><stop offset="0" stop-color="#ffffff" stop-opacity="0.1"></stop><stop offset="0.14" stop-color="#f8fbff" stop-opacity="0.27"></stop><stop offset="0.37" stop-color="#edf5ff" stop-opacity="0.52"></stop><stop offset="0.58" stop-color="#e4f0ff" stop-opacity="0.73"></stop><stop offset="0.76" stop-color="#deecff" stop-opacity="0.88"></stop><stop offset="0.91" stop-color="#daeaff" stop-opacity="0.97"></stop><stop offset="1" stop-color="#d9e9ff"></stop></linearGradient><linearGradient gradientUnits="userSpaceOnUse" id="paint2_linear_91_427" node-id="63" spreadMethod="pad" x1="3374.86" x2="3374.86" y1="607.017" y2="-0.492787"><stop offset="0" stop-color="#ffffff" stop-opacity="0.1"></stop><stop offset="0.09" stop-color="#fefeff" stop-opacity="0.13"></stop><stop offset="0.23" stop-color="#fbfcff" stop-opacity="0.21"></stop><stop offset="0.4" stop-color="#f5f9ff" stop-opacity="0.33"></stop><stop offset="0.59" stop-color="#eef5ff" stop-opacity="0.51"></stop><stop offset="0.79" stop-color="#e4efff" stop-opacity="0.74"></stop><stop offset="1" stop-color="#d9e9ff"></stop></linearGradient><linearGradient gradientUnits="userSpaceOnUse" id="paint3_linear_91_427" node-id="71" spreadMethod="pad" x1="1908" x2="1908" y1="2779.63" y2="1572.22"><stop offset="0" stop-color="#ffffff" stop-opacity="0.1"></stop><stop offset="0.13" stop-color="#fbfdff" stop-opacity="0.19"></stop><stop offset="0.41" stop-color="#f1f7ff" stop-opacity="0.43"></stop><stop offset="0.81" stop-color="#e1eeff" stop-opacity="0.82"></stop><stop offset="1" stop-color="#d9e9ff"></stop></linearGradient><linearGradient gradientUnits="userSpaceOnUse" id="paint4_linear_91_427" node-id="77" spreadMethod="pad" x1="2548.69" x2="2487.19" y1="2592.2" y2="2309.67"><stop offset="0" stop-color="#ffffff" stop-opacity="0"></stop><stop offset="1" stop-color="#c1ddfd"></stop></linearGradient><linearGradient gradientUnits="userSpaceOnUse" id="paint5_linear_91_427" node-id="80" spreadMethod="pad" x1="2962.62" x2="2527.68" y1="904.297" y2="693.649"><stop offset="0" stop-color="#3497fc"></stop><stop offset="1" stop-color="#bcdcfd"></stop></linearGradient><linearGradient gradientUnits="userSpaceOnUse" id="paint6_linear_91_427" node-id="83" spreadMethod="pad" x1="2515.42" x2="2080.39" y1="808.2" y2="597.537"><stop offset="0" stop-color="#3497fc"></stop><stop offset="1" stop-color="#beddfd"></stop></linearGradient><linearGradient gradientUnits="userSpaceOnUse" id="paint7_linear_91_427" node-id="86" spreadMethod="pad" x1="2174" x2="1608.8" y1="1159" y2="887.146"><stop offset="0" stop-color="#3497fc"></stop><stop offset="1" stop-color="#bddcfc"></stop></linearGradient><linearGradient gradientUnits="userSpaceOnUse" id="paint8_linear_91_427" node-id="89" spreadMethod="pad" x1="2577.64" x2="1828.59" y1="1947.09" y2="972.799"><stop offset="0" stop-color="#3497fc"></stop><stop offset="1" stop-color="#c4e0fc"></stop></linearGradient><linearGradient gradientUnits="userSpaceOnUse" id="paint9_linear_91_427" node-id="92" spreadMethod="pad" x1="1419" x2="938.76" y1="1771.5" y2="1179.15"><stop offset="0" stop-color="#3497fc"></stop><stop offset="1" stop-color="#dfeeff"></stop></linearGradient><linearGradient gradientUnits="userSpaceOnUse" id="paint10_linear_91_427" node-id="95" spreadMethod="pad" x1="2431.5" x2="1828.57" y1="1535" y2="921.665"><stop offset="0" stop-color="#3497fc"></stop><stop offset="1" stop-color="#c0ddfc"></stop></linearGradient><linearGradient gradientUnits="userSpaceOnUse" id="paint11_linear_91_427" node-id="98" spreadMethod="pad" x1="1747.01" x2="1325.88" y1="460.434" y2="801.354"><stop offset="0" stop-color="#5792f0"></stop><stop offset="1" stop-color="#bfd4fa" stop-opacity="0.5"></stop></linearGradient><linearGradient gradientUnits="userSpaceOnUse" id="paint12_linear_91_427" node-id="101" spreadMethod="pad" x1="1313.63" x2="1029.12" y1="970.112" y2="825.02"><stop offset="0" stop-color="#3497fc"></stop><stop offset="1" stop-color="#c0ddfc"></stop></linearGradient><linearGradient gradientUnits="userSpaceOnUse" id="paint13_linear_91_427" node-id="104" spreadMethod="pad" x1="1263.36" x2="1150.41" y1="874.843" y2="907.58"><stop offset="0" stop-color="#5792f0"></stop><stop offset="1" stop-color="#bfd4fa" stop-opacity="0.5"></stop></linearGradient><linearGradient gradientUnits="userSpaceOnUse" id="paint14_linear_91_427" node-id="107" spreadMethod="pad" x1="2933.67" x2="2648.58" y1="604.088" y2="446.069"><stop offset="0" stop-color="#3497fc"></stop><stop offset="1" stop-color="#c0ddfc"></stop></linearGradient><linearGradient gradientUnits="userSpaceOnUse" id="paint15_linear_91_427" node-id="110" spreadMethod="pad" x1="2882.53" x2="2766.51" y1="516.501" y2="555.376"><stop offset="0" stop-color="#5792f0"></stop><stop offset="1" stop-color="#bfd4fa" stop-opacity="0.5"></stop></linearGradient><linearGradient gradientUnits="userSpaceOnUse" id="paint16_linear_91_427" node-id="113" spreadMethod="pad" x1="2888.56" x2="2681.73" y1="357.643" y2="389.345"><stop offset="0" stop-color="#5792f0"></stop><stop offset="1" stop-color="#bfd4fa" stop-opacity="0.5"></stop></linearGradient><linearGradient gradientUnits="userSpaceOnUse" id="paint17_linear_91_427" node-id="116" spreadMethod="pad" x1="2555.57" x2="2555.57" y1="1556.37" y2="1636.12"><stop offset="0" stop-color="#ffcda5"></stop><stop offset="1" stop-color="#ffe8d1"></stop></linearGradient><linearGradient gradientUnits="userSpaceOnUse" id="paint18_linear_91_427" node-id="119" spreadMethod="pad" x1="2552.5" x2="2552.5" y1="1418" y2="1586"><stop offset="0" stop-color="#fff2df"></stop><stop offset="1" stop-color="#fee0bc"></stop></linearGradient><linearGradient gradientUnits="userSpaceOnUse" id="paint19_linear_91_427" node-id="122" spreadMethod="pad" x1="2530.2" x2="2474.21" y1="2306.84" y2="2365.86"><stop offset="0" stop-color="#003a8c"></stop><stop offset="1" stop-color="#5792f0"></stop></linearGradient><linearGradient gradientUnits="userSpaceOnUse" id="paint20_linear_91_427" node-id="125" spreadMethod="pad" x1="2689.34" x2="2633.35" y1="2306.84" y2="2365.86"><stop offset="0" stop-color="#003a8c"></stop><stop offset="1" stop-color="#5792f0"></stop></linearGradient></defs><path d="M 750.42 1624.39 L 767.67 1803.27 L 659.60 1791.38 L 750.42 1624.39 Z" fill="#e4efff" fill-rule="nonzero" node-id="284" stroke="none" target-height="178.88" target-width="108.07001" target-x="659.6" target-y="1624.39"></path><path d="M 745.31 1624.39 L 857.11 1765.59 L 762.27 1803.27 L 745.31 1624.39 Z" fill="#f3f8ff" fill-rule="nonzero" node-id="286" stroke="none" target-height="178.88" target-width="111.79999" target-x="745.31" target-y="1624.39"></path><path d="M 373.92 1669.11 L 395.02 1896.43 L 264.59 1881.27 L 373.92 1669.11 Z" fill="#e4efff" fill-rule="nonzero" node-id="288" stroke="none" target-height="227.32007" target-width="130.43" target-x="264.59" target-y="1669.11"></path><path d="M 376.38 1669.11 L 514.27 1848.77 L 397.51 1896.43 L 376.38 1669.11 Z" fill="#f3f8ff" fill-rule="nonzero" node-id="290" stroke="none" target-height="227.32007" target-width="137.89001" target-x="376.38" target-y="1669.11"></path><path d="M 553.32 1512.60 L 588.80 1888.98 L 350.30 1865.54 L 553.32 1512.60 Z" fill="#e4efff" fill-rule="nonzero" node-id="292" stroke="none" target-height="376.38" target-width="238.5" target-x="350.3" target-y="1512.6"></path><path d="M 547.80 1512.60 L 797.48 1808.37 L 583.32 1888.98 L 547.80 1512.60 Z" fill="#f3f8ff" fill-rule="nonzero" node-id="294" stroke="none" target-height="376.38" target-width="249.68" target-x="547.8" target-y="1512.6"></path><path d="M 623.19 685.41 C 609.26 610.81 544.12 557.26 468.99 558.63 C 428.78 558.45 389.99 573.50 360.28 600.89 C 343.66 593.29 325.63 589.38 307.37 589.38 C 249.53 588.45 198.89 628.40 185.81 685.30 C 141.35 695.21 109.30 734.42 108.07 780.37 C 109.78 836.30 155.84 880.35 211.22 879.04 L 597.44 879.04 C 652.86 880.42 698.95 836.34 700.59 780.37 C 699.40 734.53 667.50 695.40 623.19 685.41 Z" fill="url(#paint0_linear_91_427)" fill-rule="nonzero" node-id="296" stroke="none" target-height="323.15997" target-width="592.52" target-x="108.07" target-y="557.26"></path><path d="M 2883.65 224.68 C 2863.60 193.19 2829.65 173.67 2792.72 172.32 C 2771.22 139.05 2734.36 119.30 2695.12 119.97 C 2663.70 119.67 2633.44 132.19 2611.20 154.77 C 2601.02 151.49 2590.40 149.78 2579.74 149.78 C 2530.33 149.78 2489.52 184.44 2485.31 228.30 C 2447.64 237.39 2420.51 270.74 2418.91 309.98 C 2418.91 357.24 2461.61 395.73 2513.34 395.73 L 2876.01 395.73 C 2928.48 395.73 2970.44 357.24 2970.44 309.98 C 2971.26 265.08 2932.46 228.19 2883.65 224.68 Z" fill="url(#paint1_linear_91_427)" fill-rule="nonzero" node-id="298" stroke="none" target-height="276.43" target-width="552.3501" target-x="2418.91" target-y="119.3"></path><path d="M 3731.15 192.82 C 3695.75 119.89 3621.85 73.45 3540.69 73.19 C 3495.48 73.31 3451.51 87.95 3415.29 114.97 C 3372.21 30.97 3278.60 -14.27 3185.96 4.03 C 3093.28 22.36 3024.00 99.84 3016.17 193.86 C 2916.49 225.31 2854.63 324.62 2870.47 427.85 C 2886.34 531.08 2975.14 607.32 3079.67 607.43 L 3669.40 607.43 C 3774.53 607.62 3863.93 530.74 3879.32 426.88 C 3894.75 322.99 3831.51 223.52 3730.85 193.23 L 3731.15 192.82 Z" fill="url(#paint2_linear_91_427)" fill-rule="nonzero" node-id="300" stroke="none" target-height="621.89" target-width="1040.1201" target-x="2854.63" target-y="-14.27"></path><path d="M 3816.00 2175.93 C 3816.00 2336.06 3614.99 2489.59 3257.16 2602.80 C 2899.34 2716.02 2414.03 2779.63 1908.00 2779.63 C 1401.97 2779.63 916.66 2716.02 558.84 2602.80 C 201.01 2489.59 0.00 2336.06 0.00 2175.93 C 0.00 2015.80 201.01 1862.26 558.84 1749.05 C 916.66 1635.84 1401.97 1572.22 1908.00 1572.22 C 2414.03 1572.22 2899.34 1635.84 3257.16 1749.05 C 3614.99 1862.26 3816.00 2015.80 3816.00 2175.93 Z" fill="url(#paint3_linear_91_427)" fill-rule="nonzero" node-id="302" stroke="none" target-height="1207.4099" target-width="3816" target-x="0" target-y="1572.22"></path><path d="M 3376.27 1669.11 L 3358.12 1907.61 L 3223.48 1868.56 L 3376.27 1669.11 Z" fill="#e4efff" fill-rule="nonzero" node-id="304" stroke="none" target-height="238.5" target-width="152.79004" target-x="3223.48" target-y="1669.11"></path><path d="M 3371.98 1669.11 L 3484.34 1879.25 L 3353.91 1907.61 L 3371.98 1669.11 Z" fill="#f3f8ff" fill-rule="nonzero" node-id="306" stroke="none" target-height="238.5" target-width="130.43018" target-x="3353.91" target-y="1669.11"></path><path d="M 1588.46 2222.44 L 3107.24 3110.00 L 4184.84 2541.95 L 2555.61 1981.84 L 1588.46 2222.44 Z" fill="url(#paint4_linear_91_427)" fill-opacity="0.385356" fill-rule="nonzero" node-id="308" stroke="none" target-height="1128.16" target-width="2596.38" target-x="1588.46" target-y="1981.84"></path><path d="M 1987.84 1909.73 L 1986.35 1923.15 L 1982.81 1935.39 L 1977.14 1946.69 L 1969.68 1956.87 L 1960.77 1965.49 L 1950.28 1972.60 L 1938.81 1977.85 L 1926.45 1981.00 L 1912.98 1982.03 L 1899.59 1980.53 L 1887.36 1976.95 L 1876.02 1971.33 L 1865.83 1963.82 L 1857.22 1954.91 L 1850.10 1944.47 L 1844.86 1932.96 L 1841.70 1920.60 L 1840.72 1907.17 L 1842.17 1893.74 L 1845.75 1881.50 L 1851.38 1870.21 L 1858.88 1860.02 L 1867.79 1851.41 L 1878.24 1844.29 L 1889.75 1839.04 L 1902.11 1835.89 L 1915.58 1834.87 L 1928.97 1836.36 L 1941.20 1839.94 L 1952.54 1845.57 L 1962.73 1853.07 L 1971.34 1861.98 L 1978.46 1872.42 L 1983.70 1883.93 L 1986.81 1896.30 L 1987.84 1909.73 Z" fill="#3d78d2" fill-rule="nonzero" node-id="310" stroke="none" target-height="147.16003" target-width="147.12" target-x="1840.72" target-y="1834.87"></path><path d="M 1161.12 2049.85 L 1159.67 2063.27 L 1156.09 2075.51 L 1150.46 2086.81 L 1142.96 2097.00 L 1134.05 2105.61 L 1123.60 2112.73 L 1112.09 2117.97 L 1099.73 2121.12 L 1086.26 2122.15 L 1072.87 2120.65 L 1060.64 2117.07 L 1049.34 2111.45 L 1039.11 2103.94 L 1030.50 2095.03 L 1023.38 2084.59 L 1018.14 2073.08 L 1015.02 2060.72 L 1014.00 2047.29 L 1015.49 2033.86 L 1019.03 2021.63 L 1024.70 2010.33 L 1032.16 2000.14 L 1041.07 1991.53 L 1051.56 1984.37 L 1063.02 1979.17 L 1075.39 1976.01 L 1088.86 1974.99 L 1102.24 1976.48 L 1114.52 1980.06 L 1125.82 1985.69 L 1136.01 1993.19 L 1144.62 2002.10 L 1151.74 2012.55 L 1156.98 2024.01 L 1160.14 2036.42 L 1161.12 2049.85 Z" fill="#3d78d2" fill-rule="nonzero" node-id="312" stroke="none" target-height="147.15991" target-width="147.12" target-x="1014" target-y="1974.99"></path><path d="M 1437.14 1939.98 L 1928.28 2022.52 L 1999.90 2004.74 L 1510.51 1923.19 L 1437.14 1939.98 Z" fill="#59aafc" fill-rule="nonzero" node-id="314" stroke="none" target-height="99.33008" target-width="562.76" target-x="1437.14" target-y="1923.19"></path><path d="M 1702.90 1893.09 L 2194.04 1975.62 L 2265.66 1957.84 L 1776.27 1876.29 L 1702.90 1893.09 Z" fill="#59aafc" fill-rule="nonzero" node-id="316" stroke="none" target-height="99.329956" target-width="562.7599" target-x="1702.9" target-y="1876.29"></path><path d="M 1156.68 1986.58 L 1647.44 2091.19 L 1719.01 2073.41 L 1230.01 1969.78 L 1156.68 1986.58 Z" fill="#59aafc" fill-rule="nonzero" node-id="318" stroke="none" target-height="121.40991" target-width="562.32996" target-x="1156.68" target-y="1969.78"></path><path d="M 1968.06 1856.86 L 2448.54 1906.39 L 2436.52 1873.40 L 1958.93 1821.52 L 1968.06 1856.86 Z" fill="#59aafc" fill-rule="nonzero" node-id="320" stroke="none" target-height="84.869995" target-width="489.61" target-x="1958.93" target-y="1821.52"></path><path d="M 1566.44 1629.68 L 1449.85 1908.22 L 1485.10 1902.47 L 1600.55 1626.27 L 1566.44 1629.68 Z" fill="#59aafc" fill-rule="nonzero" node-id="322" stroke="none" target-height="281.94995" target-width="150.70007" target-x="1449.85" target-y="1626.27"></path><path d="M 2084.18 1587.86 L 1957.95 2017.66 L 1992.53 2009.98 L 2116.41 1586.67 L 2084.18 1587.86 Z" fill="#59aafc" fill-rule="nonzero" node-id="324" stroke="none" target-height="430.99" target-width="158.45996" target-x="1957.95" target-y="1586.67"></path><path d="M 1871.37 1605.26 L 1924.40 1826.13 L 1076.96 1975.76 L 1113.03 2001.72 L 1968.02 1856.82 L 1904.92 1599.72 L 1871.37 1605.26 Z" fill="#59aafc" fill-rule="nonzero" node-id="326" stroke="none" target-height="402" target-width="891.06006" target-x="1076.96" target-y="1599.72"></path><path d="M 2307.95 1566.25 L 2441.68 1899.79 L 1478.24 2122.74 L 1533.57 2146.44 L 2498.37 1927.11 L 2349.81 1560.66 L 2307.95 1566.25 Z" fill="#59aafc" fill-rule="nonzero" node-id="328" stroke="none" target-height="585.7799" target-width="1020.1301" target-x="1478.24" target-y="1560.66"></path><path d="M 1563.33 2196.70 L 1561.88 2210.08 L 1558.30 2222.36 L 1552.67 2233.66 L 1545.17 2243.85 L 1536.26 2252.46 L 1525.81 2259.58 L 1514.30 2264.82 L 1501.94 2267.98 L 1488.47 2269.00 L 1475.09 2267.51 L 1462.85 2263.93 L 1451.51 2258.30 L 1441.32 2250.80 L 1432.71 2241.89 L 1425.59 2231.44 L 1420.35 2219.93 L 1417.24 2207.57 L 1416.21 2194.14 L 1417.71 2180.71 L 1421.24 2168.48 L 1426.91 2157.18 L 1434.37 2146.95 L 1443.28 2138.38 L 1453.77 2131.22 L 1465.24 2125.98 L 1477.60 2122.86 L 1491.07 2121.84 L 1504.46 2123.33 L 1516.73 2126.87 L 1528.03 2132.54 L 1538.22 2140.00 L 1546.83 2148.91 L 1553.95 2159.40 L 1559.19 2170.86 L 1562.35 2183.23 L 1563.33 2196.70 Z" fill="#3d78d2" fill-rule="nonzero" node-id="330" stroke="none" target-height="147.15991" target-width="147.12" target-x="1416.21" target-y="2121.84"></path><path d="M 2514.27 1974.64 L 2512.78 1988.07 L 2509.20 2000.30 L 2503.57 2011.60 L 2496.07 2021.79 L 2487.16 2030.40 L 2476.72 2037.52 L 2465.21 2042.76 L 2452.85 2045.92 L 2439.42 2046.94 L 2425.99 2045.45 L 2413.75 2041.87 L 2402.46 2036.24 L 2392.23 2028.74 L 2383.66 2019.83 L 2376.49 2009.38 L 2371.25 1997.87 L 2368.14 1985.51 L 2367.12 1972.08 L 2368.61 1958.65 L 2372.15 1946.42 L 2377.82 1935.12 L 2385.28 1924.93 L 2394.19 1916.32 L 2404.67 1909.16 L 2416.14 1903.96 L 2428.50 1900.80 L 2441.97 1899.78 L 2455.36 1901.27 L 2467.64 1904.85 L 2478.93 1910.48 L 2489.12 1917.98 L 2497.73 1926.89 L 2504.85 1937.34 L 2510.10 1948.81 L 2513.25 1961.21 L 2514.27 1974.64 Z" fill="#3d78d2" fill-rule="nonzero" node-id="332" stroke="none" target-height="147.15991" target-width="147.1499" target-x="2367.12" target-y="1899.78"></path><path d="M 2561.30 931.79 L 2619.44 857.83 L 2754.84 840.05 L 2764.68 829.90 L 2769.80 821.59 L 2771.55 814.51 L 2770.69 808.20 L 2767.20 802.11 L 2760.29 795.97 L 2748.61 789.70 L 2590.24 810.72 L 2507.16 917.63 L 2561.30 931.79 Z" fill="url(#paint5_linear_91_427)" fill-rule="nonzero" node-id="334" stroke="none" target-height="142.08997" target-width="264.39014" target-x="2507.16" target-y="789.7"></path><path d="M 2114.07 835.70 L 2172.17 761.70 L 2307.61 743.92 L 2317.41 733.82 L 2322.53 725.46 L 2324.32 718.38 L 2323.46 712.07 L 2319.93 705.98 L 2313.02 699.84 L 2301.38 693.57 L 2142.97 714.59 L 2059.88 821.55 L 2114.07 835.70 Z" fill="url(#paint6_linear_91_427)" fill-rule="nonzero" node-id="336" stroke="none" target-height="142.13" target-width="264.4402" target-x="2059.88" target-y="693.57"></path><path d="M 1042.22 1095.23 L 2067.30 805.95 L 2057.28 1362.05 L 1112.94 1513.05 L 1042.22 1095.23 Z" fill="url(#paint7_linear_91_427)" fill-rule="nonzero" node-id="338" stroke="none" target-height="707.10004" target-width="1025.0801" target-x="1042.22" target-y="805.95"></path><path d="M 2067.34 805.95 L 2056.00 1364.82 L 2325.81 1566.59 L 2561.94 929.23 L 2067.34 805.95 Z" fill="url(#paint8_linear_91_427)" fill-rule="nonzero" node-id="340" stroke="none" target-height="760.63995" target-width="505.93994" target-x="2056" target-y="805.95"></path><path d="M 1042.31 1089.95 L 1081.18 1529.38 L 1410.42 1645.59 L 1418.64 1172.18 L 1042.31 1089.95 Z" fill="url(#paint9_linear_91_427)" fill-rule="nonzero" node-id="342" stroke="none" target-height="555.64" target-width="376.32996" target-x="1042.31" target-y="1089.95"></path><path d="M 1418.64 1172.17 L 2561.94 929.23 L 2376.88 1567.48 L 1410.42 1645.58 L 1418.64 1172.17 Z" fill="url(#paint10_linear_91_427)" fill-rule="nonzero" node-id="344" stroke="none" target-height="716.35" target-width="1151.5199" target-x="1410.42" target-y="929.23"></path><path d="M 1830.15 360.81 L 1768.89 392.18 L 1710.53 419.29 L 1654.94 442.48 L 1601.99 461.92 L 1551.52 477.87 L 1503.35 490.53 L 1457.39 500.08 L 1413.44 506.77 L 1371.41 510.69 L 1331.17 512.01 L 1292.54 510.82 L 1255.46 507.24 L 1236.14 503.19 L 1219.18 497.73 L 1204.26 491.04 L 1191.17 483.11 L 1178.85 473.48 L 1168.49 463.24 L 1159.92 452.42 L 1153.06 440.86 L 1147.60 428.42 L 1143.94 416.01 L 1141.97 403.52 L 1141.68 390.86 L 1143.13 378.28 L 1146.24 366.22 L 1151.06 354.62 L 1157.75 343.37 L 1165.81 333.31 L 1175.70 324.23 L 1187.59 316.04 L 1201.78 308.75 L 1221.95 301.29 L 1241.13 296.13 L 1259.38 293.07 L 1276.81 292.00 L 1293.65 292.81 L 1310.58 295.50 L 1326.61 300.01 L 1341.82 306.32 L 1356.32 314.47 L 1370.26 324.48 L 1382.75 335.82 L 1394.43 348.83 L 1405.26 363.75 L 1415.28 380.63 L 1424.44 399.73 L 1433.31 424.24 L 1439.96 450.29 L 1444.26 477.99 L 1446.14 506.00 L 1445.71 534.52 L 1442.90 563.55 L 1437.78 592.24 L 1430.32 620.29 L 1420.52 647.75 L 1411.57 667.74 L 1401.38 686.75 L 1389.91 704.78 L 1377.16 721.97" fill="none" node-id="346" stroke="url(#paint11_linear_91_427)" stroke-linecap="butt" stroke-width="1" target-height="429.96997" target-width="688.47" target-x="1141.68" target-y="292"></path><path d="M 1234.44 870.11 L 1219.99 860.18 L 1206.43 853.62 L 1193.60 849.95 L 1181.19 848.88 L 1169.05 850.25 L 1156.81 854.17 L 1144.41 860.86 L 1131.57 870.75 L 1118.19 884.39 L 1104.21 902.55 L 1096.92 915.22 L 1090.27 928.60 L 1076.92 954.95 L 1069.08 966.92 L 1059.91 977.11 L 1052.84 982.74 L 1044.61 987.22 L 1034.93 990.59 L 1072.15 992.72 L 1103.86 992.16 L 1130.68 989.31 L 1153.31 984.49 L 1172.29 978.01 L 1188.14 970.04 L 1201.27 960.70 L 1212.02 950.04 L 1220.63 937.89 L 1227.23 924.12 L 1231.88 908.48 L 1234.35 890.58 L 1234.44 870.11 Z" fill="url(#paint12_linear_91_427)" fill-rule="nonzero" node-id="348" stroke="none" target-height="143.83997" target-width="199.50989" target-x="1034.93" target-y="848.88"></path><path d="M 1280.74 822.36 L 1277.24 831.74 L 1270.25 842.82 L 1258.70 855.99 L 1241.26 871.77 L 1216.32 890.52 L 1182.18 912.82 L 1136.86 939.08" fill="none" node-id="350" stroke="url(#paint13_linear_91_427)" stroke-linecap="butt" stroke-width="1" target-height="116.72003" target-width="143.88" target-x="1136.86" target-y="822.36"></path><path d="M 2851.35 513.04 L 2837.62 502.12 L 2824.58 494.62 L 2812.00 490.10 L 2799.73 488.14 L 2787.49 488.69 L 2775.04 491.72 L 2762.17 497.52 L 2748.70 506.51 L 2734.37 519.22 L 2719.15 536.36 L 2711.01 548.42 L 2703.42 561.34 L 2688.29 586.70 L 2679.64 598.08 L 2669.79 607.63 L 2662.37 612.75 L 2653.80 616.63 L 2643.96 619.31 L 2680.92 624.04 L 2712.55 625.71 L 2739.53 624.73 L 2762.47 621.49 L 2781.86 616.37 L 2798.19 609.51 L 2811.92 601.11 L 2823.43 591.22 L 2832.85 579.71 L 2840.44 566.45 L 2846.11 551.15 L 2849.82 533.50 L 2851.35 513.04 Z" fill="url(#paint14_linear_91_427)" fill-rule="nonzero" node-id="352" stroke="none" target-height="137.57" target-width="207.39014" target-x="2643.96" target-y="488.14"></path><path d="M 2900.84 468.66 L 2896.71 477.78 L 2888.99 488.31 L 2876.54 500.67 L 2858.04 515.21 L 2831.87 532.17 L 2796.23 552.00 L 2749.21 575.06" fill="none" node-id="354" stroke="url(#paint15_linear_91_427)" stroke-linecap="butt" stroke-width="1" target-height="106.399994" target-width="151.63013" target-x="2749.21" target-y="468.66"></path><path d="M 2920.07 293.11 L 2872.96 326.10 L 2829.57 353.69 L 2789.66 376.32 L 2752.92 394.52 L 2719.07 408.72 L 2687.91 419.33 L 2659.17 426.67" fill="none" node-id="356" stroke="url(#paint16_linear_91_427)" stroke-linecap="butt" stroke-width="1" target-height="133.56003" target-width="260.90015" target-x="2659.17" target-y="293.11"></path><path d="M 2787.43 2356.31 L 2786.41 2362.79 L 2783.59 2369.18 L 2778.61 2375.66 L 2770.97 2382.40 L 2759.72 2389.64 L 2745.01 2396.76 L 2726.09 2403.67 L 2706.82 2409.17 L 2684.73 2413.99 L 2659.54 2418.04 L 2634.30 2420.89 L 2607.15 2422.64 L 2578.07 2423.32 L 2548.96 2422.64 L 2521.85 2420.89 L 2496.57 2418.04 L 2471.37 2413.99 L 2449.29 2409.17 L 2430.02 2403.67 L 2411.14 2396.76 L 2396.39 2389.64 L 2385.17 2382.40 L 2377.54 2375.66 L 2372.56 2369.18 L 2369.70 2362.79 L 2368.72 2356.31 L 2369.70 2349.87 L 2372.56 2343.48 L 2377.54 2336.95 L 2385.17 2330.26 L 2396.39 2323.01 L 2411.14 2315.89 L 2430.02 2308.95 L 2449.29 2303.49 L 2471.37 2298.67 L 2496.57 2294.58 L 2521.85 2291.77 L 2548.96 2289.98 L 2578.07 2289.34 L 2607.15 2289.98 L 2634.30 2291.77 L 2659.54 2294.58 L 2684.73 2298.67 L 2706.82 2303.49 L 2726.09 2308.95 L 2745.01 2315.89 L 2759.72 2323.01 L 2770.97 2330.26 L 2778.61 2336.95 L 2783.59 2343.48 L 2786.41 2349.87 L 2787.43 2356.31 Z" fill="#84c1ff" fill-opacity="0.15" fill-rule="evenodd" node-id="358" stroke="none" target-height="133.97998" target-width="418.70996" target-x="2368.72" target-y="2289.34"></path><path d="M 2522.06 1569.10 L 2589.07 1569.10 L 2589.07 1636.12 L 2522.06 1636.12 L 2522.06 1569.10 Z" fill="url(#paint17_linear_91_427)" fill-rule="evenodd" node-id="360" stroke="none" target-height="67.02002" target-width="67.01001" target-x="2522.06" target-y="1569.1"></path><path d="M 2623.51 1519.39 L 2619.41 1526.77 L 2614.55 1531.76 L 2610.76 1533.93 L 2607.31 1534.61 L 2604.02 1534.10 L 2601.30 1532.18 L 2599.33 1529.28 L 2598.10 1525.06 L 2598.06 1518.16 L 2600.23 1509.97 L 2604.32 1502.60 L 2609.18 1497.61 L 2612.98 1495.44 L 2616.43 1494.71 L 2619.71 1495.27 L 2622.44 1497.14 L 2624.44 1500.08 L 2625.64 1504.30 L 2625.68 1511.21 L 2623.51 1519.39 Z" fill="#fee0bc" fill-rule="evenodd" node-id="362" stroke="none" target-height="39.900024" target-width="27.619873" target-x="2598.06" target-y="1494.71"></path><path d="M 2481.47 1519.60 L 2485.69 1526.89 L 2490.63 1531.79 L 2494.47 1533.88 L 2497.92 1534.52 L 2501.20 1533.97 L 2503.89 1532.00 L 2505.81 1529.06 L 2506.96 1524.84 L 2506.87 1517.89 L 2504.57 1509.75 L 2500.31 1502.46 L 2495.41 1497.56 L 2491.57 1495.47 L 2488.12 1494.79 L 2484.83 1495.39 L 2482.15 1497.35 L 2480.19 1500.29 L 2479.04 1504.51 L 2479.12 1511.46 L 2481.47 1519.60 Z" fill="#fee0bc" fill-rule="evenodd" node-id="364" stroke="none" target-height="39.72998" target-width="27.919922" target-x="2479.04" target-y="1494.79"></path><path d="M 2613.00 1502.02 L 2611.98 1517.33 L 2609.21 1531.40 L 2604.75 1544.40 L 2598.74 1556.20 L 2591.53 1566.20 L 2583.03 1574.54 L 2573.67 1580.74 L 2563.54 1584.59 L 2552.52 1586.00 L 2541.46 1584.59 L 2531.36 1580.74 L 2521.97 1574.54 L 2513.50 1566.20 L 2506.29 1556.20 L 2500.28 1544.40 L 2495.79 1531.40 L 2493.05 1517.33 L 2492.00 1502.02 L 2493.05 1486.67 L 2495.79 1472.65 L 2500.28 1459.60 L 2506.29 1447.85 L 2513.50 1437.84 L 2521.97 1429.50 L 2531.36 1423.26 L 2541.46 1419.45 L 2552.52 1418.00 L 2563.54 1419.45 L 2573.67 1423.26 L 2583.03 1429.50 L 2591.53 1437.84 L 2598.74 1447.85 L 2604.75 1459.60 L 2609.21 1472.65 L 2611.98 1486.67 L 2613.00 1502.02 Z" fill="url(#paint18_linear_91_427)" fill-rule="evenodd" node-id="366" stroke="none" target-height="168" target-width="121" target-x="2492" target-y="1418"></path><path d="M 2513.70 2307.88 L 2510.25 2330.60 L 2496.31 2332.14 L 2481.05 2336.19 L 2464.08 2343.05 L 2457.30 2348.08 L 2454.45 2351.36 L 2453.04 2354.90 L 2452.57 2358.95 L 2453.89 2360.23 L 2461.91 2361.51 L 2486.68 2361.72 L 2537.50 2359.23 C 2540.69 2359.07 2543.20 2356.44 2543.20 2353.24 L 2543.20 2299.57 L 2513.70 2307.88 Z" fill="url(#paint19_linear_91_427)" fill-rule="nonzero" node-id="368" stroke="none" target-height="62.149902" target-width="90.62988" target-x="2452.57" target-y="2299.57"></path><path d="M 2641.21 2307.88 L 2644.66 2330.60 L 2658.60 2332.14 L 2673.86 2336.19 L 2690.83 2343.05 L 2697.61 2348.08 L 2700.46 2351.36 L 2701.87 2354.90 L 2702.34 2358.95 L 2701.02 2360.23 L 2693.00 2361.51 L 2668.24 2361.72 L 2617.42 2359.23 C 2614.22 2359.07 2611.71 2356.44 2611.71 2353.24 L 2611.71 2299.57 L 2641.21 2307.88 Z" fill="url(#paint20_linear_91_427)" fill-rule="nonzero" node-id="370" stroke="none" target-height="62.149902" target-width="90.63013" target-x="2611.71" target-y="2299.57"></path><path d="M 2481.39 1893.26 L 2505.34 2312.03 C 2505.46 2314.17 2507.25 2315.83 2509.39 2315.80 L 2549.18 2315.26 C 2551.29 2315.23 2553.01 2313.58 2553.12 2311.47 L 2573.43 1925.15 L 2605.01 2311.31 C 2605.18 2313.41 2606.95 2315.02 2609.06 2314.98 L 2646.04 2314.38 C 2648.18 2314.34 2649.91 2312.63 2649.97 2310.49 L 2661.76 1894.20 L 2481.39 1893.26 Z" fill="#153f82" fill-rule="nonzero" node-id="372" stroke="none" target-height="422.57007" target-width="180.37012" target-x="2481.39" target-y="1893.26"></path><path d="M 2748.17 1717.24 L 2754.69 1713.19 L 2761.08 1711.36 L 2767.61 1711.49 L 2771.91 1711.06 L 2774.26 1709.91 L 2775.41 1708.12 L 2782.53 1707.99 L 2784.91 1709.57 L 2784.79 1712.68 L 2782.78 1716.35 L 2780.91 1717.58 L 2778.90 1717.24 L 2789.65 1722.19 L 2799.88 1714.94 L 2807.59 1715.75 L 2812.03 1717.54 L 2814.37 1719.97 L 2815.18 1723.21 L 2814.29 1727.73 L 2811.00 1731.99 L 2806.10 1736.34 L 2800.13 1739.62 L 2792.80 1741.54 L 2784.87 1741.33 L 2775.41 1738.26 L 2769.06 1734.68 L 2763.94 1733.95 L 2748.17 1717.24 Z" fill="#fecca9" fill-rule="evenodd" node-id="374" stroke="none" target-height="33.55005" target-width="67.01001" target-x="2748.17" target-y="1707.99"></path><path d="M 2380.31 1745.29 L 2375.45 1739.36 L 2370.00 1735.53 L 2363.82 1733.57 L 2359.85 1731.73 L 2358.02 1729.86 L 2357.55 1727.81 L 2350.86 1725.38 L 2348.09 1726.11 L 2347.19 1729.09 L 2347.87 1733.18 L 2349.24 1734.97 L 2351.28 1735.31 L 2339.47 1736.46 L 2332.18 1726.32 L 2324.60 1724.57 L 2319.82 1724.78 L 2316.84 1726.36 L 2315.01 1729.13 L 2314.41 1733.69 L 2316.07 1738.81 L 2319.31 1744.52 L 2323.91 1749.55 L 2330.22 1753.73 L 2337.77 1756.12 L 2347.74 1756.33 L 2354.86 1754.97 L 2359.94 1755.95 L 2380.31 1745.29 Z" fill="#fecca9" fill-rule="evenodd" node-id="376" stroke="none" target-height="31.76001" target-width="65.90015" target-x="2314.41" target-y="1724.57"></path><path d="M 2519.63 1608.92 L 2526.32 1613.33 C 2546.78 1626.81 2573.86 1624.30 2591.50 1607.30 L 2641.42 1621.00 C 2666.49 1627.88 2685.44 1648.44 2690.26 1673.98 L 2704.17 1747.81 L 2747.66 1711.49 L 2776.69 1738.05 L 2709.37 1839.16 L 2699.91 1847.90 L 2692.28 1852.63 L 2685.97 1854.47 L 2680.56 1854.17 L 2675.61 1851.83 L 2670.84 1847.14 L 2666.19 1839.16 L 2648.03 1716.39 L 2667.34 1898.08 L 2476.10 1900.04 L 2489.45 1716.47 L 2487.19 1756.38 L 2483.61 1785.71 L 2479.13 1806.55 L 2474.14 1820.79 L 2468.94 1830.04 L 2463.66 1835.58 L 2458.28 1838.48 L 2452.44 1839.16 L 2441.87 1834.77 L 2424.14 1823.77 L 2396.09 1802.63 L 2354.01 1766.99 L 2366.67 1733.10 L 2426.44 1764.52 L 2434.94 1687.49 C 2437.41 1665.11 2450.79 1645.41 2470.68 1634.87 L 2519.63 1608.92 Z" fill="#429cfd" fill-rule="evenodd" node-id="378" stroke="none" target-height="292.74" target-width="422.67993" target-x="2354.01" target-y="1607.3"></path><path d="M 2509.35 1481.15 C 2502.32 1472.50 2488.85 1509.16 2488.85 1481.15 C 2488.85 1481.15 2486.05 1487.25 2483.85 1475.15 C 2480.85 1458.66 2480.35 1455.66 2491.35 1444.16 C 2501.84 1433.18 2490.35 1432.16 2503.35 1414.66 C 2516.35 1397.16 2534.35 1403.15 2553.85 1398.65 C 2573.35 1394.15 2600.35 1414.15 2597.35 1419.15 C 2594.35 1424.15 2612.35 1434.65 2612.35 1439.15 C 2612.35 1443.65 2617.35 1483.16 2613.85 1490.16 C 2610.35 1497.16 2612.35 1486.16 2610.35 1477.16 C 2608.43 1468.52 2592.35 1479.16 2585.35 1477.16 C 2579.58 1475.51 2576.14 1464.80 2571.85 1466.16 C 2562.35 1469.16 2562.35 1481.15 2553.85 1479.16 C 2545.53 1477.20 2542.35 1465.16 2534.35 1468.15 C 2529.91 1469.82 2522.35 1497.16 2509.35 1481.15 Z" fill="#003a8c" fill-rule="nonzero" node-id="380" stroke="none" target-height="115.01001" target-width="137" target-x="2480.35" target-y="1394.15"></path></svg>